<mxfile host="Electron" modified="2024-11-06T05:14:47.078Z" agent="Mozilla/5.0 (Macintosh; Intel Mac OS X 10_15_7) AppleWebKit/537.36 (KHTML, like Gecko) draw.io/21.2.8 Chrome/112.0.5615.165 Electron/24.2.0 Safari/537.36" etag="xQLiDFjJI_2tPhyTC62e" version="21.2.8" type="device">
  <diagram name="Page-1" id="f08vpnCZNT13WmTUPNMs">
    <mxGraphModel dx="821" dy="522" grid="1" gridSize="10" guides="1" tooltips="1" connect="1" arrows="1" fold="1" page="1" pageScale="1" pageWidth="1169" pageHeight="827" math="0" shadow="0">
      <root>
        <mxCell id="0" />
        <mxCell id="1" parent="0" />
        <mxCell id="uXY3sr2Ql3OhQ5Kgx3GS-5" style="edgeStyle=orthogonalEdgeStyle;rounded=0;orthogonalLoop=1;jettySize=auto;html=1;" edge="1" parent="1" source="uXY3sr2Ql3OhQ5Kgx3GS-1" target="uXY3sr2Ql3OhQ5Kgx3GS-2">
          <mxGeometry relative="1" as="geometry" />
        </mxCell>
        <mxCell id="uXY3sr2Ql3OhQ5Kgx3GS-25" style="edgeStyle=orthogonalEdgeStyle;rounded=0;orthogonalLoop=1;jettySize=auto;html=1;exitX=0.75;exitY=1;exitDx=0;exitDy=0;entryX=0.75;entryY=0;entryDx=0;entryDy=0;" edge="1" parent="1" source="uXY3sr2Ql3OhQ5Kgx3GS-1" target="uXY3sr2Ql3OhQ5Kgx3GS-20">
          <mxGeometry relative="1" as="geometry" />
        </mxCell>
        <mxCell id="uXY3sr2Ql3OhQ5Kgx3GS-1" value="" style="shape=image;verticalLabelPosition=bottom;labelBackgroundColor=default;verticalAlign=top;aspect=fixed;imageAspect=0;image=data:image/png,iVBORw0KGgoAAAANSUhEUgAAAgAAAAIACAYAAAD0eNT6AAAABHNCSVQICAgIfAhkiAAAAAlwSFlzAAAPCQAADwkB4bzL8QAAABl0RVh0U29mdHdhcmUAd3d3Lmlua3NjYXBlLm9yZ5vuPBoAACAASURBVHic7N13fGR3eS/+zzlnZs501VFZ7Wql7cXbj3vHhdDM5UIAg7khBYgpiUPKBQPBSYBAAo6DQ8xvMcG5mJCY0GwwLmDi3rS2vLJ319u0Tavep5dzfn/Is5ZXM9KU02bm83699MJoZr7nWWk0z3O+VdA0DUSkP0VRHAAa5n015vn/dQCcAByvfUlL/PdSj2f/WwSQee0r/dqXHv8dBzD52tfEvP8++3szPT09/IAhsimBBQDR4hRFEQEsB9CKpZP5/K+AFfHaSAbANBYWCYsVDSd7enomLImWqMawACB6jaIobQDWvfa1dt7/rgbgtjC0WjMB4CCAQ2f/b09PT9jKwIiqCQsAqjmKokgAtgO4FMD5eD3R1/odeyUYxFwxsA/AEwAe7+npOWltSESViQUAVT1FUdwAzsNcwr8UwEVgsq8mxwE8BuBxzBUEByyOh6gisACgqqQoynYA7wVwGQAFgGxtRGSiUcwVA78B8J+cU0CUGwsAqhqKovgAXA/gowDOtTgcsoc4gB8D2N3T0/OY1cEQ2QkLAKp4iqLsxFzS/wDYtU/5HQDwHQD/3tPTM251MERWYwFAFUtRlPcC+CsAu6yOhSpKAnO9Al/s6ek5bHUwRFZhAUAVR1GU1QD+FcC1VsdCFS0O4EsA/qGnpydldTBEZmMBQBVFUZQPA7gDXJdP+ukD8DYuJ6RaI1odAFGhFEX5SwDfA5M/6WsLgKcURdlodSBEZmIPAFUERVH+AsA/Wh0HVbVxAEpPT88xqwMhMgMLALK912b5P4O5A3OIjPQkgMt7enoyVgdCZDQOAZCtvbaL391g8idzXAzgZquDIDIDCwCyu48A4NgsmelmRVFCVgdBZDQWAGRbrx3a82dWx0E1xw3gk1YHQWQ0FgBkZ+8G0G11EFSTPqEoitfqIIiMxAKA7Oz3rA6AalYTgLdZHQSRkVgAkC0piuLA3El+RFa5yuoAiIzEAoDs6nwAfquDoJrGAoCqGgsAsqs3WR0A1bw1iqKssDoIIqOwACC74t0X2QHfh1S1WACQ7bw2+/pCq+MgAgsAqmIsAMiOLgHgsjoIIrAAoCrGAoDs6EqrAyB6TbuiKOutDoLICCwAyI649S/ZCd+PVJVYAJAdrbQ6AKJ5+H6kqsQCgOyo0+oAiObh+5GqEgsAshVFUfwAGq2Og2ge9gBQVWIBQHbDD1uyG74nqSqxACC74Yct2Q3fk1SVWACQ3fDDluwmxKOBqRqxACC7YQFAdsSJgFR1WACQ3fCDluyI70uqOiwAyG5arA6AKAe+L6nqsAAgu+ESQLIjvi+p6rAAILvhBy3ZUYPVARDpjQUA2Q0/aMmOWJhS1WEBQLahKIoDQNDqOIhyYAFAVYcFANlJvdUBEOXBnimqOiwAyE54l0V2xfcmVR0WAGQn/JAlu+J7k6oOCwCyE3azkl3xvUlVhwUA2Qnvssiu+N6kqsMCgOyEd1lkVw5FUfxWB0GkJxYAZCdcBUB2xvcnVRUWAGQn/IAlO+P7k6oKCwCyE37Akp3x/UlVhQUA2Qk/YMnO+P6kqsICgOyEkwDJzvj+pKrCAoDshHdYZGd8f1JVYQFAdsIPWLIzvj+pqrAAIDvhByzZGd+fVFVYAJAtKIoiAKizOg6iRbAAoKrCAoDsoh6AZHUQRItotjoAIj2xACC76LA6AKIlLLM6ACI9sQAgu+CHK9ldu9UBEOmJBQDZBXsAyO5aFUXhZyZVDb6ZyS7YA0B25wDQYnUQRHphAUB2wQKAKgGHAahqsAAgu+AQAFUCFqpUNVgAkF3wg5UqAXsAqGqwACC7YAFAlYDvU6oaLADIcq/NrG6zOg6iArAAoKrBAoDsoAPcBZAqwwqrAyDSCwsAsoNtVgdAVCC+V6lqsAAgO9hhdQBEBepQFCVkdRBEemABQHbAAoAqCd+vVBVYAJAd7LQ6AKIisACgqsACgCylKEoDgJVWx0FUBBasVBVYAJDVeDdFlYbvWaoKLADIavwwpUqzRlGUgNVBEJWLBQBZjQUAVRoBXA5IVYAFAFmN46lUifi+pYrHAoAsoyhKG4D1VsdBVILLrQ6AqFwsAMhK14PvQapMb1MUpd7qIIjKwQ9fstINVgdAVCIZwO9aHQRROVgAkCUURdkEjqNSZfuQ1QEQlYMFAFmFd/9U6S5RFIWbWFHFYgFAplMURQDwQavjICoT38dU0VgAkBUuA9BpdRBEOuAwAFUsFgBkBXb/U7XYoCjKLquDICoFCwAylaIobnD2NFUX9gJQRWIBQGb7JIA6q4Mg0tEfKooSsjoIomKxACDTKIrSBOBzVsdBpDM/gM9aHQRRsVgAkJm+AIC7p1E1ulFRlOVWB0FUDBYAZApFUVYD+LjVcRAZxA3gr60OgqgYLADILF8F4LQ6CCID/b6iKGutDoKoUCwAyHCKolwE4D1Wx0FkMAeAv7E6CKJCsQAgM3zd6gCITPJ+7gtAlYIFABlKUZT3ALjQ6jiITCIA+LaiKPxsJdvjm5QM89p56f9kdRxEJlPACa9UAVgAkJHuAMClUVSLvqQoSrvVQRAthgUAGUJRlA8AeL/VcRBZpA7ArVYHQbQYQdM0q2OgKqMoSieAveCWv0TX9vT0PGx1EES5sAAgXb02+ek3AK6wOBQiOzgMYEtPT0/c6kCIzsYhANLbn4PJnyhrDYDPWx0EUS7sASDdKIqyDcBzAFxWx0JkIyqAN/f09Pza6kCI5mMBQLpQFMUL4FkA55TahqqqOPv9KAhCmZERlSbXe1EUS+40HQGws6enZ6DcuIj0wgKAyqYoigTgJwCuK+T52UQvSRKcTidkWYbH44EkScYGSlSmZDKJWCyGZDKJVCoFVVUhSVKhheqTAK7o6elJGxwmUUEcVgdAVeGfsUjyzyZ8p9MJn88Hn89nYmhE+nG5XHC53jjCpaoqZmZmEIvFoKoqRFHMVxBcjLlDsf7ChFCJlsQeACqLoih/CeAfzv6+pmlQVRUejwcNDQ3syqeakUwmMTk5iXQ6na9X6109PT0/MzsuorOxAKCSKYryXgD/ibn9zwEAmUwGTqcTDQ0NcDp5+i/VttnZWczOzkIQhPlF8DSAXT09PUcsDI2IBQCVRlGUSwD8GoAMzHWDOp1ONDc3826f6CyJRALj4+PzC4FeAJf19PTMWhwa1TAWAFQ0RVHWA3gKQKOmaRAEAaFQiJP4iJYQjUYxOTmZ/VvpAfA7PT094xaHRTWKBQAV5bUDTp4E0K2qKkKhELv6iYo0MzOD2dlZSJK0H8A1XB5IVmABQAVTFGUVgIczmcyqpqYmuN1uq0MiqmiTk5OIRqOjkiRdyDkBZDYWAFQQRVG2ZDKZx+vr6+v0XMYnCALq6upQV1cHl8sFp9NZzmYrRIbIZDJIJBKIx+OYnJxELBbTrW1N0zA2NpZJJBJX9fb2Pqpbw0RLYAFAS1IU5aJMJvNIW1ubrNc4vyiKWLlyJdra2uBwcDsKqizRaBT9/f2YmJjQrc1wOKxNTEx8dO/evXfq1ijRIlgA0KJ27dr1FkEQftHW1qbbbXkwGMS6devg8Xj0apLIEsPDwzh69CjSaX0290smkxgaGrpj7969H9elQaJFsACgvHbu3Pkxt9t9R2Njoy7r+kRRRFdXFzo6OvRojsgWkskkDh06pFtvgKqqGBwc3CtJ0o6enh5Vl0aJcmABQDlt27btaw0NDX/l9/t1a3PTpk1oamrSrT0iO9m3bx/Gx/Vb0Tc8PDybTqc3vvjii1whQIbgbCtaYNu2bT9vbW3VNfm3trYy+VNVW7Nmja5LYltbWwNer/fE9u3b36Fbo0TzsACgN9ixY0dvR0fHdWcfeFIOj8eD1atX69YekR25XC6sW7dO1zYbGhrExsbGe7du3XqTrg0TgUMA9BpFUYR0Ot2zfPnynXq1KYoiAoEA1q5dywl/VDMGBwcxMDCg61LBWCyG8fHxD/b29v6Hbo1SzeP6KwIApNPpB9vb23VJ/oIgwO/3IxAIwOfzlZX8NU3TbYY1USEEQYAkSSWfadHS0oJEIoFUKoWZmRlEo9GyY/J4PAgEAnfv2rVrbM+ePQ+V3SAR2ANAAHbs2PEPTU1Nf6nHzn5erxd1dXVnzgVobm5GIBDI+/xUKoWTJ0/iyJEjGB8fRzgcRjQaRSwWQyKRQCKRgKpyIjSZy+FwQJZluN1ueL1eeL1eBINBtLS0YNOmTaivr190w6rBwUHE43EAQDwex9TUlC6F7MjIiKqq6pU9PT2Pld0Y1TwWADVu586d7/H5fD+qq6srqx2Xy5XzCODOzs43HBKkaRoikQj6+vrwyiuvYHBwMOcdkiRJkGUZsixzoyAyXbb4TCaTOPszUhAENDQ0oLOzEzt27EBXVxfOnjMzNTWFycnJM/9f07Qz+/+Xa2BgICFJ0pqenp5TZTdGNY0FQA1TFGWLJEm9oVCorMmgPp8P9fX1C7pMs7v9AXNrpZ9//nm89NJLGBkZQSKRADCX6Jubm5E9W4BJn+xE0zQkk8kzBUE4HMbo6ChmZmbOPCcYDGLFihW4+OKL0dXVBUEQEIlEMDIysqC9ZDKJyclJpFKpsmIaGBg47nA41vX09CRLbohqHguAGqUoil9V1aFly5aVtbF/XV1d3i5+p9OJpqYm9Pb24sknnzyzRlqWZYRCIYRCITQ0NHDvf6o4iUQCY2NjGB0dxcTEBFRVhSRJ6OrqwlVXXYXW1lYMDw/nfK2qqhgfHz9TBJcilUpheHj4Z729ve8quRGqeSwAatT27duf7ujouKDUiU6iKKKxsXHREwHHxsbw9NNPY2hoCJqmIRQKobu7G8FgsNSwiWwnk8lgZGQER48eRSwWg8vlwurVq3HRRRch39kZmqZlTwIs+bqRSARTU1OffPHFF79VciNU01gA1KCtW7d+vL29/VulblricDjQ1NSUd9OTeDyOp59+GkeOHIGqqqirq8PatWtRX19fTthEtqaqKk6dOoX+/n6kUim43W6cf/75WL9+fd7XTE9PlzUvYHx8XEulUst6enqGSm6EahYLgBqjKIrf4XBMNjc3lzTI7nK50NzcnLfbfnR0FL/61a8Qj8chyzLWrVuH1tbWsmImqiTpdBqHDx/G6dOnoaoqVqxYgWuuuSbvvJZwOIypqamSr3fq1Kme3t7ec0tugGoWB19rTDqdvqepqamk5C9JEpqamvIm/0OHDuHee+9FPB5He3s7Nm3ahObm5rLiJao0DocDnZ2d2LRpE/x+P06ePIn//u//fsPEwfn8fn9Zw2J1dXXKrl27Liq5AapZ7AGoIYqirHS73cdK6YoXBAGhUGjBcqesp59+Gn19fWcmQmWXFXo8Hu4CSDVnenoamUwGmqbh5MmTGBsbg8vlwrXXXotly5blfM3ExETJcwIGBgZGJElq6+np4Qc6FYw9ADUknU7fU+o4fENDQ87kn06n8ctf/hJ9fX2QZRnr16/H/D0FkkmuUqLakk6nkclkAMwVzp2dnVixYgVSqRTuv/9+HDhwIOfr8v2NFaKxsbFF07QbSw6aahJ7AGqEoiir/X7/4VJO+AsGgzm7KFVVxU9+8hNMTEwgEAigu7s75zgnewGoVmQ3/MkWAPPNzs6iv78f6XQaF154IbZs2bLgOdkVBblev5TTp09HRFEM9vT0cOtMKgh7AGpEOp3+RSnJ3+Px5B2f/PWvf42JiQk0NDRgzZo1eSc5xWIx7udPNSEWi+VN3oFAAOvXr4fT6cQzzzyD48ePL3hOdp5NKUKhkC+TyfxBSS+mmsQCoAZs3759bVNT04ZiX+dwONDY2JjzsT179uDYsWPwer1YuXLlkgenRCKRYi9PVFFSqdSZ/f/zkWUZq1atAgA88sgjOWf/u1yuRc/PyMfpdEKSpG8U/UKqWSwAaoAoij8rpQs+GAzmTOz9/f144YUX4HQ6sXr16oJ28stkMiwCqGoV8/72+Xzo7OxEKpXCL3/5y5zzZILBYN5NhBYTCoWCW7Zsub7oF1JNYgFQ5TZs2FAfCoU2Ffs6p9MJr9e74PsTExP47W9/C0EQsGrVqrybAeWSSCTOzI4mqhbxeBwzMzNFnVrZ1NSElpYWRCIRPPDAAwseFwQBpRzQJUkSPB4PdwakgrAAqHKyLH+7lB3/cq0W0DQNDzzwANLpNDo7O+HzFX+MQCaTwfT0NGKxWNGvJbITVVUxOzuLaDS64MTAQnR0dCAYDGJoaAjPP//8gse9Xi9kWS663YaGhoYtW7bkXmtINA8LgCrn9/uvK/Y12VP5zvbSSy8hHA6jqakp79yAQsViMUxPTyMejxd150RktXQ6jWg0iunp6bJO9RME4czKmb6+vpxFcSnLdp1OJ0RR/NeSA6OawTNXq9jGjRu3rlq1qujB/1xdj6lUCr29vRBFMe9GJsXKZDKIRqOIRqMQRfHMF5HdaJoGVVWhqmpJd/v5SJKEtrY2nDp1Cs888wyuvPLKNzyeHYordoMgn893rW5BUtViAVDF3G73N4s97c/r9eYc13/++eeRTCbR1tZW1Lh/obIfrkS1JhQKYXR0FEeOHMGuXbsWLLv1+XxFFwD19fWejRs3rtu/f/9BPWOl6sLbrSrm9/svKPY1uZYfxWIx7N+/Hw6Hgwf7EOlMEAQsW7YMqqriySefXPC4LMt599jIRxRFyLLMJYG0KBYAVWrDhg3NgUCgqBlEDocj5939k08+iUwmg7a2tpKWJhHR4hoaGuD1enHy5EmMjo4ueLyUTbzcbvelesRG1YsFQJVyOp2fKnY8PddeAYlEAv39/XC5XAiFQnqFR0Rn6ejoAAD09PQseMzr9S652dbZAoFA6UcMUk1gAVClZFl+f7GvcbvdC753+PBhaJqGpqamoj+AiKhwgUAAsixjcHBwwURDURSLPk9DlmVh06ZNb9MzRqouLACqlM/n6yrm+a+NGS74/tGjRwGUthyJiIpTV1eHdDq94JyATCaD5cuXF92eLMs8IZDyYgFQhdavX+/3+/1FnSua6+4iezKZLMs8zY/IBNlC+8iRI2e+l8lk0NXVVdLeG7Isn6tbcFR1WABUIUmSriq2uz5Xgu/v70cmkylpS1IiKp7f74fD4cCpU6cAvJ78sxN0c23PvRhZlhuMiJOqAwuAKuRwOK4q5vmCILD7n8gm6urqkEgkMDg4eCb5z3+sGF6vV/9NO6hqsACoQk6ns6j1/5Ik5Zzgd/r0aTgcjpKWIBFRabIF96lTpxas/y+2AJAkCRs3buQwAOXEAqAKOZ3O7mKen2ttfyqVQjKZLOnAHyIq38jIyILvlTIc53A43qRHPFR9WABUIZfLVdT631wFwOzsLAAYsu0vEeUWDofR399/5r/P5nK5il6O63A4FF2Co6rDAqAKSUVu15fr6dkPHxYAROYIh8M4fPjwmTMx8h2Z7XIVtcAHgiBwBy/KiQVAFZIkqajfa64dA9kDQGSes5M/gLxHDRf7NymKIpfxUE4sAKqQJElF9RHm6gGIRCIAWAAQGS1X8gfmjiCOx+MLnl9CDwBn8VJOLACqULEH9ixWABT7YUNEhcuX/LNyHQxU7N+kKIrFbR5ANYMFQJVZv369u9hDgHIVANnxR/YAEBljqeQPAGNjYwu+V+zfpCAIxZ0lTDWDBUCVEQRh4Yk+S79mwfcymUzex4ioPIUkfwBIJpMLvldsgS8IwsJxBCKwACAiMlWhyZ/IaCwAiIhMwuRPdsICgIjIBEz+ZDecHEJUBQRBgNPphCiKZ76AuaVkqqpCVVWkUikmH4sw+ZMdsQAgqmAul+vMVyEymQxSqRTi8TiTkUmY/MmuWAAQVSCXywWPx1PSng+SJMHtdiMejyMWi0HTNIOiJCZ/sjMWAEQVRBAE+P1+XfZncLvdkGUZ4XA477azVDomf7I7TgIkqhCSJKGurk7XzZmyBYXbXfT2EbQIJn+qBCwAiCqAw+FAMBgsehOYQgiCAK/XC5/Pp3vbtYjJnyoFCwAimxNFEYFAwPBdGWVZZk9AmZj8qZJwDgBRDg6HY8GyOlVVoWkaMpkM0um0KePmgiCYkvyzvF7vmZUCRhMEAS6XCw6HA4IgLFi6mMlkkEwmKyaZMvlTpWEBQPQaURTPTIzLlXDPnnGvaRqSySRisZhhH/put7vomf7l8vl8mJqaMqx9p9MJj8cDh2Ppj59sQRKPx5FIJAyLqVxM/lSJWAAQAfB4PHC73UXdaQuCAFmWIcuyIUvqRFGEx+PRrb1ir5s9EVIvDocDXq+3oMQ/nyRJ8Pl8cLvdiEajtluxwORPlYpzAKimiaKIYDAIj8dTVje72+3WfZKeFck/q9hiaCmyLCMYDBad/OeTJAmBQMDSn8vZmPypkrEAoJolSVLZSens9urq6nRpL9u7YBU9r6/3CgOPxwO/369be6Vi8qdKxwKAalJ2cp3ey+qy6+rLbVevoqQcem02ZMTKApfLZemyRSZ/qgbWf8oQWcCI5J+VXbY3MzNT8pyAQvf2N5LT6YQgCCX/G5xOJ7xer85RvU6WZaTTadMnB1Za8q+vr2++8cYb3/BLXL58uTp/iEfTNC2TyUyl0+n+TCbzQiaT+dJXv/rVk6YHS6ZiDwDVHLfbbfgddna//VLZoQcAKC8OM+7QvV6vYYVcLpWW/AFAFEUhk8lg/pckSeL8L4fDIcmy3OTz+ZRgMPjRYDB47HOf+9w/WB07GYsFANUUQRBM2+zG7XaXnJzMTGqLKTWOcv7txRAEwbRJgZWY/EslSZIYDAb/8pZbbjlqdSxkHHt8yhCZRJZl05JrqcWGIAimbfyzlFJ/VmbO1Dfjd1pLyX8+j8fT/fnPf/67VsdBxmABQDXF7LH1Uq5nl+QPlBZLdu6AmYz8vdZq8s/y+Xy//5nPfGar1XGQ/lgAUM0QRdH0sfVSrqnnZkLlKiUWPU8rtPqatZ78gbk5BE6n85+tjoP0xwKAaoZVE+tKKQDsUgSUkviqpQBg8n+dJElrrI6B9McCgGqGVRPrSrmuXQqAUuKopJ9zPkz+b+RwOFqsjoH0xwKAakYlJaZMJmNAJMVLp9NFPd/KCYx6XZfJfyGHw+H6zGc+Y/3mFKQrFgBUMyopMdnhwJtMJlN0ErRyAqMeBR6Tf26v/V6N29WJLMECgGqGVd3qpSSTZDJpQCTGx2Bl4iz32kz+VGtYAFDNsOqDvZTCQ1VVS3sBNE0ruQix6udcznWZ/KkWsQCgmmHVh3up4/mxWEznSAqXSqVKjtuKn3M5KyeY/KlWsQCgmmHVHXWp102n05bErGkaotFoya+3IuZSr8nkT7WMBQDVDE3TTE9O6XS6rOQSiURMn7sQj8fLitmK+QulXJPJn2odCwCqKWYfHVtuMlRVFeFw2LQiIJlMlj30kD1xziylFHZM/kQsAKjGJJPJote2l0pVVcTj8bLbSaVSpswHSKfTiEQiurRVzhBCsWKxWFEFEpM/0RwWAFRzzJpcp2cSjMfjuiXnXNLpNGZnZ3XraUilUqYMtxRbZDH5E72OBQDVnFQqpcud+WISiYTuY+GJRELXJD2/3ZmZGd3bjUQihiZaTdMQDocLfj6TP9EbsQCgmhSNRg27Q9WzK/1sqVQK09PTusxlyGQymJ2dNSzW7PwFo0QikYKHc5j8iRZiAUA1KxwO614EpFIpzM7O6trm2VRVRSQSwfT0NJLJZNF37plMBuFwGDMzM4Z30+s9tJAViUQK7mFh8ifKzZrzUYlsQNM0zM7Owuv1wu12l91eIpEwdJz+bNlEDgAulwtOpxOSJEEUxTfsya+qKjKZDNLpNJLJpOmJMJVKYWZmBn6/H5IkldVW9nfGO3+i8rEAoJoXjUaRTCbh9XrhcBT/J5FOpxGLxSzdujeZTC64IxYEwTbHCmcyGczMzMDtdsPtdpd0aFA8Hi9qxj+TP9HiWAAQYS6Jz8zMwOl0QpZlOJ3ORZNUdu15rsRrF3ZJ/lmapiEWiyEej8PtdsPpdC5ZcGUymTOTNotJ5Ez+REtjAUA0z/zlaw6HA6IonvlSVfXMl1l7CVSjbCEQi8UgiuKZYYvscb6qqkLTtJI3FGLyJyoMCwCiPJjkFycIIjStvCSbLaj0wuRPVDgWAEQGcwoCtjkd2OVyokWU0CQIaJJE+AQBU6qGcVXFmJrByYyKp5NJ9KfN20a3ELK/EU0rtyPYthayrwGyrx4ubz0EUUIqOo1EdAqJ8CTC4ycwfrwXkfGTlsTJ5J+bqqoLKtmjR4+W0pSxm2eQ6VgAEBlEcTlxjSzjXJcTvjzzCXySgA5JRPZP8fe8HgxmVDyZTOK+WBxDFiUzySlj2earEFp9LvxNnXmf5/I1wOVrQCDUjebunehS/hfis2MYP/YiTu59EMnIpCnxMvkTFY8FAJHONjgc+COfF1ucpf15tUsi3uNx451uGfcnkviPaAxTJiU2QRDRtuFSrFTeCZenrqQ23IFmdGy5Bu2brsCpvQ/hZO/9yKSMu3lk8icqDQsAIp14BAE3+X24Qnbp0p5TEPBOt4xrZRfuisbws5ixPbDehg5suvpGeBvadWlPlJzo3PE2tG+8HAcf/R7Gj/fq0u58TP5EpeNOgEQ6aJMk3FYf1C35z+cRBNzo8+Imv8+wir2pawd2/K+bdUv+8zndfmy+9pPo3PF2Xdtl8icqDwsAojJtdjjwzbogusrc5W4pb3HL+Pu6IPwlbKKzmM4db8Pmaz4ByVn+boh5CQK6zn0XNl59IwSx/J8Tkz9R+VgAEJVhuSTh7+oCqBP1Tcr5bHU68IWgH3qVGq3rL0HXuf8b0LmoyCe0SsGaiz9YVhtM/kT64BwAqgqCIECSJEiSBEEQIAjCGzbuKWVDmaUERBF/G/TnneFvlO1OJz7p9+Gfw+WdOxBsXY21l3xIp6gK177xckQmTuH0K48U/dqlkr8oiqirq4Msy5BlGZIkIZlMIpFIIBqNmnpWA5HdsQCg26/ptgAAIABJREFUiiUIwplDcJbauldVVaRSKSQSCd02+PlswIcOg7v983mrW8aRdBq/iJd2LLDLE8Smaz8BUbLmI2D1RdcjPHYCM8OHC35NvuQvCALa2trQ0tKCxsbGRQ8cisViGBkZweDgoKFHFRNVAg4BUEVyOp0IBoPw+XxwuVxLHi4jiiJkWUYwGNTlVLrLZBd2OZ1ltVGuP/B5ESix96Fz13UlL/PTgyCIWHPxBwoeesiX/FtaWnDhhRdi8+bNCIVCS/5ePR4PVq5cifPPPx+bN2/W5RRIokrFAoAqjt/vRyAQKDmJu1wuBINByLJc0uslAB/2ekp6rZ58goD3lxCHp64N7RsvNyCi4vibV6JlzflLPi9X8pckCdu2bcPWrVvh9XqLvrYgCGhvb8dFF12Etra2ol9PVA1YAFDFEAQBwWAQLlf5S+0EQYDP54PX6y36aNq3etyWdf2f7Z0eN5rF4v6Mu897NwTBHn/6Xcq7IEr5e1JyJX+3241zzz0XoVCo7OuLoohzzjkHq1atKrstokpjj08BoiVkk/9Sx8cWy+12w+Mp7i76ne7Seg6M4ATwO0XE4/LUoblrh3EBFckdaEbD8s05H8uV/J1OJ3bt2gW/369rHKtWrWIRQDWHBQDZXvZuvdxx+3zcbnfBwwEdkogVNrn7z7q4iB6RxpXbTFvyV6imrp0Lvpcr+QuCgK1btxZdsBVq1apVaG1tNaRtIjtiAUC2J8uyLt3+iym0wLjQ4DhKscohoa3AYYCmldsMjqZ4zV3b31CU5Jvw193djYaGBkNj2bRpU8lzQ4gqDQsAsjVBEAy74ztbIZPJLrBhAQAAFxWwBbEgSnm7263kkH0ItqwGkD/5u1wurFy50vBYJEniUADVDBYAZGtut7voSXqlcjqdS84xmDu6137aC+gBkH31i064s5In2LLoJj/d3d2GDQGdbdmyZfD5fKZci8hK9vw0I3qN2d2xiw01iADqbTZ+ntVYQHJ0eetNiKQ0msOdN/lnl+yZJbuxEC2gWR0A6YsFANmWJEkQi1ziVq7FCoBGSYRo1wKggLMIXF5jx8/LEUsi7/a+jY2Nuq/+WEpLS4up16sAo7t37y5t20myLRYAZFtGT/zLRRTFvMmmzqbJHwDqCljX7/IETIikNLIvmPex5uZmEyOZ4/P5TJt7UiFetjoA0h8LALIts8Z8z5av1yFi4w7QsLb0yXiphH33vk9EZvI+ZlUiLmWHwSr2itUBkP5YAJBtmd39v9R1x1XVtoOgk+rSkSUjUyZEUpro7ETex6xalsflgG/wK6sDIP2xACDbMmv2/9nyFQApTcNMAYnWChPq0scdJyKTJkRSmsj0aN7HrErEVgxB2dSPdu/efb/VQZD+WAAQnUXT8if54QISrRVGCukBiE5DzaRMiKZ4M+On8z6m1/HNxcpk7Pm7Ntk4gE9aHQQZgwUA2Va+WeFWXndPyppktJTnk0sndjWTwvTpAyZEU5xEdBanj7yU//GENZPPrbqujTwG4KLdu3ePWB0IGYMFANmWVXdgi1336UTSxEgKM6KqOFzgXfLYsRcNjqZ4R/seg5rJH388HjcxGuuva7EEgBcBfAzAFbt37z5ocTxkIHMX1xIVwY5dvwfTaUyoKhotmqCYy1NFFCUTJ14CNM1WBwId6f3too9PTU2ZuhEQAKRSKczOzpp6TaNEIpEIgNvO+vZ+vHFjnySAAwAO7t69257dXKQ7FgBkW6mU+ePVqVRq0TkAGoCHE0m8z+M2L6hFaAAeKqKrOhGZwviJvbY5FCg8OYxjLz+x6HNGRkawYcMGUyeFjo2NLfo+qCSpVCq5e/fuv7Y6DrIf+9zGEJ1F0zQkk+Z2uRdyvf+KxjBjk+TwWCKJI+nihkr6n/sxtAL2DTDD0/fdgXRq8QImlUphctLcFQzDw8OmXo/ICiwAyNZisZhp11JVtaCJXxFNww+j5sWVTxrA96LRol8XnRzA8MGn9A+oSOOnD2Pf0/cV9Nz+/n6Do3ndzMwMxsbGTLsekVVYAJCtZTIZ03oBokUk0/viCZyweJnYz2NxDGZKu5M/3vMzpBMRnSMqnKapePSerxfcEzE5OWlaUj5y5Igp1yGyGgsAsr1oNGr4eGwymSyq0EhpGm6ZCSNs0VBAbyqF70aKv/vPSkQmse/Xd1g2FPDkT7+JEweeLeo1Bw8eNHxeyODgIMbHxw29BpFdsAAg21NV1dAZ2ZlMBnMTpYszkMng72fDMDuFDmZUfGkmjHL7H6YG9uPIU/+hS0zF2P/ML9Dz0L8X/bpoNIq+vj7DisHp6Wns37/fkLaJ7IgFAFWEdDptSBGQyWQwOztbclLpSaZwezhqWhEwqqr4wswsZnVKgqdf+S1OvFDYOLweju59FL++++9Kfv3ExAT279+vexEQDofx0ksvWbb5FJEVWABQxUilUpiZmdHtQzq71rvc9u6Px3Hz9AxmDU4e+1JpfHJyGid1nntwrOdnOPDIbsO3CX7+we/hvjs+jUy6vDkdp0+fxgsvvKDbcMDIyAief/5501ecEFmNBQBVlHQ6jZmZmbK2adU0DdFoVJfkn/ViKo0/mZ7FMYMmBj4YT+CvZmYxZVD398jhZ/HSvV9DIpz/VL5SpRJRPHjXF/DkT7+p25yDyclJPPvss2Ut10ulUnj11Vexd+9e7vtPNYkbAVHFUVUVkUgEiUQCbrcbTqezoE1iVFVFMplELBYzZBz5dCaDj09O4y1uGR/yeVGvw8Y1+1JpfDcaxcsmnEEwO9qP5//rZiw75yp0bn8rHLKvrPbUTBp7H/sRnrv/zkWP+y1VPB5HX18fTpw4ge7ubjQ1NRX0PkgkEhgYGMCJEycs222SyA5YAFDFSqfTCIfDEAQBTqcTTqcToihCFEUIggBVVc98pVIppNNpw1cTZAD8Ip7AbxJJvNvjxtWyjHapuI42FcC+VAo/iSfwpMlnD6iZFE699ACGDjyGjnOuRsua8+GpayuqjejMOA73PoI9D/0/TI+dMijS101PT6O3txcOhwOhUAgNDQ2QZRmyLMPhcCCRSCCRSCAajWJ0dBTT09OGx0RUCVgAUMXL7hhopzHcmKbh7mgMd0djWClJuFB2YafTgRZRQpMowjXvRjWsaRhXVZzMqHgmkcRzqSSmCzjeN8vpdGLHjh3o6upCKBQ68+Xz+TA+Po7R0dEzX319fQVtqpNORHF8z704vudeeBva0dy1C3VtayH7G+D01MHp9gOY694PT40iPDWCkRP7caT3txg8uteS5YXpdBqDg4MYHBw0/dpElYgFAJHBjmcyOB6N4T/nfS8givAJAibUDJIldEoEg0FcfPHFuOyyy3DRRRfB5yu8u/7EiRN47LHH8OijjxY08z06OYgTk78AMDdb/vDhwxAlJ0TJgWTcus2EiKg8LACILDCrqihlUaPX68WHP/xhfOADH4DbXdqBRJ2dnbjhhhtwww034NixY7j99tvx6KOPLvm6bPKfG1ZJAEvs4U9E9sYCgOg1ARfQ5geavBpCXiDoBqbiwHgUGI0KGAoDEYtGGSRJwrvf/W585CMfQUNDg27tdnV14Rvf+AZ6e3tx22234eWXX875vPnJ3whBt4RzV3jRHnRiWZ0TbQEnXA4BgzMpDM2kcHomhb7BOE5N2WeYh6jSsQCgmtYRBC7p1HBpp4ZNIUDMO4lcg6oBe4cFPH4ceOKEgGGTer/b2tpw6623Yt26dYZdY/v27bjrrrvw/e9/H7fffvsbEr1Ryb896MQ7NtfhrRuDuLjbD6e09Az+vsEY7t8/g1/um8be09YfyERUyVgAUE3aGAI+tkvD9rbCB+BFAdjepmF7G/Cp8zU8c0rAd/YIOGLgSbXbtm3DP/7jP6KxsdG4i8zzoQ99CKtWrcLNN9+MSCRiSPJv8jnwl1e24g/Ob4KrgKQ/35Z2D7a0e/B/39SKhw/O4osPnMa+obhusRHVEhYAVFOWB4GP7tJw2crylwNesFzDeR0afnNUwJ0vChgO6xDgPNdddx0++9nPwul06tvwEi6++GLcdddduPHGG9Hb26tb8pdEATddFsJNl7cgIEtlt3fNugCuWrseP3xhAn/9wCDGI1zTT1QM7gRINePiTg3feYeqS/LPEgXgmtUa7rxOxc52/dq95ppr8IUvfMH05J+1YsUK/ODuu7F69Wpd2qv3SPjvD3fjC9e265L8s0QB+OCuRvz242uxua20SZFEtYoFANWED27V8KU3afAYlE8DLuAfr9Fw3fryi4BNmzbhlltuKWhXOyOk02lEwmFIkoRHfvMbeL3estpb2yzjNx9fiyvXBHSKcKHOBhce/uO1uO6cOsOuQVRtWABQ1fvU+Ro+slOD0elUEoFPX6jhhq2lFwGhUAjf+MY3IMuyjpEVLpv8szsm+nw+PFbAEsF8Vja48MDH1mB1k/H/Hq9LxL9f34V3sgggKggLAKpq163X8O6Nxm7/e7Y/3Knhiq7SrvnlL38ZoVBI54gKc3byz1q1ahVuu+22otvzyyL+8/90o8ln3lQjQQDueE8nzmn3mHZNokrFAoCq1vY2DX96vrnJHwAEAJ+9VMO6puJed+mll2Lnzp2GxLSUfMk/64YPfhCBQOFd+KIA3Pm+ldjYav64vNcl4ocf6kKziYUHUSViAUBVye0A/vpyDUWew6MbWQJuuUKFo8Dri6KIT33qU8YGlcdSyR+Yi+87u3cX3Ob1OxvxOxuCeoRXkhX1Lnzprcssuz5RJWABQFXpfZs1NFrcC7wsALxjXWE9EG9/+9uxatUqgyNaqJDkn3XttdeivW3pkwHdDgE3X13cCYJGeN/2BmzhUABRXiwAqOo0uIH3n2N+138u/2ebBncBPdE33HCD8cGcpZjkn3Xrrbcu+ZyPXNiMjjprli/OJwjA376l3eowiGyLBQBVnfefY9xyv2I1eIB3blg8wS5fvtz0u/9Skj8AXHLJJYs+7hAF3HRZSzmh6erKNQHsWl7eMkaiasUCgKpOqTPwjfKmJeK5/PLLTYpkTqnJH5hbFrjY5kAXdvlMnfVfiLdv5rJAolxYAFBVWd0ItPqtjuKN1jcDLb78j5tZAJST/LP+7Kab8j5mx2T7lo3WTUYksjMWAFRVLllhr7v/rEs6c8clyzK2b99uSgx6JH8AuPLKK/M+9jYbJtsNLW50N7qsDoPIdlgAUFU5p9XqCHI7J8+weEtLC0TR+D9DvZI/ANQ3NOT8fpPPgeX19ky02zs4D4DobCwAqKqEvPbsAWjKE5cZu/7pmfwBQHblTvKtAXuN/c/XFrTJrFAiG2EBQFWlyaY3evn2JGhubjb0unonf2BuU6BcBxW1+u2bZNuD9i1OiKzCAoCqhizNncpnR015CgAjewCMSP5ZuZYt2rkHoJ09AEQL2PcvlqhIJgyll0w0+WRfI5N/3muq9hx+AYB0xr6xGc3j8XR++ctfTqXT6fFMJnMknU7/4Ctf+cq/Wh0XWc/GH5lExYmlgGjK6ihym4jl/v7o6Kju1zIj+R89enTB94Zn04Zdr1ynZ+wbmxkcDofD7Xa3+ny+i+rq6r51yy23vPqZz3ym2+q4yFosAKiqjEWtjiC3fAXA2NiYrtcxI/mrqpqz/eFZm1ZfAIZm7BubFTwez7pgMHj45ptvzr+mk6oeCwCqKmNRk/vaCzQRyx2Xnj0AZnX7J5LJnN8fsnUPAAuAs0mSJLrd7p/cd999zAM1ir94qioH9L2h1k2+uEZGRqCqatntmznmPzU5mfP7M/EM9g3FDb9+sVQNeO5ExOowbEmW5fpnn332/1kdB1mDBQBVladO2rMH4PETueNKJBLo7e0tq22zJ/z99re/zfvYffumTYmhGM+fjGA0bN/eCau53e73WB0DWYMFAFWVfaPAlM1uQk9MAycXyYuPPvpoyW1bMdv/n267Le9jv3jFfgXA/ftmrA7B1hwOh3zLLbfYdAcNMhILAKoqqgY8medu2yqPHl88nlILACuSfyQSwZEjR/I+3jcYw6GxhGnxLCWjarj35Smrw7A1QRCQSCSusToOMh8LAKo6P+gTkC5/WF0X0RTw432LFwCnTp3KuaxuMVYkfwB44oknlnzO3/96yIRICvPDFyfRP5F70iK9ThCEC62OgczHAoCqzulZ4N5X7dEL8F8vCwUNSdx9990Ft2lV8geAT3/600s+56d9U3jpdJ51jyaKp1R8+WH7FCN2JggChwBqEAsAqkr//pKAiMUrvyZjwD1L3P1n/eIXvyioF8DK5P/QQw9hcGjphKppwN88OGhCRIv71yfHMMjlf0R5sQCgqjQdB77xlHW9AKoGfPUJAbEC84+qqrj99tsXfY6VyV9VVXzkox8t+PmPHJrF7Y/rv8thoZ47EcHXHuHdP9FiWABQ1XqkX8AP9lpTBHy7R8CzA8Vd+/HHH8cLL7yQ8zErkz8A3P2DH2B2drao13zxgdN44ID5M/AHplO44e5jSKRrd/9/okKwAKCq9t0XBdP3Brj/kIB7Xintmp/73OcW7A5odfI/evQobrrppqJfp2rAH/7ncew1cT7AbCKD67/fjxGu+ydaEgsAqmqqBnzxfwT86pA5RcA9rwj4ehlDD6Ojo/jzP/9zJBJzS+msTv6RSASXXX556a9Pqnjrdw6b0hPQP5HE1XccNrXgIKpkLACo6qUywNeeFPAvzwkw6sTalDo35v+vz5d/jX379uGWW25BKpWyNPmrqoo3XXUVotHyTlgKJ1R84Pv9+JcnjJsT8PjRMN70rYN4dcRmu0AR2RgLAKoZ/71PwE0PiDg0oW+7L48An7xfxAOH9etl+OlPf4o777zTsuSfTqfx7ve8B4cOHdKlPVUDPn//afzuXUfxio7nBYxF0vi/9w3gXf92FJOxjG7tEtUCh9UBEJlp7zDw0XtFXL1Kwx/t1NDqL72tE9PA7j0CntB558FwOIzDhw/jE5/4BF588UV87Wtfg5mzGCanpnDppZfi9OnTurf98MFZ/PrQq/jdbQ347NVt6G50ldROOKHiX54Yxb88MYJwwia7PhFVGBYAVHM0AA8fFfA/xwTsWqbh4k7gohUamjxLv3Y4Ajx1QsATJ4EXB/UfUsgm/+wJgXfeeSf27t2Le3/+c7hcpSXLYvT19eGqq69GOm3cJDpNA+7pncSPXprEzg4v3r65Dm/fXIe1zfKirxuLpPGr/TP45b5p/M/hWcQ5y5+oLCwAqGalVOCZUwKeOQXcCgGrGoFlfg3NXqDZCwTdcwcLjUeB0ShwelZAf+6TcHVxdvLPeu6557B6zRrceeedePO11xpy7Vgshr/527/F7t27DWk/F00D9pyKYs+pKP7mwUGE/A60BZxoDTjQ4nfC5RAwPJvCyGwaQ7MpDM6kDJvDQVSLWAAQYa5X4MgEcGTCmn0D8iX/rEgkguuvvx7Lli3DXd/7HhRF0eW66XQad3z72/jiF7+oS3vlGA2nMRpOo8/6TQSJagILACILOAUJAdGFGTWBqdmZRZP/fKdPn8a1b34zVq1ahU9/+tO4+qqr0NLSUtS1M5kMDrz6Kn50zz2449vfRipV3Ha5AoBGtwN+p4jRWBpRu5y8RERFYQFAZLAmyYsLPZ0419OBNkcATZIXAXFuPF+DhvFEGIPLpnE0MooHh17GQ0MvYzq1+Fr2o0eP4pOf/CQAwO/342Mf/SjOPfdctLa1oamxEcFgEC6XC5FoFFOTkxgbG8OpgQH8+Mc/xgMPPFBU/FubPHjLyiDetDyAZT4XQh4HnOLrPSXhlIrhaAoHp+L41YkZPHh8BmNxbsRDZHcsAKjiCYIAl8sFp9MJQRAgiiIEQYCqqtA0DaqqIplMFn2nWw4RAq71rcHv+Ndhg9wMIc88fgECmuUAmuUAttQvxzs7diClZvDU2GF8t/9x/Gpw75LXCofD+Matt+oaf9Al4RNbQnjf2gas8C8++dDvFOGvk7G6TsZbVtYhc4mGZ4Yi+PbLY7j/+LSucS3G5XIhFAqhoaEBLpcLsixDkiQkk0kkEgnEYjGMjY1hcnLSsuWVRHbCAoAqlsPhgMfjgdPpzPm4KL6+zYUsy9A0DclkEtFo1NAEcLF3JX6/bidWOOtKer1TlHB5y3pc3rIez0304+9euRfPjB/ROcrcZEnAH25qxqe3t6JBlkpqQxIEXNzux8Xtfjw/HMHf9gzhqcGwzpG+rqGhAd3d3WhoaIAgLCy03G73mf/u7OxEKpXC6dOncezYMVOLQiK7YQFAFUcURXi93qKXxQmCAFmW4XK5EI/HEYvpu2VsnejG55qvwDZ3m25tntfYjfsu/VPcc+I5fPql/0IiY1zC2tDgxt3XdKE7uPhyvGKc2+rDfW9bjR8enMCfP3kKiYx+hZfX68XatWsRCoWKep3T6cTKlSvR0dGBY8eO4fjx4+wRoJrEnQCpojgcjjPj26USBAEejweBQCDnHWMpupz1+Gbb23VN/vO9t/M83HfJn6DVHTSk/Td3BvHgdWt1Tf7zXb+uET9762o0u/W552hqasJ5551XdPKfz+FwYM2aNdi2bRscDt4LUe1hAUAVw+VyIRAIvKFrvxxOpxPBYLDs9hRPB25rfRvaHGVsK1iAHQ0r8fDlf4FNwWW6tvvRzSHcfU03/E5jPw7Oa/Xh4Xeuxaoyi4zly5dj+/btuiXt5uZmnHvuuZBlY4ofIrtiAUAVwel0wufz6XbHniVJUlk9Ad3OBny+6Qp4xNzzEPTW7qnHDy74GEJyQJf23tZVh69cuAyiSdsfdAZc+OGbu1HnKm1+QXNzM9avX6/7+8Dn82Hbtm2QpNLiIqpELADI9kRRNCT5Z0mSBL+/+Lv3OsmNW0JXmZb8s5Z7G3DX+X8El1hestrU6MYdl3eaes4AAKypk/FvV62Eo8iqw+fz4ZxzzjHsfRAMBrFp0yZD2iayIxYAZHter1e3bv98nE5n0fMKPtd0heHd/vmc19iNL2353yW/3uMQ8YNruuEzuNs/nys6AvjcruLmS6xbt87wsfrW1lY0Nzcbeg0iu2ABQLbmcDhMOQQHmCs0CnWJd6VhE/4K9Xtdl5Q8H+DjW0LoDJjzc83nj7eEltxjIKuxsRFNTU0GRzRn9erVplyHyGosAMjW5q/hNpooigUVGxIE/EH9LhMiWpwoCPjCpncU/bomtwOf2lL67Hm9uEQBn9nVWtBzu7q6jA1mnkAgUNbqAqJKwQKAbCu7w5+ZCrnem/1r0eEwZjlesa5u24yLmtcU9Zo/296CQImT8PT23jWNWN+weJHncrnQ0NBgUkRzij1fgagSsQAg28q3w5/R11xqktlbfOtMiqYwN6y8sODnSoKA960xN5kuRhSA69cuHk8oFDJs4p+drklkNhYAZFtWFACCICw60azZ4cNa2Zyx6EJd07YZDqGwP+UL2nxo1GkzHr28rWvxLZPNvvsHXt9wiqiasQAg2zJ65n8p173AvSLvwT5WqXd6cUFzYRPX3tJpv6S2Kihj4yLDAFZt0MONgajasQAg27KqC3ax657r6TAxksK9qWVjQc+7crk+Gwjp7aoV+QsTFgBExmABQLZlVQGwWA9Aq0Xr/pfS6S1sWMLqpX/5rPDnH+6xap9+7gpI1Y4FANmWVSe0qaqa97EmqfC9AszU5l766OGAS4LXYc8/+TZv/gIgkUiYGMnrksmkJdclMos9Pw2IsHgituK6TkFCULRnt3C7p37J5yyWZK3WbsMCwKrrEpmFBQDZViaTsdV1A6I9u88BoMG1dM9EqQfwmKFOzh9bNBo1MRLrr0tkFhYAZFupVMr0a6qqmrcAmFET0GDNsMRSxhKzSz8nZv7Ps1CjsXTex8bGxkyMZE44HEYsFjP9ukRmsteCYKJ50uk0VFU1dTngYkXH1OwMxhNhNOt0FK+ehmLTSz5nMJo/yVptMJJ/vH1ychKpVMrUfSFGRkZMu5bRVFXF+Pj4os9JpVL9JoVDNsICgGwtkUjA4/GYdr14PJ7z++FwGIcPH8ZQx7Q9C4D40gVAIqNiMpFBwyLd7VYZWqQ40TQNg4OD6OzsNCUWTdMwNDRkyrXMoKoqpqamlnraoBmxkL1wCIBsLR6PmzYZMJlM5uz+zyZ/VVVxJDxqSizFKjSuw1O5CxyrHZ5efMLdsWPHkE6b04MxMDDA8X+qCSwAyNY0TTNlLFbTtJwf+vOTPwD8Znif4bGU4jcjhcX18Kml5wqYTQPw4ImZRZ+TTCZx4sQJw2PJZDLo72dvONUGFgBke4lEwvA12dFodEFPw9nJHwAeGnoFqkX7E+QzmpjFnonjBT33V8eXHiow2wsjUQxFl56g2N/fv+RYdrleeeUVLv+jmsECgCpCJBIxbFlgPB5f8KGfK/kDwHgyjOcmjhoSR6keGOwreHXCvok4js/aa4Ob+5e4+8/SNA19fX2IRCKGxHHkyJGqmvxHtBQWAFQRNE3DzMyM7ksDY7HYgq7/fMk/665jT+oaQzk0aPj3IuP5zj7zl9XlE0mp+MGrhd/Vp9NpvPDCC5iZKaxoKNSRI0fY9U81hwUAVQxN0xAOh3Xroo1EIgvmFyyV/AHgJyf3YO/USV1iKNdPT72Al4qM5buvjOGETXoBvtU3sugeALkkEgns2bMHw8PDZV8/k8lg7969TP5Uk1gAUEXRNA2RSASzs7MlzQrXNA3JZBJTU1MFd/svaAMabnnl50VfW29JNYOv7PtFCa/T8KUe65e5jcXT+FZfaasqMpkM+vr60Nvbi3A4XPTrNU3DqVOn8NRTT7Hbn2oW9wGgipRKpc5sDuNyueB0OhfdMEhVVSSTSSQSiSWX+hXi8dGD+OmpF/Cu5TtL/jeU67aDD+F4tLRJcT85MokPrmvA5R3W7WnwhWdOI5wqb4nn2NgYxsfH0dLSglAohObm5kVPDwyHwxgdHcXQ0JBhcwmIKgULAKpo2UIAmDs2VhAEiKIIQRD7kwWnAAAfJUlEQVSgaRpUVV10e1+g+OSf9acv/gfWBlpwTt3ysv4NpfjV4F58/cADJb9eA/CHjxzHw+9ci+6g+QccfWvvCO45PKlLW5qmYXh4GMPDwxBFEYFAALIsQ5ZlSJJ0pvCLRqPc3pdoHhYAVDVKGRIoNfkDQCyTxA3PfAcPX/EXCJm4O+C+mdO4cc/3yz6XYDKRwQ0PH8OD162F32neaODDJ2dwy/PGbDynqiqmp+231JHIjjgHgGpWOck/ayA2ifc//e2CtuLVw76Z0/jA0/8fIml9JkIemIzjgw/1YzJhzsmLj5yaxR89chyqvbZSIKpJLACoJumR/LP2Tp3ENf/zdbw4WdhmPKX61eBevPWxf8JATJ+u86wnBsO4+mcHcWDS2G2C73h5FO9/sL/scX8i0gcLAKo5eib/rKH4NK574pv44YlndT8yOKVm8PUDD+D3nv2ubnf+Zzs2m8S19x7Cj3Qal59vKpHBpx47ic8/cxoZm+2iSFTLWABQTTEi+WfFMyn8yQs/wJsfvRVPjR3Wpc2fD7yIi37zZXztwP26FxZni6RU/PH/nMA1Pz+EpwaLX1p3tkRGxe17R7Drnv34j4MTOkRIRHriJECqGUYm//lenDyOdz7xTVzTthkf7LwAV7ZuhFdyFfz6iWQEDw+9gu/1P4E9k8eMCzSPF0ajeMcvj+CaFUG8d009rl4RRNBV+BHCB6fiuP/YNP5t/zgGIvru3EhE+mEBQDXBrOQ/38NDr+DhoVcgS05cFlqHN7VsRKe3EW3uOrR76lHn9GIsMYuh+DQGY1Poj4zh4eFX8Oz4UWQ068fJHz45g4dPzsApCrio3Y/L2n1Y7neh3edEm9eJoEvCcDSFoWgKg5EUDk4n8OCJGRxZ4mhfIrIHFgBU9axI/vMlMqkzxUAlSqkaHh2YxaMD9jtKmIhKxwKAqlqpyV8URdTX18PtdkOWZbhcLqRSKSQSCcTjcUxNTRl2OmEt8Xg8CAaDZzbuAeb2+k8kEohEIiVt80tEhWEBQFWrlOTf0tKCtrY2NDU1QZLyj3urqoqJiQkMDw9jaGgIGme3F8zlcmHFihUIhULw+/2LPjcWi2F0dBSnTp1acGojEZWHBQBVpWKTf0NDA9auXYtgMFjQ80VRRHNzM5qbm9HV1YVDhw5hbMw+x+wCOLMdsl1IkoSuri50dnYuWlzN5/F40NnZiRUrVmBgYABHjx5FMmmPkwyJKh0LAKo6xSR/QRCwdu1adHZ2lnw9n8+H7du3Y2BgAAcOHDA96YqiiKamJjQ3N8Pn850ZshBF8Q3DFpOTkxgZGUE8buyGP7lkf0Yej6ek1wuCgOXLl6O1tRV9fX2YmOCyQqJysQCgqlJM8pckCVu3bkVTU5Mu1+7o6IDX68XevXvPHFBkJJ/Ph+7uboRCobx31C6XCy6XC4FAAKFQCOvWrcPs7CxOnDhh2tBFc3MzzjnnnEVP6SuU0+nEjh078Oqrr+LUqVM6REdUu7gREFWNYu/89Uz+WQ0NDdi+ffuiRxOXS5ZlbNy4ERdccAHa2toK7k7PCgQC2Lx5M84//3w0NzcbFOWcuro6bN26VZfknyUIAjZs2IC2tjbd2iSqRSwAqCoUO+a/Zs0a3ZN/Vl1dHTZu3GhI242NjbjgggvQ0dEBQRDKasvv92P79u3YsGFD2W3lIssytm3bZlgxtGnTpoLnbBDRQiwAqOIVm/wbGxuxcuVKQ2Nqb29He3u7rm2uWLECO3bsgNPp1LXd5cuXY+fOnbq3u3nzZrhche+AWCxRFLFlyxZDe1uIqhn/cqiilbLUb+3atQZG9LrVq1frlpxWrlyJ9evXG3KnDswNXezcubPo4YR8mpqa0NjYqEtbi/F4PFi+fLnh1yGqRiwAqGKVkvzb2toQCAQMjOp1brdbl+TU3NyMNWvW6BDR4rJzA/RgVpEFAN3d3boVLkS1hAUAVaRSd/jTu1ve6Ot5vV6cc845ht35n62lpQWrVq0qq41AILDkBj96cjqdhk9mJKpGLACo4pSa/CVJQkNDg0FR5RYIBOB2u0t+/dq1a3WdQV+Irq6usmK2IhmHQiHTr0lU6VgAUEUp52CfxsZGSyaMlbraoL6+3pLEJooiVq9eXfLrrSgAjFrRQVTNWABQxSj3VL9Sd6ErV6nXLbcrvhxtbW3w+XwlvdaKn7PT6TS9p4So0rEAoIqgx5G+2dPmzFbKdWVZNmUWfT6CIKC1tbWk1+m9nLBQVv1+iSoVCwCyPT2SPwBD16TrfV07jGm3tLQU/RqXy2XahMVc1yaiwrEAIFvTK/kDQDqd1iEic65rh1ntfr+/6O58M85AyMeq32+ViFkdAJmPBQDZlp7JHwASiYQu7ZhxXTOX0S2m2D0TVFW1LBFb9futEgesDoDMxwKAbEnv5A/AkmNwS72uXbqzS4nDip+zqqpIJpOmX7dKJAActjoIMh8LALIdI5I/AExOTuranlHXdTqdttnfvpQCYGJiwoBIFmfV77ZK7N+9e3fG6iDIfPb4lCF6jVHJH5jrIp6ZmdG93cXE43HMzs4W9Ro7LWcrJZbR0VEDIrHfNavIV60OgKzBAoBsw8jknzU8PGxY23pdz05d2aVM6puamjL136CqKguA0t27e/fu/7I6CLIGCwCyBTOSPwCcOnXKtMlimUwGx48fL+l1dpnRXsrPStM0HD161IBochsYGOAEwNIcBHCj1UGQdVgAkOXMSv7AXHI1KzkdP3685DthuyS0UuMYGBhANBrVOZqF0um0qcVGlUgB+AqAbbt37z5tdTBkHfsMNlJNMjP5Z50+fRqtra2G7rQ3OzuLY8eOlfz6qampkrfi1YumaZieni75tfv378fOnTsN3Rjo4MGDlu49UCEyAHoA7AXQB+Dh3bt3c9kfsQAg61iR/IG55NTX14fzzjvPkH3rE4kEent7y/p3jY2NoaOjQ8eoijcxMVHWUMTk5CQOHDiAjRs36hjV606cOIHTp3kDu5RUKjWwe/fuC6yOg+yHQwBkCauSf1YqlUJvb6/ua9aTySR6e3vL7sKfmJiw7GeTNTY2VnYbAwMD6O/v1yGaNxoaGsKhQ4d0b5eolrAAINNZnfyzIpEInnvuOUxNTenS3szMDJ599tmil/3lkslkMDg4qENUpUmn0xgaGtKlrSNHjuDll1/W5fetaRoOHz6Ml19+GZqm6RAdUe3iEACZyi7JPyuZTGLPnj1YuXIlurq6Slr3nslkcOLECfT39+v67zp69Cja29st2RTo+PHjuo6tDw0NIRwOY926dSXPvZidncXBgwe56Q+RTlgAkGnslvyzNE3DsWPHMDAwgK6uLrS1tRV0tGwqlcLw8DD6+/sNmbWfSCRw/PhxdHd36952IdfVWzgcxgsvvIDGxkZ0dXWhoaGhoAmC09PTOHnypG49EkQ0hwUAmcKuyX++VCqFQ4cO4dChQ6irq0NzczPcbjdcLhecTidSqRSSySTi8TgmJiYwNTVleDf0sWPH0NzcXPShPKXSNA379u0z9Pc0MTGBiYkJOJ1ONDc3IxgMQpblM0cJJxIJJJNJRCIRjIyM2GZJJFG1YQFAhquE5H+26enpkpfA6SmTyfz/7d1pbBznfcfx3x4UDx0WRdESZReRbcmO4UMUPbHroI5h1I5d1EgcxFagNkD9Kj5itIjdBEERIECPBA0atECTGujhNmgbG0kbpEdQwDnqxDma+FFEybZIhRZEyaJIcblckrsk9+DO9AVFRfEuKc5ydp/Z2e8HICTN7g7/Lx7N89tnnnkeHTt2THfeeWdDNggaGRlROp2u+++RlgPX+Pi41bkOQCtjEiDqqhk7/7DJ5/M6duxY3VcHfPvtt3X27Nm6/g4A4UEAQN3Q+QdndnZWr732mhYXFwM/t+d5GhkZ0cmTJwM/N4DwIgCgLuj8g7fy2GKQQ/SlUknHjh2ry6Q/AOHGHAAEjs6/fkqlko4ePare3l7t27ev5uWCXdfV2bNnNTo6GpqNhwA0FgEAgaLzb4xUKqWpqSnt3r1bV199tXp6eta1XkAul1MqldLY2FjgqyACaC4EAASGzr+xPM+7NIs+kUhox44d6urq0qZNm9Te3q54PK5isahisahCoaDp6em6zCEA0JwIAAgEnb9d5XJZqVTKdhkAmgiTALFhdP4A0HwIANgQOn8AaE4EANSMzh8AmhcBIGI8z/M9tbvaevaJRGLV1yQ6f6ARqi3/7Pf/nOd5HUHVg2ghAETMyZMn834vEOVyueJYZ2enJFXdEpbOH2iMnp6eimPFYtHXOTzPY6EHVEUAiKBqHfpaqnXkW7ZskVR5saHzBxpn586dFcf8BgDXdReCqgfRQgCIoHK57GuP2mqBYSUAXD4CQOcPNFZXV1fFsRpGAHJB1YNoIQBEULlc9tVDV+vQV/afXwkAdP5AYyWT1ZdpqWEEwP6+1gglAkAElX3eA6j29ssDAJ0/0HgdHZVz91zXrTovZy2e57FCFKoiAERQsVic8/P+agFgZZOZxcVFOn/AgmobPfn99i9JS0tLJoh6ED0EgAgqlUqn/by/UChUHEsmk9q0aZPm5+fp/AELrr766opjNQaA7wVRD6KHABBBpVLp//y83/O8igtLuVzW7t27A60LwPrdddddFcf8buZULpc1NDT0WlA1IVoIABG0tLT0Xb+fuXwUoFwua+/evXIcJ9C6AKxPIpHQDTfcUHF8enra13kWFhb8TRhASyEARFC5XP7uaiv4rWYlAKx0/slkUgcPHlQsFqtHiQDW8K53vavimOu6ymQyvs5TKBT8fQAthQAQQSdPnszlcjlfNwuLxeKvdP7S8jyAavchAdRXtdG3mZkZ34t8FQoFhv+xKgJARM3Pz4/6eb/ruurp6al49ri/vz/IsgBcQSwW0+23315xfGpqyve5CoXC80HUhGgiAERUoVB4ye9nLly4UHGs2kQkAPXT19d3aTOuFZ7n+b7/XygUvBMnTnwryNoQLQSAiCqVSn/t9/G9qampikVGOjs7tX///iBLA7CGhx9+uOLY3Nyc7wWAstmsr/VA0HoIABE1PDw8lc1mKx/wX4PneZqYmKg4/thjjzEZEGiAPXv26Lrrrqs4nk6nfZ8rn8+/GkRNiC4CQITlcjlf6wFIqhoAtm7dylwAoAE+8pGPVBwrlUpV/1+uxXVdFQqF54KqC9FEAIiwfD7/+34fB8zn81UfNfrgBz+oeJzmAtTL/v37qz51c/bsWd+z/2dmZhaHhoZ+EVRtiCau6BE2NDR0fGZmxt/SYVq+4LxTe3u77rnnnkDqAvCrYrGYHnvssYrj+Xxe4+Pjvs83Pz//chB1IdoIABGXy+X+0+9n5ubmNDk5WXH8wQcfVGdnZyB1AfilgYGBSztwXm50dFR+R/FKpZJc1306qNoQXQSAiCsUCk/6nT0sSadPn64YdozFYnriiSeYEAgEaMeOHfrwhz9ccTyXyymV8r+TbyaTybz++uvng6gN0UYAiLjh4eGZVCp1wu/nisWizpw5U3F8165dOnToUCC1Aa1u06ZNeuaZZ6qG6tOnfW3qKWl5Ke/FxcWPB1Eboo8A0AJc133E7y5iknT+/HktLCxUHO/v72eBIGCDYrGYnnrqqaq31aanpzUzM+P7nKlUau71119/MYj6EH0EgBYwODg4kk6nh/1+zvM8jYyMVL0H+cgjj+jaa68NpD6gFR0+fLjqltv5fF4nT570fb5SqaRyucyjf1g3AkCLSCaTD+dyOd+fm5ub01tvvVX1taeeekrd3d0bLQ1oOffee69uu+22iuPlcllvvvmmlpaWfJ8zlUrNJxKJF4KoD62BANAijDGnZmZmflbLZycmJjQ2NlZxPB6P69lnn9U111yz4fqAVvH+979fDz30UNXXhoeHq952u5LFxUXFYrFPGWP8rf+NlkYAaCHJZPJQLfcVpeUJSdUWCEomk3rmmWeq7l4G4Jfi8bgef/xx3XfffVVfP336tO8Nf1ZMT09PxmIxdv6DLwSAFmKMOZPL5f7H73PF0vJ8gKGhoVW/nRw+fFgPPvjgRksEIqmrq0vPPfecbrrppqqvT05O6ty5czWdO5vNKh6Pf8gY4/8/NlparJbOAM3LcZwtyWQys3PnzmQtn29vb9ett96qrq6uqq+Pjo7qhRde8L1zGRBVfX19evLJJ7Vp06aqr8/MzOjNN9+U3907V5w7d84MDg6+ZyM1ojURAFrQ7bff/nRfX9+X29raavp8MpnULbfcom3btlV9fXFxUV/72tc0POz7wQMgMpLJpO6//37de++9q75nfHxcp06d8r3a34p0Ou2VSqU9xhh/uwUBIgC0rP7+/p9cc801v17rqn7xeFzvfve71dPTs+p7zp8/rxdffFFTU1O1lgk0nVgspjvvvFMPP/ywksnqA22e5+nUqVM1rfO/Yn5+XjMzM88cPXr0yzWfBC2NANCiHMfZ4rruxJ49ezZv5Dz79u1TX1/fmu8ZGRnRN77xjZoWNgGayc0336xHH3101Vtk0vLz+kNDQ5qdna3595RKJV24cOGbg4ODH6r5JGh5BIAW5jjObYlEYrC3t3dDk0H37NmjvXv3KpFIrPm+EydO6JVXXtG5c+dqHvIEwqajo0M33nijHnjgAe3cuXPN987Pz+vEiRPK5/M1/z7P8zQ2NnYmmUzeaIwp1nwitDwCQIsbGBh4dPPmzV+/6qqrNnSe9vZ27du3Tzt27Ljie5eWlvTGG2/oyJEjOnPmDBMG0XS2bdumW265RXfffbd6e3uv+H7P8zQxMVF1ky2/xsbGColEYp8xprbHBoCLCADQwYMHv9DT0/PJjo6ODZ+rt7dX119//aoznqs5d+6c3njjDU1OTiqbzWp+fl75fF7FYnHDF0ugFrFYTMlkUh0dHerq6tLWrVu1fft29fb2amBgQFu2bFn3udLptEZHR2ta4OedJicnXdd17zPG/GDDJ0PLIwBAktTf3/9yX1/fA1caxl+PZDKpvXv3ateuXYrHN77URLHIKCcaJx6Przp5z49sNqvTp09v6F7/5WZnZ72FhYWHjhw58nIgJ0TLIwBAkuQ4Tmxpaclce+21A0Gds62tTX19ferr6/M1IgA0s3w+r9HRUaVSqcDOubi4qHQ6/buDg4NfDeykaHkEAPyKgwcPDvb19R0I4pv7ilgspt7eXu3Zs0dbt24N7LxAWBSLRU1PTyudTiuTyQQ6yXVhYUFTU1OfOH78+F8FdlJABABUceDAgf/YtWvXB+rxrX3z5s3avn27tm/frm3btgUy1ArYsLCwcKnTn5ubq8vvyGQy7vz8/CODg4P/VZdfgJZGAEBVBw4c+PPu7u5P+Zns5FcsFrsUCLZt26b29na1tbWpra0tkLkDwEaVy2UVi0UVi0UVCoVLf2YyGS0uLtb1d1+4cCG7tLR089GjRyu34gQCQADAqgYGBp7o6Oh4fseOHbUtF7gB8Xj8UhgIYmIi4MdKp2/jKRTXdTU+Pn48kUgcZHtf1BMBAGu64447fisWi/337t27+UoO1FmxWNTExMTzx48ff9p2LYg+AgCuyHGc95bL5e/t3r27nW/jQH3kcjlvenr6Y8ePH/9727WgNRAAsC6O49xWLpdf3b59+1WbN29o+wAAl/E8T1NTU+VCofCbg4OD37ddD1oHAQDr5jjO9ZK+XS6Xr+/p6VEQKwcCrSyTyWhhYSGVSCTuNsacsl0PWgsBAL44jtMn6UeSrnNdV729vWpra7NdFtBU5ubmlM1mlUgkhiQ9YIxhpj8ajgAA3xzHuUnSjyXt8Dzv0kI/zA8A1rawsKBMJrPyf8VIesgYk7ZcFloUAQA1cRznNyR9R1K7tPzoUltbm3bu3KlYrOFPDQKhVigUlE6nFYvFVv5/DEp6nzEma7k0tDACAGrmOM4hSS9JutTjl8tltbW1qbu7m1sDaHnZbFbZbPbyjl+SZiXdwT1/2EYAwIY4jvNJSV9453HP8+S6rjo7O9Xd3c2oAFpGsVhUJpPR0tLSarfFPmSM+Waj6wLeiQCADXMc50uSPr7a667ryvM8tbW1afPmzeIxQkSJ67qam5vT4uKiXNdVPB5fK/B+0Rjzh42sD1gNO7EgCH8g6dckfaDaiyvr+ruuq2w2q9nZWXmep0Qioba2NrW3t6uzs5NJhAi9YrGoxcVFFYtFlUolua6rRCJxaYj/Cm34R5I+3aBSgStiBACBcBynS9JPJd1a6zlWRgoux60D2FKtLW5gk6pJSQM87ocwIQAgMI7jHJD0M0nB7yMMNC9X0oPGmO/YLgS4HBu8IDDGmGOSPmO7DiBkPk/njzAiACBoX5T0iu0igJB4S9Kf2i4CqIYAgEBd3L/897T8rDPQ6p42xuRtFwFUQwBA4IwxZyWxnzla3UvGmG/bLgJYDQEAdWGM+aqWVwkEWtGspGdtFwGshQCAenpK0jnbRQAWfMYYM267CGAtBADUjTFmRtInbNcBNJiR9De2iwCuhHUAUHeO4/xY0t226wAawJP0HmPMEduFAFfCCAAagbXP0SpeovNHsyAAoO6MMT+W9G+26wDqbEnSZ20XAawXAQCN8mlJJdtFAHX0j8aYEdtFAOtFAEBDGGNOiYlRiK68pD+2XQTgBwEAjfQnkmZsFwHUwfPGGB55RVMhAKBhjDFpSX9muw4gYDlJn7ddBOAXAQCN9iWxTwCi5R+MMSnbRQB+EQDQUBc3Rvm67TqAAP2z7QKAWhAAYMO/2C4ACMgwz/2jWREAYMMPJJ21XQQQAL79o2kRANBwxhhP0r/argPYINoxmhoBALZwGwDN7ofGmDO2iwBqRQCAFcaYE5J+brsOYAMY/kdTIwDAJkYB0KwK4mkWNDkCAGx6UZJruwigBt8yxrCqJZoaAQDWGGMmJJ20XQdQg+/bLgDYKAIAbGMeAJoR7RZNjwAA247aLgDwyZN0zHYRwEYRAGAbAQDN5i1jTNZ2EcBGEQBgGwEAzYY2i0ggAMAqY0xGEoupoJlw/x+RQABAGHBBRTNhBACRQABAGHBBRTOhvSISCAAIAy6oaBZjxpiU7SKAIBAAEAY8UoVmQVtFZBAAEAZjksq2iwDW4W3bBQBBIQDAOmOMK2nCdh3AOpy3XQAQFAIAwoILK5oB7RSRQQBAWHBhRTMYt10AEBQCAMJizHYBwDoQVBEZBACEBRdWNANGABAZBACEBQEAYbckadJ2EUBQCAAIC24BIOwuXHxiBYgEAgDCghEAhB3D/4gUAgDCghEAhB0hFZFCAEBYzIjVABFuU7YLAIJEAEAoGGM8SbO26wDWMGO7ACBIBACECRdYhBntE5FCAECYcIFFmNE+ESkEAIQJF1iEGe0TkUIAQJhkbBcArIH2iUghACBM+IaFMKN9IlIIAAgTLrAIM9onIoUAgDDhAoswo30iUggACBMusAgz2icihQCAMGGSFcJqyRiTs10EECQCAMJk2nYBwCpom4gcAgDChBEAhBVtE5FDAECY8C0LYUXbROQQABAmXGQRVrRNRA4BAGHCLGuEFbcAEDkEAISGMWZJ0pztOoAqGAFA5BAAEDZ800IYEQAQOQQAhA0XWoQRwRSRQwBA2BAAEEa0S0QOAQBhM2m7AKAK2iUihwCAsDlruwCgCtolIocAgLA5Y7sAoAoCACKHAICwIQAgbFLGmAXbRQBBIwAgbAgACBvaJCKJAICw4WKLsKFNIpIIAAiVi3uu88gVwoQAgEgiACCMmHCFMKE9IpIIAAgjvnEhTGiPiCQCAMJoyHYBwGVoj4gkAgDC6H9tFwBcNG6MOWm7CKAeCAAIox9KKtouApD0XdsFAPVCAEDoXFx05Se26wBEAECEEQAQVlx4EQa0Q0QWAQBh9T3bBaDlvWWMedt2EUC9EAAQVj+VlLNdBFoa3/4RaQQAhJIxZknSD2zXgZZGAECkEQAQZl+xXQBaVlrSt2wXAdQTAQBh9u+STtsuAi3py2wBjKgjACC0jDFlSX9puw60nLykL9kuAqg3AgDC7u/EUqxorM8ZY1K2iwDqjQCAUDPG5CV9VFLJdi1oCT+S9DnbRQCNQABA6Bljfi7pj2zXgchLS/roxVtPQOQRANAUjDF/IelTtutAZJ2TdI8xZtR2IUCjxDzPs10DsG6O4zwu6XlJHZZLQXS8Lum3WfUPrYYRADQVY8w/SbpV0suWS0Hzy0v6jKQ76PzRihgBQNNyHOeQlm8L3GG7FjSVgpbXmPisMeYt28UAthAA0PQcxxmQ9DFJvyNpq+VyEF7DWn6s9CvGmLTtYgDbCACIDMdxNks6rOUw8B7L5SAc8lr+tv+3xhj2lgAuQwBAJDmO0y/pkKT3SXIktdutCA2UkvSqljfzeckYM225HiCUCACIPMdxOiTdKemeiz/vFbcKouSMlneOfFXSq8aYYcv1AE2BAICW4zhOQlK/lsPAXZJulLRfhIJmMC7pF5JOSPqhljt8ZvADNSAAABc5jrNby2FgJRCs/HmDWHegkaa13MmPvPNPY0zOZmFAlBAAgCtwHCcu6VpJuyR1X/zZcdnfq/27W4wolCXNarlDz1z2885/X37sbe7ZA41BAADqxHGcpNYOCSv/vkpSm6TkxZ/EFf5+pddX/h7XcidclrR08SeIv+e1vs58zhjDBQYIqf8HXz/mp5SsVdkAAAAASUVORK5CYII=;" vertex="1" parent="1">
          <mxGeometry x="280" y="480" width="120" height="120" as="geometry" />
        </mxCell>
        <mxCell id="uXY3sr2Ql3OhQ5Kgx3GS-9" style="edgeStyle=orthogonalEdgeStyle;rounded=0;orthogonalLoop=1;jettySize=auto;html=1;" edge="1" parent="1" source="uXY3sr2Ql3OhQ5Kgx3GS-2" target="uXY3sr2Ql3OhQ5Kgx3GS-7">
          <mxGeometry relative="1" as="geometry" />
        </mxCell>
        <mxCell id="uXY3sr2Ql3OhQ5Kgx3GS-2" value="" style="shape=image;verticalLabelPosition=bottom;labelBackgroundColor=default;verticalAlign=top;aspect=fixed;imageAspect=0;image=data:image/png,iVBORw0KGgoAAAANSUhEUgAAAgAAAAIACAYAAAD0eNT6AAAAAXNSR0IArs4c6QAAAERlWElmTU0AKgAAAAgAAYdpAAQAAAABAAAAGgAAAAAAA6ABAAMAAAABAAEAAKACAAQAAAABAAACAKADAAQAAAABAAACAAAAAAAL+LWFAABAAElEQVR4Ae2dCXxdVbX/17lD5qRJm050bilUa0nalJYCghVqER4OKIg4D08QQRDx///7V3wo+tD/Y1DQJ444gYo+9VnbJk1rwAe0YNu01MpQoIW2dMzQDDe54/mvnTQ0aW+SO5xhD7/9+dzk3nPP2Xut79rn7nX2sDYREgiAAAiAAAiAAAiAAAiAAAiAAAiAAAiAAAiAAAiAAAiAAAiAAAiAAAiAAAiAAAiAAAiAAAiAAAiAAAiAAAiAAAiAAAiAAAiAAAiAAAiAAAiAAAiAAAiAAAiAAAiAAAiAAAiAAAiAAAiAAAiAAAiAAAiAAAiAAAiAAAiAAAiAAAiAAAiAAAiAAAiAAAiAAAiAAAiAAAiAAAiAAAiAAAiAAAiAAAiAAAiAAAiAAAiAAAiAAAiAAAiAAAiAAAiAAAiAAAiAAAiAAAiAAAiAAAiAAAiAAAiAAAiAAAiAAAiAAAiAAAiAAAiAAAiAAAiAAAiAAAiAAAiAAAiAAAiAAAiAAAiAAAiAAAiAAAiAAAiAAAiAAAiAAAiAAAiAAAjIS8CSVzRIBgIgMCKBDRtmUNReSJY9j+zkDLJTUyhJk/l/FdlUTKlUEaVs8QpRKhkisk7c78nkifdB8TZgk/hnWeJ/iqxAkj8lKWBFKRDsokCgg4LUzicc4u/28vEXKZl8kQpDzXTxxYdGlBNfggAISEngxI+AlOJBKBAwnMD69bO5OX47xePnUDJ1Jjfqp/H/Kooni7kBluP+DQZtCgUj/DpCocCrFAr9kyi4hUL239g5eMFwC0J9EJCWgBw/INLigWAg4BGBRx4J0pgxb+Nn7sspkTybG/jZ3OhXciMf8EgCd4oJBFJUGG6hcHAXhQs3UohW00UXPcY9DSl3CkSuIAACmRKAA5ApKZwHAk4SaGiYRbb1UYolL6JE/I0UE419yoz7UfQYFBUcojHlq/n1GyqJPEXzzu90Ei/yAgEQGJ2AGT84o3PAGSDgLoH6eh6bt66nWOJfuLE/k+KJYrJtd8uUKXcx/aCkiKi0mF8l/L5wsHRivsEOfm0gshspYf8PLV4cGXwC3oMACDhPAA6A80yRIwhwO2ZbVN94NXfnf5y78pdQb6zCqAZf1IFibuTLSvnFDX8xvwbNQRylikQZ4JM82bCR5z+spYULt41yPr4GARDIgQAcgByg4RIQSEvgySeLqbv3Burp+TD1xN5AiUQw7Xm6HhQNfFEBUTk3+mPKiArCTmm6hzP6M692+G9q7fgbLV+ecCpj5AMCJhOAA2Cy9aF7/gRWrSrhyW2f5yf8j/BrtjQz8/PXLLMcRKNfyk/3Fdzgl3PXfohXG7qbWnmJ41/YGXiYXnhpPV11lRg+QAIBEMiBAByAHKDhEsMJiO79NY3Xc9f+Z6i3d54xk/cGm72Iu/fHlvc3/EHfOjpE/IFH+pyBmrpNg8XDexAAgdEJwAEYnRHOAIF+AuuaaikWvZMiPRfxJD7H+reVwSsa+gru3h9bwV39QybxyaDCiyzETyic+BnNX3JQBoEgAwjITgAOgOwWgnz+Eti8OUyHW2+naPSTFOmd4K8wPpUuJvJV8dO+6OLPfCKfT8JSnAv+M08i/BHVLGpEvAG/zIByVSAAB0AFK0FG7wk0Nk7nNfr3UXfPZfy07/rAtvcKjlJigOMPiYl81WN4Mh9P7FMz7Waxv0eJ1I95WeExNVWA1CDgHgE4AO6xRc4qEmjY8HaK9t7NDf8bOIa+ihrkJ3OYfZ1x3MVfxQ2/cAK0SHYnTxz8KQVT99FZZ7+shUpQAgQcIAAHwAGIyEIDAo2N11Akdid1RaZroE32Kogx/XHc6Iunfvm7+bPXr/8KsWLgTxyQ6VscW+DvuWaC60BAFwJwAHSxJPTIjcCaxlt53f4XqTc6NrcMFL9KROebwKqLCH0mJZsDDJH1dXYEnjRJbegKAoMJwAEYTAPvzSHQ0Php7ub/d+qJVpqj9CBNRcCe8VX9y/gGHTburUXrefvjO+isRX8zTncobDwBOADGVwHDAKxp+AA/7d/NDf9EwzTvV7ev4ecnfrGcD+kEAeEIUOp/U83irScO4h0I6E0ADoDe9oV2AwQa1q/grv4HOVTvlIFDRv0XM/kncGeHiNin7xh/viZNcW/Ab4iCX6aaGrGCAAkEtCYAB0Br80I5EtvuxpK/pc7I2cZtxiPML2byV3PDL15o+DO9IWJcV75PBUVfo/nzWzO9COeBgGoE4ACoZjHImxmBpqYiftr/Oc/qv9LIUL2CUiUH75k4juPz+xaqNzNbyXtWKztNX6Pnd30Xew7IayRIljsBOAC5s8OVshKor/8MdUbvoliMp7gbmMSSvsnVRGKGP5ITBLbwtsQ30qJFG53IDHmAgCwE4ADIYgnIkT+BtX89k+KRVdTZMzf/zBTMQcTqn8gT/MSTP7r7nTYgR4Wyf07RxK20dGmL05kjPxDwgwAcAD+oo0znCaxuuIc6u2/i7Xh1CV+XHSMxue80fur3b2e+7ORV9+zDPFHwC7zPwC/UVQGSg0A/ATgAqAlqE1i37jwe6/9vikR5sNvAJMb3J4/Hsj7vTb+KrOD1vFpgn/dFo0QQcIYAHABnOCIXrwnYdoBW1z/Es/vfR6mUmfVYhO2dxI1/yMxOD6+rXJryOjis8K0cTfBHab7DIRCQnoCZP5zSmwUCjkhg/dqzqCPeyMF8zNyeF0/9I1YPH76s5x0HP847Dh7woWwUCQI5E4ADkDM6XOgLgTUN91JH31i/mXVXRPCbzH4Pnvp9qX4jFHqIJwl+kmrr/jLCOfgKBKQiYOaPqFQmgDAZEWhomEC98cepy9AZ/mJW/ySe5jCWd+xDkpWA2D/6BxTpvYXOPbdHViEhFwgMEIADMEAC/+Ul0Nh4GbVHfm/suv5wiGjqJF7Xz+v7kVQg8E+OG3Alxw34pwrCQkZzCcABMNf2ami+Zt1P6VjHxyglHq4MTOXc5T+FJ/pheZ9qxu/gIYF/5SGBR1QTHPKaQwAOgDm2VkvTpqZKau9+miIGd/mLoD7jzNytWK3KOpK01veotOzzNHdudKSz8B0I+EEADoAf1FHmyATWrj2bumJN3OVv5p61Ypb/9MlExejyH7miKPKtRRsplLiC5i85qIjEENMQAlhAbIihlVGzfsMNdKxnk7GNfxFv2zt7Khp/ZSpsBoLatIziob/TM1vqMjgbp4CAZwTQA+AZahQ0KoG/NPyMOjo/YuS2vQKOGO+fykv8xBa+SDoS6OUwwtcijLCOplVTJzgAatpNL6n7o/o9Rse6ztdLsSy0GcfL+8TWvdjEJwtoSp4qZrN+g2oWfoVtbejMViXtpqXQcAC0NKtCSm3aVEEHjjzDa6dnKCS1c6KKBl9s4lNZ4VyeyEkFAr/k6IGf4OiBcRWEhYx6EoADoKdd1dBq/foz6FhkM/VGef9aA1OQu/qn8WS/0iIDlYfKvExwHRX1vJfmnd8JGiDgBwE4AH5QR5lEq9fVUk9kI0XjZrZ+Yl3/DA7uU2ym+rgFXiewg3cVvBS7Cr7OA288JIDZRh7CRlHHCaxbdyF18xp/Uxt/scxv5mlo/HFDCAILyE4+Tjs2zwEOEPCaABwAr4mbXt66DVdSa9dfKZ4IG4migNWeNYVILPdDAoF+AjMoGfgf2rZtPoCAgJcE4AB4Sdv0suo3fJJa239LyaSZ9U40+qLxF04AEggMJcCTQVIb6JnNC4YexicQcI8A5gC4xxY5DyZQ3/iv1N75A278zaxzYqxfjPkjpv/gWoH3pxJo5Y2EVvJGQptP/QpHQMBZAmb+GDvLELmNRqC+/mO8m99PjG38xZO/GPNH4z9aTcH3/QSOsRNwMZwAVAe3CcABcJuw6fmb3vgXim5/NP6m3wY56N/OISHfSrW1zTlci0tAICMCZo7FZoQGJ+VNoPGvVxn95C/G+mfy0C6e/POuSgZmwNtAptbynIB5BuoOlT0igB4Aj0AbV0zD+hXU1lFv7IS/cKi/2x8T/oyr+g4r/Bol7Qupru5Fh/NFdiBAcABQCZwn0PDXOjrWsYnicW4FDUx96/x5tn8hZvsbaH03VN5N4cS52E7YDbRm5wkHwGz7O6/9ag7vG+l6hmJxMzezF939YsIf1vk7X7fMznEH2dYFtHAhzw1AAgFnCGAOgDMckYsgUF8/lqIc29/Uxl9s7DN1Ihp/3A1uEFhAlv0I7dyJCFJu0DU0TzgAhhrecbVtO0jRZDP1GLqxjwA6mXf1Kyt2HC0yBIHjBFZQIvog2TZ6blElHCEAB8ARjMiEVq3ZSF2R6caSqK4iqsKWvsba3yvFbbqGtjff7lVxKEdvAnAA9LavN9qtqf85dUbO9qYwCUupKCWawA4AEgh4Q+A2am6+xpuiUIrOBOAA6GxdL3RrbLyR2rs+7EVRUpZRzEOyUyYQifF/JBDwhoDF8wF+zE6AuU63N5y1LwW/Wtqb2EUF1zSeQx0dT1AyZaYjKdb6z55KJJb9IYGA9wQOkBVcQjU1+7wvGiXqQMDMH24dLOe3Dk1/rKRIZL2xjf/AjH80/n7XRJPLn0x26vdYGWByFchPdzgA+fEz9+pj4b9TNMaD34amiWOJSniHPyQQ8JWAvZTi0bt9FQGFK0sADoCypvNR8DUNv6LuntN9lMDfosWkv3Ecqh0JBOQgcANt33q1HKJACpUIYA6AStaSQda1jVdQ+7H/opQtgzTeyyBi+8/hcf8AfGfv4aPEEQh0c6VcyrsH7hzhHHwFAkMIwAEYggMfRiTwxBMT6LXDeymWMDMaWYBvl5nc+IuZ/0ggIB+Bf1IidTYtXhyRTzRIJCMBPMbIaBVZZTrS/qSxjb+wySSO9IfGX9baCbmI3kihAOYDoCZkTAAOQMaoDD9xdf23qTsyx1gKYtwfkf6MNb9Cil/H8wHeoZC8ENVHAhgC8BG+MkX3rffvfJKSSTPri9jh7/RpWO+vTIU1XtAjvH3wWdg+2Ph6MCoA9ACMisjwEx55JEi9PauNbfyF+U8bj8bf8NtAMfXHUzz4c2wapJjVfBAXDoAP0JUqsrj8N7zDHy96NzSNKScS3f9IIKAUAettPBTwKaVEhrCeEzCzS9dzzIoWuH79m+nIsccolTKznogof6LrXwwBIIGAegQ6KJh4Ey1Yslc90SGxFwTQA+AFZRXLsO0gdfT8t7GNv7CZ6PpH469i7YXM/QQqKBV6ADBAYDgCcACGI2P68fp1P6OeXnP3uK2sICpH17/pt4Hy+tt0Ke8a+AHl9YACrhAws2vXFZQaZbp27Vl0LLKNN/oxs36Ip/656PrXqEabrspRSnGMgEWLjpgOAvoPJYAegKE88EkQ6E3+t7GNv9BfbPSDrn9BAkkPAtUUoG/qoQq0cJIAHAAnaeqQV/26z1CkZ6YOquSkQ3EhUSXP/EcCAb0IfIy2bl2ml0rQJl8CcADyJajT9Zs3l1Bnz106qZSVLhaPeEzmiX/iPxII6EXAooD9PRJxPZBA4DgBOACoCicIHDryG4rFzN3kXjz5ix4AJBDQkoC1kObOuU5L1aBUTgTwqJMTNg0vWr/+DDra8ZyxEf8w8U/DSg2V0hBo4x0Dz+AdA4+m+Q6HDCOAHgDDDD6supHY74xt/AWUCZj4N2zdwBc6EaiicPBLOikEXXInAAcgd3b6XFm//hLqipylj0JZalIQJhrL6/6RQMAEArZ9PW3ZcroJqkLHkQnAARiZjxnf9vY8yBuHmKFrOi3F0z8SCJhDoICC1tfNUReaDkcADsBwZEw5Xr/uOurunWSKuqfoWVSAzX5OgYIDBhC4irZtW2KAnlBxBAJwAEaAY8RXkd5/N0LP4ZQcz0//WPY3HB0c15cATwBP3amvetAsEwJwADKhpOs5axuu561+zY33X8RL/rDVr661G3qNTuCt9MzWC0Y/DWfoSgAOgK6WzUSvnug3MjlN23MmjdNWNSgGAhkRSNFXMjoPJ2lJAHEAZDJrQ8ObiAJLeDneWZSy5/JrKqWSVbyRRwlvy1vMrwI+djySF0/aG7xZTzAoZvHZFLCS3KWdomCgh18d/L6NAoFWsq2XKBzeQlbicVq58h+0puFWauv4D5nUp3CIqIDH5Av4v3gfYlVDx/8HuKoG2F8Vr2Aav1VMYkyl+MX/bf6fEK/koFecKMavKL/E8dJiopmnSaU+hAEBfwik3ky1ix/3p2yU6icBOAB+0N+0qYLaO99HqcRbKW4v4AZ/KjdOFZ6tww8EbBKWH+xAeMlBNOKi+72EX+J/ITf6hbwUz6uxeOEoCHcpnSPhJQeUBQJyENhAtYsulkMUSOElATgAXtBetWoKBQs+zU/zF1Ms8QbqjVUYtexOPMmLJ+4SjjIs/ot191419l7YF2WAgOoEUnQubxe8UXU1IH92BLh/FclxArYdoPrG91Ey8RFu8JdSZ7SS7F7Hi5E6Q9HYl5fyq6T/CV9qYSEcCBhOIECfZwLvNZyCceqjB8BJk9c3XkXR2E38WkLxhHnOVRk/3VfwhjoV3OiL2PpIIAACqhBIUtKeR3V1L6oiMOTMn4B5jVT+zIbm0Nh4PvUm7qSe3qXU0s5924YlEUinksPojuGnfTFhDwkEQEBFAkGODngTC36jisJD5twIoAcgF26PPFJAZZU385P+jRTpmZpLFkpfI8bvRfe+iJ8vxvSRQAAEdCAQ4VUy02np0hYdlIEOoxPAI9vojE6c0dAwjRL2D6ir523Udsy8Pm4xmW/smP6GH138J+oF3oGAHgRKeDXOJ1mVb+mhDrQYjQB6AEYjJL5fu/5sisf+kyK9dZ4t1ctELq/OEcv0xnHDX8nj+5i97xV1lAMCfhDYTTULT+f7nNfKIulOAA7ASBZuaprHT/sPUmfkHKOW7Q0wEcF4xnOk4CpslTuABP9BQH8C9iVUW9egv57QEEMA6erAhg1zeIe8n9Oh1nN9C5aTTi6vjg00/Hji94o4ygEBiQgErmVh4ABIZBG3REEPwGCyTU1F1B19iLq6321kwy/C7Y6rJKrml4jWhwQCIGAigQT/AMyk2tr9Jipvks74lR+w9prGm+loRxsd67zCyMZ/TBnR6dOIJvD2uGj8B2oF/oOAiQS4Zzj1CRMVN01n9ACIcf727npezjfDNOP36Su6+0+rJirjZX1IIAACINBP4EWeDHgGTwYUu2YgaUrAbAdgdcM91Nl9E8/sN7MnREzuE1vi4olf09sbaoFAHgQsexnV1G3KIwdcKjkBMycBim13I7EGau8wcz9Y8dQ/ZQKC+Eh+c0I8EPCVgB34IJcPB8BXI7hbuHk9AGsbP0fHOu7icX4zn/rFWP9k7vJHIB937yzkDgLqEzhCidQUWrw4rr4q0CAdAXN6ANasKeTNLho5gt+bjVzTL2b4Tx7fH8wnXU3AMRAAARAYSmA8hayVfOgvQw/jky4EzHgKbmxcSJHEYeqImNn4F/AeRbN4ywKxrh8JBEAABDImYF2V8ak4UTkC+g8B1K/7EB3rfpASCfNi94vqWM5b806ZyF3+Zvh6yt2BEBgE5CbQzsMAEzAMILeRcpVO71Zhzdr7qK3jF8Y2/iJ+/7RJaPxzvTtwHQiAQCWFAxcAg54E9JwDYNsBWrX2CWrrOkdPs2Wg1Wk83o8Y/hmAwikgAAIjErCtd/P3G0Y8B18qSUC/IQAx2S+e2sGb+MxV0iL5Ch1kk4qn/lLu+kcCARAAgfwJ7OegQNMQFCh/kLLloNcQQFNTJcVSe8xt/NmcMzi0ARp/2e4zyAMCKhOYQs3NdSorANnTE9DHAWhomEYtna9Qdw8//hqYQjzHceYUouIiA5WHyiAAAq4SCFpvczV/ZO4LAT0cgKamSdTZ+w+KRs3cuF5E9pvFjX9RgS+VCIWCAAhoTsC2V2iuoZHqqT8HoKFhAm/h+zz1RHkPWwNT35M/d/sXovE30PpQGQS8IhCjcOE4mj+/y6sCUY77BNTuAehr/GMvGNv4i3C+Yswfjb/7dwpKAAGzCRRQLHah2Qj0015dB6CpqYi6Y/+gnl5e7G5gErP9Z05Gt7+BpofKIOAPgRSGAfwB71qpajoAYp1/R2Q7N/682N3AZHHjP1U0/oUGKg+VQQAEfCFgWW/xpVwU6hoBNR2AVWubqCtyhmtUZM9YBPkpK5ZdSsgHAiCgF4EFtHmzmT2uetnxdW3UcwBWNzxAnd3mhqYcX4VNfV6vvngDAiDgIYEAhUJLPSwPRblMQK1QwI2N19DRY9e6zETe7MXGPsIB0DAFyO46L/HsgffGHi1f2rtjzOzo7sLKRFsgTJpsRR7gW62Ue26KxvGkTd6VMcQ9OEHepZHUX4ijYXV0TKWIXRB/OVHR9bfotLY1kZmx/+maWNURsSdQyu43vBjOS/cYFuAJvumqhtjUy85QvL68BzLni5KpUy9MDRzjwko4hkipeHHdDAxcd/IlqfP4yLqTj77++bnHy6m37A285fobiFJTOXog70Rm8X97EqVoAusk2hyxXFtoN7Byq5vfx/iVZOVa+Ct+kXgd4dee/ldqN6UCz9OiReIYkkME0lUxh7J2OJu/Pn4mtRz9B8XiajktTmEo4GV+c3it/7A3plMFeZtPmd2z/87IT0Ifb//txJKU+B3QLIVLeU+GWTxkw3M2LP5RRzKewNFkcc81R96+f33L+Bl2LCG8QLmS+I2pYidVbCYWPkW8DVS76OI+gcVwQDB4Pjfawimo5Sb9jfx/hsvKHODydvAP4TZ2hDby7+GTVFNz2OUytc1eDQdAzPhv6zxg7nI/NtOsafzkeMrNqGzFtMjuva3n4Zbbjn5nSogSyuoxrODiCa5qLj/jiN9DNW6zYXXBF64QiNjhxHn7r9y77WjJLH5idqWMvDOt5h7HCfwSvQn9ScQBeJBfYhh2Ab+G6yrgrzxLL3BJTWRb9VTcvYHmnd/pWcmKF/S6VaXWY9Xa/6GOLvY0DU1TJmg17l9C0X2bjnxq/ILeHXouYwjzUM2kRUQFZYZWWKidDYF7OxftvWVP3RRKpGRoTE8VvZh7H6dyhPUCJR5AYuxv/40dqt9Rwv4DLV589FSFcGSAgPwOQH3jDdTSfv+AwMb9r+AuZLG7nyZpnN2x59mDV00fnzgs549dvpwLeXhz8mIe30dkxnxRmnT9k9EpR9/80uXlqWhcTqc4xCOvIu6IWkHHRNfiBnYIfkYl5X+kuXOjJtWpTHSV2wFY2zSTOtt3UTxh6Lg/qz2Hu/41GfcXT/57DrzzNG0bf/HkP+UcNP6Z/PLgnFMIbIxOaTv3+cvGUDIpp3Mswo6LPUfU6Ak4ma/oCfgFJe3vU13diyd/aepnOSvagDVi3Y8Z2/iLMbfTeAKtJo2/GPPfdPTaam0bf4tvpUkL0fgP3Lv4nzWBZYX7q747++8HBo23Z52HqxckeJL+vkM8B0/S+QojK1/NX99CQet52tb8B97e+NyRTzfjW3kdgPrGr1NXz3QzzJBGy7HclSyW5GiSxIS/BT3P6KPQyXYZy3GpCnjmNBII5EHgM2XNU84cG30ljyzcvbSHe9EPt7lbhru5c5tnv5uXJT5B27b+jbZuvdDd4uTOXc4hgDVrplJX7x6KJ81cNyWW3pw+VZunf7HUr23fhXrO9hf3t1jqN13MUZXzdpL7JwjSnUzgUKo0MmnnNUXSTgoUvZNz+dlMbEOuR+J5AqkvUc3ip/RQJ3Mt5OwBSHCgCVMbf2G7KRwwRpOuf6GOWOev5VI/oZxIYp0/Gv8+FPiTP4GJge6SN1e37c4/J5dyEEMALcdcytyXbC8iO7CRewR+Qdu28SQHc5J8DkD9hus41C9HkTI0VfDSMRGJS5NkWXanCPKjiTqnqiEi/IkgP0gg4CCB309cM5kfArillTS1sQPwehRBSWXMTizRffchVornCGz9P7zngRJrHrNT8dSz5XIAmppC1NV116liGnJEdK1NGquVsufHnz2oZYS/ASuJ8L6I8DdAA/8dIjAhECkpLQm0OpSd89mk2DeJ9Difr/858nge3UmhwN95fgCv59U7yeUARKLfp2hMGMDMJOL8nxp6U2kWIra/0gqMJryI7Y8EAi4QOLusRV4HQOjbpaUDMGDJGo5xuIl7A75JO3dqG9RDHgdg06aJXKE+NkDfuP9iQk31wN4Y+mgvNvbRR5s0moiNfZBAwAUCl5fvlnsSdET7uDqC//+meHQzPbNZhD3WLsnjABxp+w0lEnJXeDfNL57+T8TbdrMkT/OeE31ZzshmTlEQu/ohgYALBFYUvir3E0GS4wKYkRbwToQbafvWD+umrhwOwOoNM6i750Ld4Gasj4isVcXr/jVMFakOOeqYW2zFJEAkEHCBwIxQh9zDoSIwkDmplHcf/DkHEfqBTkMCcvw4p2K/4vCXYhammWmCXhP/BhuxIKV5N6GIAIgEAi4QqLCicvee6bUKIEML2p/iIYEm2r6dd2hTP/n/67Vq3Vzqjoj9pM1MBTy/RGz4gwQCIAACIKACgXPJTm6iLVuUX67uvwNAyZ9SMmXu0381z5HTcOxfhbsYMoIACIBAjgRm8b4CT9AzWy/I8XopLvPXAaivH8tj/+ZuyiC22ByDWeRS3AkQAgRAAASyI1BFKY5a29z8zuwuk+dsfx2AFN0v7daXXthoHE/8C5jb+eEFYpQBAiAAAi4SKOSNhR7hFQLvdbEM17L2zwGw7QBv+KMkNEesIbr9NZ357wgfZAICIAACahAo4BUCv6ZtW65QQ9wTUvrnADQ0/h+Kx7WNsHQC8TDvxnDM/6C5YQ+GoYLDIAACIKAiAR7PtX5N27dcopLw/jkAPbFPqwTKcVnH6rnu33FOyBAEQAAE1CDAPQHWH9gJeLMa4hL5E8VELP3rPMYb3huairjjo7jIUOWdVdt6+n5nM8w2t6ezvUCv8+33r85LIevXl+V1verl56U8LpaRQDE7AX/iOAHnUk3N8zIKOFgmf3oArOS3eMzE3FTJ3f9IIAACIAACOhIYy3EC1tKOHdJvg+6PA9AbVWqcxNEaKib/VWDpn6NMkRkIgAAIyEVgFiXjf5A9bLD3DkDD+hUUjZu7g4ro+hc7/yGBAAiAAAjoTOBcisfukVlB7x2AeOzzMgNxXTYx+x8JBEAABEDAAAL2Z2jb1g/Jqqj3DkBvXJkZkq4YrbzElWyRKQiAAAiAgJQEvs+TAs+UUTJvHYDGxvMpGjO3BSzmzb3Q/S/jfQCZQAAEQMAtArzbW/JXtHkz7/suV/LWAYinPiOX+h5LU2au7+MxaRQHAiAAAvIQsGkxhQJfk0egfkm8dQCisQtlA+CpPNj211PcKAwEQAAEJCLwBXpmS51E8pB3DkBTUxF3/0+SSXlPZQkw6iIeAkACARAAARAwkUCQktZPZRoK8M4B6I1/hJIpc7e+K0XkPxPveOgMAiAAAq8TsOgsClqfe/2zz2+8cwCScXN3/hNGLjE39IHPdRzFgwAIgIA8BCzrNu4FmCyDQN45APHUAhkU9k2GMjgAvrFHwSAAAiAgD4EyCgfulEEc7xyAaHy8DAr7IkOARz4Kzd352BfmKBQEQAAEZCVg04do69bFfovnjQPQsOECSia9KctvounKF42/2AMACQRAAARAAASIJ+AH7G/4DcKbRjkZv8JvRX0tH1v/+oofhYMACICAfASst9G2zef7KZc3u9IkbanWPnoOvAjd/24xt5fc6FbWmeU7x9yNLTMDNPJZ9vtXj3yCy9/6Xb7L6iF76QkE7mARl/slpkc9AMlZfikoRblY/y+FGSAECIAACEhG4C08F2CZXzJ54wDEk9V+KShFuQXShYCWAguEAAEQAAHjCVh0i18M3HcAVq0qoXjc3BB4oSBR0H3MflUglAsCIAACIJAHAYveTVu2nJ5HDjlf6n7LVFB8Htl2zgIqfyGe/pU3IRQAARAAARcJBDk64HUu5j9s1u47ACn7TcOWbsIXcABMsDJ0BAEQAIF8CHyEdu3yvKfcAwcgdWY+VJS/NuzNQgvlOUEBEAABEDCXQDV1db3Da/U9cACSM71WSqryxBwAJBAAARAAARAYkYD9sRG/duFL9x0Am6TY9MAFdpllGTTbAYgFPO/VyswuTp1lp5zKCfmAwBACHXZhdMgB2T4guqmzFrHoYnrqqXHOZjpybh44AHbFyCJo/q3hQwAdgQq9W8hUQvMKDPX8IvBKoqLbr7IzKhermzLClMVJYSoqeHcW5+d9qvsOQDJVkreUKmdg+E3yYtFsuZ9i8q1biZ58c8D1IJCWwLqe6e1pv5DlYAHmNzluCjt1peN5jpCh+w5Ayi4aoXz9vwq4j1hmiE+Fa47JLF/eskU78s4CGYBAOgKrumfJ3XtWqPnwXjqjuH7MupB27ixzvZjjBbjfOtkpswPhW+4j9qqy5FLO74sv7MzlOmWu6WlVRlQIqhaBzV3jqqSWuKxYavEUFa6QEr2e7Q3gfutk22bPggtYitZDZ8R+IjhvciRQ6kxmMuYSOUxkJ2WUDDIpTOBwqiTSHUmNlVYF0bNZZvborou28WyHMfcdACKzW0CztSebrLKfVF19yMWbxd+sU9z4dx7wVwaUrh2Bqw9duo9SKXl/PcZwL7Xhw5uuVTrbeqtreZ+UsRcOwElF4qNpBL5Y8olEnDTeEKn9ZTapweGuTavQLuvbaYe7m1rGzXa5mNyzF8v/quUenchdOSmuPJM2b/ZkAz33HQB5fVgpLG2CEN1UNOVr1Z/bp62u8QhR+x5t1YNi3hJY9trVBymekHeK/bhKIqwAcLNSWBQOnOtmAQN5u+8ADJSE/0YT+Hrx1dVPli3Td81c6y6iXrlXbRldARVR/p6ORa/tPFIwR1pxi3lR1wQ8/btuH5s0cQBs9I26XlnUKKDoLZX3RfYWTtNzxpyICHiwmXgGrxrWgJTSEdgcm9j2+VcWT5L2FzPEnRLTJvKsLnTrul55bDrL9TK4APd7AAKW2aHSUnIv5fWikg2UEbeC42qrH9q/r2CanlCSHPPo4BY4AQMGx/+MCTwRO61t6a53lVIi6f5vcsZSDTpRRDSdwVHdDY9sOoiIu28tXRwACsTdJSV57ilMDhtsodZA2fTZE//Q8Wj5hXo+Kkc57MG+J3k4APEBBtsd74cncG/Hov3nP/cvY1KxhJwxU0S3/+ypxGFqh1cC3zhNYIoX+wK4720GrJjTZJTKDz0Ap5grTsHK5ZX3Wp+b8JVXugOeBb06RQ7XDiS5yr+2maj1RcQIcA2y+hmL2f7z937w5VteXjiFkhI++Yuu/vE83j/rNCLsaup9hQuHz3C7UA8cANJ34lcm1oEDMBylwm8XvmtG1eSmlrvGXX9AO0dAzAloYwfglb8RdbwKR2C4WmDgcRHkZ/lr791VsfPjhf88WjhbujF/sb6/ivdwO306T/jjWEQY8/enllrWLLcLdn82x5//so06e2rcVkTa/KdNIqrQOBKeQ+AtsruXJZ7f/57YYxXLereNmRPbU1iZbA8UpDTZSyjAATFLJhAV8w9qYTk/UXEUtQCPqxoeKtqh6iNtNl12OLY7Udm1Pjqt/U+dc1JbusZW9UX4kyXIj2jcxYZlYmy/mGP7l3K9FCF+EeTH/zplWV+imoX/7qYgbHmXUyBodpi0pNlzIDOtXfwzxDGjU1aIkn0zUy2bYwhq1XvCGva52+JP3xs8WWVaORQ+L8CPz+zcWiGuziF+1OdP/EcyhQamKYn/fN9J1yMhGS7vxEnNdLssdvtcTgHi/k+DU1zPVW9OWbTM7tl/Z+QnoY+3/3ZiSap7rlP5SpNPmHt/qmbxUxXPoLbM3hZDGpt4KEiJFQu/KXy0SrxuLN/aV/LRZHHPNUfevn99y/gZdizhb4hM0eAn+TeqR7y4t62Nd7cU+5eM4V6qahHwx1/xPDSVhEVZ3GXobnLfAaDgS+6qIHnuCfQApLMQPxX13tbzcMttR78zJUQaMhJd/lXsz1TOYPVle+RLZxEc84pAdbCneN2kP5wemRhOnLf/yt3bjpbM6nvy9kqA0coRK5eEI9DOK1rGshMgAv8YvqnZaMhc+d62xrmS76BM3R8CCNo8HdrgFNWwccvTnCUU3bf9yEetrx69W8/GP8zjqFOWceM/k0mh8c+zumh7eYkVDzVPfXjWPXO27qVQQL7YGKJ3oKWNJ7Lu59gW6Mn0viLaru8H4L4DcOzY40b/BsbMDoNw8k0zzu7Ys+fAO09b0LuDZxxpmAp59vSUc7jrVMPljRqaSwaVPle+ddoTZ6xpDRSG5ZzxGmGxXt7HsS3MXtHtQ13h7hd3k/sOwFVXxShcIGfFdpdtf+5iCCApn3PvheonlyGe/J89eNX08YnD7te7kwv34rN48p+8mGdVI2CKF7h1KuPcwv3VT57+5wivt5fzxyLOv2Ov8Hxu8R/JKwKuPyR580McCpodFi2OXgCe+xx9/Oj11do2/mI536SFaPy9+mnUsJylBa9VPTBz4wFp192Lh5m9B/tXCmjIX0KVdHEAAnskhOudSL3mdoAMQL6t96GjC3uaOaaopmksB+0q4JnTSCCQB4Fry3dMOXNs9JU8snD3UrFS4Ah2vXQX8uu56+IAhB9/XSUT3xg+diaW+onZ/tqaXiz165vtr62GUMxDAo9N/cN4KScFDjBoYQcAkwIHaCj935shAJv+oDSlfIU3vAdArPPXcqnfQL0Q6/yNnuk6AAL/nSAwMdBd8ubqtt1O5OVKHiJA1xFeHYDkNgHXu469cQAuXbGJw03KObnFbROK/Ht49qxYUmNg4sBnnSLIj7aqi3C+IsgPEgg4SOD3E9dM5t9MeX80RIwATG520OJps9LEARC6FRQcTauiCQeFxxw1cyLg+fFnD3KEP32tXDoeEf70ta5vmk0IREpKiwPyTp4Wv2ldEd/4GFKwRg5AONRsiNHSqxkxc1PE98Ye1XtmXJHrwbrS1ycc1Z7A2WUt8joAgn63mb9pHlY812dbejMEIIiFQ7/1EJx8RXX3yieTBxIt7d0xxoNi/CtC7OyHBAIuELi8bLfcm0dEXX9AdYGqUlkecVta7xyAjraHpB7Tcpt0xEwHYE70ZdeXsrhtuhHzD/HWqUgg4AKBFUWvuh4JLi+xYwgKlBe/0S62yPUeIO8cABERsKjg0Gg6a/u9CKJh4GqAilSHd3XMj8ojJgEigYALBGaEOnh9qcQJkwBdNo592OUC+rZed7uME/mHw4+d+GDgu07zJs0UpDTvJhQRAJFAwAUCFVZU7t4zQ1c2uWDqYbJ0P4Cet79eoYL/GEZTMw4b6ACYYVhoCQIgAAJOE7BdjwXhrQOw8q1bqLBA4zVho1SAHp4HkMS2mqNQwtcgAAIgAAJJ2uM2BG8dAKFNYfgJt5WSOv9j5vo/UtsFwoEACICATAQKC593WxzvHYBwwb1uKyV1/se6pBYPwoEACIAACPhOYB/Nn6/RKoABnpdcXG/8MAD21B6oDfgPAiAAAiBwMgGLnjn5kBufve8BEFoUFa52Qxkl8hQzZ9ELoISpICQIgAAI+ELA1tkBKA7/X6M3T2vv8KVOoVAQAAEQAAEFCFj2k15I6U8Uk4sueon+tGo/dffqu0f8SNYTGwOJ0MClRSOdhe8yIGA9fX8GZ7l4ytMu5q1A1vb78+vMs359WV5aql5+XsrjYl0J2NSb8MQB8GcIQJitKGz2ZED0Auh680IvEAABEMiHwLO0dGlLPhlkeq1/DsDKlfdQQdjMAPnCOmIeAGICZFpPcR4IgAAIGELAavJKUf8cAMuyqaTkd14pKl05YjJg6zHpxIJAIAACIAACfhJI1XtVun8OgNAwFb7F6B0CW3kyYIodASQQAAEQAAEQIIqSFTKgB0CY+vLlR6msxNwNghIcFvhYJyo9CIAACIAACAgCj1JNjWfhYv3tARDq2qGPUCBg7mPw0XZBAQkEQAAEQAAEHvESgf8OwOUrXqWyose9VFqqsmK8JLAdvQBS2QTCgAAIgID3BOIULvyTl8X67wAIbQvKPmL0XIDDHPIZe2t7We9RFgiAAAhIRsBe50X8/8FKy+EArLxwN5UW/3WwYEa9F3sDoBfAKJNDWRAAARAYQsCyfjbkswcf5HAAhKLhwFVUEOKW0NAkegFSKUOVh9ogAAIgYDSBo1RSvsprAvI4AJdc0sorAn7qNQBpyhMrAjAhUBpzQBAQAAEQ8IyAZT9Ic+dGPSvveEHyOABCoKKCz/BWwRGvIUhTXguvCIjzpEAkEAABEAABUwgkyUo94IeycjkAy5cnODrgjWRZfrDwv0wRFOigJyGg/dcVEoAACIAACDAB67/orLNf9gOFXA6AIHDpip9SWfE//IAhRZkdHAOi07M4EFKoDCFAAARAwFgCVsq3jfHkcwBELbBSl1A4xIPihqbXjmBCoKGmh9ogAAJGEfgr1dRt8ktjefvaVzf8P2rv+IJfYHwvd+wYosnVvouRrwD23kX5ZiH39XMukVs+SKc0Aav5E3LLP3+O3PLJLp1tnU8LFz7hl5hy9gAIGpet/F8cG2CPX2B8L1fsFNhl7nxI3/lDABAAARBwk4BNa/1s/IVq8joAQrri8AUUDpsbG0AMBSTNHQkRVQAJBEAABDQkkKJA6st+6yW3A7By5V4qL77Jb0i+lS8iBAonAAkEQAAEQEAnAg9SzeKtfisktwMg6Lx95X9SeZlvYyR+G4jEqgCECfbdDBAABEAABJwhYHdSOOH707/QRX4HQEh54NXlVFxo7gL5A9wL0BMTJJBAAARAAASUJmB9leYvOSiDCmo4ANdeG6cxpUt5aaCZ8wFEgKB9XF+wV4AM9wxkAAEQAIFcCWynROq+XC92+jo1HACh9UUXvUQVvG2wqVECYxwieP9hbBvs9B2A/EAABEDAGwIJCtifoMWLpYn3ro4DIAx0yYqHqbL8+97YSsJSxHwAsWugQikWKFRI2hxEtbGDYw7UcEkGBDrsQs83h8lArBOnmPowdoJAdu8s61t0Vt2W7C5y92y1HADB4tKV19OYkvXuYpE4d7FjYGuHxAIOFa0jUKF3C5kyc1RqqJXxyQ0CryQq5I4JHlSv+XDDThnm+XeKJ7+a4bmenaamBf/lshUcJOhZzyjJVtDBo8oECXqpcLbcTzH52jbRk28OuB4E0hJY1zOdvX2JU0FIYuGkEq2brOCHZOr6H6CjpgMgpB9TuohXBpi5SN7mSYF7DxFF5G9bNxXUcEhDjVNUnd4Yja2gpWqrumfJ3XtWqPnwnlO1yrY+RTU1zzuVnZP5qOsALF/eSyUF86i4qM1JIMrkJVYEvPIaUa/cTsDviy/sVIZpLoL2qDUnIxcVcY0/BDZ3javyp+QMSy0rzvBEo0+7j8P9PiwrAXUdAEH0kktaqbTPCdD7KXO42tPnBBwgiskbI+CJ4LzJkUDpcBqofzwiVmYgXLP6hpRLg8Opkkh3JDVWLqkGSRPgpqOsZNABvD2VgPU4L/m79dTj8hxR2wEQHFeuPExhmk9F4S55sHooSYIbn93cExCVZmXJEOVtssp+UnU1j1domlLMv5OdMCQQcJDA1Ycu3cdxP+TdrXVMGYeRU7/5cNBkQ7Oy6SVK2VfIOO4/WFA9LHj55ftp7Ji5PBxgZn+scAL27OfhADl7Ar5Y8olEnL00bVP7y6waz8tAAgEHCHTa4e6mlnGzHcjKnSzE8r9quUcn3FE8w1xtaiErcCktWiT9HDU9HABhl+XLD1JVYg6VFkkRYjHDquLcacIJkHROQDcVTfla9ef2OaesZDnFedvm9j2SCQVxVCWw7LWrD1I8Ie8U+3GVRFgBMFz14h8D651UW/vCcCfIdFwfB0BQXf7udor1zOCxKSXgO14RBoYDurgOSpa+Xnx19ZNly/RdM9e6i3tg5F61JVmVgDhpCNxzbNFrO48UzEnzlRyHiouIJuDpfxhjxMi2ruRJf8psXifvGNMwhDM6bNsBWtuwjto6L8rofB1POm08UVWFVJqFKXn05cNXVE2N7g1KJZhTwgR5WdTUZUQh/pFEAoEsCWyKT2pb9tw7xlAiKeeDWYg7JWZPId6TJUvNjDidI4LZV1Ft3R9V0lbOipYvQctK0aWXXEzjxnzX2L0DXuPhp0M8JULEDJAkxSlYXVP90P59BdPkXt+cK68kL8k8yJE+E7255oDrDCXwROy0tvNeeGeptI2/aPRnTEbjn75+Rvue/BVr/IUqevYADDZSQ+PHqa3jR5RM6ensDNY13ftyXqozdaJUM3bDdrLl0WM3l5zb+YSeC4mDBUSTaomK5F3Fla6q4Jg/BO7tWLT/lj2LJ1NS0id/0e0/fRL3bOnZcZen1Xm8lWf719Y15JmPL5fr7wAIrKvX1VK0t4l6ojx7xcBUwA2SuIELpZqJH705+qeDXz96z4zSlIYrOC32Nytn8zDMLHaz8cNp4F03qspitv85+9536J8thbOlXETSN9uffzLH85g/Nv451Z5itr+Y8KfQmP/JSpjhAAitH3mkgEoqGqmj6wKZusVPNohrn8UNPJGfSMUMXolSOJVs+ffeB2OfbvvFZC0dATEvYOwconIeO4UjIFHN808UEeTnfQcv3f9o67hZUs72F+v7xTp/sdQPs/3TVxSxzl8s9VNktn96JfgnabgvtD2+uuGL1Nn9dWm729wGX1lONLlaqiEBobJFdveyxPP73xN7rGJZ77Yxc2J7CiuT7YGCFI+r65AC3AtQMoGomJ2wQrZBiIdmAjyuKnoKkLQl0GWHY7sTlV3ro9Pa/9Q5J7Wla2xVX4Q/WYL8iAcDsaufGOMvZme1lOulCPGLID8j1EmO8CeC/Ciwzn8EJfq+Mu/X57KVd1Jp2Tyu5K+OBkfL79s5NP9L+4i6JZuoZhFP0rApREkSldLiyYuWCHWsTeIf2j53W/zpe8P/jv/XRkcocjKBABuZnVsrxNU5JLoeLYtfJ5/l42cxSVjME379xfecPPOGfQQzbNH38UTNt+rQ+AsNZaqKwxJ37YvV9XdTZ+RmY3sDxDLBSeN89fZLqXffN7t/HP54+28nlqTk3v48p3oY5n0QxDyAMp5BjSGAnBDqdtHRVHHk/Ycu2b+hZcJMO56QamJOH2vhmIrfBjH2j4l/A9Wvi/2463i8/6GBAzr8N9sBEBZcs/6NFO/9M3X18ECtgamAf39O4yEB0fXnYeKnot4v9/76yFeOfHtaiHgJrW5JdPlXzeWJgDNYM9xmupnXCX0idkH83Neu3Lv9SDFPApTwsTvA9VbMGcIkwKe58f8gN/4c7UuvhF+mAXuubbienYC7KRY3M4qLWC4o5gaE3X8g4af+/Rtbrq1eENnBg44apjCznLSIJ1DxRCokEBiFwN0ddS/f+sqimbxznJxDssW8imiakTEAEuyY/T9K2rfLvqnPKFVs2K/hAAxG09RUxGPjD1NX5F0cN8A8NmLiTzV7/MLrF96/C2mc3bHn2YNXTR+fOCznj12+Ohdy1+nkxTyxin80kUAgQwJPRk87fP5L7xhjR+NyOsUiCqAIBFRkTL3eyj+Cn+RZ/s0ZmlDJ09z5lVcSxSCh1607jRL2L6mjeznPDzCPUZC7r8cfdwQGYcn3rXjy333gXZO1bfzFk/+Uc9D451tRDL1+Y3Ty4XNfuLxa2miARoQCtnmWtPVVajv2Hd5gTsOxyaE3l3mN21D9R/60fu1Z1JP6FXX2LJByjG5k6fP/tpC9fTH+J9YE55nEmP/2ox+zFvQ8I+cTTp769S3nE/sAFPASPyQQyJHAPR11r3z+5doZ0s7EF0sFZ4mYFto1HWLJ0c8onPgSzV9yMEfzKXeZdlZ0xQINDW+ieOoBniNwrpE9AmKi4Fju2q4ak/PQwG29D+/92pG7prliHxkyHTePJ/zNlEESyKA4gTP3fnjPC0fD8lamCRzLQjwY6JPqec3xl6hmMXf7m5XgAGRj74aGaRRP/ohDCl9EMYn3685Gp2zOFcFCxrITUMVPuWKYIMMklvq1771gqpaz/QUDsdRv+vn8BrdThlUCp41A4FCyrHvSP99fLO2kQDE/6PTp/cGDRtBDga/+yrP7b+PZ/U8qIKsrIuo5EcsVVJzpypV76V8uvYRaD5fwZLnbeOncAbeKkjLfOA+JHWohev4Vor2HOJhQT0ZiinX+2jb+goBY54/GP6O6gJNGJzAx2FX65ur2l0c/06czUrxk8UibT4XnXWySb9XfcVfmUqpddJHJjb8giUeWfOtTY+P51Bu/nV/nUyym5/j2SIzErOAx3CMg5gmIHoKTEgc+6+zad0G5lkF+hK4inO/M5XwnZd4jchIifASBUwgcTpV2T9xxTQnJEjL4ZAnFiqEzOMaFCCOsRjrM87h+QcHU9+mss+V1rjxmeeovtscCKF/cihWPsw4X9+nRsP59HEfgFurpXSTlJh9uwO6NEfVyr8DhVo51zyEUhCMgYgqIGcOczos/d4Abf/YQNE2l49H4a2paP9WaEOguLS0JtHR3pThUp4RJhOnu5p1wK/KfIOyidvzjZDfyhMWfUajwzzR/Pn9GGkyg/1d68BG8z53Ayot/yxeLF1Fj42UUTXyaHYLzjNiGWEQyE0MCA8MCYrZwRSmtLHyS1xNqnIrk/H3WmLgxqp1d1tL6aNcYeStYF9/v8jkAUa4gj/Z184cK/8iNPj+ZIA1HAA7AcGTyPb5ixWrOQryINq2fSG30cUrG384OwQLqjVVqv6ywh+9Dfk2p3sezBjVOYmc/JBBwgcDl5bsDjx6sdSFnh7KMirbW9yQ2V3qOn/SbeOnkWt5yqYlqajTcVMQdznAA3OE6NNdzLuYZc3Tn8Rc7BJsqqL3jnZRKXsQzfWt5uGAmry6o0HGJ4fmJ7e7HFh5K29tPoWJvy0NpxhBYUfgqr7WT2AGI+RInZx839Du40d/Or4089+oJWrqUxyCRciEAByAXavlec845HZzFL4+/TuTW0DCL7MAy3mt6ETsHb+D/k3kSUCX/L+f/YkJQmN+L2Wb9kzcViFI4mY4oM0vohCGyeCcmASKBgAsEZoQ6eH2pBElM+BOBf8Svjpj0J5YAi1dY/BQ5kfqi7wlvIs5ltPDSvBbeD5wbdfswz7LdQynawz2mu3le0XN01lnKLj9wgpTTefQ3JE7nivxA4DgBe5W0Mc2csdGcS5zJB7mAQBoC1hvr8RudhgsOOUNA76czZxghFxAAARAAARDQjgAcAO1MCoVAAARAAARAYHQCcABGZ4QzQAAEQAAEQEA7AnAAtDMpFAIBEAABEACB0QnAARidEc4AARAAARAAAe0IwAHQzqRQCARAAARAAARGJwAHYHRGOAMEQAAEQAAEtCOAKCbamdQshayn7/dX4af9Ld7v0u3390e7zlUO69eX5Xpp33Wql5+X8rgYBPIkgB6APAHichAAARAAARBQkQAcABWtBplBAARAAARAIE8CcADyBIjLQQAEQAAEQEBFAnAAVLQaZAYBEAABEACBPAnAAcgTIC4HARAAARAAARUJwAFQ0WqQGQRAAARAAATyJAAHIE+AuBwEQAAEQAAEVCQAB0BFq0FmEAABEAABEMiTAByAPAHichAAARAAARBQkQAcABWtBplBAARAAARAIE8CcADyBIjLQQAEQAAEQEBFAnAAVLQaZAYBEAABEACBPAnAAcgTIC4HARAAARAAARUJwAFQ0WqQGQRAAARAAATyJAAHIE+AuBwEQAAEQAAEVCRgqSg0ZFaHgL2KbHWkzUHSOZfkcBEuAYHMCFhvrMdvdGaocFYOBNADkAM0XAICIAACIAACqhOAA6C6BSE/CIAACIAACORAAA5ADtBwCQiAAAiAAAioTgAOgOoWhPwgAAIgAAIgkAMBOAA5QMMlIAACIAACIKA6ATgAqlsQ8oMACIAACIBADgTgAOQADZeAAAiAAAiAgOoE4ACobkHZ5bc06VS+6gAAHBhJREFUr2J2SnYLQD51CUTVFR2Sq0BA819nFUyguYxWUO8WMpXQ3IBQzzcCFh3zrWwUbAQBOABGmNlHJUNFPT6W7n7RCb3Vcx8gShiWgE0vD/sdvgABBwjAAXAAIrIYgUCocO8I36r/VbRDfR2ggZwELNoup2CQShcCcAB0saSsegSLGmUVzRG5elodyQaZgMApBFK04ZRjOAACDhKAA+AgTGSVhkBR+BtkBdN8ocmhyGEiO6mJMlBDIgLdRL1rJZIHomhIAA6AhkaVSSXrnN2HqLjqBZlkclSWFDf+nQcczRKZgQB7lQ9b8x/tAgkQcJMAHAA36SLvfgLB8huINN7VtF3M1dJ712NUZU8JxCgU+qanJaIwIwnAATDS7N4qbb1ldyOVTnja21I9LC0eIWrf42GBKEprAjbdY52xGisAtDayHMrBAZDDDvpLUVW8kgrL9e3SbN3FQ7bt+tsRGrpNYCMVWLe7XQjyBwFBAA4A6oEnBKyFe9qpqPo8ChXqOWNORAQ82EyU6PWEJwrRksBrFAxdac1diwiAWppXPqXgAMhnE20lsi7Y/QyVnnY1BTV1ApL8u31wC5wAbWuwq4rtJStwiXXmX/a7WgoyB4FBBDSemTVIS7yVioC9+Yx51HJwE8U6xkglmFPCBAuIJtUSFY11KkfkozeBjWQHrrDmrzmot5rQTjYCcABks4gh8tibTq+gSNcqihy5QMt19GITpMrZRFWzeAGExnEQDKmvLqkZ48Ujd/OY/1fR7e8SYWQ7IgE4ACPiwZduE7D/Nussinc+TD1t87V0BIKFRGPnEJVPgSPgdmVSJ/9ubvgfonDwW5jtr47RdJQUDoCOVlVQJ3vTrIkUjX+Rkr0rKB6dTsloCaUSAdJlu90A9wKUTCAq5mGBwnKiUAlPwQ2xU4BpOApW12xEjnEIjHay7d1s8Gauz01E0TUI8pMNQpzrFgE4AG6RRb7OELjt/vwi7NxxY3513O/y86UI+c22f771B9drTQCPH1qbF8qBAAiAAAiAQHoCcADSc8FREAABEAABENCaABwArc0L5UAABEAABEAgPQE4AOm54CgIgAAIgAAIaE0ADoDW5oVyIAACIAACIJCeAByA9FxwFARAAARAAAS0JgAHQGvzQjkQAAEQAAEQSE8ADkB6LjgKAiAAAiAAAloTgAOgtXmhHAiAAAiAAAikJwAHID0XHAUBEAABEAABrQnAAdDavFAOBEAABEAABNITgAOQnguOggAIgAAIgIDWBOAAaG1eKAcCIAACIAAC6QnAAUjPBUdBAARAAARAQGsCcAC0Ni+UAwEQAAEQAIH0BOAApOeCoyAAAiAAAiCgNQE4AFqbF8qBAAiAAAiAQHoCcADSc8FREAABEAABENCaABwArc0L5UAABEAABEAgPQE4AOm54CgIgAAIgAAIaE0ADoDW5oVyIAACIAACIJCeAByA9FxwFARAAARAAAS0JgAHQGvzQjkQAAEQAAEQSE8glP6wZEd3Pj2JYuG3kmUvJbLnEVmzWcJx/Co7LmkX/z/Kr5fIsp4jO7WRggWP0YIFh45/j38gAAIgAAIgkD2BzNqfFm6bXua26TmyaBOFEk00f8nB7Avz9gp5HYCnnhpHReEPMI4PUZwWc+N/nIyVjlAVHxSvuWTbl7ARbqZknGj71o2Ush+igqJf0/z5rekuxDEQAAEQAAEQGEIgp/bHOp3zeBvZ9FmKc9O6bevf+fMvKRp/mJYuZQdBviSfA7B9+1RKJW7lJ/l/ZZAleSGzaRnns4zi0W+yMX5IKbqbFi16La88cTEIgAAIgICeBJxsf4jOZkhnU2H4Ttre/COyrbuotna/TODkmQOweXOYId1EdvJZbrRvYkj5Nf5DKYuhglsoQLuoecvttGtX4dCv8QkEQAAEQMBYAu62P6XcM30zUeoF2dofORyA7dvPpFDg7wzp21wBB8b13aiLJexc/Bt1dz5Jzc1z3SgAeYIACIAACChEwPv2ZxNt23aGDIT8dwC2b30PP/VvZhg1HgJZRFZqCzsB7/SwTBQFAiAAAiAgEwF/2p9aIm7ztm15t98o/HUAmps/yuP8v2EIbj71D8PYKueJhf/FRrh2mBNwGARAAARAQFcCfrc/ZP2O56Zd5yde/xwA0fBa9oOsvJ8TEYO8YuABdgJu8NMIKBsEQAAEQMBDAtK0P/R9dgJu9FDzIUX54wCIbheyvjdEEl8/WN/mJYPv8FUEFA4CIAACIOA+AenaH7qXh6Pf5b7ip5bgvQOwZcvp3O3/UxaFn76lSUGW6SESk0GQQAAEQAAE9CQga/tj2b+kZzbP8xq6tw7Azp0FFLR+z0pWeK1oBuWV8WTEh0gsB0ECARAAARDQi4Ds7U/Ketjr9sdbByAevYVrlJez/bOtwHW8HPGz2V6E80EABEAABCQnIH37Yy2kcFDEwPEseecAbNs2hbX6smea5VyQ/W/shU3O+XJcCAIgAAIgIBcBVdof29v2xzsHwE5+gWtEqVy1Ip00vDwwaImeCiQQAAEQAAEdCCjT/vCS+FDgVq+Qe+MAiI0VRGx/VZJlXUc7d45VRVzICQIgAAIgMAwB1dofomtJyOxB8sYB6N/Vz8nY/m6jKaNY7Gq3C0H+IAACIAACLhNQr/0ppYKQJ+2PV0F4PuSyiZ3Pvq3je3Tb/RLFKnBeReQIAiDgMoHb7h/Yx9zlgpD9sARau3izeB+CzQ4rUAZfWNaH+SzX2x/3ewDEhDqb6jJQWa5TqsqJt3GUSyZIAwIgAAIgkDmBogKiSsUa/37tzqYdOyZmrmhuZ7rvAASDy1k0KzfxfLxKSDx+jI8CoGgQAAEQAIG8CIjfcPVaH6GyRcnYW/LSPYOL3XcALHtpBnLIecpY7gVAAgEQAAEQUJPAWCWf/vtZW4Fz3IbuvgNAtufhDR2DVl7sWFbICARAAARAwGMCKv+Gp2zXQ9N74AAETvfY5M4VV1bkXF7ICQRAAARAwFsCZSotPjsJjUVzTzri+EcPHAC70nGpvcqwAJMAvUKNckAABEDAcQJhD5o4x4V+PUPX204v6Kg7CBP0As/rxsYbEAABEAABJwmEZNp0NmvFXJ+EhhYua5vgAoUIdCgkK0SVkoDVKaVYEAoEHCDghQPAURgUTcmUooJD7D4CNr0KEiCQHwF7b37X42pfCSSSvhafZ+GuO5/uOwA2teUJwb/L4wn/ykbJ+ROw7HX5Z4IcjCZgUaPR+quufExpB6DdbfzuOwCW/ZLbSriWf2ePa1kjY9cJJClIP3G9FBSgN4FA6sesoNKtiN4GGkW7boV/w23aNYp2eX/tvgNA1nN5S+lXBl29fpWMcvMmYH2Pbv/sP/POBhmYTeD2m/5Blv2A2RAU1l7lh7iA9bzb5N13ACza5LYSruXfcsy1rJGxqwTW06GwZ3tqu6oJMvefQKD1FiJ7g/+CQIKsCYiNgFRNdmqj26K77wAEwn9lJdTbEUtIfNT1ORhu29e0/Lmr1rqPDhVcSj+8Nm6a8tDXJQK33x6jYOulnPt3+YXhAJcwu5LtEX6IU6/1EShsChY85gqTQZm67wAsWHCIy9s8qEw13rZy498bU0NWs6Xs4lvlH3y/3ENB+yy644ab0PibXSFc0V44AXfceCM7mDW8Tcu9/XWOFH68dIWSfJmK3/B2Jc30FPW3na4yDbma+4nMf8lvzz7xUYF3Yys+wzf8fyogKUQEARDwisAdN+zkonhIAEkZAu/Zyo4b3aeMvEJQ2xJtpuvJ/R4AoUI0/jD/7XZdG+cK6KZY7LfOZYecQAAEQAAEfCGA9mdY7N44AEuXtpBl/WhYKeT74gESMiOBAAiAAAioTQDtz7D288YBEMXb1l38V4FeALuTwgkhKxIIgAAIgIAOBND+pLWidw5Abe1+luCOtFJIddD6Ks1fclAqkSAMCIAACIBA7gTQ/qRl550DIIpPpO7hroDmtJLIcXAry6jWZBE5uEEKEAABEJCbANqfU+zjrQOweHGcV9FexVJ0nCKJ/we6yApeQ0JGJBAAARAAAb0IoP05xZ7eOgCi+Lq6F7kX4KP8TqaAGkle2/sBqqlxPfSiQIAEAiAAAiDgAwG0P0Oge+8AiOJr6/7ITsD1QyTx74PNKxSuo5pFf/ZPBJQMAiAAAiDgCQG0P69j9scBEMXX1v2QVwZ8jN/5uecu90LYn6aahWLHLyQQAAEQAAETCKD96bOyfw6AKH7hwp+xE3AlN8J+BN3v4G7/K9gR+YEJ9R06ggAIgAAIDCKA9of8dQCELRYu/BPZgTp2ArxcHbCVknYduv0H3Qx4CwIgAAKmETC8/fHfARAVbuHCXdTWsYTH4m92uTcgQrb9VQoXLuufjGhabYe+IAACIAACQwgY3P7I4QAIayxfnuCx+O9Qwj6Td9y6l484GTVQ5HUPR/ibQwvrbqf587HNn2COBAIgAAIgYGz749VugJlXscWLD/DJt9BTT32DCkPvJwp8kHsFlvAxK/NM+s4Uu0A/xU/8v6KCol9zo9+a5fU4HQRAAARAwCQChrU/8jkAA5WtfzOe7/LH79L27RPITiwnK3AON+jz2CGYxf7AeP6u7PjpvOGzfYSP7eZhhOfITm0iK9TE6/oPD2SH/yAAAiAAAiCQEQFD2h95HYDBVupvyMX2vNiidzAXN97fdv8CdqQ+yQ7VRZz9TH6VulEM8gQBTwjcdr/oCTQ5ieHPPdx/up4CqR/T7Tf9w2QYOemucfujhgOQk9VwUVYEbryvkKroXrLpWm785ZkbkpUSOBkEQOAkAsKBn8/39XxKBm6gr9z3AAVab6Hbb8c8qJNAmfgRP/QmWv1knUXjXxlYyzEZPs1foU6czAefQUAPAkG+xz9DyXFr2QEo0EMlaJEPAfzY50NPl2srrW/zU/9yXdSBHiAAAiMSeCs7AXePeAa+NIIAHAAjzDyCkn1j/vSpEc7AVyAAAvoR+DTd9t35+qkFjbIhAAcgG1panism/KHbX0vTQikQGJ5AkCz7E8N/jW9MIAAHwAQrj6ijffGIX+NLEAABPQmkaIWeikGrTAnAAciUlL7nTddXNWgGAiAwLAHLmjHsd/jCCAJwAIww84hKDgRTGvEkfJkTgY6crsJFgwhYfuwUOqh8nd/a5TprB91GJwAHYHRGOAMEciNg06u5XYirThCw9554j3cgAAJOEoAD4CRN5AUCgwlY9rrBH/E+BwIWNeZwFS4BARDIgAAcgAwg4RQQyIFAkoL0kxyuwyWDCYjwtUTJwYfwHgRAwBkCcACc4YhcQOAkAtb36PbP/vOkg/iYLQERu96yH8j2MpwPAiAwOgE4AKMzwhkgkC2B9XQofGu2F+H8YQiI2PVkbxjmWxwGARDIkQAcgBzB4TIQSEOAu6qt++hQwaX0w2vjab7HoVwIiI1rgq2X8qVie3AMB+TCENeAQBoC2A0wDRQcAoEsCHTxTmu83SpP+BNj/rffiG7/LOBlfGr/7nU3cvjaB/oi2IkgNlbfdtVYxpoxRJwIAkMJwAEYygOfsiVwx41WtpfgfBDImcAdN+zka3lIAKmPwG332yABArkSwBBAruRwHQiAAAiAAAgoTAAOgMLGg+ggAAIgAAIgkCsBOAC5ksN1IAACIAACIKAwATgAChsPooMACIAACIBArgTgAORKDteBAAiAAAiAgMIE4AAobDyIDgIgAAIgAAK5EoADkCs5XAcCIAACIAACChNAHACFjQfRQSAjAkVhovGVRGM5Zk55MVEZv8J864eC/ZcnOLhePEHU1UPUya/WLqIj7US9CGaYEV+cBAKKEoADoKjhIDYIjEjgqafGUVH4A32NedUowfIK+GdAvEqLiCZWnci2jR2B92y9kaLxh2np0pYTX+AdCICADgQwBKCDFaEDCAwQ2L59KjVv+TYVhl/lEMXfodEa/4Hr0v3vv/Y+zusV2t58L23bNiXdaTgGAiCgJgE4AGraDVKDwFACmzeHuZG+iezks2RZN/GXJUNPyOtTKdn2zUSpF9i5uJ127SrMKzdcDAIgIAUBOABSmAFCgEAeBLZvP5NCgb9zI/1tzmWU/v48yhFOhWX9G3V3buLegDPyygkXgwAI+E4ADoDvJoAAIJAHge1b38NP/Zs5h5o8csn20lrelXczbdvy7mwvxPkgAALyEIADII8tIAkIZEegufmjPM7/G77Izaf+YWSyyoms39G2rdcNcwIOgwAISE4ADoDkBoJ4IJCWwLYt15JlP8jf+bmSR6wj/D47ATemlREHQQAEpCYAB0Bq80A4EEhDQHT7k/W9NN/4deheam5+l1+Fo1wQAIHcCMAByI0brgIBfwhs2XI6d/v/lAs/HsXHHzFOKjXIvRG/pGc2zzvpOD6CAAhITAAOgMTGgWggMITAzp0FFLR+z8cqhhyX40MZpayHSSxHRAIBEFCCABwAJcwEIUGACcSjt/BfL2f7Z4ndWkjhoIhBgAQCIKAAATgAChgJIoLA8Sh8X5aehG3/G/cCTJZeTggIAiBAcABQCUBABQJ28gssZqkCopZxUKJbFZATIoKA8QTgABhfBQBAegJiYx/L+lfp5Twh4LUkZEYCARCQmgAcAKnNA+FAgAmIXf2cje3vNtZS3l3warcLQf4gAAL5EfAziEh+kuNq5whgv3jnWLqT04fcydbFXC3rw5y7TLEKXFTW56xx//psAHWLt9QVHZLnReDEfvG5bxkr9ouvKvss9ovPyxIjXywm1IUC+/kk1e5Vm4LhybRgwaGRFcS3ORHA/ZsTNlw0lIBqPypDpcen7AmI/eJTiVuPjyk7tWVsN+f3I7Ktu6i2VjRWSE4RaG6+hoPsPORUdt7mY19NtXW/9bZMzUvD/au5gb1VD3MAvOXtX2nYL94/9vmUbNlL87nc12utwDm+lq9T4bh/dbKmNLrAAZDGFC4Kgv3iXYTrdta2uuF1U/aZbtMxIn/cv0aY2Q8l4QD4Qd3LMrFfvJe0XSgrcLoLmXqTpUVzvSlI41Jw/2psXP9VgwPgvw3ckwD7xbvH1rOc7UrPinK+IJVld55Gtjni/s2WGM7PkgAcgCyBKXM69otXxlSjCFo2yvcyf10us3BSy4b7V2rz6CIcHABdLDlYD+wXP5gG3oOAWgRw/6plL4WlhQOgsPHSio794tNiUfggB1tQNnUqK7lfguP+9Yu8keXCAdDJ7NgvXidr9utiU5vCSrUrLLv3ouP+9Z654SXCAdCpAmC/eJ2s2a+LZb+krFI27VJWdj8Ex/3rB3Wjy4QDoIv5t22bwqpgv3hd7Pm6HtZzr79V7U3Ael41kX2TF/evb+hNLhgOgC7Wx37xulhyqB4WbRp6QKFPdmqjQtL6KyruX3/5G1o69gLQwfBiY5DC8KusilOx/d2m0s0bCM2gpUtb3C5I+fx37JhIyfgB1kO1exWbAWVa+XD/ZkoK5zlMAD0ADgP1JTvsF+8Ldk8K7d9Nb7MnZTlbyFPYCTBDoLh/MwSF05wmAAfAaaL+5KfqfvH+0FKv1F8qJ7JtqSezf5Bx//rH3uiS4QCobn6xX7xNdQqqcTaJ7m2k0QlE4w/zSd2jnyjNGd0Ui2Eb4EzMgfs3E0o4xyUCcABcAutZtsHgci5LtfFhgceiZOwt4g3SKATEXAnL+tEoZ8n09QOY35GhOXD/ZggKp7lBAA6AG1S9zBP7xXtJ27+ybOsuLlyBXgC7k8IJIStSJgRw/2ZCCee4RAAOgEtgvcsW+8V7x9rHkmpr93Ppd/goQYZFW1+l+UsOZngyTiPcv6gE/hGAA+Afe4dKxn7xDoGUP5tE6h4iu1liQbdSInWfxPJJKBruXwmNYoxIcACUNzX2i1fehJkqsHhxnJJ0FZ/ekeklHp7XRVbwGhIyImVBAPdvFrBwqsME4AA4DNSH7LBfvA/QfSuyru5F7gX4KJef9E2GUwtO8pTOD1BNDUL/nspmtCO4f0cjhO9dIwAHwDW0yBgEXCJQW/dHdgKudyn3bLO1eYXCdVSz6M/ZXojzQQAE/CUAB8Bf/k6Ujv3inaCoWh61dT8k2/oYi53wUXTuhbA/TTULf+yjDKoXjftXdQsqLD8cAIWN1yc69otX3YK5y79w4c/YCbiSG+HO3DPJ+coO7va/gmrrfpBzDriQTUdtCmNoV1h2iM4E4ACoXg2wX7zqFsxP/oUL/0R2gCNBero6YCsl7Tp0++dnur6rcf86ABFZ5EoADkCu5KS5DvvFS2MKvwRZuHAXtXUs4bH4m13uDYiQbX+VwoXLqG8yol8K61Qu7l+drKmaLnAAVLPYyfJiv/iTiZj5efnyBI/Ff4cS9pkcZflehuBk1ECR1z0c4W8OLay7nebPj5kJ2QWtcf+6ABVZZkpAxRjymepmxnnYL94MO2erZd8e86H38yjfB7lXYAlfnu29bvM1T/ET/6+ooOjX3Oi3ZisCzs+AAO7fDCDhFLcIZPuj4JYcyDcfAtu2Ps2Xn51PFj5cu4lqFy3zoVzzity+fQLZieVkBc7hBn0eOwSz2B8YzyAG1qDzTHT7CB/bzcMIz5Gd2kRWqInX9R82D5YPGuP+9QE6ihQEQsCgBQGx97paDgD2i/eu4vU35GJ7XmzR6x31bErC/ZsNLZzrGAHMAXAMpY8ZYb94H+GjaBDIkwDu3zwB4vJcCcAByJWcTNdhv3iZrAFZQCA7Arh/s+OFsx0jAAfAMZQ+Z4T94n02AIoHgTwI4P7NAx4uzZUAHIBcycl2HfaLl80ikAcEMieA+zdzVjjTMQJwABxDKUFG2C9eAiNABBDIkQDu3xzB4bJcCWAZYK7kZL1uy5bTKWhtYfEqJBNR7Be/GFvGSmYViCMXAdy/ctlDc2nQA6CbgbFfvG4WhT4mEcD9a5K1fdcVDoDvJnBBAOwX7wJUZAkCHhHA/esRaBQDB0DXOoD94nW1LPQygQDuXxOs7LuOmAPguwlcFqC5+V1kpX7BYV7LXS7p5OzFfvEfwpaxJ2PBZxDIggDu3yxg4dRsCcAByJaYiuc3N89lJ4DDwFoLPRJf7Bf/PmwZ6xFtFKM3Ady/etvXR+0wBOAjfM+Kxn7xnqFGQSDgOAHcv44jRYb9BNADYFpN2Lx5MoWCX+Dd3z7Fqpc6pH435/MD3i/+P2j+koMO5YlsQAAETiaA+/dkIvicBwE4AHnAU/pS7BevtPkgvOEEcP8aXgGcUR8OgDMc1c4F+8WrbT9IbzYB3L9m2x/agwAIgAAIgAAIgAAIgAAIgAAIgAAIgAAIgAAIgAAIgAAIgAAIgAAIgAAIgAAIgAAIgAAIgAAIgAAIgAAIgAAIgAAIgAAIgAAIgAAIgAAIgAAIgAAIgAAIgAAIgAAIgAAIgAAIgAAIgAAIgAAIgAAIgAAIgAAIgAAIgAAIgAAIgAAIgAAIgAAIgAAIgAAIgAAIgAAIgAAIgAAIgAAIgAAIgAAIgAAIgAAIgAAIgAAIgAAIgAAIgAAIgAAIgAAIgAAIgAAIgAAIgAAIgAAIgAAIgAAIgAAIgAAIgAAIgAAIgAAIgAAIgAAIgAAIgAAIgAAIgAAIgAAIgAAIgAAIgAAIgAAIgAAIgAAIgAAIgAAIgAAIgAAIgAAIgAAIgICmBP4//3t9wOforoYAAAAASUVORK5CYII=;" vertex="1" parent="1">
          <mxGeometry x="520" y="480" width="120" height="120" as="geometry" />
        </mxCell>
        <mxCell id="uXY3sr2Ql3OhQ5Kgx3GS-3" value="&lt;b&gt;User&#39;s&lt;br&gt;Smartwatch&lt;br&gt;&lt;/b&gt;" style="text;html=1;align=center;verticalAlign=middle;resizable=0;points=[];autosize=1;strokeColor=none;fillColor=none;" vertex="1" parent="1">
          <mxGeometry x="190" y="520" width="90" height="40" as="geometry" />
        </mxCell>
        <mxCell id="uXY3sr2Ql3OhQ5Kgx3GS-4" value="&lt;b&gt;Centrallised&lt;br&gt;Cloud&lt;br&gt;&lt;/b&gt;" style="text;html=1;align=center;verticalAlign=middle;resizable=0;points=[];autosize=1;strokeColor=none;fillColor=none;" vertex="1" parent="1">
          <mxGeometry x="535" y="595" width="90" height="40" as="geometry" />
        </mxCell>
        <mxCell id="uXY3sr2Ql3OhQ5Kgx3GS-6" value="&lt;b&gt;Push Data&lt;/b&gt;" style="text;html=1;align=center;verticalAlign=middle;resizable=0;points=[];autosize=1;strokeColor=none;fillColor=none;" vertex="1" parent="1">
          <mxGeometry x="420" y="510" width="80" height="30" as="geometry" />
        </mxCell>
        <mxCell id="uXY3sr2Ql3OhQ5Kgx3GS-23" style="edgeStyle=orthogonalEdgeStyle;rounded=0;orthogonalLoop=1;jettySize=auto;html=1;" edge="1" parent="1" source="uXY3sr2Ql3OhQ5Kgx3GS-7" target="uXY3sr2Ql3OhQ5Kgx3GS-12">
          <mxGeometry relative="1" as="geometry" />
        </mxCell>
        <mxCell id="uXY3sr2Ql3OhQ5Kgx3GS-7" value="" style="shape=image;verticalLabelPosition=bottom;labelBackgroundColor=default;verticalAlign=top;aspect=fixed;imageAspect=0;image=data:image/png,iVBORw0KGgoAAAANSUhEUgAAAgAAAAIACAYAAAD0eNT6AAAAAXNSR0IArs4c6QAAAERlWElmTU0AKgAAAAgAAYdpAAQAAAABAAAAGgAAAAAAA6ABAAMAAAABAAEAAKACAAQAAAABAAACAKADAAQAAAABAAACAAAAAAAL+LWFAABAAElEQVR4Ae3dCZAkV3ng8S+zqs/pOTXSzGhGgwBZQtxCh7mxZbwcMmbDNhgbYxubMCYWwscuizkWz9oc9nLYEHYAixdf4F1wGAJjZDACKRAS0khIAnTf19zd02d13Zn7vRpVT093VU1VXpUv85+KVlVXZb783u9lz/vy5eUIEwIIIKACT//FP3mGX/D/ky/+i8SXp4kjZ+vHm/SnABACCKROYFb/Rqf1b/VuX2R/wXW/def/e/9+jVJ/7W9y+puNuRBAIIsCF//OZ0aW5g69yfHl7fqPyUVZrCN1QiAvAtqhP+D5zmekOv7pe/71XYunqzcJwOmE+B6BjAo87fX/8zW6s/AJrd6TM1pFqoVAXgVmdBzgPXc/Q/5G9u3zuiGQAHST4XMEMiqw53Ufn5hyF/5S/4H4nYxWkWohgIAR8OUapznyq3d9+b2HOoGQAHRS4TMEMirwzF/54I5Go/7vDPdntIGpFgLrBR53m+4r7/yX99+x9isSgLUi/I5ARgXOe92Hziw6tWu1ehdktIpUCwEEOgvMaBLwsrVJgNt5Xj5FAIEsCZz7m/vGtfP/utaJzj9LDUtdEOhP4Ayv4H3DjACunp0EYLUG7xHIqMDYsnxMq3ZpRqtHtRBA4PQCexrN+uf1pMCVfn/lzemXZQ4EELBR4PzX7XuxHut7m42xEzMCCEQq8PIL73De3C6RBKAtwSsC2RRw9I/8k1o1zvfJZvtSKwQGEvAd/8PPftNHNpiFSAAGomNmBOwSuPD1+17FGf92tRnRIhCzwJm16vLvmnWQAMQsTfEIDFNA7wna+kMfZgysGwEEUibg+G/ViByGBVPWLoSDQFQCz/rVD2+tN6pHtLyRqMqkHAQQyIaA78qljABkoy2pBQLrBBqN6sv0Qzr/dTJ8gAACTlNeTgLAdoBARgV0+P+yjFaNaiGAQEgBHf5/PglASEQWRyC1Aj43/Ult2xAYAkMW0EMAF5AADLkRWD0CMQrsjLFsikYAAZsFfNlBAmBzAxI7Ar0EHGld69trFr5DAIHcCmwiAcht21PxHAgUclBHqogAAsEECiQAweBYCgEEEEAAAasFSACsbj6CRwABBBBAIJgACUAwN5ZCAAEEEEDAagESAKubj+ARQAABBBAIJkACEMyNpRBAAAEEELBagATA6uYjeAQQQAABBIIJkAAEc2MpBBBAAAEErBYgAbC6+QgeAQQQQACBYAIkAMHcWAoBBBBAAAGrBUgArG4+gkcAAQQQQCCYAAlAMDeWQgABBBBAwGoBEgCrm4/gEUAAAQQQCCZAAhDMjaUQQAABBBCwWoAEwOrmI3gEEEAAAQSCCZAABHNjKQQQQAABBKwWIAGwuvkIHgEEEEAAgWACJADB3FgKAQQQQAABqwVIAKxuPoJHAAEEEEAgmAAJQDA3lkIAAQQQQMBqARIAq5uP4BFAAAEEEAgmQAIQzI2lEEAAAQQQsFqABMDq5iN4BBBAAAEEggmQAARzYykEEEAAAQSsFiABsLr5CB4BBBBAAIFgAiQAwdxYCgEEEEAAAasFilZHT/AIIGCvgNcUpzovbnVRpFkT8er21oXIETACblH8woj4oxvFH9/S+j3NMCQAaW4dYkMgkwK+OMszUlg6rJ1+I5M1pFI5FdBE1jF5bGVeZPGgeJNnije1U8RxUglCApDKZiEoBDIq4Pvizj8qbmU2oxWkWgg8IeB74paOiFNbkubWp+hoQCF1NJwDkLomISAEsivgLhyg889u81KzDgJOvSSFuYdENPlN20QCkLYWIR4EMirg1BbFLU9ntHZUC4HuAmYUII3bPglA9zbjGwQQiFDAXTwUYWkUhYBdAu6iHg7QwwJpmkgA0tQaxIJARgWc1slRyxmtHdVCoA8BX094rS71MWNys5AAJGfNmhDIr4AOgTIhkHcBt56uvwMSgLxvkdQfgQQEHC73S0CZVaRdwE/ZvS5IANK+xRAfAlkQ8JtZqAV1QCCcAOcAhPNjaQQQQAABBBAIL8AIQHhDSkAAAQQQQMA6ARIA65qMgBFAAAEEEAgvQAIQ3pASEEAAAQQQsE6ABMC6JiNgBBBAAAEEwguQAIQ3pAQEEEAAAQSsEyABsK7JCBgBBBBAAIHwAiQA4Q0pAQEEEEAAAesESACsazICRgABBBBAILwACUB4Q0pAAAEEEEDAOgESAOuajIARQAABBBAIL0ACEN6QEhBAAAEEELBOgATAuiYjYAQQQAABBMILkACEN6QEBBBAAAEErBMgAbCuyQgYAQQQQACB8AIkAOENKQEBBBBAAAHrBEgArGsyAkbARgHHxqCJGYFIBRw/XX8HJACRNi+FIYBARwGn0PFjPkQgTwJ+oZiq6pIApKo5CAaBbAr4xbFsVoxaITCIQGF0kLljn5cEIHZiVoAAAjI6JeLwzw1bQr4FvLFNqQLgLzJVzUEwCGRTwNfO3xvfls3KUSsE+hDwTRJcHO9jzuRmIQFIzpo1IZBrAW/jThGXcwFyvRHktfKOI97Gs1NXexKA1DUJASGQUQG3KM3N5+qhgHSdCZ1RbaqVIgFv4x7xRyZTFNGJUEgAUtckBIRAdgX8sY3S3PpUHQlI19nQ2RWnZkMV0GS3uXmveJNnDDWMbivnr7CbDJ8jgEAsAuZYaOPMp4m7dFTc8nERrxHLeigUgaEJ6Dkv/tgWHfbfIX4hvVfAkAAMbQthxQjkWMApto6Jeht3iVNfFmlWxWmaRMDPMQpVt15AR7Z8vdTPH9lgxVUvJADWb3FUAAGbBZwT/1jqP5h0/Ta3I7HbKMA5ADa2GjEjgAACCCAQUoAEICQgiyOAAAIIIGCjAAmAja1GzAgggAACCIQUIAEICcjiCCCAAAII2ChAAmBjqxEzAggggAACIQVIAEICsjgCCCCAAAI2CpAA2NhqxIwAAggggEBIARKAkIAsjgACCCCAgI0CJAA2thoxI4AAAgggEFKABCAkIIsjgAACCCBgowAJgI2tRswIIIAAAgiEFCABCAnI4ggggAACCNgoQAJgY6sRMwIIIIAAAiEFSABCArI4AggggAACNgqQANjYasSMAAIIIIBASAESgJCALI4AAggggICNAiQANrYaMSOAAAIIIBBSgAQgJCCLI4AAAgggYKMACYCNrUbMCCCAAAIIhBQgAQgJyOIIIIAAAgjYKEACYGOrETMCCCCAAAIhBUgAQgKyOAIIIIAAAjYKkADY2GrEjAACCCCAQEgBEoCQgCyOAAIIIICAjQIkADa2GjEjgAACCCAQUoAEICQgiyOAAAIIIGCjAAmAja1GzAgggAACCIQUIAEICcjiCCCAAAII2ChAAmBjqxEzAggggAACIQVIAEICsjgCCCCAAAI2CpAA2NhqxIwAAggggEBIARKAkIAsjgACCCCAgI0CJAA2thoxI4AAAgggEFKABCAkIIsjgAACCCBgowAJgI2tRswIIIAAAgiEFCABCAnI4ggggAACCNgoQAJgY6sRMwIIIIAAAiEFSABCArI4AggggAACNgqQANjYasSMAAIIIIBASAESgJCALI4AAggggICNAiQANrYaMSOAAAIIIBBSgAQgJCCLI4AAAgggYKNAcVhBP+fj1+92HffyQtPZJa630xd3kyv+2LDiYb0IZE2gcfzoHt9rZq1asdenMnNE1+HHvp7VK3CaTfF9bSvTXrWqSF1/mGITGHd8OXfUl90jnmjHIwVHpNR0ZEb5H6y7Mt3QD3IwJVLLiz969XZHJn/LKTqvLRSKF7oFd5PjFAo58KWKCCBgkYDp9mePHBp+xJ6niUBZpLIsfmleZHlOk4La8OOyOIKzir5csbEhP7WhKc+e8KXYI8k7oEnA9cuu/NtCQW6t6K6pJNJVJq4bW61Mp+8Wxv/ELYy+rlgc2S5ObKtKHI0VIoBANgV835fZo4fTWTmTEMxPiz9/TJODSjpjTGFU54z48rtn1OTVG72enX630O+tufLZmRH55lL2EoHIe+VLPnrDzxaKhU8WRscucHTqhsrnCCCAQNoEPB2Cnzt2NG1hnRqPJilSXhI5flD8hZlTv+O3FQEzrP87W+vy29vqMhZBT3RT2ZU/PjImj9UjKGwlyuG+iawmF3/0+v9cGBn9y+LI2JPo9ofbqKwdAQSCCTQbTZmfSXkCsKpqflVHBaYPiCxozMmetrAqivS93a7D/R/bWZXnTeihlAinJc+R9x0ZkW8vDe30uQhrI+EPbLzwU9edVa+NfXV0dOz5kUZGYQgggEDCAo1GXRZmphNeawSrq5TEP/ygniuwGEFhdhdhTuz77O6anKOvcUym1A8dG5UvztmfBIQ6Ee/ij+3/SMGd+JfiyMg5cUBTJgIIIJCkgKcjANWK7lXbNhVHxdmyQ6Q4oknAgo4G5HM4YFvBl8/tqcpePe4f12SGzV+iJxIe1isF7q7afSV9oEMAz/2LW7eMSvOakfGx58SFTLkIIIBA0gL1alUW544nvdpo12dOFnz8HvH1CoI8TeaY/99q53/RuF7Ll8DU0AH0Nz82JrfpVQK2TgNHftHH979sfMQ/SOdva5MTNwIIdBPws3AgfXRC5Nxn64jAWd2qmcnP36Yn+yXV+RtAcxnhn+2syYTeU8DWaaBDAOZEv/Hxia+7BR1vYkIAAQQyJtDQa+3NKID1kzkTe+M2vfpa9/HMfQQyPp076smHd9ZbN/RJsqqb9JCD2Yu+oTxQV5pkiD3X1fcIwPM+dsPvj01OfdlxXTtr2pOBLxFAAAEVsHdnrnPzbd8tsuspEZzu3bn4tHz6tm0NGR3SnvivbW3ImXrVgY1TXwnAxX/x/bdMTEz+Bdf129jExIwAAv0KeH48Z473u/445nO27hTZ+dQ4ik5Fmbu0833FxmSO+3eqsLnHwC9vbnT6KvWfnTYBuPTj+18zNjr5v7mTX+rbkgARQCCkgJ/BBMCQOFt3iHNmNi/Wes2mhhSGPHTz8xrDaTvTkNtmHIv3jPmST1z3zJGx0a/osH+gqwXiCJgyEUAAgbgEfHMP/qxOmgBk8cTAy6eGt/ff3lTMKMQFY/ZtO90TgH1XFwvOxDWOy0N72o3MKwIIZFvAa9r3j/hALWLOBxjfMNAiaZ55yvXlaWPpOP5+6aR9207XBODSzZPf1Bv8nJHmxic2BBBAIEoBL+s30NGrApzdF4hk5Fzup+gjfYc9/N/e/s7XKxFsmzomAHrG/6+NjE1ebltliBcBBBAII+Drw4AyP42Ni+x4UiaquTem2/0GwYnr1sNBYul3mfUJgA796339P8UDffolZD4EEMiKgO+lYzg5bs/WlQETU3GvJvbyN6zvwWJfZ7cVbExRLN1iXPv5upAv3TT594Vi0f4tY21N+R0BBBDoIWC6/qxeBdCp2o65NNDy07tH9ByAtEwjFlqekgBc/NGrtxfHJ96QFlDiQAABBJIS8Jt2Xssd2GdigzibtgdePA0LLjfT0+uW0pOL9N00pyQAjjP1Wbd178i+l2dGBBBAIBMCzTwc/1/TUv52u+8NMJ2iBOCYPh3QtmklAbj4MzdPjoyN/JxtFSBeBBBAIAoBP+uXAHZAcsb0wUEb7b3Y66Faejrdh1MUS4em7vjRSgLgLtc/qpf8FzvOxYcIIIBAxgWaWb4JUK+2O2NXr29T/d3jdUemU7LnbeNjgU8mAIWx16e6pQkOAQQQiFEgd+cAPGHpTGwUZ1QvDbRw8vUsxjQ8ia+hcdy0bN9z8loJwCUfu+miQpGb/li4/RMyAghEJJD5uwB2c9Jrvv3NZ3b7NvWfX7k4/I732iVXFrz0HI7ot9FOjAC43h9z3X+/ZMyHAAJZFPByeBLgSjtafDXA9SVXHquvDGavVCnJN19asPPoeUutWBh5QZJYrAsBBBBIm0CzkYO7AHZBb50MODLa5dt0f9zU4ffPzg6vA7694sr3SsMfhQjSSsWf2nf1eG2kaO/4T5Bad1jGDN5ces6UvGDvRnnytjHZOFqQhWpTHpmryvcfWZSbHl8S224SZp7heNk5G7VOU3Lu1nGZGnVlvnKiTtdpnX6gdbLw0tUOrcdHCIQTME8BzNNNgDpqbdgsMnes41dp//Cr80V5nT6S91njyd6P36ztz46NpJ2na3zO8z5yw5snpjZ8ruscOfjiubs2yO+/eJecd0b3E2EeOF6RT153SH5woGSFyCV7puT3Xrirlcx0C/je6Yp8Quv0w0N21KlbPfgcgbAC9XpNFo/PhC3G6uX9uaMiB++3tg7mYTxf2FuVcSe53Zp/0JGHj0zbOXJiGrqw+9Vv/cNisfgca1s9ZOC/9Mwz5I9fvke2b+idxW2bKMorzt8iSzVP7jxaDrnWeBf/ledsl/ddvlu2TfYeFjtDv3+l1mmu3JS7j6W7TvGKUXreBRq1mtSrlVwztPrNuSPWGszoTYGO6iWBPz1lDgrEP91SKci7D4+Kl8ja4qmP3vhPLoyn6PSX+gbtKM2ef8GMlfcxGazfe9EuueJpW/uYeziz/NYlZ8l/ecFOMbH2M5m6/9eXni0/81Qd/mNCIKcCzbzdBrhTO5unBFo+fVVPxvvkdO+duSiqeF/VlXccGBVz+Z/Nk+u6BbvvBRlQ/40XnSlv144yyPQHmjSceZoRgyDlhl3GdP7mZ9DJbMLv+qndslVHOZgQyKOA18zvCYAr7e3qiWyWngi4Ugd98zezI/LnmgTEdTbALWVXfvPxMSsv+1vtZN6bBCB3u36m83/bT+5Ya9H37+NFV379eek6bzJo59+u9OSIK2+8yO4Hg7TrwisCgwo0Gzl7EFAXIGfE/lEAU7XPaxLw1gNjkd4l0JxZ8Pm5orzlwHgmOn/jpJcB+rna7TPD/mE6f4Nmpp85b3Pfw+wnlojv/2E7/3ZkP3veFssHtNo14RWBwQQ8DgGcAHOHez39YK3We+4b9M58r31kXL6oVwiEHaq/S4f8f+OxMfnzY6NST+4cw94VjOBb19EhgAjKsaKIMMP+ayu4aazQ8wz7tfPH9XtUnb+Jz5wUuHuzvWe0xmVMudkWMHv/vp+hf9VDNJdfyFZ3YO7O94Gjo3LFQ+OtUYHjAzw90JxKeK0mEe84OCa//OiY3Kon/WVtKjrS59liltc87LB/p+rvmBqRB2aGd+ZwlJ1/u36mTo/P19q/8opA5gWajXrm69h3BZ1sDggf1KsDzHkBH5suyrP1XgGXbfDkvFFfdhc92VI4kfxVNVk4qgnCQzVXbtPj/DfqzyAJQ9/GKZqxmIcx36iG/de22zBvDBRH52/qN8w6rfXldwSSEGhw/P8kc8b3B82hAHP5nvlhEslmureqZePY828XP10azp5DXJ2/qdd0iZOh2u3Laz4EPBKAfDQ0tVwnkJ0zPtZVTSSuPX+zKnOb4AePVzusNd6P4uz8Z5YbOvyffJ3iFaN0BHoLNOrDSeR7R8W3CMQvkNkRgDj3/E2zXHXfvA6XJ3viUJydv6nTf9w3x7MBDARTbgTMyX+5fgpgblqainYSyOQIQNydf6XhyedvTfahGXF3/st1T/7ptulO2wifIZBZAfb+M9u0VKwPgcwlAHEO+7c9P37tITma4PH/uDt/M47x4WsOyGyZ4//tNuY1HwINfQgQEwJ5FcjUIYC49/zNRvK5m4/KlffMJra9xN35m4p8+obDcvUD84nViRUhkBYBRgDS0hLEMQyBzIwAJLHnbzp/85PUlETn/9n9R+QLDP0n1aSsJ2UCjACkrEEIJ1GBTCQApvMP+mCffrWz2vn//S3JnsvQrzfzIRC3QFMfAOR7cT0yJu7oKR+B8ALWJwB0/sE2ArPnT+cfzI6lsiHA8H822pFaBBewOgGg8w/W8HT+wdxYKlsCjTr3vMhWi1KbQQWsTQDo/Adt6hPz0/kHc2Op7Ak0atwAKHutSo0GEbAyAaDzH6SJT85L53/Sgnf5FjA3AOIhQPneBqi9iHUJAJ1/sM2Wzj+YG0tlU6BeY/g/my1LrQYRsCoBoPMfpGlPzkvnf9KCdwgYgUaNGwCxJSBgTQJA5x9sY6XzD+bGUtkWYAQg2+1L7foTsCIBoPPvrzHXzkXnv1aE3xGQ1rX/TR4BzKaAQPrPAaDzD7aV0vkHc2Op7Auw95/9NqaG/QmkegSAzr+/Rlw7F53/WhF+R+CkAAnASQve5VsgtQkAnX+wDZPOP5gbS+VHoF7lBMD8tDY17SWQygSAzr9Xk3X/js6/uw3fIGAEzLF/z2uCgQACKpC6BIDOP9h2SecfzI2l8iVQr1byVWFqi0APgVQlAHT+PVqqx1d0/j1w+AqBVQK1CgnAKg7e5lwgNQkAnX+wLZHOP5gbS+VPwNPH/zYa3P8/fy1PjbsJpCIBoPPv1jy9P6fz7+3DtwisFqgx/L+ag/cIDP8cADr/YFshnX8wN5bKr0Cd4f/8Nj417ygw1BEAOv+ObXLaD+n8T0vEDAicIuD7ntTrXP53Cgq/5F5gaAkAnX+wbY/OP5gbS+VbgJP/8t3+1L6zQLHzx/F++saLzpS3/eSOWFfyuZuPivlJavqtS84S8xPnROcfpy5lZ1mgXuXxv1luX+oWTCDxEYCfv3ArnX+AtqLzD4DGIgioQGv4nwSAbQGBdQKJJgDnbB6T33/x2euCiPID9vyj1KQsBOwXqJUr4ut/TAggcKpAognA7z5/h4wWnFMjiPA3Ov8IMSkKgYwIVMvLGakJ1UAgWoHEEoCtE0V5ybkbo41+VWl0/qsweIsAAi0Bc+9/bv7DxoBAZ4HEEoDnnr1BXCeevX86/86Ny6cI5F2gWi7nnYD6I9BVILEEYM+m0a5BhPmCzj+MHssikF0Bc9S/ViEByG4LU7OwAoldBjgSw7F/Ov+wzc/yCGRXoFGr8ujf7DZv4JqNbG7K5M6mjG1ryOgmT9wRX5yCiKf3iWosu1KdK0jlaEHKR4viN+MZtQ4cfMQLJpYAzCw3Ig2dzj9STgpDIHMCDP9nrkkDV8gd82XLBVXZdH5NxrY0+yrHqzuy+NCozN05JpVpzRAyOCWWANx1NLqhODr/DG6JVAmBCAV8T2/9y8N/IhS1syin4Mu2Z1f0p9ra0x+kFmZkYPP51dbP0uMjcuyGCanp6ECWpsTOAbhvuiyPz4e/Fzedf5Y2P+qCQDwCFT327/tc+x+Prh2ljp3RlHN/YVG2X1wZuPNfW8OpPXUta6GVTIiTne0qsQTAkP3jrcfWug70O53/QFzMjEBuBarLpdzWnYqLbHxKTZ7084syqsf7o5oc7S3PvKwsu19eEreYjSQgsQTANMKVd8/KjY8tBWoPOv9AbCyEQO4Eajr07zWj+4c/d4CWV3izHuffdXlJT+yLp5OeelJddr8iG0lAogmAaY73f+tRuXOA8wE8XejTNx7hwT6W/1ESPgJJCVRL7P0nZZ229ZjOecdLliXuc/cnd9Vl109rkpE2gAHjSTQBMLGVap68/asPypdvPy7eaY7RHS3V5T3ffEQ+H/LQwSAmPNVvEC3mRSBdAo16Xer18OcapatWRNOPwMjGpux8qXbKCR2jN8nGtudW+gkttfMkdhXAaoFa05ePf++g/MvtM/Kap2+VS/dMyV59UJC5V8DxckPum67Idx9akG/cOyfVhrd60Vjf0/nHykvhCMQuUOHYf+zGaV3BTt3zL+jlfklO259XltKjRakcH0pXGrqqQ436kbmq/NX1h1cqYYZTkm2+lVULnf9JC94hYKNA69K/it17ZDa6pyHmTXrS3+TZ0d5rpq96mRMDn1+Wx66M7zk3fcURcKbEDwH0ipPOv5cO3yGAQC8Bs/fPY397CWX0Ox3yH+ZQvEk8JnYMIfmIoDlTlQBEUJ+Bi2DPf2AyFkAgfQJ6PlGFx/6mr10SiGhyZ0Nv6zvcqz62PqOaQE2jX0WuEwA6/+g3KEpEYBgCleVlMYcAmPInsOm8+tArvWFvPfTNhoZRidwmAHT+w9jcWCcC0QuYO/6Vl4PdXyT6aCgxaYENu4efAJgbA03ssu8wQC4TADr/pP9EWR8C8QlUy3rsn73/+IBTXLK59K84lY6Rn0kLzwPIXQJA55/iv2ZCQ2BAgdbePzf+GVAtO7OPbk5H529E0xRLvy2cqwSAzr/fzYL5ELBDwNzzn71/O9oqjiiLk8O6dmx9bYob0pOMrI+u8ye5SQDo/DtvAHyKgK0CJ479c9tfW9svirjNI3vTMqUpln5NcpEA0Pn3uzkwHwL2CJjL/tj7t6e94og0Pd2/3sQuTcH0iZ35BIDOv88tgdkQsEjA7P1XSpz5b1GTxRKql6LHPnh1+x4NlOkEgM4/lr85CkVg6AIc+x96E6QigMZiIRVxmCBqC/Z1p/ZF3Gdz0/n3CcVsCFgmYIb9y5z5b1mrxRNudbYwtOfHrK1RbS49ycja2Lr9nskEgM6/W3PzOQL2CywvLerxVvvOuLZfPn01aFYdqabkSXzLB4f6bL1AjZO5BIDOP9B2wEIIWCHQbDSkyj3/rWirpII0j+Md9tRcdqV6jBGAobYDnf9Q+Vk5ArELLC8uxL4OVmCXwMJ9Y8N7jvwTVAsPjOioFCcBDm3LofMfGj0rRiARgVq1IvWanU9dSwQopyupzbuy9OjI0Grve47M3jE+tPWHWXEmDgHQ+YfZBFgWgfQLmEusy+z9p7+hhhTh9C3jQ9sDn79nVOpLdnaldka9aiOj81+FwVsEMipQ0RP/ms3hPvM9o7SZqFZ1pihzd44mXpdm2ZVjN9m592+wrE4A6PwT395ZIQKJC3ja8Vf0nv9MCPQSOLZ/QqozyZ2IZ0alDl0zKV7N3m7U2sjp/Hv9KfAdAtkRKC3O6/CuhfdZzU4TWFETv+nIwW9vEHNGfhLTtCYcpQPDO/cgijomIxVFpKvKoPNfhcFbBDIsUK2UpV7lxL8MN3GkVastFOTxb2gSoEPzcU4zes7B8R/ZO/TftolXqb2WCF/p/CPEpCgEUixgbvbDZX8pbqCUhlbRGwM98rWNUtO7BEY9mVGGI9dNyvQtE1EXPZTyrEoA6PyHso2wUgSGIlBaWOBpf0ORt3+ldb0v/8Nf3Sizd45Fdqtgc9vhRzWxmLtL7zuQkWn4t1DqE5LOv08oZkMgAwJm2L+mw/9MCAQV8BuOHL1+Uhb1RkFnXFyWDXvqgYpqlFwd7h9rdfzmmv8sTVYkAHT+WdrkqAsCvQXMCX+lhfneM/EtAn0KlPUWvY9/Y0rGtjVl809UZWpvQ0Y2976k1Dza19zbf+H+0dZNhszQfxan1CcAdP5Z3OyoEwLdBZa18/e83v9Ad1+abxDoLFA9XpCjN07qj8jIBk9GNSEY2eSJW/TF1dMFPB0gqOvevrmzYHVWu8YcPG8q1QkAnX/nDZlPEciqgLndrznznwmBOAVMR29+8j6lVoDOP++bJvXPm4CnZ/0z9J+3Vqe+wxRIZQJA5z/MTYJ1IzAEAb3PT2l+jrP+h0DPKvMrkLoEgM4/vxsjNc+vQLlc4oY/+W1+aj4kgVQlAHT+Q9oKWC0CQxRoNOpS1of9MCGAQLICqUkA6PyTbXjWhkAaBFqX/M3Nit7sPw3hEAMCuRJIRQJA55+rbY7KIrAiYC754zG/Kxy8QSBRgaEnAHT+ibY3K0MgNQLmEb9c8pea5iCQHAoMNQGg88/hFkeVEVCBRr0uyxz3Z1tAYKgCQ0sA6PyH2u6sHIGhCfieJ0tzxznuP7QWYMUInBAYyp0Ak+j8P3XjEfnCrcdoZwQQSJnA4vys3uo3B/dZTZk74SCwViDxEYBffOYZYhKAOCc6/zh1KRuB4ALLiwvSqNWCF8CSCCAQmUCiCcBTto3LO164M7LgOxX02f3s+Xdy4TMEhi1QXV4Wc+IfEwIIpEMg0QTgrT+5Q4pufI9VNJ3/39/CsH86Ni2iQOCkQL1WldIij/g9KcI7BIYvkNg5ANsmi/KCvRtjqzHD/rHRUjACoQSazYae9Kc3+2FCAIFUCSQ2AnDRrg0S184/nX+qtimCQWBFwDzhb3F2Vm/0x53+VlB4g0BKBBJLAHZvHo2lynT+sbBSKAKhBUyXvzR7XDwdAWBCAIH0CSSWAMRx7J8T/tK3QRERAkbAdP4lHfY3N/xhQgCBdAoklgBML0e7F8AJf+ncoIgKASNQ1sv9atUKGAggkGKBxE4CvPPIcmQMDPtHRklBCEQuUC4tcblf5KoUiED0AomNANw/U5FH5qqha0DnH5qQAhCITcBc61/mHv+x+VIwAlEKJJYAmKD/IeQ1+nT+UTY9ZSEQrUCtUuZa/2hJKQ2BWAUSTQD+4945ue6RxUAVovMPxMZCCCQiUDed//xcIutiJQggEI1AogmAOTN431WPyW2H+r8dqKfXD3/iukM82Cea9qYUBCIXMCf7LWrnz5X+kdNSIAKxCiSaAJialOue/MHXHpb/+8NpaXi9/8k4uFCT/3blI/LPP56JFYHCEUAgmEDrFr9z7PkH02MpBIYrkNhVAKurWdeO/6+/f1i+fPtx+bkLt8qle6Zk75ZRGSu6clwvF7znWFm++9CCfPv+eTHzMiGAQPoEzJ4/t/hNX7sQEQL9Cjgv+tSP6WH71WI+BBBoCdD5Z3ND8A89KDJ7OJuVo1brBIYyArAuCj5AAAFrBMzZ/kuc8GdNexEoAt0ESAC6yfA5AgisE6iWl2V5gcf6roPhAwQsFCABsLDRCBmBYQhUl0t6nf/CMFbNOhFAIAYBEoAYUCkSgUwJ6FlC5aUFKWsCwIQAAtkRIAHITltSEwQiFzBnCC8vzosZ+mdCAIFsCZAAZKs9qQ0C0QnoTbiW5melXg3/DI/ogqIkBBCISoAEICpJykEgQwK+78nSrHb+9VqGakVVEEBgtQAJwGoN3iOAgHjNhixq59/UVyYEEMiuAAlAdtuWmiEwsIDZ4y/NzYrneQMvywIIIGCXAAmAXe1FtAjEJlCtLEtpQS/z02P/TAggkH0BEoDstzE1RKCngOnuK3p9P5f59WTiSwQyJ0ACkLkmpUII9C/g61B/60z/Gif79a/GnAhkQ4AEIBvtSC0QGFig0Wjo8f7jerJfc+BlWQABBOwXIAGwvw2pAQIDC9QqFT3eP6eH+znePzAeCyCQEQESgIw0JNVAoF+BMsf7+6ViPgQyLUACkOnmpXIInBTwvKYs6SV+jXr95Ie8QwCB3AqQAOS26al4ngRqVTPkPy/mpD8mBBBAwAiQALAdIJBxgeWlRamUljJeS6qHAAKDCpAADCrG/AhYImDO7l+en+N+/pa0F2EikLQACUDS4qwPgQQEqpWyLJshf87yT0CbVSBgpwAJgJ3tRtQIdBQw9/A3l/fxCN+OPHyIAAKrBEgAVmHwFgGbBeq1qpR0yJ8H+djcisSOQHICJADJWbMmBGIRMMP85tr+Snk5lvIpFAEEsilAApDNdqVWOREwQ/3m8j5zjT8TAgggMIgACcAgWsyLQEoE2OtPSUMQBgIWC5AAWNx4hJ5PAXNTn+WFBfb689n81BqByARIACKjpCAE4hVoneGvx/rreokfEwIIIBBWgAQgrCDLI5CAQHW5JOaOflzXnwA2q0AgJwIkADlpaKppp0CjVpPS4rw0Gw07K0DUCCCQWgESgNQ2DYHlWcAM95eXFqRaZrg/z9sBdUcgTgESgDh1KRuBAAInhvuXdLifJ/cF4GMRBBDoU4AEoE8oZkMgboHW2f16kp+nD/FhQgABBOIWIAGIW5jyETiNgDm+v6zD/dy//zRQfI0AApEKkABEyklhCPQvYO7eV15akprewtfvfzHmRAABBCIRIAGIhJFCEOhfwNcT/CqlJanopX10/P27MScCCEQrQAIQrSelIdBdwDy0R/f2K1zP392IbxBAIDEBEoDEqFlRngWq2vGb4X4e2pPnrYC6I5AuARKAdLUH0WRMoKq37W11/E1u5JOxpqU6CFgvQAJgfRNSgTQK0PGnsVWICQEEVguQAKzW4D0CIQXo+EMCsjgCCCQmQAKQGDUryqqAeUCPOcZfKZU4xp/VRqZeCGRQgAQgg41KlZIR8PRWvdXlEx0/t+1Nxpy1IIBAdAIkANFZUlJOBJp6q15zv/6K7vXrDftzUmuqiQACWRMgAchai1Kf2AQa9VprmL9erXADn9iUKRgBBJISIAFISpr12Cmge/i1WrV1575GvW5nHYgaAQQQ6CBAAtABhY8Q8PR2veaM/qreste8Z0IAAQSyJkACkLUWpT6hBOo6zG9O7Ktp58+EAAIIZFmABCDLrUvd+hJoXcZn9va14282GObvC42ZEEDAegESAOubkAoEFWhoZ18zl/GZvX3O5g/KyHIIIGCpAAmApQ1H2MEEzKN4q2Xd29dL+Jrcnz8YIkshgEAmBEgAMtGMVKKXgK8X7dWrValpx2/O6Gdvv5cW3yGAQF4ESADy0tI5rGdriN90+jrEz5n8OdwAqDICCPQUIAHoycOXtgl4OqxvhvhNp2/u2MeEAAIIINBZgASgswufWiTgaUdv7s5X1Z9GrWZR5ISKAAIIDE+ABGB49qw5hACdfgg8FkUAAQRUgASAzcAaATOkX6+aM/grXK9vTasRKAIIpFWABCCtLUNcLYFmoyE1HdqvV3R4n5v0sFUggAACkQmQAERGSUFRCJi78pmH7phj+py9H4UoZSCAAAKdBUgAOrvwaYIC5hI90+HX9Rp9c72+SQKYEEAAAQTiFSABiNeX0rsImIfuNHRYv65n7TO03wWJjxFAAIEYBUgAYsSl6JMCrRP4dA+/oXv4ptP3fR6xe1KHdwgggEDyAiQAyZvnYo2ty/TM3r3+mKF9z+OmPLloeCqJAALWCJAAWNNU6Q7UPGSnNazf2sOv6134eKxuuluM6BBAIO8CJAB53wIC1t8M6Tf1OP6JTr/Gk/UCOrIYAgggMCwBEoBhyVu2XnM9vunsW52+DuubIX4mBBBAAAF7BUgA7G272CI3l+WZjr51/F5vvtM0J+3FtjYKRgABBBAYhgAJwDDUU7TO1o13tJP39OY75nK8Rq3B8fsUtQ+hIIAAAnEJkADEJZvCck909mYYXzt6/TGvPDI3hQ1FSAgggEACAiQACSAnvQozXG+O0TfN8L0eu2919A39nTPzk24K1ocAAgikVoAEILVN019g5vK7hnbszbp29KazN52+7tlzzL4/P+ZCAAEE8ipAAmBJy5sb6TRbe/EN8dodvb6aE/aYEEAAAQQQGFSABGBQsRjnN7fHNZ17Q4fvvSc6e7NX7+lePXv0McJTNAIIIJBDARKAhBvddPLmxLvWMfpWR//E8H2zwVPwEm4LVocAAgjkWYAEIMLWN2fZe03di9fhet8M2bdOxNOOXd+3PtffffblIxSnKAQQQACBoAIkAH3KtYbntXNvdebmRjn64z+xJ986Pm86d47H96nJbAgggAACwxbIdQLQ2mNv7a3rnru+6hh8a699ZY9dO/QTe/Pa2et3TAgggAACCGRFIBMJgOmczd73yqsZaG913maP3XTi+mM6cDMUb+Z74rOsNCL1QAABBBBAYFCBxBOAE3vSpoM2R8P1P9N5m875iVcz1H7iV9Nhm89PdN7teVqXvbU/M2XoeyYEEEAAAQQQGEygWF5cEN9xtLPt3ZF2u9683QGbvtoxnbhZ/xOd8kpH/sRnre8Gi4+5EUAAAQQQQCAGgWJ5uRRDsRSJAAIIIIAAAmkWcNMcHLEhgAACCCCAQDwCJADxuFIqAggggAACqRYgAUh18xAcAggggAAC8QiQAMTjSqkIIIAAAgikWoAEINXNQ3AIIIAAAgjEI0ACEI8rpSKAAAIIIJBqARKAVDcPwSGAAAIIIBCPAAlAPK6UigACCCCAQKoFSABS3TwEhwACCCCAQDwCJADxuFIqAggggAACqRYgAUh18xAcAggggAAC8QiQAMTjSqkIIIAAAgikWoAEINXNQ3AIIIAAAgjEI0ACEI8rpSKAAAIIIJBqARKAVDcPwSGAAAIIIBCPAAlAPK6UigACCCCAQKoFSABS3TwEhwACCCCAQDwCJADxuFIqAggggAACqRYgAUh18xAcAggggAAC8QiQAMTjSqkIIIAAAgikWoAEINXNQ3AIIIAAAgjEI0ACEI8rpSKAAAIIIJBqARKAVDcPwSGAAAIIIBCPAAlAPK6UigACCCCAQKoFSABS3TwEhwACCCCAQDwCJADxuFIqAggggAACqRYgAUh18xAcAggggAAC8QiQAMTjSqkIIIAAAgikWoAEINXNQ3AIIIAAAgjEI0ACEI8rpSKAAAIIIJBqARKAVDcPwSGAAAIIIBCPAAlAPK6UigACCCCAQKoFSABS3TwEhwACCCCAQDwCJADxuFIqAggggAACqRYgAUh18xAcAggggAAC8QiQAMTjSqkIIIAAAgikWoAEINXNQ3AIIIAAAgjEI0ACEI8rpSKAAAIIIJBqARKAVDcPwSGAAAIIIBCPAAlAPK6UigACCCCAQKoFSABS3TwEhwACCCCAQDwCJADxuFIqAggggAACqRYonrGhcG2qIyQ4BBAIJNAoLV0svjcZaGEWyqVAfdSXUi5rns9KF1/59E0vyWfVqTUCWRfYlPUKUr+IBfbfMCf3Hom4UIpLrQCHAFLbNASGAAIIIIBAfAIkAPHZUjICCCCAAAKpFSABSG3TEBgCCCCAAALxCZAAxGdLyQgggAACCKRWgAQgtU1DYAgggAACCMQnQAIQny0lI4AAAgggkFoBEoDUNg2BIYAAAgggEJ+ASQC8+IqnZAQQQAABWwR837clVOKMQMAkANz4KQJIikAAAQRsF2g0GrZXgfgHEHAdRxYHmJ9ZEUAAAQQyKlCvkwBktGk7VsvVEZ+ljt/wIQIIIIBArgTqtWau6pv3yrriyMG8I1B/BBBAAAGRcrkCQ44EXMeXe3JUX6qKAAIIINBBwPN0OHhpucM3fJRVAVcvASAByGrrUi8EEECgT4GlxWUxSQBTfgRc13fvzE91qSkCCCCAQCeB+XlOB+vkkuXP3GKzfL1WsJ7lSlI3BBBAAIHeAkcOz/SegW8zJ+C+67UvXnREbslczagQAggggEDfAiQAfVNlZsbWrYA9cb6TmRpREQQQQACBgQQqlZrMzS0MtAwz2y/QSgB81/uK/VWhBggggAACQQQee/SwcBfgIHJ2L9NKAN7/qstu0mrcbndViB4BBBBAIIjAQw8eCLIYy1gu0EoATB0c8f/J8roQPgIIIIDAgAKlpbIcO3p8wKWYPQsCKwmAXgbwt1ohbgOVhValDggggECfAvfe8wjD/31aZW22lQRg3xWXHdZxgM9lrYLUBwEEEECgs0Ct1pD77n2k85d8mnmBlQSgVdOi92f6Wst8rakgAggggIDcfddDYpIApnwKnJIAvO8Vlz2mowB/k08Kao0AAgjkR8Bc+nf3nQ/lp8LUdJ3AKQmA+bY4Ku/Rl0Pr5uQDBBBAAIHMCNz6g7t075+bwGamQQNUZF0C8Ec/e8m8+M67A5TFIggggAACFggcPTorDz7wuAWREmKcAusSALOy915x8T/oy9fjXDFlI4AAAggkL9BoNOXG63/Emf/J06dujR0TAMdx/II/9iaNltNDU9dkBIQAAggEF9h/w+3Ck/+C+2VpyY4JgKngu3/u2bOuI2/UtxwkylKLUxcEEMitwAP3P87Qf25bf33FuyYAZtb3vPrS68Tx36xv/fWL8gkCCCCAgC0CR47MyP4bfmxLuMSZgEDPBMCs/32vvuwL+rjgdyUQC6tAAAEEEIhBYG52Ua75zg+k2fRiKJ0ibRU4bQJgKvbeKy79iA4CfMDWShI3AgggkFeBublFuepbN0qdS/7yugl0rbfu3Pc/feDKm96uBwM+oUv0lTj0XzJzIoAAAghELTAzPSffueomqVa5wWvUtlkob6AEwFT4A1+/6Vf05f/oz4T5nQkBBBBAIH0Cjz16RK777i3SYNg/fY2TkogGTgBM3B+68oane37hi/r2mSmpB2EggAACCKiA7/ny4x/fLz++7T4dsOX8bTaK7gKBEgBT3L6r75gqlkt/pXcN/I3uxfMNAggggEBSAouLy/K9794qZuifCYHTCQROANoFf+jK/S/zPOevxZFntD/jFQEEEEAgOQHP8+QufbDPj267lzP9k2O3fk2hEwAjsO9Ld4yOTJXf4fvef9enCZ5lvQoVQAABBCwQMEP8jz50WG679W4xe/9MCAwiEEkC0F7hvq/dPFl05S2O+O/UI0972p/zigACCCAQnYCnx/kffuiA3K7H+hfmS9EVTEm5Eog0AWjL7dvnu4VLbr7cceTX9bNf0J8N7e94RQABBBAIJjA/t9S6le8D+iS/SrkarBCWQuAJgVgSgNW6f/7V722sFcZ+2nWcy3W46nL9zlw5EPt6V8fAewQQQMBGAXP9/pFDM3JYb+N76OAxWVxgmN/GdkxrzIl3xCYhqBYmzncd73w9THCB3lFou+/4U3o1wZQibU4rFHGdFFhenLuk2WhsOfkJ79IoUG24y42GN5nG2IjppECz2ZS6PqK3Xmu07ta3VCrrsP6SLCyUZLlUOTkj7xCIWCDxBCDi+CluCAK/9M5939XVvmQIq2aVAwjcf0jur9TkvAEWYVYEEMiRALf0zVFjU1UEEEAAAQTaAiQAbQleEUAAAQQQyJEACUCOGpuqIoAAAggg0BYgAWhL8IoAAggggECOBEgActTYVBUBBBBAAIG2AAlAW4JXBBBAAAEEciRAApCjxqaqCCCAAAIItAVIANoSvCKAAAIIIJAjARKAHDU2VUUAAQQQQKAtQALQluAVAQQQQACBHAmQAOSosakqAggggAACbQESgLYErwgggAACCORIgAQgR41NVRFAAAEEEGgLkAC0JXhFAAEEEEAgRwIkADlqbKqKAAIIIIBAW4AEoC3BKwIIIIAAAjkSIAHIUWNTVQQQQAABBNoCJABtCV4RQAABBBDIkQAJQI4am6oigAACCCDQFiABaEvwigACCCCAQI4ESABy1NhUFQEEEEAAgbYACUBbglcEEEAAAQRyJEACkKPGpqoIIIAAAgi0BUgA2hK8IoAAAgggkCMBEoAcNTZVRQABBBBAoC1QbL/hFQEEEECgh4Av4tQXxaksiNOsifgN/aAo/si4+GOb9XWyx8LRf+U0KuJUNZb6sohXF98piLgj4o9vFBndpL8nuH/nNTWWeXFrS61YxPfF11hkbIN4o5tFCvo+scnXWJZO2DSr2k5NddF2Kk480U4TiUViVuQ0yrrNzLdexTPbjLZTYVS8MW2jUW0rx0k0ntUrIwFYrcF7BBBAoIOAox2bu3hAO9vyum9NxydLRzQB0M5u0+74EwFNPgqLh7RTmT0llpVupDyjne+o+Bt3ijex7ZR5Iv9FO3q3dLT10+poV62gFY/G6DoHxJ/cLs2pnSc6v1XzRP3WJGfu0kHtbCvrinbEtNPhVqfb1HaS4vi6eSL9QJOPwoLGYraPDlNheVr8wpi20y7xxrd0mCP+jxJMEeOvDGtAAAEEohZwTAd3/IGOnf/qdTn1khSO3ydu+dSOefU8od/XSlKcuW9d57+2XMeriTv/qP48pnvAOnQRx6R7s4XZB7XDPXRiL7vbOnT9TumYFDRu0bjimlxNigpzD3bs/Fev06ktquG9XTvm1fMGfW8SxlY7den82+U6miS4cw9rQndADdufJvdKApCcNWtCAAHLBJzycf3HWffi+v3X2ewRLzzSOkwQdVVNZ1Gce+jEEHufhbs6GtDqXPqcv+/ZtJ6Fea2ndqb9TmavvDDzQO9kod/C1sx3YhTiyJpPe/zqe5osPKzx6yGLqCcd8i/MmnbS4f4+J5MguaXDfc4d3WwkANFZUhICCGRIwBznLyzoHvSgk+7JFXTve+2Q+KDFnDq/6XC1zAE6lfbyjg41m3MFopxMh+tU++/82+s2SYwZFo9yah1j173/gadWEmPaKcpdb22nuUcCtb2rhyccHeFJciIBSFKbdSGAgDUCjh7XD9w56AmCru7VRTW5emxbQnQOrWH6qIIxJ/xpAhB40lEV0UQgqqnVcfY7QrN2pZrkmQQpqskc/ul0/kG/5Zu6JDmRACSpzboQQMASAU/c6lyoWJ0ozwVYc8LfoIG1Tl7scALjoOWY+d2aXnlgzqwPOJnDKW4lnG171SaOsKMbbkjbdizmNWybm0Mqjl7RkdREApCUNOtBAAFrBJy6nkWue7phJjPcLeZywQimKI5Vu3qSYiSTXmIXdjKX6UUymVGRkEP4rcso9ZyA0JMeSYhiCD+Ktu63LiQA/UoxHwII5Ecgqo47ir057eCcAMf+1zVWmuqUplgUqnVfh3Vgg33gmPtCSPhEwm8yAjCYPHMjgAACEQqEGeI+JYyQowitsqLYO9WCnIjKkQjKcSLoKFs2UfiagiKoU1QnfUa27bWAev+PEYDePnyLAAIIIIBAJgVIADLZrFQKAQQQQACB3gIkAL19+BYBBBBAAIFMCpAAZLJZqRQCCCCAAAK9BUgAevvwLQIIIIAAApkUIAHIZLNSKQQQQAABBHoLkAD09uFbBBBAAAEEMilAApDJZqVSCCCAAAII9BYgAejtw7cIIIAAAghkUoAEIJPNSqUQQAABBBDoLUAC0NuHbxFAAAEEEMikAAlAJpuVSiGAAAIIINBbgASgtw/fIoAAAgggkEkBEoBMNiuVQgABBBBAoLcACUBvH75FAAEEEEAgkwIkAJlsViqFAAIIIIBAb4Fi76/5dpgCH/jm/nPcprO36fsbHd/dOMxYVq/78Xt/tL3RqK/+iPcpFNg7XpiqVpqpiMzzPKk3mlKpVGVpoSSNppeKuLoF4YvT7avBPneiKMcfbJ0WzO37UbiIpEsmmjpJVNteH9sBCUAfSEnNsu8b128rNopv0PZ/lW4EL5WGbDL/TDpmg3DSs6nvueBZSZGwnhAC54rsDLF4bIv6vi8LcyU5dGhaHnn4oBw7NhvbugIX7ETzT6PvRlCOicUkEuoWZookFhOAWwgTRmtZJ4IyWgVF4asFRWHjO+FdTuBEVE6rsN7/i2Dr7L0Cvj29wJ9eefNTHd9/tzTl17SvHzv9EsyBgL0CjnZmm7dOtX6e9vRzZX52Se64/X556MGDukcXrpOLSsUvjIQvyuwQuqORlONrOU6zGqosvxBBLBqBXxgzuyShJlNGJFMUdTLJlRtBe5ukxvx44UbdIrPpA5gEoA+kuGb55JX3jS34s+/TzP6duo6I/iLiipZyEYhHwCQDL3zJc+WCC58sN3z/RzJ7fCGeFQ1S6sjEiY4uRKfrj2yIZG/ZhO2PbRJn+dggNTh1XjOAoGVEMfmjejSydDRUUd5YNEc0TxhrN+Y1Asfjj6pLJIdqNAw1dsvBR7R8x9V20u0moSm5sYaEKmTLav70X298cs2p/rtueW/QmEnEbGk44oxNYHJyXJ563jlSq9ZlZmY+tvX0W7Ajnji1pX5nXzefN7VLRBOJSCbdQ3UrM4GL8se2iD+5LfDypyxY1NGIyrw4QTtd3Uv2Np+j//RFcA666bibdXHqy6eEOMgv3qaz9V/g8UEW6T6vHpJwy8e7f3+6bya2iT++5XRzRfY9CUBklP0X9Cdfu/E5bsG9Wpc4v/+lmBOB7Au4riO795wlxWJBDh+eHmqFfe283fKc7joPPqTrj0yKt3GPdnIRVUEPSTimo2uUBy7Q7FV6W56koxFR7WdopTQet6I2ASZv427xR6cCLNl5EX90UhztdB1/8BNLTRzeRk0Aopr0kIRTr2hbVQYu0ZxD4G3VdorqXII+IiAB6AMpylk+/I0fnKflmc4/lSdoRVlXykIgqMCZZ23TUVlXjhwOvtcbdN0ry5mOc3TDEx2dv/Lx6d6YE8q8bU+NbPi/vT5fh82d2qLueQ92BY6/Za92uNEMubdjObHHrNdK1EorH/Xzsx5A5QAABrJJREFUxh/fqh2ujoxElhmZonQkQRMutzLg0Lt21s1tT4m8w/XHtZ2qCwONkJirTryt54pJHJOcSAAS1N73lVu3OG7zWl2ljn8xIYBAL4EdO7bJ4tKyzM0u9pot3u90T9cb1+O6VY2hn5EAPbnNdP5+MYZTenS42wwPm71Lp9HHCYE6f9N0/uMRDf2vkW7txWvn69T7O0ziTZzxxNB/VMMiqwLSzryVIJmOt4+RADO6423VJC2KkwhXhdF6qyatdtLDEk6ztvbb9b/rHr+vIzT++Ob138X8CQlAzMCri3/5r7/l7/T3l6z+jPcIINBd4Oxd2/VSwUNSqw2219u9xADf6PF3b2Jra8HW0G6ny/HMXv/UDmlu3tsaHg+wlv4WMZ3LmMaix+GloYlAp6REO34Tr7dF9yij3vM/JUpNSHQIvXWConZ0jte5s2sdDlEXf8OZurcdQ+ffjsl05noM3SQAJxKkDqM22pbNqZ0nEpHIDom0A1j12koCTDvpoRttp07Jozk0Y+I1w/6tkxlXLZ7U2xhbI6kq2LGeD15506v0340r7YiWKBFIj8DBA8fkO1ftT0dA+kdsTgxsXZJnLvfSTqS1t6+HCiK7edAANXXqZe1g9AS4pp4F72pyoJcLtvbMo7rOfoBYzJn4TlVtTCKgTr52fqJXQiR5WVs73NYoQL3UOh4vZkSgYNpJr+wo6hB74r2ebhnaTmLaypw4qW3Taidztn+Cx/vbNqtfE6dYvfK8vNcbnzgfvPLmH2p9n5WXOlNPBKIUuOqbN+hJgUM8HyDKylAWAikR4BBAAg0xeulrrtCs8w8SWBWrQCCTAhOTY3qjoAOZrBuVQmBYAhFciDms0O1Zr+/Kb9sTLZEikD6BnWdvl8kNEV2rnb7qERECQxEgAYiZfd/Xbp7U42Gvjnk1FI9ApgXM8zD27jWXjzEhgEBUAiQAUUl2KWfE9V+kX8VwTVCXFfIxAhkV2LHrjIzWjGohMBwBEoCY3fWplxfFvAqKRyAXAlu3RnMv+1xgUUkE+hAgAegDKdQsvv8ToZZnYQQQaAlsmBqXQoF/stgcEIhKgL+mqCS7lKPHLuO5DVeX9fExAlkVMOcBjIxG8NjWrAJRLwQGFCABGBBs0Nn1fhicujwoGvMj0EWAEYAuMHyMwOACTRKAwdEGW8KVwZ6WMVjpzI1ArgRqteDPfc8VFJVF4PQCCyQAp0cKN4cnR8IVwNIIIGAEmo2mNEgA2BgQiEbAkSMkANFQdi/FlXu6f8k3CCDQr8DCQknvt9/hAS/9FsB8CCCwIuB4cg8JwApHPG88x78xnpIpFYF8CRw7NuDz3vPFQ20RGEzAcb5PAjAY2cBzP23x4Vt0oeMDL8gCCCBwisDBg9On/M4vCCAQXECfUXcVCUBwv76WfP3rX6/PDJUv9TUzMyGAQEcBc/Lf4QNHO37HhwggMKCAI/fd/c/vv4UEYEC3ILM74n9Gl+PgZRA8lkFABR68/zFpNPW57kwIIBBewJNPayH6nDqm2AXee8Vlt6n112NfEStAIIMCpuO/4/YHM1gzqoTAUASOjo5vMDulQgKQkL/veX+oq6omtDpWg0BmBO740f1SLlcyUx8qgsAwBXzH+aMf/eM7W/enIQFIqCX+x2uef5+Isy+h1bEaBDIhcPz4vNx5xwOZqAuVQGDoAr78xz1f/OO/a8dBAtCWSOC1cdPF/0sPBfxbAqtiFQhYL1Ct1uXaa26RJsf+rW9LKpAKgUfrDXmTRrJyPhoJQILtsm+f440Vx96gjwj+foKrZVUIWCfQ0Lv+XfPt/bK4uGxd7ASMQAoFpptO4ZUPfGXfKZfSkAAk3FLvfMVzSqP16it0tVclvGpWh4AVAtVqTb71zRvk2LE5K+IlSARSLvCodv4vve+L/+OutXE6az/g92QE9l19dbG4PPVBXds79Yd2SIadtaRcYFrv9nftd2+V0lI55ZESHgIWCOgxfzPsv3bPvx05HU9bYkivH/i3/S8Ux/lrXf1zhxQCq0Vg6AL1Wl1++MN75Z67HxHfWzlEOfS4CAABSwWO6l/Ru+/50r6/1fi7/kGRAKSgdfft893ixftf67vu72mDvFRDol1S0C6EEL/Aku7pP3Dfo3K3dvwmCWBCAIFQAvdqd/8Zc51/+1K/XqXR0fTSGcJ3H/j6LU9y/OYrfHFeKq5/oTbmXg1jk/6MDiEcVolAZAKmgy9XarIwX5KZmTk5pPf2n5meFb/r/klkq6YgBLImYP5q5nRX8Yj+/dzt+KIPnXO/pbf3/cEgFf3/ZHrGjZplAvcAAAAASUVORK5CYII=;" vertex="1" parent="1">
          <mxGeometry x="760" y="480" width="120" height="120" as="geometry" />
        </mxCell>
        <mxCell id="uXY3sr2Ql3OhQ5Kgx3GS-8" value="&lt;b&gt;Analytics&lt;br&gt;&lt;/b&gt;" style="text;html=1;align=center;verticalAlign=middle;resizable=0;points=[];autosize=1;strokeColor=none;fillColor=none;" vertex="1" parent="1">
          <mxGeometry x="880" y="525" width="80" height="30" as="geometry" />
        </mxCell>
        <mxCell id="uXY3sr2Ql3OhQ5Kgx3GS-10" value="&lt;b&gt;Pull Data&lt;/b&gt;" style="text;html=1;align=center;verticalAlign=middle;resizable=0;points=[];autosize=1;strokeColor=none;fillColor=none;" vertex="1" parent="1">
          <mxGeometry x="670" y="510" width="70" height="30" as="geometry" />
        </mxCell>
        <mxCell id="uXY3sr2Ql3OhQ5Kgx3GS-18" style="edgeStyle=orthogonalEdgeStyle;rounded=0;orthogonalLoop=1;jettySize=auto;html=1;entryX=1;entryY=0.5;entryDx=0;entryDy=0;" edge="1" parent="1" source="uXY3sr2Ql3OhQ5Kgx3GS-12" target="uXY3sr2Ql3OhQ5Kgx3GS-16">
          <mxGeometry relative="1" as="geometry" />
        </mxCell>
        <mxCell id="uXY3sr2Ql3OhQ5Kgx3GS-12" value="" style="shape=image;verticalLabelPosition=bottom;labelBackgroundColor=default;verticalAlign=top;aspect=fixed;imageAspect=0;image=data:image/png,iVBORw0KGgoAAAANSUhEUgAAAgAAAAIACAYAAAD0eNT6AAAAAXNSR0IArs4c6QAAAERlWElmTU0AKgAAAAgAAYdpAAQAAAABAAAAGgAAAAAAA6ABAAMAAAABAAEAAKACAAQAAAABAAACAKADAAQAAAABAAACAAAAAAAL+LWFAABAAElEQVR4Ae2dC5xcRZ3vq7onMxMmkYSAwMK6yOUVIiQxCSDLdcH72f3g6q6uDxRRFxElPCSIoIbHdVxDQGGBII+AinGj+IC7u9d11b37YN0FBBIeAUN4Krrg8goJ5jWZme66dUKaTGa6e06fU3Wq6tS385l09zmn6v//f///PvXrc6rPEYIHBCAAAQhAAAIQgAAEIAABCEAAAhCAAAQgAAEIQAACEIAABCAAAQhAAAIQgAAEIAABCEAAAhCAAAQgAAEIQAACEIAABCAAAQhAAAIQgAAEIAABCEAAAhCAAAQgAAEIQAACEIAABCAAAQhAAAIQgAAEIAABCEAAAhCAAAQgAAEIQAACEIAABCAAAQhAAAIQgAAEIAABCEAAAhCAAAQgAAEIQAACEIAABCAAAQhAAAKjCcjRC0y/X7JijTLdZ0z9PfyrtXd//YRj3hJTzEXGSn3mo0195uM3XmvqczxC7ddTn+35VNqvZq1rAi+8sumoU39wx89d+4F9CDQjQH02o8IyXwhQn+0zgQBoz8eLtRSxF2nAiRYEqM8WYFjsBQHqs3UaEACt2Xi1hiL2Kh04M4oA9TkKCG+9IkB9Nk8HAqA5Fy+XUsRepgWnthOgPikFnwlQn2OzgwAYy8TrJRSx1+mJ3jnqM/oS8BoA9blzehAAO/MI4h1FHESaonWS+ow29UEETn3uSBMCYAeLoF5RxEGlKzpnqc/oUh5UwNTnq+lCAARVtjs7SxHvzIN3fhGgPv3KB97sTID6FAIBsHNNBPeOIg4uZVE5TH1Gle7ggo29PhEAwZXsWIdjL+KxRFjiEwHq06ds4MtoAjHXJwJgdDUE+j7mIg40ZVG5TX1Gle7ggo21PhEAwZVqa4djLeLWRFjjEwHq06ds4MtoAjHWJwJgdBUE/j7GIg48ZVG5T31Gle7ggo2tPhEAwZXo+A7HVsTjE2ELnwhQnz5lA19GE4ipPhEAo7NfkvcxFXFJUhZVGNRnVOkOLthY6hMBEFxppnc4liJOT4QtfSJAffqUDXwZTSCG+kQAjM56yd7HUMQlS1lU4VCfUaU7uGDLXp8IgOBKsnOHy17EnROhhU8EqE+fsoEvowmUuT4RAKOzXdL3ZS7ikqYsqrCoz6jSHVywZa1PBEBwpZjd4bIWcXYitPSJAPXpUzbwZTSBMtYnAmB0lkv+voxFXPKURRUe9RlVuoMLtmz1iQAIrgTzO1y2Is5PhB58IkB9+pQNfBlNoEz1iQAYnd1I3pepiCNJWVRhUp9RpTu4YMtSnwiA4ErPnMNlKWJzROjJJwLUp0/ZwJfRBMpQnwiA0VmN7H0ZijiylEUVLvUZVbqDCzb0+kQABFdy5h0OvYjNE6FHnwhQnz5lA19GEwi5PhEAo7MZ6fuQizjSlEUVNvUZVbqDCzbU+kQABFdq9hwOtYjtEaFnnwhQnz5lA19GEwixPhEAo7MY+fsQizjylEUVPvUZVbqDCza0+kQABFdi9h0OrYjtE8GCTwSoT5+ygS+jCYRUnwiA0dnj/TYCIRUxKYuPAPUZX85DijiU+uwKCWozX9dc951mi71ZNv3Mk7zxpVNHGkX89ROOeUunbdn+VQLUp71KoD7zs6U+8zNs1UMI9ckRgFbZY/k2Ao0iBgcEfCRAffqYFXxqEPC9PhEAjUzx3JKA70Xc0nFWREGA+owizcEG6XN9IgCCLatiHfe5iIslgTUfCVCfPmYFnxoEfK1PBEAjQzyPS8DXIh7XcTaIggD1GUWagw3Sx/pEAARbTm4c97GI3ZDAqo8EqE8fs4JPDQK+1ScCoJEZnlMT8K2IUzvOhlEQoD6jSHOwQfpUnwiAYMvIreM+FbFbElj3kQD16WNW8KlBwJf6RAA0MsJzxwR8KeKOHadBFASozyjSHGyQPtQnAiDY8vHDcR+K2A8SeOEjAerTx6zgU4OA6/pEADQywXNmAq6LOLPjNIyCAPUZRZqDDdJlfSIAgi0bvxx3WcR+kcAbHwlQnz5mBZ8aBFzVJwKgkQGecxNwVcS5HaeDKAhQn1GkOdggXdQnAiDYcvHTcRdF7CcJvPKRAPXpY1bwqUGg6PpEADTI82yMQNFFbMxxOoqCAPUZRZqDDbLI+kQABFsmfjteZBH7TQLvfCRAffqYFXxqECiqPmXDoK3nJSvWKFt906//BBbMm269xvJQoD7z0Au/LfUZfg7LHIHt+uQIQJmrh9ggAAEIQAACLQggAFqAYTEEIAABCECgzAQQAGXOLrFBAAIQgAAEWhBAALQAw2IIQAACEIBAmQkgAMqcXWKDAAQgAAEItCCAAGgBhsUQgAAEIACBMhNAAJQ5u8QGAQhAAAIQaEEAAdACDIshAAEIQAACZSaAAChzdokNAhCAAAQg0IIAAqAFGBZDAAIQgAAEykwAAVDm7BIbBCAAAQhAoAUBBEALMCyGAAQgAAEIlJkAAqDM2SU2CEAAAhCAQAsCCIAWYFgMAQhAAAIQKDMBBECZs0tsEIAABCAAgRYEulosD2bxmuu+E4yvPjo6/cyTfHSrND5Rn/lSSX3m4zdea+pzPELt14denxwBaJ9f1kIAAhCAAARKSQABUMq0EhQEIAABCECgPQEEQHs+rIUABCAAAQiUkgACoJRpJSgIQAACEIBAewIIgPZ8WAsBCEAAAhAoJQEEQCnTSlAQgAAEIACB9gQQAO35sBYCEIAABCBQSgIIgFKmlaAgAAEIQAAC7QkgANrzYS0EIAABCECglAQQAKVMK0FBAAIQgAAE2hNAALTnw1oIQAACEIBAKQkgAEqZVoKCAAQgAAEItCeAAGjPh7UQgAAEIACBUhJAAJQyrQQFAQhAAAIQaE8AAdCeD2shAAEIQAACpSTQFXpUod+POXT++N+eAPXZng9r3RKgPt3yd22dIwCuM4B9CEAAAhCAgAMCCAAH0DEJAQhAAAIQcE0AAeA6A9iHAAQgAAEIOCCAAHAAHZMQgAAEIAAB1wQQAK4zgH0IQAACEICAAwIIAAfQMQkBCEAAAhBwTQAB4DoD2IcABCAAAQg4IIAAcAAdkxCAAAQgAAHXBBAArjOAfQhAAAIQgIADAggAB9AxCQEIQAACEHBNAAHgOgPYhwAEIAABCDgggABwAB2TEIAABCAAAdcEEACuM4B9CEAAAhCAgAMCCAAH0DEJAQhAAAIQcE0AAeA6A9iHAAQgAAEIOCDQ5cCmUZNrrvuO0f5i64z7gdvNOPWZjy/1mY/feK2pz/EItV8fen1yBKB9flkLAQhAAAIQKCUBBEAp00pQEIAABCAAgfYEEADt+bAWAhCAAAQgUEoCCIBSppWgIAABCEAAAu0JIADa82EtBCAAAQhAoJQEEAClTCtBQQACEIAABNoTQAC058NaCEAAAhCAQCkJIABKmVaCggAEIAABCLQngABoz4e1EIAABCAAgVISQACUMq0EBQEIQAACEGhPAAHQng9rIQABCEAAAqUkgAAoZVoJCgIQgAAEINCeAAKgPR/WQgACEIAABEpJAAFQyrQSFAQgAAEIQKA9AQRAez6shQAEIAABCJSSQFfoUYV+P+bQ+eN/ewLUZ3s+rHVLgPp0y9+1dY4AuM4A9iEAAQhAAAIOCCAAHEDHJAQgAAEIQMA1AQSA6wxgHwIQgAAEIOCAAALAAXRMQgACEIAABFwTQAC4zgD2IQABCEAAAg4IIAAcQMckBCAAAQhAwDUBBIDrDGAfAhCAAAQg4IAAAsABdExCAAIQgAAEXBNAALjOAPYhAAEIQAACDgggABxAxyQEIAABCEDANQEEgOsMYB8CEIAABCDggAACwAF0TEIAAhCAAARcE0AAuM4A9iEAAQhAAAIOCCAAHEDHJAQgAAEIQMA1AQSA6wxgHwIQgAAEIOCAAALAAXRMQgACEIAABFwTQAC4zgD2IQABCEAAAg4IIAAcQMckBCAAAQhAwDUBBIDrDGAfAhCAAAQg4IAAAsABdExCAAIQgAAEXBNAALjOAPYhAAEIQAACDgggABxAxyQEIAABCEDANQEEgOsMYB8CEIAABCDggIB0YLNUJueffJHKE9DSZYvIQR6AtG1LgPpsi4eVjglQn24TwBEAt/yxDgEIQAACEHBCAAHgBDtGIQABCEAAAm4JIADc8sc6BCAAAQhAwAkBBIAT7BiFAAQgAAEIuCWAAHDLH+sQgAAEIAABJwQQAE6wYxQCEIAABCDglgACwC1/rEMAAhCAAAScEEAAOMGOUQhAAAIQgIBbAggAt/yxDgEIQAACEHBCAAHgBDtGIQABCEAAAm4JIADc8sc6BCAAAQhAwAkBBIAT7BiFAAQgAAEIuCWAAHDLH+sQgAAEIAABJwQQAE6wYxQCEIAABCDglgACwC1/rEMAAhCAAAScEEAAOMGOUQhAAAIQgIBbAggAt/yxDgEIQAACEHBCAAHgBDtGIQABCEAAAm4JIADc8sc6BCAAAQhAwAkBBIAT7BiFAAQgAAEIuCWAAHDLH+sQgAAEIAABJwQQAE6wYxQCEIAABCDglgACwC1/rEMAAhCAAAScEEAAOMGOUQhAAAIQgIBbAggAt/yxDgEIQAACEHBCAAHgBDtGIQABCEAAAm4JIADc8sc6BCAAAQhAwAkBBIAT7DuMnnFG/6Qd73gFAQhAIA4C7Pvc5xkB4DgH9c3D/3TKKZ+d7NgNzEMAAhAojMBHPnJen973/UNhBjHUlAACoCmWQhce3V3v/ikioFDmGIMABBwRSAb/vmrvj7T5Yx25gNntBBAAfpQCIsCPPOAFBCBgkQCDv0W4GbruytCGJnYINETA8Tff/JUNdkzQa2wEpkyS4g/2rGz723OqFLtNrug/KbqqQkzskULpfwNbhRiqCbFugxIvb6iL59cp8evn6+Lp5+qx4SJeiwQY/C3Czdi1zNiOZtsJzD/5ImUYxl2DlUFEgGGoMXWnHlx0hJDV9wml/lTHPSNn7L/Q7X8slLxNzl64ImdfNI+UgK3Bf+myRYxhOWoKeDngJU0tCICkW0RAQoFHagJqtf41ydCETwghT9WNDk3dsLMNVwspbhJiwjfkzPM3ddaUrWMlYGvwT3giAPJVFXMA8vETUok7cnbRrPnRPbXuH/MzmWZoWDaSgFp1eZ9adekXxFD3r/Xgf6VeZ2vwT8zO0GcMloj60K/Vg5denNge6QuvITCaQLIPm1Tp/alefuzodXnfW9r35nUrqPYIgJzp2lgfOF538e85uxnTXElxDD8RHIOFBdsJKKWkWnXJR4Uaelwf6u/Xi3crDI4U04RQf6VtP6YevOTDhdnFUFAEkm/+yU/9kn2ZBcfv3FodTE5x8chBgFMAOeA1mto8xKVtcDqgAZrnbQTU6q/sJQaHb9SH4//cEyT/pOccnCpnfu4ZT/zBDccELO8T79TzpN7OZOn8SUYA5Ge4rQfLBY8IMJSn0LvRh/uP19/4v6PjKO4bfxpoSqwVUn5Izlr4/9JszjblJWB5X8jgb7B0OAVgCOby5Vds2lQbeKfu7t8NdTmym8ZPBLli4Egqkb3Wg/9CPfj/ow7br8E/ycOrpwV+rB5Y/NnI0kK4Iwgw+I+AEcBLjgAYTpLlDwBHAgznK4TukvP9YtWlV2hfzw3BX+3jtWLm4AIp+7mQQCAJM+Gm5X0f3/xNJGlUHxwBGAUk71uOBOQlSPuRBLYP/t/Qy0IZ/BP3zxIPdS/d5vvIYHhdWgIM/mGmFgFgIW+IAAtQY+1y1WWX69A/Flz4SnxCH7W4Oji/cbhjAgz+HSPzpgGnACymwvIHg9MBFnPnQ9dq1eKzt/3u3gdnMvsgT9cTA5dmbk5DrwlY3sdx2N9y9hEAlgFb/oAgAiznz1X36qHL3irq9X/R9ie48sGQ3UEtYt4mZ19wp6H+6MYTApb3bQz+BeQZAVAAZMsfFERAATks0oRaedmuYkL9IT1wvqFIuxZtPSsq8jB5+MJ1Fm3QdYEELO/TGPwLyiVzAAoAzZyAAiCXyUSXurZEg3+SmX1EXSSXKeZRAgIM/iVI4vYQOAJQYC4tf3A4ElBgLm2Z0pfWPU7/qP7fbPXvtN+6OFa++YKfOfUB47kIWN6H8c0/V3Y6b4wA6JxZrhaWP0CIgFzZad5Y3bN4muiWbxOyPkcPzgfrrQ7Sf3vpv6r+21X/JXfGe0X/vaCvkf+Ufn5SyMoKUandKw+76L/0+1QP9YMfVMWBT96vL6pzeKoG4W30oHj8gLnyhBNqaV3Xp0PeoE+HHKEvgDRXsz9Qt9tf/71e/yXck5sRJdyT/p7T7B/Tz4/rKxKuFAPidnnkBWv1ex6GCFjedzH4G8pTJ90gADqhZWhbyx8kRICBPKmHL9lTDIuP6sHkA7q72fov4+kymQxKPxZ1dav+9vvzdq69emMdubzdNsGvSy4XPHPhd9vFoR5YdLS+t8D79ID+Dr1dIrayPOpaSN2vG35fVNRyediFz2fphDavErC8z2Lwd1RoCABH4C1/oBABGfOqHrp0jh6sL9DN/0z/GZ6BL58Qon6jGBj6mjyq/3cjXdQ39KuIVd0P62U2b+c70qSr178QMxceLqW+meuIx/aJj5/Qcx9O04sPGLHKxMshLSZ+qAXBYjnzwkQU8OiAgOV9FYN/B7kwvSkCwDTRDvqz/MFCBHSQC/XgZTOErF0ilPxz3cz250IP/mqJ6O26XB7yuQ2Jm+qBS96hjzb8qAOXw920ov5UHn7hT7bFfXf/60Rv9/n69dn673WWg0pEx//VExIv1EdjHrFsqxTdW95HMfg7rpKMhzUde10S8/w6wH0i1a/6e/UNbC7R38wf0IP/u7RHtgf/JGg90MmLxUDtKX3Y/5Rtl8yV8lT3NAryoC5PTWLWFzr6uOidkMyZuOhVJtbtJ7l9tz6Z84B6cPGXktxbtxiwAQb/gJOX0vUidnYpXYl3M8sfNI4EtCgt/a17lv7W/X29Out55hY9d7hYqf/QfrxFtzJ8yqFDP4rbfEhP6vu5jvmtxZlsZknPz6jLD8g3f35Vs7UxL7O8T+KbvyfFhQDwJBGWP3CIgFF5Vqsu+aj+xn+DXrzLqFW8jYvAgJ53cLa+UuHX4gq7dbSW90UM/q3RF76GUwCFI29ukNMBzbmYXrr90PNVevD/lu6bwd804PD669UnfW7SpwT+mrsXCsHgH14B5/GYIwB56Floa/kDGPWRgG2/sz/oiZv0+fdTLKSOLoMnIL8thnc7Rc49Tf9qIL6H5X0P3/w9LCkEgIdJsfxBjFIEqNv7u8TUCd/Tg/97PUw5LvlCQInbxPrBE+Vx/cO+uFSEH5b3OQz+RSQxgw1OAWSAZrsJpwPMEt72zX9q9zIGf7NcS9mbFO8TU7q/u00wljLAsUEx+I9lEssSBICnmUYEmEnMtvO6Bz2ZTPA6yUyP9FJ6AokImNq9tPRx6gAZ/GPIcusYEQCt2ThfgwgwkIJVl/brXj5moCe6iIvAx/XEwP9d5pAZ/Muc3XSxMQcgHSenW1n+oJZ2ToD+nf/J+rfm33SaPIyHTCC5cuBfylkXlO7+DJb3KZzzD6TqEQCBJMryB7Z0ImD7RX7u0umdGEiKcdNPAgOiIo+Rhy+8z0/3OvfK8r6Ewb/zlDhrgQBwhr5zw5Y/uKURAdtu39sjkh32H3ROmRYQGEPgV1oEzNEiYN2YNYEtsLwPYfAPrB6YAxBQwpgTkDJZvSK5wh+Df0pcbDYugTeKmrpu3K0834DB3/MEOXAPAeAAeh6TiID29PQlfj+oL+36/vZbsRYCHRKQ4kT1wKXB1hWDf4f5jmRzTgEEmmjLH+ggTweoV28t+5hO6V6BphW3/SbwvBgYPEge1a9v5xzOw/K+gsP+4ZTCGE85AjAGSRgLOBLQJE+9Pf16KYN/EzQsMkJgT9HbvdBITwV1wuBfEOhAzXAEINDENdy2/AEP5kiAWnnZG0RX/QnNpbvBhmcIWCAwIOrV/yHf/LnfWujbaJeW9w188zeaLTedcQTADXdjVjkSsB1lV/18/YrB31hl0VELAr2iUvtMi3XeLGbw9yYVXjvCEQCv05PeOcsfeK+PBKgH+qcI2f2spsXtfdOXDFtmJ7BRzwXYx9e5AJb3BXzzz1433rXkCIB3KcnmUNxHAiYk1/ln8M9WOrTqnMAk0dvzwc6b2W/B4G+fcZkscASgTNnUsVjeAXh5JECtWnyX/unfW0qWSiPhbLmjmquficfUcrUvceP/1JcIfqtP8Vn+7PPN36dkG/KFIwCGQPrSTWxHAtT9i/fQg/+RvvDHj2gIHK1WXrG7L9Ey+PuSibD8QACEla9U3kYlAirqOA2FOk5VGWxkkEBVTBj6I4P9Ze6KwT8zuugbsuMsaQnEIwIk3/5LWsMBhOW89hj8A6gSj11EAHicnLyuRSICZuTlRHsIZCKg1PRM7Qw1YvA3BDLibhAAJU9+BCLgjSVPIeH5S2B/V64x+LsiXy67CIBy5bNpNCUXAZObBs1CCNgmIMUk2yaa9c/g34wKy7IQQABkoRZgm/KKADUhwHTgchkIKFF47TH4l6Fw/IkBAeBPLqx7Uk4RILusg8MABJoSKFZ8Mvg3TQILcxBAAOSAF2LT8okANRxiHvC5DARkYVdJYvAvQ734FwMCwL+cWPeoXCJAPmMdGAYg0IyAFP/VbLHpZQz+ponSX4MAAqBBIrLn0ogAJX4TWeoI1xcCBdQeg78vyS6nHwiAcuY1VVSlEAESAZAq2WxknoCSVo8AMPibTxk97kwAAbAzj+jelUAE3B9d0gjYDwKVurXaY/D3I8Vl9wIBUPYMp4gvaBFQET9PESKbQMA8gXrdSu0x+JtPFT02J4AAaM4luqXBioDDFj4mhHopuoQRsFsCSqwVsy560rQTDP6midJfOwKy3UrWxUfA8g7orsHK4PE33/yVDWnJbrvdb1W+VSg1Q9/29xAhxcG67VT9N0X/JVdiS36KlVyQJd+N73UHzR5b7sjX7cRjCvulWDP3Bf5b4590PKT/ki9Rm/Tfev33sq7Rx3WNPqpf/0IMd/+HnHteanFq+bN3p/7svb2Tz56OgUfJCSAASp7gLOFZ3hGNKwLUg5fO1n6fpAf9P9Y708P0a2d1ygBqbQBNVZqB81c6yIe0KPhnfZTqO3L2hQ+2CtryZ47BvxX4yJc727FGzt378C3vkMaIALW6f5IYnvBxoeTHNZxk0PfiEfgAxBEAx0dgRhXxw0KqbwjR/XU58/zkqMG2h+XPGoN/AzTPYwggAMYgYUGDgOUd0zYR8I1P7VIVsudT+tv+Av09f1rDti/PCACOAJivRT1nRVWuFjV57UeXvDTcV+39kbZxrHk7gsHfAtQydckkwDJl03AsNicGSimPPn5m331K9CST+P7Kx8HfME66g8B2AnJ3fSRgkarWHvuzuZNW6s/CsRbQMPhbgFq2LvPNcCobDeIZQ+Chh+4amn7YEbd1V7qO1iv3G7NBhgW77yrF6X/WI/7nYV3TpBR9GboorMnwb/Jp5AlvSE4Du3vgv1v+7TKvB/5JM/ar7n7QvhXxxLN1sXlru607Wsfg3xGueDfOt3eLl1tUkZs8EjDrgC6x8MReccA+lF5URUSwLQkcuG9VXHjSRDH3YCPfxxj8W5JmxWgC7IVHE+F9UwJ5RYD+pi/e/0cTxGnv7Ba79DL1pClkFkZLoLdbiI+/vUe8960TRPJZyfhg8M8ILtZm2UvNILHr7l2913Cl8jZVF0fq4j9EO7W/PnCXTAhLfuedPDbqZWv1sl8qJR6tSHF3VdVvP/OIGc+9upr/iyKQZWJgl/5i85d/0mPqG05RoW6zwyRAJgEWWnDa2ANP1sQ3f7pVDHV2o2sG/6ITtd1eyOOXMwFw7T1rptWr8qS6Uh/RTszNmLsVevLY8mpN3HLWkdPXZuyDZh0S6EQEdFWlOONdPWL6G8I82IQAQAB0+PEwsvmaX9fE9T8cFMO1VHMYGPyNUE/fSVnGr8IFwDV3P7Gv6ho6T//e+xMa9y7pkbfdcpMS8mv1IXnFuUcf/GzbLVlphMAZZ/RPUpuGf6KkOKZVh8mhzOSw5pyDjJzbbGXG6nIEAALAaoG16Xzl48Pi5p8M6l/Itt5IKnGH7Ot6+/XX929svRVrTBEo2/hVmAC4ceXKCQP1SWckP3/RyWgc2jeVl0Y/m/WLy+WUrkvPPvBAc3NqG73zvBOB8Y4EJOf83zY7uUpvuA8EAALAZfX+6wPD4rafDbZygW/+rcgYXl7W8auQ47JXr3j04AHRpw/Xq6t1XmwN/knKkyMKX1Dra3frQzQHJQt42CPQbmLgmw+sBj/42yNHzxBIR+B/ze4S8w7uarYxg38zKhaWlXn8si4Arl6x5r1SqJX6etgzLeSmRZdqVq0iVi6555G/aLEBiw0RaCYCkt/5f/iP9bRmHhCAQG4CJ76tWySfqREPBv8RMGy+LPv4ZVUAXHPvmpN12X5PJ8jmt/5W+Z8sKvLWJSsfnd9qA5abITBSBOiLm2yb8T+xe6cdlhlD9AKBCAlM7BHio1pQJ58t/WDwL6gGYhi/rAmAa1asOU1PEPumzlXT41cF5bCqZ9DcsGTlmk8VZC9aMw0R8LZZ1Ue5yE+0ZUDglggkFwv6o8Orj3NLX0uAR3Uby/hlRQAkh030xNXrRjF191aJq65a+ci73TkQh+W/OXfSBH0hE+9u6BMHfaIsO4ETju2Z8o0zdrOyzy47u07ii2n8Ml5MV963+gB9oOpmDdyn335VK0ou/+rKxw7ppBDYtkMCsvtsfZhyjw5bsTkEIJCCgJTq9aKqzkqxKZtkJBDb+GVUAPSvXt1dVZXbNPvXZeRvs9mkuqrfkvycw6aRWPtWqy5PburDzinWAiDuggioT6vV/S7mVBUUnzszMY5fRgXA1C2Vc4ud7d9xscweqPct6LgVDcYnUB9KLuzEt//xSbEFBLITkPoS6cMTPp69A1q2IhDj+GVMAFx512P76MH/olZwvVkuxRf0fIC9vfGnPI58rDyhGIzE7XV0DAbioCvYNYeu5KnNV7A0K4FYxy9jAqDaXTtfw/f63u7bi2OSng9wXtZCod1YAmrVJW/W92Q4fOwalmz9hf6IMZB1Xgia2dZHfJpG1HkIFlu8ST18CZ83g4BjHb+MCIDkxgjbr+1vMCVWuzptm89WTUTUuap8KKJoOwq1vkEKREBHyLYJpmTwr7/SYbuYNq/Jk2IK12asMY9fRgRAclc/nSBTN/axmetG3321ivpg4w3POQko9cc5eyh1c0RAB+nd/s2fwX9cZnzmxkWUboOYxy8jF+nZfkvfdLQ92WrL82uvnX/yRdd64k6wbtxw+i6768P/bwo2gIIcb4iAnjfV/fqBbEHxpzLD4J8KU7KRvkPg7PPmX6w2DrS5VWDq3uLecPMLL4mJewR3+ZKP6qzlvtZO7iMAyYQ6/bv/OaGVUO/rp4muib2hue2fv73yWO1U7jryLzDzHjVEAHMCmrBl8G8CpfWi5KrAB+irA/LIR6Crb6Lo3X23fJ04aS3nXX33w3vmNZ17x10R8jjthC7HsB7JdbV32Sc3v7CCtuMt3/474IoIaAKLwb8JlPEX7b1bcLvd8YMqeItkDNh+j4WCLec2J0WlemzeXnILAFUXR+Z1wlX7iXvt7sp0eezW1cHlCWZsJBULl7TaJgJW629veuCL/pEM/pqFjXP+NnLnU7724qrAudMxUR8JDvYhK0fl9T23ANBfpIO9vG73lMl5+dFeioPKDKFnRk1UdjUfYf13euCL/SeCjW/+moXpR+V1SiS5K/Njz6kcAcib356pFj7ceZ1K3b6e+8tXbgGgfT0gtb+ebdgzJeTkewOz3IdR9Bf1nkMtiYCYfyLYGPwt/NTv1cG//JMt+3oRAHn3giF/CdSn3w/MG78JATAlrxOu2ld6JrgyXSa75T+MgggwW68M/kZ49vYY6SbqTio93cHGr3//kXvsNSEAgr0xRWWCkV9BBltAhhwPNv8dxY8I6AhXy40Z/Fui6XRFL99fOkU2ZvtKV9BjQO4vXyYEwBioLIBAKQkgAvKllcE/Hz9aQ8AwARMCYKNhnwrrrj40XJit0hpSYkNpY2sWGCKgGZXxlzH4j8+owy0GhjpswOZjCNSHgx4Dcu97DQgAtW4M1UAW1LfyCcqdKhmZAEiAIQI6KxsG/854pdx6YGvKDdmsJYFawBD1FND1LQNLucKAAJBPpbTl3WZb11uYguxdlNYdet66BR8NIALSZYXBPx2nDFtt2MxlgDNg26nJ0CvBHsAWdaGe2CmYDG9yCwB9TepHM9j1osng+txHULyIw60TMncRuvU/h/WGCLB5saAc7vnQ1OZFfnpmlP+nfu1y+Pw6BEA7PmnWbV0X8pfAymNpYmy3TW4BUJHi7nYGfF635bmXfHYvEN/yq9BAAm3uZiICLF4sqLnRcJYmFzwy/XjtIj+afcyPF9ZrAcQjF4GB59fmau+ysVTi53nt5xYA9drwv2kngpOiSh+62PxsnEev8xbNTu1VZdVO72N80zgSwHWlrGc/lov8pAH5zIsIgDSc2m2z6Znn9J0Vgxu+kpCUqg/9rF1sadblFgDnHHVYMoquTGPMp20S5Te8ZcAnlwL1ZSApQn2mN/IHIsB6ATD470Csb8EunvwtH7sdRLK9SsaArS++nK2xy1ZK3LN97M3lhZmrIEixXB8DmJfLk4Ib9+457cylyxZdX7DZ0plbukxL0QcXP6QDm1264DoNaLsI2PqInZvbdOpOmbZn8N85mxUpV1x146Ijdl7KuywElpx10qf0+HVNlrau2iihlpuwnfsIQOJEtSZu0U+bTDhUUB+bupT8fkG2IjCjfhRBkOlC5EhAOk4dbMXg3wSWlP/YZCmLMhCIefwyIgDOOnL6WiXk1zKwd9JET55YmvjsxHgZjap6okaDPJFmJR2IAGNYGfxboFTquy3WsLhDAjGPX0YEQMK7PiSv0E8hHAXYoA/QJr7yMERAzr44+SngCkPdlaOb7SKgHMG4iyL2n/o1Jy/vkrMueLz5OpZmIRDr+GVMAJx79MHPSqm+lAV+kW2UFF8884gZzxVpMxJb10YSZ/owtQjgkZMADMcClPWvjl3IkjwEYh2/jAmABH6P2HylfnogTyJsttWXTrx/otgU1GQPmzyM9v34Ack8kCeN9klnEIDAaAK/FC8P3TZ6Ie/zE4hx/DIqAE6bO3eoVqmfoFNh4fIfuRO8sS7khxIfc/dEB2MIyBNOqOlZAF8Zs4IFEICAOQJSLJbH9Qd9BxtzMMz2FOP4ZVQAJOk4d86MJ0Vdnaxf+vQj1ZqepHjSOfMOyX3pxCRGHi0IzBr8hl7DXIAWeFgMgZwE7hOPHbAsZx80b0MgtvHLuABI2C448tC/009ntOFc5Co99qv5evD/YZFGY7QlZb++P4U8U8fOJcpiLABitklAH8Csn7XtSJtNK/Qd1fhlRQAkNbRg3vSb9M/tPqZfujxcVdPn/U9fMPfQr1PXxRCQsxcmRwCYEFgMbqzEQ+BqOfOiYO+7ElqaYhm/rAmAJOFnHzF9WV2q9+uXLm679zv91f89Z8+bfmNoxRe8v32TPqtjuD/4OAgAAj4QkPpS6xMGF/rgSkw+xDB+WRUASbF8eu6hfy9qao5+WdivA5LZ/noy4hwO+7v5uMoDz94qVO2D2vo6Nx5gFQKlIfCykPIDckb/YGkiCiiQso9f1gVAkusFRx36xLqNzx2hzw+fo9/aPBqwWff/xZd3qb9l22SOxDgPJwS2XRxIindp49xxyUkGMFoCAluEqLxLHr7wlyWIJdgQyjx+6S/LxT6uWvnI3hUlz9dWP6n/+gxZT65AeGOXql/ORX4METXUjVq1+H3654Hf091FeUmXLXfkC3viMfl+TBO7fUNl7KKbYf25eb+cfcHfuzCOzeYEyjZ+FS4AGlivvWfNtOGKOFE78GG9LLmrVae+6BsiiXv0DP9v14bUd889ekaA93Rs0Cj3sxYBf65zldx8qbfckY6NLvYB2HX8YzMSxJJBfdj/Q3Lmwv8ThLcROlmW8avTQddKqm9Y9eTrt24dPE7IylFSqEO0kTfqvz3036TtBjfq5xf136/0xL5Hharf3dPTffvpMw94Yft6njwnoB689E/0/YKSHVojp557bMY91wNg7PbNZLHQXjaIunyPfPPCfynUKsYyEwh5/PJCAGQmT8OgCKhVXzpYqOrfaqcPDcrxHM7GPgC7jj9H6lw0fVwf0XyvnHnhL1wYx2Z8BAqZBBgfViJuRkDOvPgxMTD4Fr3uB83WswwC0RJQ4ruitzqXwT/aCnASeJcTqxiNloA8qj+5T8QH1KpF3xaqcr1+vW+0MAgcAkI8p8/3nyVncb6fYiieAEcAimeORU1AX9XsH0RFHq5f/bV+y08FqYqoCAzXVX3rsFwi1OB0JvtFlXqvguUIgFfpiMsZ/fvm5EJB56lVX75aqOGLtRj4iH4/MS4KRBsTgaFhJX7+SE385N6hyvqNat5gZTDf7zxjgkesxgkwCdA4UjrMSkDds3ia6JGn6l8LJNeI2D9rPz61cz0JLnb7vtTCS68o8Z8PD4s7fzEsNg2okW7dpUXA8Tff/BWbF0gbaY/XEHiNAALgNRS88IXARz5yXt+s/Xb52aG/X53zpv2rYp9pFX2a1BfvOvMj9gHYdfydZcvc1nWlxG/XKvHwL2viwSdr4jcvtL1BJiLAHHp66oBAoLvVDiJk06AIJIN/X7X3R9rpYxuO93brwwF7V8Qb9qyKPXaVYo8pFTGlT4qJPUJM0Cexeib4W8auB8DY7TdqyMbz1iElhoaF2KKv0q8P54sX19fFi/qb/m+er4lf/ndd/+ClI6uIgI5wsbEJAv7uOU1ERx9BEWg2+BsM4E59qPXtsR1qnX/yRTsdb+6U59Jli5zuI9SDi3P532m8o7eXsy7YKX7LNYoIGJ0A3lslwK8ArOKl87QELO9Yoxz807Jnu/QEli+/YtOm2sA7dYt/T98q9ZZHd9e7f3rKKZ+dnLoFG0IgBwEEQA54NDVDgMHfDEd6KYYAIqAYzlixTwABYJ8xFtoQYPBvA4dV3hJABHibGhzrgAACoANYbGqWAIO/WZ70ViwBRECxvLFmngACwDxTekxBgME/BSQ28Z4AIsD7FOFgGwIIgDZwWGWHAIO/Ha706oYAIsANd6zmJ4AAyM+QHjogwODfASw2DYYAIiCYVOHoCAIIgBEweGmXAIO/Xb707pYAIsAtf6x3TgAB0DkzWmQgwOCfARpNgiOACAguZVE7jACIOv3FBM/gXwxnrPhBABHgRx7wYnwCCIDxGbFFDgIM/jng0TRYAoiAYFMXleMIgKjSXWywDP7F8saaXwQQAX7lA2/GEkAAjGXCEgMEGPwNQKSL4AkgAoJPYakDQACUOr1ugmPwd8Mdq34SQAT4mRe8EgIBQBUYJcDgbxQnnZWEACKgJIksWRhdPsRz3b2r9xquVN6m6uJIKcUh+gbc++ubgE/Tvk3a7t9GvWytXvZLpcSjFSnurqr67WceMeM5H/zHh1cJMPhTCRYIDOo+uy30W3iXiQjQn5F39lV7f6SNH2vYgcathI+/+eavbDDcN921IRDy+KXHVTePa+9ZM61elSfVlfqIdmJuRi9WCCmWV2vilrOOnL42Yx80M0CAwd8ARAtdzD/5Iq2bsz+WLlvkbB+ReK0eXJx8rnfLHkG+lnLWBcbjt/xZuWuwMogIyJf2cVuXZfwyXtzjkbvm7if2VV1D5wklP6G33WW87VOu36SE/Fp9SF5x7tEHP5uyDZsZImB5h3an3qG9nW812ZJVAgHwtI78D7JFn7+VDQGQeGX5M4MIyJ/6pj2UbfwqbA7AjStXTlhy76MLVHV4jR78F2i6pgb/JFF9UqhzqhPqjy9Zsab/miee6GmaPRYaJ2B5R8bgbzxjwXX4UnAep3CYOQEpIHm0SVnHr0IEwNUrHj14QPTpw/Xqap3Txnl9G+lNRMUX1Pra3foQzUE2DNDnDgIM/jtY8MoSASUet9Sz824RAc5TkMqBMo9f1gXA1SvWvFd/O18plJiZiraRjdSsWkWsXHLPI39hpDs6GUOAwX8MEhbYIFCRj9no1pc+EQG+ZKK5H2Ufv6wKgGvuXXOynmTwPY3W5rf+5pkTYrKoyFuXrHx0fqsNWJ6NAIN/Nm60ykTgF5laBdQIEeBnsmIYv6wJgGtWrDlNSfFNnVqXPzWsCqVuWLJyzaf8LLHwvGLwDy9nYXvc9Z/a/1y/ZAghfkSAX1mKZfyyIgCSwyb6E3udNylV4qqrVj7ybm/8CdQRBv9AExew23Lm+S9o91cHHEJq1xEBqVFZ3TCm8cu4ALjyvtUH6MP+N+sMVa1mqbPOqxUll3915WOHdNaMrRsEGPwbJHgunoD85+JturGICHDDvWE1tvHLqADoX726u6oqt2mYr2sA9eh5Ul3Vb0l+zuGRT0G4wuAfRJrK66QS3y1vcGMjQwSMZVLEkhjHL6MCYOqWyrnFzvbvuCxmD9T7kmsQ8EhJgME/JSg2s0ZAzl64Qnde+smAIwEiAkbSKOZ1jOOXMQFw5V2P7aMH/4uKSVUOK1J8Qc8H2DtHD9E0ZfCPJtX+ByrFt/x30qyHiACzPNv1Fuv4ZUwAVLtr52vAfe0ge7Jukp4PcJ4nvnjrBoO/t6mJ07EtgzfpwNfFFjwioJiMxzp+GREAyY0Rtl/bv5hs5bdy2jaf8/dTyh4Y/EuZ1qCDkkf1/04H8NWgg8joPCIgI7iUzWIev4wIgOSufpq1yWv7p0xd5s36ahX1wcytS9yQwb/EyQ09tIrUlxJXpbw3wHipQQSMRyj7+pjHLyN3A9S/m1yhO8p6S9/smcvRcsvzL4mnb/unHD3QtEMC3NinQ2AmNg/9boCjGahViz+u5xp9ffRyW+9t3Q0wq7+WBXpWt4Jut98Jx4uJe0wLLAZ174J5hx6Z1+ncRwCSCXV68J+T15Gi2/e+fpromthbtNlY7TH4x5p503EfvlBfY0TeZbrbUPqzfCQgFAzG/Ozqmyh6d9/NWH/FdSTnXX33w3vmtZdbAFSEPE47YeRIQt5gOmkvpRS77JObXycmY92WwT/WzFuIW39ulaiJv9Rdv2Kh+yC6RASYS1MyBiRjQYAPKSrVY/P6nVsAqLrIfRgibxBZ20/ca/esTWmXjgCDfzpObNUBATln4ZOBTTruILp0myIC0nEab6uJ+khwsA9ZOSqv77kFgBZPwV5et3vK5Lz8aN+aAIN/azasyUlAXxzoVn3g8aqc3QTdHBGQP309U3fN34mzHuoH5zWdWwBoBw7I64Sr9j1TQk6+K2qp7DL4p8LERrkIzPz8Z/TJx2/l6iPwxoiAfAkM+UugPv1+YL7ohTAhAKbkdcJV+0oPtwWwwJ7B3wJUuhxLYNt8gK7BT+rTAT8ZuzaeJYiA7Lmu9HRnb+y4pb7jbu6x14QAmOSYQ2bzlQldmdvSsCkBBv+mWFhoi4Cc0T8oure+W/80MKobBo3miQgYTSTd+0pX0GNA7nPYJgRAOtJsVXYCDP5lz7Cn8W0TAbMGP6zdu9JTFwtxCxFQCOZSGTEhADaGSqQ+NByq6775zeDvW0Yi80fK/rq+aM9n9MTA9+jQo7tnQCPdiIAGiXTP9eGgx4AN6aJsvZUBAaCC/bDVtw61JsOatAQY/NOSYjvrBOSshX8nqrV52tCd1o15agARkD4xtYGt6Tf2bEt99YL1eV0yIADkU3mdcNV+6/poryViCjmDvymS9GOMgDzs4qfEzIX/U0iVXDDoBWMdB9QRIiBdsoZeCfYAtqgL9US6KFtvlVsAKCUebd2932sG1+c+guJ3gHa9Y/C3y5fecxBIfiEgZ174N6IiD9GXeuvXXb2co7sgmyICxk/b1nUhfwmsPDZ+hO23yC0AKlLc3d6Ev2u3PBfljcVMJITB3wRF+rBOQB6+cJ2cufCLore6n76T4Hna4GrrRj0ygAhon4yB59e238Djtfqi2D/P615uAVCvDf+bdkL/JDGsh9KHLjY/+3xYTvvhLYO/H3nAiw4IyEM+t0HOuvCv9UTBN+lTA3P0HusK3XyV/gtu39VB2Ns2RQS0JrbpmedEMhYE+FCqPvSzvH7nFgDnHHVYMoquzOtI0e0T5Te8ZaBos6HbY/APPYP4L/Spgfvl7AvO12Jglhjufr1G8l79d7G+quAt+i/Zl/1S/yWnDAb1XykeiIDmaUzGgK0vBnh2SIl7to+9zQNLudTMVRCkWK51dDLzNphH757Tzly6bNH1wTiMoxCAgHECcu55yXnAv93+Z7x/nzpMRID25ziffPLBlyVnnfQpPX5d44MvaX1QQi1Pu2277XIfAUg6r9a0chYiKa5QHpu6lPx+KM7iJwQgAAEI2CEQ8/hlRACcdeT0tUrIr9lJj/le9eSJpYnP5numRwhAAAIQCIlAzOOXEQGQJLs+JJNJNSEcBdhQFfXEVx4QgAAEIACBaMcvYwLg3KMPflb/9PZLvteSkuKLZx4x4znf/cQ/CEAAAhAohkCs45cxAZCkqUdsvlI/PVBMyjq3oi+deP9EsSmoyR6dR0kLCEAAAhDolECM45dRAXDa3LlDtUr9BA3+d53CL2D7jXUhP5T4WIAtTEAAAhCAQEAEYhy/jAqAJNfnzpnxpKirk/XLWvLek0dNT1I86Zx5h+S+dKIn8eAGBCAAAQgYJhDb+GVcACT5WHDkoX+nn84wnJus3emxX83Xg/8Ps3ZAOwhAAAIQiINATOOXFQGQlMmCedNv0j+3+5h+6fKGyzV93v/0BXMP/XocpUuUEIAABCCQl0As45c1AZAk4Owjpi+rS/V+/dLFbfd+p7/6v+fsedNvzFsMtIcABCAAgbgIxDB+WRUASbl8eu6hfy9q+uYbBf46IJntrycjzuGwf1wfWKLdmcCm6y9NPne5Hluuu+yYXB3QGAIBEyj7+KXHymIe/bff3jW1b+8z9fn45FoBky1Z3az7vXzdLvXF/TNmlOZGHpZY0W0JCaj+/srmPXrfIZX8nA7vD89dme/g25Vzk4+qvE/K+jW9Lw7cIvv7XZ7SK2HGCCkEAmUdvwoTAI0kX7Xykb0rSp6v339S//U1lud8Tq5AeGOXql/ORX5ykqR5kATUN748ectmeYoW2OfoAPZrBGFGADR6E0/rV0sHK/WbppyxcN1rS3kBgUgIlG38KlwANOrk2nvWTBuuiBO1Ax/Wy47Qf536om+IJO7RO7xv14bUd889ekaA93Rs0OAZAtkIbLnh0v1UrTJft04E9dTRvRgWAI3uk8MK35TV+lUTT1/4dGMhzxCIhUBZxq9OB10r+b1h1ZOv37p18DghK0dJoQ7RRt6o//bQf5O2G9yon1/Uf7/SE/seFap+d09P9+2nzzzghe3reYJAVASS8/uyXlmggz5R/7W8rbclAdBgXdcvfqwvAf7liWd+/o7GQp4hEBOBkMcvLwRATMVCrBDISmD0+f00/VgWACNcYJ7ACBi8hEAQBBAAQaQJJ2Mm0Or8fhomxQmA17x5Wr9insBrOHgBAX8JIAD8zQ2eRU5gvPP7afA4EAANt5gn0CDBMwQ8JYAA8DQxuBUvgbTn99MQcigAGu4xT6BBgmcIeEYAAeBZQnAnTgJZzu+nIeWBABjhJvMERsDgJQScE0AAOE8BDsRMIM/5/TTc/BIAr3n8tH7FPIHXcPACAm4IIADccMdq5ARMnN9Pg9BTAdBwnXkCDRI8Q8ABAQSAA+iYjJeAyfP7aSh6LgAaITBPoEGCZwgUSAABUCBsTMVJwNb5/TQ0AxEAI0JhnsAIGLyEgFUCCACreOk8ZgK2z++nYRueAHgtqqf1K+YJvIaDFxAwTwABYJ4pPUZOoKjz+2kwBywAGuExT6BBgmcIGCaAADAMlO7iJVD0+f00pEsgABphMk+gQYJnCBgigAAwBJJu4iTg8vx+GuIlEgAjwmWewAgYvIRAZgIIgMzoaBgzAR/O76fhX04B8FrkT+tXzBN4DQcvINAZAQRAZ7zYOnICPp3fT5OKkguABgLmCTRI8AyBDgggADqAxabxEvDx/H6abEQiABoomCfQIMEzBFIQQACkgORyk/knX6Ty2F+6bBE5zgjQ9/P7acKKTACMQMI8gREwMr9k/5MZXRANu4LwEichUCCBxvn9LVKdI5XYr0DTmDJGQM1RSn5ry+4Tv7j52i8zT8AYVzoqEwEEQJmySSy5CDTO72/ZIj4ppJqaqzMa+0JgP+3IZd31yoVaCHxTVutXTTx94dO+OIcfEHBJAAHgkj62vSDQOL+vauJE7RCfCS+yYtyJybrHs1WtcpYWAj+WUn154pmfv8O4FTqEQEAE2NkFlCxcNUdgp/P7dfGH5nqmJ88JVLR/79SnB965+dqv3Cdl/ZreFwdukf39w577jXsQME4AAWAcKR36TIDz+z5np2jfmCdQNHHs+UUAAeBXPvDGEgHO71sCW45u99NhME+gHLkkig4IIAA6gMWm4RHg/H54OXPoMfMEHMLHdPEEEADFM8digQSGnli3fMLv7fqynBhnqV85NxnTeHRKYP1Qfc9bf731et3u8E7bsj0EQiEQ514xlOzgZ24CtY1D02uPvyRkT9czE35v8lPVyb0z9U/8puTumA5KR0AptfGpjbX7b316YP8Xt6p5pQuQgCAwigACYBQQ3paTgNo6vO/gr9btK6tyY9eek/+ja/dd9hdS7FvOaImqEwJ1JZ5ZsXbwqX94ZnDm5mH11k7asi0EQiaAAAg5e/jeMQFVU5OGfvu7t+q/enVa74oJv/e6XlmpHNZxRzQInsBgTaz51+e3vvyv/z14pBYBiMHgM0oAnRJAAHRKjO3LQqBSWzswT/+J6qQJa7bPEzhSB8dnoiwZbh5HXZ/fv0+f3+9ds34Y4decEUsjIcDOLpJEE2ZrAswTaM2mLGs4v1+WTBKHSQIIAJM06StoAswTCDp9TZ3n/H5TLCyEwDYCCAAKAQKjCDBPYBSQAN9yfj/ApOFy4QS4V3zhyDFYJIG1n/i0MmGPeQImKFrvw/j5/aXLFrGPtJ42DLgiwBEAV+SxGxQB5gn4my7O7/ubGzzzmwACwO/84J1nBJgn4E9COL/vTy7wJEwCCIAw84bXjgkwT8BdAji/7449lstFAAFQrnwSTfEEuJ5AMcyNn98vxm2sQMBfAggAf3ODZ4ERYJ6A+YRxft88U3qEQIMAAqBBgmcIGCLAPIH8IDm/n58hPUBgPAIIgPEIsR4CGQkwT6BzcJzf75wZLSCQlQACICs52kEgPQHmCbRnxfn99nxYCwErBBAAVrDSKQSaE2CewA4unN/fwYJXEHBBAAHggjo2oycQ8zwBzu9HX/4A8IQAAsCTROBGnARimifA+f04a5yo/SWAAPA3N3gWF4GyzhPg/H5cdUy0ARFAAASULFyNg0AZ5glwfj+OWiXKsAkgAMLOH96XmECI8wQ4v1/igiS00hFAAJQupQRUNgIhzBPg/H7Zqo54YiCAAPA8y/NPvijX/ezz3s/ctX3P01O0e77NE+D8vuUKcP35c23fMt7ou0cARF8CAAiRgMt5ApzfD7Fi8BkCYwkgAMYyYQkEgiFQ5DwBzu8HUxY4CoFUBBAAqTCxEQT8JmBzngDn9/3OPd5BICsBBEBWcrSDgJ8ETM0T4Py+n/nFKwgYI4AAMIaSjiDgF4Es8wQ4v+9XDvEGAjYJIABs0qVvCHhAIM08Ac7ve5AoXIBAwQQQAAUDxxwEXBF4bZ7Af2+od+22y33de/f1DIhK/Se/HVx/xwuDR9eV2teVb9iFAASKJ4AAKJ45FiHgloBSleG1m+boP3HhUJ9bX7AOAQg4I1BxZhnDEIAABCAAAQg4I4AAcIYewxCAAAQgAAF3BBAAkxn63AAABqVJREFU7thjGQIQgAAEIOCMAALAGXoMQwACEIAABNwRQAC4Y49lCEAAAhCAgDMCCABn6DEMAQhAAAIQcEcAAeCOPZYhAAEIQAACzghIZ5YxDIECCKz9xKdVAWaCNcF1ANqnbumyRewj2yNibcAEOAIQcPJwHQIQgAAEIJCVAAIgKznaQQACEIAABAImgAAIOHm4DgEIQAACEMhKAAGQlRztIAABCEAAAgETQAAEnDxchwAEIAABCGQlgADISo52EIAABCAAgYAJIAACTh6uQwACEIAABLISQABkJUc7CEAAAhCAQMAEEAABJw/XIQABCEAAAlkJIACykqMdBCAAAQhAIGACCICAk4frEIAABCAAgawEEABZydEOAhCAAAQgEDABBEDAycN1CEAAAhCAQFYCCICs5GgHAQhAAAIQCJgAAiDg5OE6BCAAAQhAICuBrqwNaVcMgfknX5Trfvbcz7yYPGEFAmUkwP6njFndERNHAHaw4BUEIAABCEAgGgIIgGhSTaAQgAAEIACBHQQQADtY8AoCEIAABCAQDQEEQDSpJlAIQAACEIDADgIIgB0seAUBCEAAAhCIhgACIJpUEygEIAABCEBgBwEEwA4WvIIABCAAAQhEQwABEE2qCRQCEIAABCCwgwACYAcLXkEAAhCAAASiIYAAiCbVBAoBCEAAAhDYQQABsIMFryAAAQhAAALREEAARJNqAoUABCAAAQjsIIAA2MGCVxCAAAQgAIFoCCAAokk1gUIAAhCAAAR2EEAA7GDBKwhAAAIQgEA0BLqiiTTQQJcuWyQDdd0Lt+uqMrcq6wuUECdqh6h3L7LivRN1ocSP61X1Ze89tewg+x/LgB13z+DiOAGYL4bAuvnn7Feryfm64D+pLU4txqr/Vi4c6vPfyeI83CCk/KZQ1auWLut/ujizWIKAGwIIADfcseqIwIunfHZypTp0ijZ/jv7bz5Eb3phFACSpUE9LIZeKweGbbrjlsnXeJAdHIGCZAALAMmC695OA6u+vrPuvV96hKuJz2sM/9NNL+15FLgDuU0pes/cbq7f09/cP26eNBQj4RQAB4Fc+8MYBgRdP/cycWOcJRCgAXju/f9PNl9zhoNwwCQFvCCAAvEkFjrgmEOM8gYgEAOf3XX/AsO8dAQSAdynBIdcEYponUH4BwPl9158n7PtLAAHgb27wzDGBGOYJlFgAcH7f8ecH8/4TQAD4nyM89IBAWecJlEwAcH7fg88KLoRDAAEQTq7w1AMCZZsnUBIBwPl9Dz4buBAeAQRAeDnDYw8IlGWeQNgCgPP7HnwUcCFgAgiAgJOH6+4JhD5PIFABwPl996WPByUggAAoQRIJwQ8CIc4TCEgAcH7fjzLHixIRQACUKJmE4geBkOYJBCAAOL/vR1njRQkJIABKmFRC8oNACPME/BUAnN/3o4rxoswEEABlzi6xeUHA53kCHgoAzu97UbU4EQMBBEAMWSZGbwj4Nk/AEwHA+X1vKhRHYiKAAIgp28TqDQFf5gk4FgCc3/emInEkRgIIgBizTszeEHA9T8CNAOD8vjcFiCNRE0AARJ1+gveFgKt5AgULAM7v+1Jw+AEBTQABQBlAwDMCRc4TKEAAcH7fs/rCHQg0CCAAGiR4hoBnBIqYJ2BRAHB+37N6wh0IjCaAABhNhPcQ8IyAzXkC5gUA5/c9Kx/cgUBLAgiAlmhYAQG/CNiYJ2BQAHB+369ywRsIjEsAATAuIjaAgH8ETM0TyCkAOL/vX2ngEQRSE0AApEbFhhDwj0DeeQIZBQDn9/0rBTyCQMcEEAAdI6MBBPwjkHWeQGcCgPP7/mUejyCQnQACIDs7WkLAOwKdzhNIKQA4v+9dpnEIAvkJIADyM6QHCHhJIM08gTYCgPP7XmYVpyBgjgACwBxLeoKAlwTazRNoIgA4v+9lFnEKAuYJIADMM6VHCHhJoNk8gR0CgPP7XiYNpyBgkQACwCJcuoaAjwTU+99ffXnq779H1NWnL6z1CanUVS9tevxvb7311pqP/uITBCAAAQhAAAIQgAAEIAABCEAAAhCAAAQgAAEIQAACEIAABCAAAQhAAAIQgAAEIAABCEAAAhCAAAQgAAEIQAACEIAABCAAAQhAAAIQgAAEIAABCEAAAhCAAAQgAAEIQAACEIAABCAAAQhAAAIQgAAEIAABCEAAAhCAAAQgAAEIQAACEIAABCAAAQhAAAIQgAAEIAABCEAAAhCAAAQgAAEIQAACEIAABCAAAQhAAAIQgAAEiiLw/wGRUquggNXmxAAAAABJRU5ErkJggg==;" vertex="1" parent="1">
          <mxGeometry x="760" y="720" width="120" height="120" as="geometry" />
        </mxCell>
        <mxCell id="uXY3sr2Ql3OhQ5Kgx3GS-14" value="&lt;b&gt;Predictive&lt;br&gt;Model&lt;br&gt;&lt;/b&gt;" style="text;html=1;align=center;verticalAlign=middle;resizable=0;points=[];autosize=1;strokeColor=none;fillColor=none;" vertex="1" parent="1">
          <mxGeometry x="780" y="840" width="80" height="40" as="geometry" />
        </mxCell>
        <mxCell id="uXY3sr2Ql3OhQ5Kgx3GS-15" value="&lt;b&gt;Train&lt;/b&gt;" style="text;html=1;align=center;verticalAlign=middle;resizable=0;points=[];autosize=1;strokeColor=none;fillColor=none;" vertex="1" parent="1">
          <mxGeometry x="820" y="660" width="50" height="30" as="geometry" />
        </mxCell>
        <mxCell id="uXY3sr2Ql3OhQ5Kgx3GS-26" style="edgeStyle=orthogonalEdgeStyle;rounded=0;orthogonalLoop=1;jettySize=auto;html=1;exitX=0;exitY=0.25;exitDx=0;exitDy=0;entryX=1;entryY=0.25;entryDx=0;entryDy=0;" edge="1" parent="1" source="uXY3sr2Ql3OhQ5Kgx3GS-16" target="uXY3sr2Ql3OhQ5Kgx3GS-20">
          <mxGeometry relative="1" as="geometry" />
        </mxCell>
        <mxCell id="uXY3sr2Ql3OhQ5Kgx3GS-16" value="" style="shape=image;verticalLabelPosition=bottom;labelBackgroundColor=default;verticalAlign=top;aspect=fixed;imageAspect=0;image=data:image/png,iVBORw0KGgoAAAANSUhEUgAAAgAAAAIACAYAAAD0eNT6AAAAAXNSR0IArs4c6QAAAERlWElmTU0AKgAAAAgAAYdpAAQAAAABAAAAGgAAAAAAA6ABAAMAAAABAAEAAKACAAQAAAABAAACAKADAAQAAAABAAACAAAAAAAL+LWFAABAAElEQVR4AeydB4AcxZX3X/ekzatVzkgiI5JJ5oRNNJhkMhhjg0mO53QBY/tzkH0OZzifz/EOm+yADSZjcMQEAzaYjMgIoSyttNo0sWe6vvdmNTBa7e6krk7zLxjNTIeqer/qnXr16tUrIiQQAAEQAAEQAAEQAAEQAAEQAAEQAAEQAAEQAAEQAAEQAAEQAAEQAAEQAAEQAAEQAAEQAAEQAAEQAAEQAAEQAAEQAAEQAAEQAAEQAAEQAAEQAAEQAAEQAAEQAAEQAAEQAAEQAAEQAAEQAAEQAAEQAAEQAAEQAAEQAAEQAAEQAAEQAAEQAAEQAAEQAAEQAAEQAAEQAAEQAAEQAAEQAAEQAAEQAAEQAAEQAAEQAAEQAAEQAAEQAAEQAAEQAAEQAAEQAAEQAAEQAAEQAAEQAAEQAAEQAAEQAAEQAAEQAAEQAAEQaAoCRpClPP8a1RKbktvRLhjtyjC6TNvuUkSRIMuEuoMACDQfAdMgI2dFJxUK9lSbqIVsituk4s1Hwl8SG4aRMQzKG6adNkhZsYjZa0SNNYZSg2ZEJa3N8deuvcDI+KvW1dcmMArAmTeqSGfCepthG0eSYR9KyljMYs7nl1m9uLgSBEAABHxAgEcqVt7gF1GBX/mCD+qEKlRNIMK9DisAFImSippGbySinmZl4Y+moe4dsGJP3XSWEYgW9b0CcP5t2b1MZXyQta9ziIxZVbcQLgQBEAABnxHIc2efzRLluPMnVgKQwkOAlQGK8SsaVZviMXWNsun6q05LPOdnCX2rAFx4i/UOHulfypaxE/0MEHUDARAAgUoEpONPZ9iWzO9I4ScgFoJ4QlE8bjxmmoX/uOqUljv9KLXvFIAP3ZFdzHP6P2RYh/sRGOoEAiAAAtUSUDzKT6V5xJ/z3U9ttSLgugYJxOOKEi30aMxQ5195WuKFBrNz9HbfPJWfvFslUpncV8kw/pUljDkqJTIDARAAAZcJFHgWeDhJZNu++Zl1mQCKKyeQiCk70WL+b9KO/Cv7COTKz3n12RdP5kU3p3egSORXPCd2sFcgUC4IgAAIOEVATP1DSf55xTy/U0hDk08iQWs7WgpH/PS0lpe9FspzD/qLb7GOZHfKp9H5e/0ooHwQAAEnCIhH/zA6fydQhjIPdgKdPTAcef4Dv8pd4LWAnioAF92aPUWZ6rcModtrECgfBEAABBolYPOIP8lmf5n7RwKB8Qiwkhhhp9Cr3/dL67vjXePGcc+mAC66JXsmz/ffwEIicI8bLY0yQAAEtBOQzj9nefazql0+FOA8gWiUfnPjubEznc+5co6ePKkX3m4dYdjqHq5eonIVcQUIgAAI+J+AmP6Hhjz5SfU/HNRwQgKRiHHLTedGzuBBsau2I9enAM7/TWZn7vxvYxro/Cd8JHASBEAgSAQygQ0IGyTK4axroaBOO/0666duS+eqAiBL/aIR81csZJfbgqI8EAABENBGgMdtFkz/2vA2Q8ZKGRedfm3un92U1VUFIJW1vsl/J/u5KSDKAgEQAAHdBBDLXzfh5siflYDvnXG1tcQtaV2bsJKY/hFlPM6CIciPW62LckAABFwhIPH9U7xfHBIINEqAw9+/YbZHdudgQRxDUm9yzQLAG/r8H4uCzl9veyJ3EAABDwi46rnlgXwo0j0CitQO+WT+y26U6IrKeuGt+eMMsu92QyCUAQIgAAJuE5CNfuAE6Db18JbHHbNlmtGFN33QWKNTSlcsANz5f0GnEMgbBEAABLwkgMA/XtIPX9lsUYoV7Py/65ZMuwXgoltzB7EQf9ctCPIHARAAAa8IyPy/+AEggYBjBAxKt5vRaT87z+DwUnpSVE+2b+WqDDrP3dAGb5Ud9k+ivUU4jmKUXxxIgl+q+B41FZkGu5Kwfcfki+QlnyXJPXxquyRzmDWNYvgG294um+LeJ5KP5CdhUSUp+cD/21K6fCx+lvt5tks+825p8lkukzyLl299H8kB/4KAvwmo4h/PGH9Y/q42audnAopak/nCiVzFX+uqplYF4MwbVdxQ1tm6Kt9M+Ua5g4+zC6W8YlHFL6PY8W/bmZd+gErv1ROSO7bNq8K9fINZ9QTSePUpP17+eaRs1gdYeSAqlF4FxZ8N4qAZxXeL32XXtbEUkQq1x2kQcJQAtvx1FCcy20qAAwOexR+DqQB0RPP/xJWfgtasjYB0hdLRJ+JELYmRjj+yTWe7fWdZWwnBuFqkLFoxWHbGId+K/45+FwVA1mFbeUU5Vghy1sgLisFWXHjTTkAUVSQQcJyAQe9wPM+yDLVaACKGfYR680e7rFR83I6AjKals29rYbtP3KhhdL1dVk13QNjF5RUzqL1MerEUZHJEGZ6bTedGLAdlp/ERBBwjINNWSCDgNAGeWZp+5jVq5k0XGOudzlvy06oAcOd/mI5KhyVPGc+2thrU0cqdP4/2R0zwpVFuWKT0Tg7xi2hntvKSlMsblEwpSnJ4DZlWQAIBJwiI+b/oAuBEZsgDBEYRUCq/iA8FTwHgSu81ShZ8ZQIyn9/JQ1XpmLY17QOPTgJxVnfjXQb18E4UqYyiLUM8dcBTBkgg0AiBQnH4D8W9EYa4d3wCtmn0jH+2sTPaLAAX3agm86ws5v/L2kc6oO4OoratI9KyU/joMoG2FoNaeT/KgWHFL5cLR3GhImCz/wkSCGgjYBhzdeWtTQGgmLWTrkoHLV9Zqjepg83RbW+5rwVNhjDWV6ZcJnXyckl+7x/CJG4Y29gNmbARkBuUm7eMWMSeoUt6bQqAoYxu1eQBAMQo2MGdfg+bnWtaYqertZHvmAS62CqTYr8AWUGABAK1EsizbwkSCOgiwN0o9yJ6kjYFgFdndzbzeFfm9qdOMtizX0/DIVfnCMjPt7QTFADnmDZLTqoYxKpZpIWcXhDgpdAtusrVpwDwijZdlfZ7vlGmOmPySKAev9cV9RshgAkAPAn1ELBgNaoHG+6pgQDbj7UNI7UpALwEsCntYuLoN2Mqr+NvSulreKp9dKl0/hIrAAkEaiUgwaea2dJZKy9cXzsBDqevrTdhQzWSUwRk3fl0XvuAzt8pou7kk0orjiLoTlkoJVwE8pa23+ZwgYI0viQABcDBZpkyaWRTHgezRFaaCeQ5WmDfoOZCkH0oCeQ55DQiAIayaZtGKCgADjV1u6wr52h+SMEhIJ3/xj5sJhScFvNXTbMY/furQVCbmglo8wGouSYBv0Ei+yEFh4Cs3d6weWQToeDUGjX1DQGe+rfYAoAEAkEmAAXAgdYrbtWL0b8DJN3JIs0Of5v6FbYRdgd3KEuRHScR/z+UTdtUQkEBcKC5YxHZ8xDOQA6g1J5FP8f/H0jy8E2ct5FAoE4C2Sz+3utEh9t8RAAKgAONYbL3P5K/CUiQnz4e9WdhtvV3QwWgdrKBFML/BqChUMWKBKAAVERU+QLZdx5rgStz8uIK8dIe5M1+BnnUD5OtFy0QvjIRMyJ8bdqsEkEBcKDlsYbcAYhOZ8Edf1K2/B00aGS7VqcLQH7NSKBgi/MfLH7N2PZhlBkKgAOtKj8K4lgm28sieU8gnePd/QYViaMWJvu9b48w1SDNm0YhgUBYCEABcKglxcTcmsDIwCGcdWWT2drxY56/Lny4qQIBmffH6L8CJJwOFAEoAA41l8wLJjmkbHsrlACHkFaXDZv601nFnv1EWVYAkEBAF4F0Gn/butgiX28IQAFwkHvfAJFsBhSLOZgpshqTgDj0pXiOf4Ad/OCDMSYiHHSQgIz8xfsfCQTCRAAKgIOtKR7nGzi07MypRNGIgxkjqzcJyIqLoRTRMM/FFtgkiwQCugmIsinWPT+u9Jmc6aUZQ6upK9dP8XyW8pEYZSKt1Ns2kzZ0ziXLDEeEsq7oEM1KbKKOyDC1mDnKqwhl7QRtyXfTusw0yimMuur5O4ACUA+1Ce4Rj/P1m4im9RiUCMff3gTSunSKf3vT7NA3zB1/Ck5YLkFHMSUC6YxBih19/ZA6coN08Op7aZ/1f6PFvY+TfB8v2YZJKybtSs/OOIAemXsULe/ZfbxLfXe81czSAd3P0L4dL9LuHa9SNysA4yUJw7YyPYueT+5Mjw3uTS8nF3CcL0zXjMer/DgUgHIaDn2WVQEb+hT1dBrUwXsE4FGsD6w4XUmnL8v5YH6tjyHuaoyAPINZ9u/xOs0dWE6nvng9d/5/pphdnbOLyVrLoi0vFF8nv/gzWt21kO7c9QP0wPxjqWD686d/RnwznTjtz3TIpCcowSP9ahKrZ7RD69ri67ip99OG3BT63abD6S99B5EFy8CECLX1TRfdmjuXS75+wtKb4GQLLw2c0i1TAtpQh4qizcpTkkf5YnItxlsPlXQQJlAE2PI0MGyQ7eFUU1d2C33gmR/QYW/cTYZDkazWJ6bSLbtfSPftfLpvmqMtkqYzZtxDR095mExyxtwymG2juzcdSnf2HeMbOeupSCJhXHHDOdGP1nNvpXv8qQZWqnWAzsvqgLW9RF1tiro6DDKxAfN2rSedfoo9+cXLWjz6ZbYVCQS8JpDk59HLzn//dX+ljz/6NerMsXexg6lreCOd+tdv0GEv3kiXvftKSsc7Hcy99qx2b3+N/nnez6kn5qycnZFBOrP9Jjq042H6+tp/pYF8V+2VC/kdUAAabGDFjjfK4ldhYhfhPp7C6t9IxWWCHW1EZpMbBCR6sihHGe7wZd2+Q4ObBlszXLebsQQZ8Raeg4JHaq0tm2Ov/1x1Fuhas67q+rOW/YROf+Fqx0b9owsVJbtn0yv0rd8cR5efcD2t6V40+hJXvh879QF6/6w7HBv1b19pRTPUavrunM/RtzZeQq+kF25/SRMfgQJQY+PbmWHKrXmBsqufJ2vTSpLvtSQ2BiCBgGsEDDY5RTqmUGzmztQydw9+5x96KAQT8pfVJSn2PfEiiZn/oicvo2Neu8Wd4rMpuvTOc+j7x15Jr07d050yt5Zyxozf0anT/+BKmVH2m/jijG/Td3s/SU8lF7tSZhAKgQJQZSvZyS00/PTvKbPiaR6uOjNHVWXRuAwE6iageH4lP9hbfKVf5vnVlg5q3/NIat35YDZDwTIwGqxYooZT7Fbm0TzU+5/9oXud/1bhbStHn7znIvr2STfQWpcsASdOvde1zr/UxgZbaT8z5fv0TftSejntjcWjVBe/vGNGukJLyA/o8FO/o813/hdlXn8SnX8FXjjtbwJisRr6xx3F5zm34VV/V9aD2g0nvZv3P3zFb+mkl37ugdT8s5a36N/vuZDiBf1LHvbrWkZnz/qtJ3KaqkCXTv9vjifgkYnHE6nHLxQKwPhsinP7gw9cT6llf6k4xz9BNjgFAr4jUBjuo/4/X8XP9n2+q5tXFUpyn+DVctPZQyvZ9H+5K6KPZ9ww04P0L3/8mNY6iKPfR+b+ipdGj1cLB4sfp4iYnaEvz3aHtYPSaMkKCsA4WO1civp+/0PK8nw/EgiEkgBPZQ0/dU/RwhVK+WoQSlag5HLeeeZe/MS3KZF3J8qVRCwdL81e/xQdsOre8U43fPzcWbfz6Js37nAjTTCPM5NW0bGT/uJGLXxdBhSAMZpHzP6DD/6CCgPsto8EAiEnIBau9KuPhlzK8cXLZEZWpIx/hd4zb+fIfntu/IfeQspytyfoGOXU2Q9/vexq5z7Kcr+3dz/lXIYVclISkW2CdEb3zRQhD4M8TFA3t05BARiDdPKpuym3HvOjY6DBoZASGP7H7ZTvWxNS6cYXS6L8SahfL9OpL17navHWRCYArkk01U9HvXiD43U6efqfHM9zwgx5vn+iFOepgPdOuX2iS0J/DgrAqCYusMd0+qWHRh3FVxAINwGJYzH8+J3hFnKUdNL5pzze4nf33ic5VO+Lo2qm76uE2bIm7heLhb/ruZ85Wok5iY20V8dLjuZZKTNVhaCHdTxYKZtQn4cCMKp5h5+8m1f5TWw6GnULvoJAKAjkNr7eND4vYvb3uvOXh0ZC/LqZctz5VxNrs214PU1PrnWsau/secyxvKrKSDZxmGCqo5RHqz1Eu7QuL31tuncoAGVNXhjaVAzwU3YIH0GgqQikXngg9PJKx++12V8gS9Cf/db+1VXeKau6wY30nccsc25qYr+uZ12VU1kcXrTKdMIkd4IRVVkdVy+DAlCGO7t6Wdk3fASB5iNgbVxBdra26JZBoiRL/fywu58wmze4nCZl+1zDV+BePVPBMa68Mjuvc8YxcVJ0kGYnesuz1vpZsZy27CRWZdoxBgtAlajCfVl21fPhFhDSgUAlArw0MLvavTnpStVx6ryMaIeGvF3qN1oWN+f+pexkzq7GKv5mNbt5GsCJtLB1tTvr/kuVlU0cpMGrTJ3GYJVXhu8yWAC2tqnM+1ubVoWvhSERCNRIIL/pjRrv8PflMh08yJtxybuf0qwh9ziL53+ySvN/iZFhZSjiwHaIM10c/UuYdpWpbRcnQ+VpcnRLSeymeocCsLW5bV76wuH+mqrxISwIjEWgMLR5rMOBPCbBfWTkb9uG7+rfk9nkSp1kLNyfLdQce09M6VOTjS8N7eEpALeSnczw4L/60X+xXnz5gsRqt6roq3KivqqNh5Wxc+5E4fJQRBQNAlURUCH4W5A+IMV/0l5u6VsJdqtLkf+G2PXfkv2360htVuNR+xIR/fsLiGiK9xdXdcZy7oyyiagJExSAJmx0iAwCExGoZpnYRPd7fU5M/UnZ1Kc6h3fvqlvrSLWOmg6z2X+Y5/7rTYYDVlE34v4rdvqzWQGoN7lRx3rrpvM+KABb6ZqxhE7OyBsEAkPAjLUEpq6jKzoS1te77XxH12ei75lY20SnGz4nnf8gm/4bSZlIayO3F+/N2np/W4udf4oDOzSQhvMdDdwd3FuhAGxtu0h7DxmmiSBAwX2WUXOHCJgdkx3Kyb1sCtzPpVKG7xz9JiIwkOiZ6HTd58SwMMAdfypf/8i/VHhv57zSx7rf+/Oddd9b6UY7zWZ/B9Z1rrZmVioqlOehAJSa1YxQpGc25TevLh3BOwg0JYHY1PnBkZs7u3TWIBn5By2t69zB8SrneJ3/QJZXNFWI919VwdEYWZF4VZdOdNGG7LSJTtd3jjW+gjh51BDXYNyCDIPW52aMezrMJ6AAlLVuYu4eUADKeOBjExLgH8P4nN0DIbhlGezox0FfGh/oeiLv65N2dqxccfITZ79Mnc5+Y1Uk1TZlrMM1H1uRmV3zPePdoLjjl2V+Ks+Bfurza9wu6xQ1p/lfQGAZYNnj0DJ3cdk3fASB5iMQmzyXIm3dvhZcnPyGhg0aZgd1Py7vqxbeikm70nC8q9rLt7tORvnS6W9M5ak3nXe085fCXp++73Zl1nNgU24ybeRXXUk6een0szkqDCXJ5lcxzK9Dnb/U6Y18gCxedUEc/yZYAMrYRCbNpNisncla90rZUXwEgeYh0Lb7O30rrHT2YurnviAUyTZMerVtIe0w+ETV8ohlv8DBbsTy7WAfOGb5f97jnDGP13PwjaGZNLWlhulVEU6C+jhh4q9Q4b8MHVrhivCehgVgVNt2vO14PuK/oCGjqomvIOA4gRj7wCR22NvxfBvNUDr+NDv4DXA8mbB0/iUmjyx4N6XZWa/aV5Y7RPHt09355xOdtHzKnqVqNvx+7+ASHrnnq3/xen43Ov+CEae/De3fsHxBzQAKwKiWkx/BlkX7jTqKryAQcgI8Gu3Y/z0spH+UX5nbL3X8NUZ3DUxj3b/TqURx/y27/PtupzjK8JnhPShp+m9q6R/Z5u38pYGhAIzxmHcddCrFpjS+/GWMrHEIBHxJoONtx1FsxiJf1E2W9MmufYMcwjesHX8JtEwDPLTH2aWvvnhX7P1/y76fcrwutw6c5HiejWSomP01vc5NczRSF6/uhQIwFvlIjLoOPZfMtq6xzuIYCISKQOuOB1Db7t7Pg4pX/xBH8JOOX2L4uxAozxft+Ju3fYIKrf4ZHf957wupwMuinU5/6D+MthgalgTWWdEH0odSym480FGdxfviNigA4zSDeEJPPvZTsASMwweHQ0CAl/y1LT6cOg8+wzNhZLO5dNqgfp7fF69+Wd3VbEmxIfZn7/wamdweXqfh7tl01z4f0VaN7238KM8yeS9n0uiiq3vfr03OoGQMBWCCljJbO6nn6I+QjJD88NBOUFWcAoGaCJiJduo65Bzq2Pc4vs/dH2QZ2csmPbKUb0DM/BzCXflwt76agDZ48VNz3knP7HxCg7k0eLsZpf85+v8azGTi25dndqC7kuxr4u4jt02lxPR/+YZPsiOlh5XYpkbefYECUIk9Twd0HnwmTT7+MxSfHYwAKZVEwvnmJWBE48VR/5STLqEWlz3+xcQvc/sDg/LOYXvzzdsOY0l+1ZKvUt+0XcY6pf8Yj8qvO+oy2tQ5V3tZN24+iZbl99JezpgFiJwDH6Dl2YVjnm62g4gDUGWLRzlGwKQjzqd8/3rKrnmesquWUWHLWuwdUCU/XOYdAYM390lwfIs4R7qMz9mNzLjeTWhKkooXf447+TzP5/MKsK0Jo64SidHvijunbx7/c/rq7adRe38Na+ZHZ1Trdy73joMvoSfnHl7rnXVff9naT9F/zP0mzTderzuPmm8UOYffQ/cOeO/vUnPdNd0ABaBGsKIIyKt98ZEchkziUQ+QHYL902vEgMuDQIB/8CItHWS2uuPMKqb9fJ5H9jyPzwHq5M8DqUYCeTbDf/nkW+nz95xHUze+UOPddVzOG6D98rBv0KMcj8DNJOb3L63+An1+zvdot8hz+gMbsNn/5wPvoz8MHOGmmL4vCwpAI00kGwjxzmnO+8s2UincCwLuEJAgbQXu8As8ure4s5fle0iNExAP/K+f8As657Fv09uX3cirIfSE/cm3dNKPjv4RvT7VuYA/tUgvSsA313yGTpt8F53ScYc4gtRye9XX5swW+t7Gj9Oz6T2qvqdZLoQC0CwtDTlBoE4C0v/IaF5i8EtUPuno5eXEhnN1VqkpbvvlgZfSYwuOpYvvu4QSw5uck5ktQ68sOIz+77DLqGB43wXc0nciPTa8H31mxo9pGq13Tk5WMJ4vLKbvrv44ZVXjuxo6WDHfZOV96/sGBSoCAs1JoNiR8+BL3qWDt/mDrUY6+uLnJvfQ9/KpeGXaPnTpmX+go178FR379BUUSw/Uby7njn/1rP3o2kO+Sps6Znsp1nZlr8rNpn9b9XV6Z9ff6KxJt1C36tvummoPiGXhDXsR/aT3fFqdm1XtbU15XeAUgOLog3+sxFokIxPFP1Tc3kggAALlBIp/G28dUBI9Xjp4+XuRdznFf0DS4W+fyo+Vf97+Shxxh8Cfdzub5LX7+sfouGevojm9yyiS5cAJlRLP8Sc7ZtLji46h3y2+gFLxzkp3eHr+wcGDSV6LWlbQ6T130U7xV6nVHq5cJ57j71c99I/0fnTrluNpqOBvOSsL5M4VvlYApIOXpUPiQVw0OW7t9N1Bg1JAIEwExurIxzoWJpnDJ8sLMw8keUnqyG6hPdc+TAtZGejK9FE8n2LdzqTh1h7a0DmfXp65H702dZ9AQlieWUCXr/tEse7tZor2bl9GixIrqCcyQK1mRnRYGrY7aX1uOr2U2YleTO/Ex/A819rYvlMARjp92fUL64RrbUxcDwIg0DwEhhM99LeFJxRfYZY6abfRI0MHFl9hltML2XyjAIgpUiKCFbf7FPUOCQRAAARAAARAQBsBzxUAGfFnstz5Z7TJiIxBAARAAARAAARGEfBUASiFBhUlAAkEQAAEQAAEQMA9Ap4oANLhyw5gRXO/e7KiJBAAARAAARAAga0EXFcAZK1xkvf8xkYgeAZBAARAAARAwDsCrioA0vkP8xagsqQPCQRAAARAAARAwDsCrm0HLGZ/dP7eNTRKBgEQAAEQAIFyAq4pALIPOEb+5ejxGQRAAARAAAS8I+CKApDl9f3i8Y8EAiAAAiAAAiDgDwLafQAkwE8aa/z90dqoBQiAAAiAAAhsJaDdAiDR/bDOH88bCIAACIAACPiLgFYFQEb/Yv5HAgEQAAEQAAEQ8BcBrQpAzmLXfyQQAAEQAAEQAAHfEdCmABhs+Ld4Rz8kEAABEAABEACB+ggYqrj7cX03V7hLmwLA8/75PAL+VMCP0yAAAiAAAiAwPgGbVG78s42d0aYAZDLGtMaqhrtBAARAAARAoNkJmGldBLQpAOwAGNdVaeQLAiAAAiAAAs1AwOa983TJqU0BsArmsK5KI18QAAEQAAEQaAYCHEF3gy45tSkAtlLrdFUa+YIACIAACIBAMxCw82q1Ljm1KQCmUlt0VRr5ggAIgAAIgEAzEIiQ6tMlpzYFwC5EV+qqNPIFARAAARAAgWYgYFF0lS45tS7UP+0aS6wAk3RVHvmCAAiAAAiAQFgJGAZtufn82GRd8mmzAEiFufKP6Ko48gUBEAABEACBkBN4SKd8WhUADmB0s87KI28QAAEQAAEQCC0B2/iNTtm0KgC2it3MEYHzOgVA3iAAAiAAAiAQNgI8P2+ZVuQ2nXJpVQBuu8DoVwb9QqcAyBsEQAAEQAAEwkZAkXH9TR8xBnTKpVUBkIpHC/bX2RcAuwLobEXkDQIgAAIgECYCtkH5b+sWSLsCcNPFLa/aBeNq3YIgfxAAARAAARAIBQFl/PTmC1pe0S2LdgVABIjmI5fwW69uYZA/CIAACIAACASagEGbbCPyOTdkcEUBkHkMpYwL2R9AuSEUygABEAABEACBoBGQPlIpOlf859youysKgAhy64XRu6JE33RDKJQBAiAAAiAAAkEjEFH0tVsviP3OrXprjQS4nRBsBjjjZ/m77QIdu905HAABEAABEACBJiVgmvZdvzkvfhJH0HPNUu6aBaDYpiyY0RI90Yyo+5u0jSE2CIAACIAACGxDwIzQw5tej5/qZucvFXDXArBV5MOXqujURfn72RKwZBsK+AICIAACIAACTUQgFqWH7UT00JvOMlxfLu+JAlBq2/f9MvfLbNZ4X+k73kEABEAABECgWQjEYvbtv/5A4hSv5HV3CmCUlDecEz+npY2WGiZWB4xCg68gAAIgAAIhJcAmf9Xaan/Fy85f0HpqASi17Qd/bR2Syxu/zeZUd+kY3kEABEAABEAgbARaYjSUiEffc81Zhue+cL5QAKSBP3yj6raM/HWpjDrZyvumWmF79iAPCIAACICABwSiUUUtCeOOQkf03F8cbwx6UIXtivRdT3vxrdbhOUtdy74BO1jYR3C7BsMBEAABEACB4BCIxYgScfV6PG588MpTYg/6qeae+gCMBeLKU2P3LXo+tqijs3BSd5d6IZHgeQrfqSlj1RzHQAAEQAAEQIDI5J61JU7U2W6/1t6hPrhoWmwXv3X+0k6+7lqXLlXmmn3zRxeU+mDeMk5ji0DCshTZvE8SEgiAAAiAAAj4hYBpKopGDYrHKBOLqVt4O9/rrj4l+ke31/bXwiMwPenHb1QdVrRwuE32kbZN77YKtHOhYMQKPE2Qt1lk12In1YIX14IACIAACISOAPecUR7lRzi+fcRUFr+/HI3Q78k27811RO772buNZBBkDowCMBqmWAdW7JOZH6XoAlYKplAhOi1fyM8sKLObIw63KWVz0xAbYepLkd4XTiO70DbR3YoVDyufL+7eMNF1E52LREzWGiMTXYJzIAACIAACDRCwZ+z5Cx4j1jtMzBmGmTeUnYpE1IAZMdZzNNtek8zNecqvWPB0y8qlSw0ZhgYuBVYB0E36wg9/dRWXMXfschSlszkaTqbHPl3D0VZ2cuhob63hDlwKAiAAAiBQC4H5s1Vk6dKlgeyka5Gz1mtllIxUAwHZq3EomaJszqrhLlwKAiAAAiAAAv4iAAWghvaQzn9gOEkW1ifWQA2XggAIgAAI+JGA75YB+hFSqU6D6PxLKPAOAiAAAiAQcAJQAKpsQDH75zDyr5IWLgMBEAABEPA7ASgAVbSQOPxl+IUEAiAAAiAAAmEhAAWgQksWOOhAMtW4t3+FYnAaBEAABEAABFwlAAWgAm7p/MX5DwkEQAAEQAAEwkQACsAErVkoFHi5H3YkmgARToEACIAACASUABSACRoulc7yWYz+J0CEUyAAAiAAAgElAAVgnIZjq7+RtRDsZxw8OAwCIAACIBBwAlAAxmnAXD6fwNz/OHBwGARAAARAIPAEoACM04Q5y0qMcwqHQQAEQAAEQCDwBKAAjNOEdqEQG+cUDoMACIAACIBA4AlAARinCW1bYY/ecdjgMAiAAAiAQPAJQAEYpw15/h9bJY/DBodBAARAAASCTwAKwPhtCAVgfDY4AwIgAAIgEHAC2A7Y4wZkZ0MaHLY9rgWKBwEQAIHwEli27HUM6MZoXigAY0Bx85DsNVDIQQFwkznKAgEQaC4C+++52LjpppuaS+gqpMUUQBWQcAkIgAAIgAAIhI0AFICwtSjkAQEQAAEQAIEqCEABqAISLgEBEAABEACBsBGAAhC2FoU8IAACIAACIFAFASgAVUDCJSAAAiAAAiAQNgJQAMLWopAHBEAABEAABKogAAWgCki4BARAAARAAATCRgAKQNhaFPKAAAiAAAiAQBUEoABUAQmXgAAIgAAIgEDYCEABCFuLQh4QAAEQAAEQqIIAFIAqIOESEAABEAABEAgbASgAYWtRyAMCIAACIAACVRAI3A5J51+jWiKT8wepgtrDNGhXZaidSRntLGsnv7r55YhSYw/3LVJVAMQlIAACIFAvAVtFyKYI5VWUlDL5s/x8GfyZf5qNwP0814tB+33KMPMGGTX/pBuGUsT/Gdw03BqKmyRvmjTMxwejEdocjZhPKsNeZprGstZ49NEfHG9ktQvjYAGBeMI+fLOaZZv5c2xSx3MDLOEGaXGQAbICARAAAdcIFApEOcsgK0dUwEagrnHXVZAZIYrxKxqlXDRGj3Cneoedj/7y2rOM9brKdCpfXysAF95qHWOQ/RlWhY9hgRkxEgiAAAgEk4DFnX4mQ5RnBQApvARYEaBEXNmxmPEntuf815Wnxf7oV2l9qQBcfFv+eKXsrzK0A/wKDvUCARAAgWoISIefTrPtOF/N1bgmTAQSiaIy8Gwsalzy01Niv/ebbL5SAM67MzUnlo9+iyGd6zdQqA8IgAAI1EpARvzpjK9+ZmsVAdc7QCAWKyoCD8QihfOuOr31DQeydCQL3zyZF92ak07/x/zqcEQyZAICIAACHhJIpniuP+ebn1gPSaDoEoF4nKyWFvWZa0+PS1/nefL86fzk3SqRyloC40LPaaACIAACINAgAfYbp2SSnfxg8m+QZDhvl8UdLS30l8ld0eO8XjXgqQLw8RtVRzaWu3mrk184WxtSgQAINBWBFM/3ZwO1GKypmsc3wrKz4MZ4W3Tfn59urPOqUp4pABfdqCYbMeuPrCzv55XwKBcEQAAEnCQgy/uSSSdzRF5hJhCJUDqi1CG/+mD8SS/kdCRoTq0VP/NG1Uox63Z0/rWSw/UgAAJ+JSCm/xTP+yOBQLUEOCZEq6WMv59+Q+7t1d7j5HWuKwBLlyqzK567iYV4h5OCIC8QAAEQ8JKAmP1FCUACgVoI8DMTo6zxwJnX5Pat5T4nrnVdAVi1d/6LHFDxBCcqjzxAAARAwC8E4PHvl5YIXj1YCYjbpvHgyVereW7W3lUfgAtusQ4zDfVnFhBR/dxsZZQFAiCglYCE9B0cdPXnVKs8yNwbArzPwEtGa/RtN51lpN2ogWsWAFnux53/T1godP5utCzKAAEQcI1AgbeaQQKBRgnYNu1aSBX+p9F8qr3fNQUgnc19niu1S7UVw3UgAAIgEBQCto3J/6C0le/rqdSHTr3aOtKNerqiAJx/o5rJa/0/64ZAKAMEQAAE3CZQ3L7X7UJRXlgJGLzV/Y/FYV63gNoLEAEi0dy/sX7cqlsY5A8CIAACnhDADIAn2MNaKPeXuz67oHCGbvm0KwAfu0v1kGF8VLcgyB8EQAAEPCPAToBIIOAkAUXqS07mN1ZevHOx3pTLW+/jErDBj17Mb+YeiRgUMRWxNymZHHTalM88OnlzgMLHjDHUPoNVzlrnMeU3b7t1z8qg4m8h56e2zosWpHbyXV7Fz3wNn3vzuxxDAoEAE0D/H+DG82vVFe15+nXZvW/+YOIZXVXUrgBwxc/VVflmzFc69hivo4jGjOJ7LKooyj08h5Tkjp+JFHv6N7v70oEqUZXfV+UtE142UX4j50RHEEXBZsVBllLZrBUofi/wd3kXRUE+2wV+Z00iXzw2YaE4CQKuE1BFTXii5931KqHAEBBQyjybxQimAnDRzekdeMh3cAjawRMRZNeoBO8jzVtIUlz2k+ZOXzr6bX9mtv3mSUUbKFSsEyRWC35jETmNlqf0vfQ+YkkosGKQLxj8It51betnfpcd2Iq/xcW88A8IuEPAtt96Pt0pEaU0CQEJmvcFXbJqtQAoM/Iu/FlU33TCKsa9YGuCt4uMG8WOv9hBVp9FU1wpilGUlYaoaA3FVHrK2GrAFgWLlYKcJS9V3JWtqBSULsU7CGggwOu3kUBAB4E9jvu+StzzKUPL/pJaFQDuvI7AaGziZ0K6rgSP8NtaDGptYXM+d2xI9RMQ5SDOT7W8qHWEpfw4p7OKXwalMiO+B/WXgDtBYHsC+J3bngmOOECAu4S27tyunJOWaQCtCgD/URzoAIJQZiEdfXurog7upHhf6K0JnX+JhJPv4jfRzpzbeSGq+BqkOMjmUEoVrQROloO8mpOA+KYggYAuAoYyp+nK+82ux+kCPnyFihXIWuh0vkHPT0amXbwmQjqj7ee7gy6d/+svUyodbcy/zaA0WwP6BtnhED/g/m84H9ewwL4oSCCgiwA7QQdPAaApuR25gxvx69JFJkD5xrjj7+kUM3+AKh3iqspPtky7iJPlhr4R58EQiwvRNBKQ1StIIKCLQDxqzNOV9xgrwp0pyo6YHP4XSczPk7sMmj0Nnb8fnwZZVTF9MquqGMT5sXkCUac8rzxBAgFtBAy7W1fe2qYADGV0KIku08Sphb35p3LTSSeD5F8C4o/RxpaZZLq5n1f/tpB/aybOf1AA/Ns+IamZNruxNgXApgLPdDfnsEqk7u6UuX6OuheSJzDsYkQj6PzD3sY65IP/iA6qyLOcgEmGtn10tCkAbFNtyvl/6fCn8KhfnMyQgkMgV9zPHUpAcFrMHzW1is+NP+qCWoSUgFmMk6ZFOH0KgJbq+j/THp7vb2cvc6TgEMhzmOGMljAbwWGAmtZHwOKAU0ggEFQC2pwAgwqkkXp3thPJCyk4BGTML0sBEcglOG3ml5pK+F9MAfilNVCPeghAAaiH2hj3iCOZLPNDChaBgSGOEJgJVp1RW38QyOUwZeSPlkAt6iWAKYB6yY26T4L7YCnZKCg+/io/3f3c+Q8O+7iSqJqvCeQsKPy+biBUriIBKAAVEVW+QDr+dm0LNSqXjytqIyDm/i2DisMB13YfrgaBEgHZhRLm/xINvAeVABQAB1pOwvtKwB8k/xMosMNf7xaiLJy3/N9YPq5hLofRv4+bB1WrkgAUgCpBTXRZBDv4TYTHN+eSEvt/gDcEQuhW37RJECtiswUplwtizVFnENiWABSAbXnU9w2+QPVxc+kuGfX3Dxk0zLsAIoFAowSk88eqkUYp4n4/EIAC4EAryDryZo166AA+bVlIq4iT3wC/FH6xtXFupozlMcpmYP5vpjYPs6xQABxo3Rw7BIkSIEsBkXxAgH+kxdzfPyTt4oP6oAqhISC+IzIFgAQCYSAABcCJVuQfhOGUQZM4/j+StwRSWUUDHNgnhx3avG2IMJaO0X8YW7WpZYIC4FDzDyYVdXIIYDgEOgS0lmz4hznFQVnE3J+Fc1Yt5HBtDQQkXDQcSGsAhkt9TwAKgENNJHODm9nDXPaWR3KHACOnJK/lF+XLwojfHehNWor8fWeymOJr0uYPrdhQABxs2jSPEDYPKN4NED8UDmLdLqsCL+Mb6fg5GAsmZLfjgwPOE5DnDX6kznNFjt4SgALgMP9h/qEwDEWTeVdAJGcJiAPWUJLN/WlFMvpHAgE3CIh1yfJR2F9T2bRoywu0eOMTNG9wOc0cXkWd2X5KFLJkmVHKxtpoU+sMWtO1A70yeU96fvr+NBif5AYqR8uQ39H5ibW0R8erNC+xjma19FJndJhajBxZKkJZO0591iRal51Or6Xn0bLhnWkg3+VoHcKeGRQADS0snVQ+r2hqj0Em9ICGCMuca5I36xmCmb8hjri5TgKsaabS/vgjnj/wGh21/DY6ZOUfqCvXP6FA8/tfpf3WPVS8RpFJy6bvR/fvcDw9NP8YypuxCe/1+uTMxCY6sudhWjLpSeqJ8bzqBGley3rap/PF4hWKDHoltYAe3HIgPdS/X1FBmOBWnGIC2p7si27Nncv5X9/MlCMRoilsCWjFPgE1PQYyus+wM1+KrSmynA+m15rw4WIHCUjnn+WpPS+TdPzve+5/uUP/KxkN/jFsZsvAXbu8j+7Z+b1kG/6KXz4jvpnOmnE3HTTpaVZZGgvXOZjvpN9tegfdvekIthYEe5ybSBhX3HBO9KM6nkEoADqoluUpgNtbZYmgwgqBMi7bfeReX0z80uEnOWIfvK23I4QDLhMQ0//wsLafyIrSxOwcvfe5K+iEV35FEds5L9eUZdMWs42uPOwyWjbr7RXrofsC6exPmv5nOmX6nyhmOLdJh8rnKcODiJ/0XUiPDu2rWwxt+etUAIKtGmlD7lzGMpod5jlrMWN3tSt+8bSAvxRv54StMSdhI8v2Utzpy0gLDn01AsTl2gjIQDuZ9K7zn5FcS//68OdoYf9LWmQ00kP04d9/jB5b/F76+YGXaimjmkwnRQfpk/Ovp93al1dzec3XxO0UfaLnR/Ro+8H0o/UXsu+Qd21ac+VduAEKQF2QedlZ70qyNq8ke6iPbCtDqlBZcy3O2vHzF+WpgRhHDfSZBa4uEjXfxD+s0tGLJ79sp9qgRbPm4pvpBiPWQmainSJd0ygxa2cy27qbSfyGZB3mzt+rZ1Mc+/7fA5+myemNDclQ6WaR74Dnfk0zBlfQfx/1I+4c3R2ZTIv10ecX/h/N4Dl/rYkFPSj2CM2Yt5GWrv4sFdiBEGmEABSAGp6E/JZ1lH75Ycqufp7sDEedqTN5PKVYZ61xW5AJDBkGxXpmU3yHvaht5yVkxBJBFkdr3cUaxdZjT5LM9y+976PUkeNwli6leSv/Tpf84cN02TFXulQikXT+S3f6PokFwK20A71G35j7Tfr8qi/CErAVursqn1st7XA5hWQ/DT7ya+q7+3uUfvXRhjp/h6uG7ECgOgI8CrL61lDyyd/R5jsuKyqybLaq7t4mukp2+vPK6W9KegN9gUf+bnb+paadveYJuvjhL5e+an1vj6SKI383O/+SQLPpDfrsnB+Vvjb9OxSACo9Adu1L3PH/D2WWP8FXyqw1EggEm4BYr4Yeu522/PEnrMzyjklIRQIy6k/ynh5eJFnb/8+Pfo0mZ3r1Fz+OiHu9/Ft6x2t3aC2fJ1boI3N52kG32V+kGOfnenHkaXpPzx+0yhmUzKEATNBS6Zf+SgP3XUsqx27pSCAQMgJW7wrq+92PKN+/IWSS1S6O+KPIvL9X6T0v/YL23PgPV4ofb4WNbJl95sPfoFar/unNSgIc2vMY7d/1bKXLnDkvTg5jJT5+RufNNCXaN9bZpjoGBWCc5pYR/9A/7mQtsrH1qONkj8Mg4AsCdnIL9d97Jdkp9+ZifSF4WSXsYufPf+rj9Bdll2r5ODW1gc544SoteY+V6URiqrxFH3ng82Pd1vAxMf2/byb/prqVJmhQg6e/Pj3zCrdq4ttyoACM0TRW7xs09OjNY5zBIRAIHwE7PUgD97OlK88T4E2WbNsohpeWd6/SKS9eS4m8e1ZGq8L+GQtXPUwzB95wHMdxUx/gUL4cJtWlpMYzdWwtf4GxnHZrfc2l2vizGCgAo9uFhwODD/+K/aM8cgMeXR98BwEXCIiDYGrZ/S6U5J8i/ND5d2f66IgVd7kKpZICIFMB73v0W47WKWHm6Jgpf3U0z0qZqTybdiZMis6dcsOEV4T9JBSAUS2cfvkRKgxjbmgUFnxtAgKpFx8gsQY0Q5LB4RBPdYv538v0zlW/p1jBPctLXuJvVLAACI8F658gcUx0Kh3Q/QzJFIBrScz/VTTu3MhKajU5SluTJigAZQ0vJtDkc/eWHcFHEGgeAsXnf9l9oRdYHP6GhgxfhJuWjX3cTGmJwFVFkjC6hyx3br5+SfeTVZTq3CUqxxbciZwdthZlsCZ43KQ/OVdwwHKCAlDWYLl1r5CddW+OqqxofAQBXxDIrngq1I6vYhUWb/8qBsHa26PdGqKFW0Z2stNemBTAHWLaqt7kcdBrv3WkWhGjQLu3v+ZIXtVmYlvVW1UObJMl3s2ZoACUtXt29bKyb/gIAs1HQBRga9PKUAqey7HDn09G/gJ4t028652DZvZKjSajf5kCqDbN3OJMp72gdQ2JD4BbqTj3X3H+/63aTIvoDbn8Vkn++wQFoKxNcmtfLvuGjyDQnAQk+FXYUjpjcJAff0k1Z3CFaxWSKfHhXA29P9cskXXGH2ROwt04E3amtjn9uMpS1GhOp28oAFv/BGXkg6horv0eoSAfEyj0r/dx7WqrWrHj4y19a+wTaiukzqunJ9fUeWfttw2z6b+S9//oXG12lpBVCo2m6fHNjWZR9f1KYjnXMPovZswPyY4t4bR6VQIHBWArIcXbYyKBAAiw83RI/hbE2W+QTf6WTwd37Tl3/I2sgqJhq7bRf+nvoDPbeOfdGnEnxoGs+1ep+rZa64k0ruiUmAXpHbsBbm0tu4rtfIPUsKgrCNRLQLm4LK3eOla6Tzb0EbO/WAD8muJ2babqeuTIM4C+TL5uDi25xusYNypvlV6PbNvcw16dajjFfo71NXib6Y6Ssk2dffAFCsDWRjAjMR80B6oAAt4TMCJx7ytRZw1kfX+KN/Tx66i/XKycqXdLZh74U1+6QPJeb8pFG/9dtJTmboYdKQsp7sCl8etMabu1zjuDfZvmlgkOHKO1IziVRU1BQCOBoP4tyPRvOu2PJX7VNE8q1l7NZXVdk+def3NGOv8Gen8uebBlal3ll9+ULujrXBWvbFDi3dlA5y917S9MKq9y03yGArC1qc1EB5ktHewIqG8nrKZ5qiBooAnEumYGqv7y2y/b+Mp2vkFKG9vnOF9d7u+TvNZvMMsdY53m8FKlDMOg/tbGFYCN1pRSlo6+q5xFKp3h6Y3GlBzibSBey853tG5ByQxOgGUtFZ+9S9k3fASB5iQQm7NrIASX3/0Mz/UPsKNf0Dp/Aby6a4GjnHM8Gu5N52kgW2i485eK5ePOWCjWZGY4KifHMiabR/02m/0b7vy5ZgUjTjk7uNNejcCFAlBGLzF3cdk3fASB5iNgJNopNnUH3wvOu9YWg/qIyb/Bga5nsr40dR+uemM/wTL2TfOIfxN3/Jt4vr/WpX4TCb+xZ+FEp6s+tyI9l7KNdrAsqGLHDun4C7yJg3x2Km0q6LFQOFU/nflgCqCMbnzWLmTG28jO+SxiSFkd8REEdBJo2WFvMszGOiWd9ZOlfeLdb7ngWK5TDsl7ON5FK7oW0dwtr1RdlLi5iVNfgUfBbOUnWeLXqKl/vMIfX3DMeKdqOp5XEXp1eC4tbq9eTiWxmuV/mzt6meeXtf2NmvrHqfVTmb3HORP+w1AAytrYiMapba8jafjxu8qO4iMINAkBXgnTtvgIXworW/dKMJ+sexFlXeHwauciSqx9wZWyairEMOn+Xc+q6ZaJLl6enEO72bzPhM+SYgeAO/uP9Vmt3KuOf1V99xhsU1LbLkso0jF5m2P4AgLNQKB9j8Mo0tbtK1FLDn4DHJU2bJ2/gL5tn4+TONv5La2fvjtZZuNLAEty3b7lOFJmpPTVN++9NIMG852+qY/bFYECMJo4P6RdS95LRgTGkdFo8D28BKKTZ1MbKwB+SWLqT3KgvIFBg2R5X1hTb/ss2sidrZ+S6CO/evvnHK1SutBCz+X2dDRPJzL7xeb3OpFNYPOAAjBG08WmLaDOg04b4wwOgUD4CJgtndR92PkkU2BeJ3HuS/J2vRLCN2f5b2Ssg8/1hyz1lRVgw9TdaMUU5x2if9p7Htk+sgJspun0ZGovHU0amDyhAIzTVC2L9qeOfY/js83xIzQOBhwOOQEx+XcfeaGnpv83l/PxaH+IO39e3t1UaVX3TvTionf5QmaDO+j/PeK7WurSn++me1P+kJM9Xem7Gz6uRc4gZQoFYILWalt8OHUfziOjWMsEV+EUCASTQGzqfOo57pMU65ntiQDF0T4vuOkfMEYi+ImLe5Omn77jG5Rv8z4a3Z/edjFtaXd43X5Zm/6s9wzabEwvO+LNx78kD6eVubneFO6jUqEAVGiMxJzdaPLxnyZZHsV2ugpX4zQI+J+ArPXv2P9E6jn6oxz90l0HKAnYk+aofQPc6RdH+zn8TckTkzej9L1jruCBqXe+Rytn70937v0RrQ+weN3/x9rPsrzeTTetsefTNZvP0SpnUDKHAlBFS8mqgK53vJ8mv/sT1LLwbcVYAVXchktAwFcEopNmUPve76KpJ11Cbbu9k8iF+Vgx7xc7fQ7YI578Q8O8nI+d+mSZN9K2BFb17ExXv+s7ZHow0BjsnkffZQXEjdSXn0Tf2vjv7A/gvrIzSD30pXVfcEPMQJThfgsEAsvYlYxOmcsrBM7m4BQ2Wb3Lydq8iqNS9ZHKpce+AUdBwEMCMp9r8P4W0a5pJEGu3FreKmv2pdPPWYrfy7fkxWi/0uPw9Jx30nVHXk7n3XcpKVkK4ULaMnkhff09N5DieXG30ivpRfSfGy+hS6d/hyI2a4QupC1qKn1+7Vcob6PbK+EGiRKJGt4lUlp8xk7FVw234VIQCCUBxR2+xX2VdPoSodV+s99Ch19Pgz8+/0gaOu6n9LE/fIIMnVFJuXmWz11CPzjqB9z5u99WL6Z3pC+t/yJ9acbl1KqG6kFV9T2vF3air629hArkv1gEVQuh4UL3VD4NlUeWIAAC7hIomfRlE55hXqffz2Z9ecma/Swfe6vzd7deYSvt5Wn70ufP+j1tmLmnnnVIHPXxtiVfoO+/64eedP6l9lqdnU3/vOpyeqEgy/GcV0JsI0I3D59OX1n7OXT+Jehl77AAlMHARxAAgZGQ64o98iXmvHToBR7hizVaPmPu3r0nJBNrp28ddz3t/8a99N6/f4viyc0NFy5RB1+dt4SufsfXKZnwR9THvIrSt9Z+mha3vUgfnnId9Ri9xX0AGhPWpJfyu9KPN15EWwrer65oTBZ9dwdeAcAPkr6HAzkHl4CMpcr3TpHPRb87eVcj8/KylarM18s5m/8RU35h63twJQ9fzR/f4UiS19tX/I6OffpKmrzldW6zYmtWLWyBt/Z9iTv+Xx34WRps9efud8tSu9GnU9+ifdufozN6bqd55htkiCZaQ7KMBL2Q24Ou33Q2bcz7U84axNF+aSAUAN4MigrsTCQbQhVHJPIjxsdq/BvQDhMFgECwCJSbXEufS+/BkqQZavv3BceSvBKFDB3y6h20z6r7aFr/CmrN9pNRsMiQjRPEjM5hzK1YKw22TaPXZ+xND+/4HnqNtx4OSnoquSfJK2oU6B2df6cD25+g2dG11GkM8Qx+jiJbf/gLbN7PUoL61SR6PbuIHhw6iJ5P7xYUMX1RT18qANK+0tnneI1wPj8ySvEFLVQCBEAABDwmkI200L28U5+8wpxkG+H7BpcUX2GW00vZfKUAiDlSHIkkFGhRmS2SwYjEywcEZYMACIAACISTgC8UgOJe39zxS+ePBAIgAAIgAAIgoJ+A5wpAOjMyCRUo5QAALzVJREFU6sd8vv7GRgkgAAIgAAIgUCLgmQJQ3O+bY4K7FOyqJC/eQQAEQAAEQAAEmIAnCoDs853kXcBG1iWhHUAABEAABEAABNwm4LoCIPP8KYTOd7udUR4IgAAIgAAIbEPA1VDAI50/vPq3aQF8AQEQAAEQAAEPCLhmARCzP0b+HrQwigQBEAABEACBMQi4YgGQ6H3FOf8xKoBDIAACIAACIAAC7hNwRQFIptnsX1voavdJoEQQAAEQAAEQaCIC2hWAXG5kn/AmYgpRQQAEQAAEQMD3BLQrABkO9IMEAiAAAiAAAiDgLwJaFQCJ6S87+SGBAAiAAAiAAAj4i4BWBcBi8z8SCIAACIAACICA/wjoUwCUsqw8zP/+a3LUCARAAARAIDAEbOJ1dHqSNgXAsiJt2OBHT6MhVxAAARAAgeYgYCuV0SWpPgWgoCbpqjTyBQEQAAEQAIGmIGCQtuD52hQA21LazBZN0egQEgRAAARAAASUOaALgjYFIKvMjboqjXxBAARAAARAoBkI5PJqlS45tSkAEVv16qo08gUBEAABEACBZiAQMfT1pdoUAIqozc3QOJARBEAABEAABHQRKBTUJl15a1MAOu3YC1xp+AHoajnkCwIgAAIgEG4CBuUzydiLuoTUpgBce4EhSxe0VVwXEOQLAiAAAiAAAj4h8Pw9nzKyuuqiTQGQChsG3aOr4sgXBEAABEAABMJMwFB6+1CtCgAV1K/D3DiQDQRAAARAAAR0EbBtdYOuvCVf7bF6T73GepEL2VWnEMgbBEAABEAABMJEgPvN52++ILZYp0x6LQBcc4OMb+gUAHmDAAiAAAiAQNgI2GT8h26ZtCsAkfbIL1kNWK5bEOQPAiAAAiAAAqEgYBivRtsjN+mWRbsCcNNZRsEkdRFhZyDdbYn8QQAEQAAEgk9AGbb6mPSdukXRrgCIAL+5IHYfGea1uoVB/iAAAiAAAiAQbALG1TdfGPuTGzK4ogCIIJFU5JPsD4CpADdaFWWAAAiAAAgEjoBhGK+1RyKfdqvi2lcBlAty5vXphbYdWaaU0Vp+HJ9BAARAAARAoJkJcNycpMpHF99ysfGGWxxcswCIQDed1/q6GaN3GqQstwREOSAAAiAAAiDgZwLc+VtmXh3pZucvPFxVAKTAm94ff1zFjCNY4Lx8RwIBEAABEACBZiUgfWGE6IibLo4/6jYD1xUAEfCWD8QeShjqEDNS3C/AbZlRHgiAAAiAAAh4TsA0jWw8TofeeH7sIS8q46oPwGgBz7tezc9Q/ol8gaaMPofvIAACIAACIBBWArEYbWrLRfe75kJjlVcyemIBKAl7/XnGyrZCdG5bC91veqqKlGqEdxAAARAAARDQSID7utYWerjVis7zsvMXCX3T7Z57c+EzVqZweS5nRDWiR9YgAAIgAAIg4AmBeFwVWluML1xzeuwyTyowqlDfKABSrwtvzizKF8zrMznjkDzWCYxqKnwFARAAARAIIoEoD2sTLerBRKLwwStPan3dLzL4SgEoQbn4luzJljIuy6Zpl5zlyyqWqop3EAABEAABEBiTAI/4iZ38XorF7EuuOqXlzjEv8vCgf3tXjhZ00e3ZE23bvCRn0TusnGHksXDQw0cFRYMACIAACFQiEOU1fbGEUokoPRgxzMt/emrkt2QYqtJ9Xpz3rwJQRuOC21LzInbs/QVFp1gFOiBvqUghb1DBLrsIH0EABEAABEDAZQImd/jFTj9GeTb1/8M06TabrF9ec0qbZ9791SIIhAJQLsy5v1ftiWR+iW2oxaxT7ZXL0552gaazwaCjYKsWRUZEFYoBjvg0h1ioMSlSrKspXh0hLyQQAAEQAIGgE1CGyUPG+kbhHLlWRu+cBdncORQippHh9+FIRG3kWDbPRkx6lnuNZVZr9JGfvdtIBolVzR1kkIRrpK4Xfviror3NlbYvGRps2y4+CvIuSfG54n82XyOf+b34X/E4Uen6Yh5FA5AvrUBFWfAPCIAACISVwP57dseWLl2KSeRRDYwld6OAbPeVjQglU4AZYVtPMZXet7t64gNblYltFQNWGcoUiREFgpWLolLBCofkKJ9FteAvSo0oIRMXhLMgAAIgAAIgMDEBKAAT83H27FZl4i1Fos7styoSb1kcStYGURdEhSgpEPy5XJHg4yXlQ4k1o87icRsIgAAIgEDwCUABCGIblqwSkfIZHH1WieL0RlGrkKmOEcXhrWmQEaUiiBhRZxAAARBoZgJQAJq59UV2h60SRQuD5MsKw4i1oTipwZaIkYMlX4mSIiFHS1aJklIhx5BAAARAAAT0EoACoJdv8+Q+piJRh1Vi6/SGgButGJT7SpQUiaJ6UfSheOt6OF02z2MHSUEABOonAAWgfna4UweB0vQG5/2Wr0QdioTUbasyUVQkit9LSkLJKrH1na0V2/hKwOlSaCGBAAiEnAAUgJA3cFOL57BVAk6XTf00QXgQCB0BKACha1II5DiBklXCN06XRY9Mx8VEhiAAAs1FAApAc7U3pPWawJhWiToqVXF6Q/J8K0AVnC7rYIxbQCDkBKAAhLyBIV5ICYypSNThKwGny5A+IBALBCoTgAJQmRGuAIHwEihNb7CEcLoMbzNDMhAYiwAUgLGo4BgIgEDtBBy2SsDpsvYmwB0gUAsBKAC10MK1IAAC+gmUrBJwutTPGiU0NQEoAE3d/BAeBEJOYEyrRB0yw+myDmi4xe8EoAD4vYVQPxAAAe8JjKlIwOnS+4ZBDRohAAWgEXq4FwRAAARqIVCa3uB74HRZCzhcq4MAFAAdVJEnCIAACOgm4LBVAk6XuhvMf/lDAfBfm6BGIAACIOAegZJVAk6X7jH3SUlQAHzSEKgGCIAACASewJhWiTqkgtNlHdBqvwUKQO3McAcIgAAIgIBOAmMqErU7XRa3EGdlgpOts7pBzRsKQFBbDvUGARAAARCYkIDBioS8ZF8MpO0JmNsfwhEQAAEQAAEQAIGwE4ACEPYWhnwgAAIgAAIgMAYBKABjQMEhEAABEAABEAg7ASgAYW9hyAcCIAACIAACYxCAAjAGFBwCARAAARAAgbATgAIQ9haGfCAAAiAAAiAwBgEoAGNAwSEQAAEQAAEQCDsBKABhb2HIBwIgAAIgAAJjEIACMAYUHAIBEAABEACBsBOAAhD2FoZ8IAACIAACIDAGAYmRGKh0/o1qphnLHcqV3tMkY1cO8LiAP0/mUI/tREaLY8JY2W7OEwqSY0CREQiAgG4Ctm2QZZuUL0RIQuArZZDNr2aPhKsMo+5YwHwr3yshhblDMBUTNizTpHQ0QpuNiP1yJEJPcrs+Z1vxB649y1ivu42dzD8QCsD5t2X3ith0HrfA8Sz8Hk4CQF4gAAIgEGQChTxR1jIol5MOP8iSBLPuJveiUd5VJxpVFIvSq2ZE3cIK18+uOi3xnN8l8q0CsPQvKrpywDqH9bZ/YYj7+h0k6gcCIAACbhKwuNNPZ4gKBTdLRVmVCETYbhyPK37RMrYUfHvepNgNS48wWE3zX/KfAsA2q4tvt85nTfZLjGuh/5ChRiAAAiDgHYECb2ybTrOp3/KuDii5OgJsEaBEC62LRdTnrzo1dj1bsX1lo/GVAvChW3P78rP9Y0b7T9XhxVUgAAIg0DwEsmzmT6V89bPdPPAbkJT9BKi1VS1jy8A5V56ceKaBrBy91R9PEo/6L7rN+hRLdhm/4o5KiMxAAARAIAQEUjzqz2ZDIEgTixCNKdWasH+8cFniU0uXGjze9TZ5rgB8+EbVXYjnfkHKOMFbFCgdBEAABPxJIJ0xKMPz/UjhINCSUM/HW2OHXHuq0e+lRJ4qABffrmYo27qHAbzNSwgoGwRAAAT8SiDHzn7JpF9rh3rVS4BXDiQjEXvJDed4NyXg2Tr3i29OzeXO/68MD51/vU8Q7gMBEAg1AVnWl06FWsSmFS6fp3ZW7h4/6xeZd3sFwRMFQMz+yozexULv5JXgKBcEQAAE/E4gw6Z/21d+434nFqz6cVihaCEXufuM6/InelFz1xWAM29U8XzMupuF3ccLgVEmCIAACASFgHj9I4WbAOt3pq3UbWdebR3ptqSuKwBdMesydjxY4ragKA8EQAAEgkTA4tAxiOwXpBZroK6KIgWD7jn1+uzuDeRS862uKgAX3p45iWsoy/2QQAAEQAAEJiDAc8RIzUUgbtiRP53wC9XjltiuKQAX3q46zUJEgvx4uvLALbAoBwRAAAQaISAb+yA1GQGlZies/E/ckto1BcAoWF9VhprjlmAoBwRAAAQCTQD2/0A3X92VV3TGqVe74xToiop5/q3pBRGKvMxAYnVDwY0gAAIg0EQEkkne4Q/x/puoxd8SlbceXj0lG130k48YWp8A3qpAf4oakUtZmUXnrx/1NiXwQ0SyVaXBdh7R9OS7pK1vNW0RLoORiquR2GTJ3qzFAmzPg1yOyIp/QSCoBGAACGrLNV5vbvu5m+PWuZzT1Y3nNn4O2hWAYrQ/ZZ0/fhVwph4CsuVklDeYkH2oZcepCPf0cixS/Ky44zfe7PDryb/+e0rqxUgOpTXMip9oXvNaPCjH5MdN3m3+R+Y6i9/5c0HO8fdC8frSNbzlKRSK+psEdwaSgPxNIDUvAf4V/wL/MF6jcwdB7QoA2fkPcBO2NG8zNia5dJnSycdjBr94a0l+yXfp7MdP23bC41+n/4xYIIqpaI4Yq7zSBXJuvM9bFQZWEPKiHIiikDcoz9pCntfO5POKLN4THT+YY/HFsaAS4MccqakJqB1Pv8Y66Gaiv+vCoF0B4HGfmDGQqiQgXaCM6FsSI68Ed/zmhJ19lRkH/DLRHyIRtnKw1aOoKDCftxSGEcVBFAKL46bnePmUzJ3mLFEQ5DokEAgeAUyjBa/NnK6xMoyzOc9gKgAfuiWzC1tuEfGvwlMhnVuCN0FuSxjU1soRId4cNle4Eae3IRBlBUGmRVrfPDpiJcjmDErzNqqZLFsOMJXwJh188C8BWLP82zZu1oz7Bq37BGgdWyrDPMpNWEErS0b6k7oMmjPdoBmTDepsH5nLD5ocfq6vKAXtrBFMnUQ0Z4ZB06eIkuWVf4SfSaFufiIARdVPreFdXVgR3PU9V6g2XTXQOgXA5osjMDG7fdNJB9TNnb3M6SO5R0AmClrZ0iKvAk8NbBk2KJXiSSr3qoCSQKAqAjamrqri1AQXmfEWa1eW80kdsmpVALjzP0BHpYOap4zwu/glZmokbwmIP8HUbt5qladdevtZCYAW4G2DoPRtCBTYuRUJBIQAr5KaqouEtimAT96txE1rvq6KBynfVl4DMXuaQZPZ3C8maST/EJC2mdbDUwL+qRJqAgJwXsUz8CaBiGFMf/OLwx+0WQAy+dxO7KXd1GNd8d6f3EU8B43uxeHn1tHsWllVTfArw46CSCDgNQGxRskUFRIICAEzoubqIqFNASgok13bmteuKl7903hPJ3j063p0nc1X4itAAXCWKXKrj4A4AGJKqj52YbzLMMxOXXJpUwAMVehg3UVXvX2db3uLQVPY61yW9yEFgwC8roPRTs1Qy7zW6O/NQDBkMir7rZXNDoumrYc2lMEKQPMl6fxlyRk6/+C0vURcS2eCU1/UNNwELI5yiQQCJQKGqbQpANosAIoMbXmXwPjtXcz+U9jsjxQsAoNJBAgKVouFt7YS/S/PkSyRQKBEgKcAtA3UtWVcqnyzvMuIf0o3vMmD1t7pHNHgUNBqjfqGlQA6/7C2rD/larpRuq5mkDX+EtkPKTgExOmvdwsCAQWnxcJfUwlbjQQCbhFAl+UAafmT7cBSPwdIupdFKqNo0xb2tnavSJQEAhMSgPl/Qjw4qYEAFAAHoMr2vBj9OwDSpSz6hxQNDqPzdwk3iqmSAEb/VYLCZY4RgALgAEpRAJD8T0C2C97UT5TleX8kEPAbgRyeS781Sejrg67LgSY2sObPAYoas2A7/3CaN/8Z5LjasPlrBI2s6yUgSqlMASCBgJsEoAA4QLvAI0te+e9ATsjCaQI5XlLVN6Aw6ncaLPJzlEAmi98PR4Eis6oIQAGoCtPEF1kcuUtGlib+hicG5eJZiaU+MKxoOIW5fhexo6g6COTY8x/b/9YBDrc0TAAKQMMIRzr/FEeS69AWr8mBSjZJFmJGHeDAPkNJxFNvkiYPvJgZRKEMfBsGVQAoAA613AB7lksYYLgDOAS0xmyk4x/i0b5E9cNcao3wcLlnBLIciwL7UHiGv+kLhgLg0COQ32pyntSJeQCHkFaVjXj2y2hfTP1w8KsKGS7yCQHZ8Q9z/z5pjCatBhQABxte1pbHo4raEBTIQapjZ2Wxc5/wTrL5FFunjs0IR/1NIJXmuX94/vu7kUJeOygADjawrAWQdebTDEWtPB2A5CwB6ejTHMFPTP0ZrJl2Fi5yc5WAxPzHun9XkaOwMQhAARgDSiOHRAno5RCzk7qIunh/AKTGCYiZX0z80vFjxNQ4T+TgLQFRZJMpDBC8bQWULgSgAGh4DkQJ2DIoa88N3iGQlwdiz8WaKct8foZH+8NsJk2zoxQSCISFQDrTmOm/IzdIe/Q+wa/Haf7Acpo1tIrarSFqyaeoYEYpFW2nze0zaG3HDvTylL3ouekH0MruHQOHryWSpT3aXy2+5rasp1nxXmqLpqjNzJBNJqULLbTZ6qb12en0ano+PT+8M61Iz+H9PaBcVdvYUACqJVXHdbLhTJZjBPSwNaBNVgjUkUez3SKdfZKj9gm7kbl9UaeQQCAcBCRmiHj+15P22fA3etdrt9F+6x6imD32HFjEzlNnbqD4WrDlZVqy6o/FotZ07kAPLDiB/rjoVBqO8w+Sj9Nu7a/RUZP/Rgd0P0Nxg4GNkUxWAdojqeJrfss6Oqj76eJVvdZk+uuWA+iPm5fQQN7fco4hluuHtPVJF92aO5elud51iVwrUFFheAu/+kjluMeqkGSzoHaOExCLVLiwyU5L9y4OfRIKVZQlOPQ5+ACYETIT7RTtmkoGvyN5S8C2DRpix9Vap7H23PAYnfvMD2hh/0sNC5COttGfFp5ENy3+MGVi/nomdmp7g86ZeQft2v56w3LmVIwe3Lw/3dR7PA3lOxrOz8sMEgnjihvOiX5URx1gAaiBquK/3Nzalyi7ehnl1rxAdob/mmtIm2q4FpeCgGMEODhFrGc2xefuQS3z96ZI93THskZG1REQxba4VLUGr38x61/0xOX0jpW/r66QKq5q5WmCo57/JR343I1008Gfpwd3OqmKu/RekjBzdM6sO+ionkc4joozFj+xHBw56a90aPwvdNPQ6fTbvnfpFSKguUMBqLLhrHWv0NATd1K+f0OVd+AyEPAJAe59rL41xVfy2T9RYt6e1LHvcRTpnOKTCoa/Gik2EhbY0lVtktH+vz38OZqeXFvtLTVdZ1tZOuOvS+ltq/9CPzjsv0l5FMFsVqKX/mX+1TSnRc/vqmlb9N6OX9N+bU/RN9f8KxUUHLLKHxTQKKcxxmcZ5ff/6Se05d4r0fmPwQeHAkaAlYHsymdp813fodSy+zDn4kLzZXjOX+L9V5vE5L/0Lx/V1vmX6iFWiUWv309fueu9JL4DbqdFravoK4u+r63zf1MeFnRn40X6r/lfphazTgeMNzML1wcoABO0Z6F/PfX97oeU2/DaBFfhFAgEkADvPjP81D00+NAvSeXHdigLoFS+q3LO4lUsvJKl2rTL5mfp0of+ncRU71aatOlV+vKdZ7OTcg3zEw1WThz3PrfwCuqMchhPl9IUez1dPvfLFDfHdix0qRq+KgYKwDjNIab+vj/8L9lJXtSPBAIhJZB54xkaeODnbAlw78c/pCi3E0ucW1M19ONzht6gLzz4GUoU3N8dqLtvOX3mz5/aTgYdB3piA8XOX7z43U7dajN9efblbhfr2/KgAIzRNCqb5B/F60hZ7v8hjlEdHAIBrQRy616i4Sfv1lpGs2Uue4MMJ42qV7XECjn69N++SG1WbY7FTnJdsPJhOu75653Mcru8xMnvY3N/Sd3Rwe3OuXVgvrmc3j/tZreK83U5UADGaJ6Bh2+kwtDmMc7gEAiEk0DqhQcpu+q5cArnslQS5nd4mM3+NTi0n/n8T2lB/8uu1HS8TbOkusc99gOanO7VVo/jptxPizte0Zb/NhlPIOi7W39P8xNrtrm8Gb9AARjV6rl1L/NSvxdHHcVXEAg/geEn7uJF6jx0RaqbQLHzr2HkLwXNHlpJJ758Q91l1nqjPYFmYnP7f/j+S2rNsqrrxfR/2gznljRWLHQ8BUBu5CmvT874acUswn4BFIDyFmZv0eGnfld+BJ9BoGkISGCr9Kt/bxp5nRZUHP5qMfuXyj/9+aspysvV3Er5iTpGrsTs9c/Sgi0vOF6dE6beR60ueuGrCsrsDFpD+7Y3t9ULCkDZY25tXkV5Xi+NBALNSiD9yt+aVfSG5JZIluLwJ0vraklTUxs4XO8farml4WutCkYem4V4798ua7ic8gzaImk6cvIj5Yf0fy5UcGxlOd8/+Sb99fBxCVAAyhont+r5sm/4CALNR0BWv+SHELOylpZP885+KX7V2vlLGYe+cTdFVIUeuZbKVLhWRv+FKio6Z+NzFC04Z5U4mGP1S8Q/1xLLqAqVuc4w1lJXZMi1avmtICgAZS2SXQsFoAwHPjYpAQlzjVSZgPSj4uyXaaBfW7L6T5ULcvCKdL7CqHhrWeILcPgrv3Gs5IO7n3Qsr2oysnNVKi/ciO/pcdcCU0393boGCkCJNGu7+f6NpW94B4GmJZDfjGmwSo0vg8vBIaO4kVWla8c7353po3kDr4132vHjMjuRylc/R7H/Cmc6xhjH5d+lfYXj8kyYYa56rWyflmcmzCrMJ7EXwNbWzSf7+VP1fxxhfiggW3MTKCD41YQPgPQtKY7uV4UlfcJ8dt38DBmNZjJhCduelNF/oYIDYPkd0/tXlH+t+/OittUkSoBbSXEEJlVp/r+sMlMizTvlBQtA6UHgzTGQQAAEeCUgAmCN+RhIX51kR79knfP9ozOVyH9uJan7cLbynHh5faJZZ+bGZyfctKzy3H+mtgBuMTvnrn9COWSPP0MBKDWAARQlFHhvbgKGib+F0U+ArO8f4P6wlk19Rucx+vs0TTv9jS5Hvg+x638N1v9iFrL9eY8DQYGmxd0LqqYyVk2j/xFWinZsWTHyscn+xV/61gY3Em1N1vQQFwTGJmDG8bdQIiMjZ/HwH2JnP2VXv6lP6f6J3lstNie4kLLc8w9b1Tn/ja5OZ0amRhtLLWZtI/K6S2PHDDtbnyV3UqRxOeuut4c3wgdgK/xIezdRJMabdrs3V+Vhu6NoEBiXQKRz6rjnmumEjPZT6drX9lfLKG7X11lVm79cJ07/W8T0X6d7U7zQeB1jBptPdCdZ3ijzM3X6VLQYjcupW0Qd+cMC8CZVg+LTF775DR9AoFkJxGfu1KyiF+UW/zGJ6NdAf1IVv2ykparr6r3I4k5xc9oiCexTb8pFGh8j5ux4vcVXdx/LaSd5W+EaHBxHZ5yym9PqBQWg7ElIzN2j7Bs+gkDzETD4Bz8+a+fmE5wlln5SgvoMyfI+FwyByViHNs7ZgnT+BQ7601gRW1pnNJYB350qtDacx7gZsNm/MDxcx7z/tjn2FXq2PdAk36AAlDV0XBQAOAOWEcHHZiMgo38jpndk6jum3EmK4/jA4EhQnwYGzDWJtqFjbk3XV3Ox9PdDOZs7/3xDI/9iWSYrQy2Nd4wbclOqqXqN17C3P8/3F4bZ7N/AyH+kUINez8yrsfxwXA4FoKwdI23d1LJo/7Ij+AgCzUWgbfERTSOwdPQZnvrt544/nWl8XX+t4FZ3OTjlyLKk2dmvN2WxAlDbcr/x6m0lusY7VdPxNdmZNV1f6WLFSzLsoRTZaW48B7Q1y4yTpdj/qwlT4xM8IYPWsc+7KfvG06Ty1UeSChkCiNOkBBLz9qTYtAWhl176DHEWz2Td7/TL4b40dR8qmFGK2PU7yYmJP81L/KTzlzl/J9OGnh0dye6N9GxK8jRAO28IVHfiRpPwvkpC/FYR47+WcjYWptdyeaiuhQIwqjnN1k5q3+soGn7ynlFn8BUEwkvAiLdSx34nhFdAlkx2h81yp5/lPsSBgWPDrNLRNlreuSPN73uxqrykzmz4Ls7r57nnlw7f6U6/vCJ/X3R8+de6P9tk0vLkPNqz7fnq8ijqMfwPxyGQWASULzQ8xz9RwU+k3jbR6VCfgwIwRvO27X4Y5besp8wKdzewGKMqOAQC+gmw30vXkrMp0jFZf1kelCCDxhx3/Bwh1nfppe7dqH2ND/ekNyP00I4nO8brhaEdaA/7H47l51xGBv124GjnsgtYTvABGKvBDIO6Dj6dYtMXjXUWx0AgRAQM6jzwZErM2S1EMrGVmAeOMq8/MMihe3lJnx87fwF+2z4fJdOHkRdXznwb2awEOJXu2XIU5+e/8eZqNU/vKgWnAGrKBwrAeGA5KNCkoz5EbbssGe8KHAeBQBMwognqPvRcat354EDLUaq8zZH6xJt/kKP2DYpHP3+WY35Ogy2TaeXs/fxVRUb28yVfdLROORWnf2QPdDRPJzK7btP7nMgmsHlAAZig6SQmegePjjrffjqZLfrW7E5QBZwCAS0ExLo1+dhPUGLeYi35u5WpjPSlo5e1+zLal1F/wYem/ol4XLfkq7z62D8/xatm7U8bO+dPVOW6zl278X1sBfCPt/1aex69lGnOmBelBvTPU1eqkQ/fW3c6iKac9Fl2DnwXIU66DxsIVaqaQHTyHOo+/HzqOfojFOkOnvezOMJZloTolQ5/ZKQvnT77iQU29bbPosd3O80f9edAUP97xHe01GWYo+3dNvQeLXnXmqkyIvSdDZ+o9bbQXe+/SRmfIjZiCWrf+2hq2/MosnqXU3bVC2RtXkn2cB9vQCEBwwP8C+RT5qhWYwTExC+bXEW7plN89s6UmLs4cI5+srItn+dRPf95yTx+0Eb31bbgzw76PO22+mFqG1xb7S3OX8em/1uWfI5ScWfW/49Vwdv6jqe3tz9Oc+iNsU67duyOoROpN68jQJFrIjhSEBSAGjGKqS4+Y6fiq8ZbcTkIgMAEBGTFV6EgnT0vdeMOX0b1fp/Dn0Ccmk4pdjz+znFX0ZdvOZmU5U0MkmWLjqEHdtJvifj6un+j/5nzOUrYHMXPg/RiYQ+6eYs/LBEeiL9NkZgC2AYHvoAACOgiIOZ7mbPnQG7FQDxiupcNd2T+vn9gxKQ/zHu6yPEcm/mbpfMv8d7cNoO+f+yV7A/gnPd9Ke9K7+tm7Ek/PfQ/K13myPlkvo2+tPaLlDfc9wfYoGbRt9b+iyNyhCGTUFgA5IelOHrgHxfZ9pL/H3kvfghDM0EGEPAvAUVvedoXg9XI3x1/sOU4/02KGV/+PsdOb9079vnmOvra1D3peydeS5+65yKe83DHErBuxt502XFXuwp6vTWd/t/6r9DXZn6DEqqBCIE11HqtmktfZMWj/Hmt4fZQXho4BaAYGGrrnGDRRChmQnT0oXw4IVSQCaBjr7f1lk9ZTP958o30b3dfQLHUlnqzqXifwQra47udTNf/05crXqvjgnW5mXTJ2m/QV2f/J/WojTqK2JqnQU/m9qfvbvioxjKCmXUgpgAkhGeavX5lfa94/orZUDbxEFMiOv9gPnioNQiAwPgE1vMyvM+d+Qd6ZeERZLB/gNMpH2+nK4/5vmedf0me/nwXfWblN+ih7KFadmK1jDhdseVD6PxLwEe9+9oCkGULmITwDPISn1G88RUEQAAEqiJQYF+AHx3+HVq4eRmd/9cv06S+10emN6u6e5yLOMDZY7ucRDccdKlvIvOJSf6KjefRXfGj6WPTr6L5xhtc+cbMujYv83s0exBd1fsBytqJcWDgsO8UAJlDlF26ZLcu+YwEAiAAAs1M4HWeEvjKyTfTjpufpZOf+CHNX8d7lNSwHlIMCKn26fTEomPp1n0/RvmIPzvENblZ9MXVX6S58bV09pRbaI/4CxS1uSOoOhk0RN30WPoA+nXfKZS2W6q+s1kv9JUCICP+DJv6YdZv1scRcoMACIxH4LUpe9F/H31F8fTu6x+jg5f/lmZvfpm60r0Uy6fJVLx7Ho+mZYvhdGIS9XXOoRdmv5039TmJhlp6xsvWd8dX52bTf60bCdKzS+tyemfHI7QgsZImGX3UYma3ysnTvxSlpGovrud/Mbsr3Te4hPrywZHTD+B9oQCIiT+VGgn24QcoqAMIgAAI+JnACzMPJHmFPb2cXkTyQtJDwHMFQJz5xMEPCQRAAARAAARAwD0CnikAMr+fYm9+CfiBBAIgAAIgAAIg4C4BTxQAifA1PDwSFcxdcVEaCIAACIAACICAEHBdAZDOf4jDfY4fGQwNAwIgAAIgAAIgoJuAqwqAmP2HeOSPzl93syJ/EAABEAABEJiYgKuRAJNJ2eBj4grhLAiAAAiAAAiAgH4CrikA/7+9+42R4qwDOP48Mzu7dxSwSBpNLI0SI2i1BkoMb4yaYmqt1Bzm2lQNHnBK7EvfyAsT0Ve+0aYx0QS4QlOrKSd/jzvaAwppTKrFs6jBSlsR2xhoivy5cnd7uzPP428Kd6GXtHtzt8/szNx3kgu7t888z+/5zDLPb5/bmSde4Stez5sNAQQQQAABBFovkEoCEK/tXa22vrNEgAACCCCAAALXBVJJAEa4zp/3GwIIIIAAApkScJ4AxNf5J7htdaZwCAYBBBBAAIGiCjhPAMaZ+i/qe4d+IYAAAgjkWMBpAhD/7Z+lfHP87iB0BBBAAIHCCjhNAGo1bvNb2HcOHUMAAQQQyLWA0wSgLjMAbAgggAACCCCQPQFnCYCVxakNCUD2jjgRIYAAAgjkRkBb5ewOOs4SgNqYXhTf+pcNAQQQQAABBGYmYJQem9mejfdylgBEoa40bp4SCCCAAAIIIPCeAtY4u5bOWQIQWuts2uI9oXgBAQQQQACBAgmERl1x1R1nCUBU9y64Cpp6EUAAAQQQmBMCkX7dVT+dJQCeZy+6Cpp6EUAAAQQQmAsCxuFY6iwBsNq8NRcODn1EAAEEEEDAlYCtuxtLnSUAi6vllwWk7gqFehFAAAEEECi4QP22qHzGVR+dJQDbNmtZBsiedhU49SKAAAIIIFBkAa3VX+Ox1FUfnSUAccBW6T5XgVMvAggggAACRRaQe+kcctk/pwmAVua3LoOnbgQQQAABBIoqYH2z22XfnCYAezZU/qm0esllB6gbAQQQQACBAgqc3Le+En+XztnmNAGIo9ZW/9RZ9FSMAAIIIIBAAQVsCmOn+/V6pRfrdoWn5PjcVcBjRJcQQAABBBBoqoAMzKf2dJVWKi1LATncnM8AXO+A7ZYOGYf9oGoEEEAAAQRyLxCPlZG23a4H/xjKfQIgjezdUD4plwQ8lvsjQwcQQAABBBBwK/Dz/V3lIbdNXK89lQQgbmpxvfRDuabxL2l0ijYQQAABBBDIm4Cn1SnvltKP0orb/XcAburJA9vth4IgfFmubVx00695iAACCCCAwJwWkBvnXfJssLx3o07tNvqpzQDER/bgd/WbRkerZSZgdE4faTqPAAIIIIDADQHPUyORNp9Lc/CPm041AYgb3PedtldKnlnlaVuNn7MhgAACCCAwVwVk5dyqNWbV/q62f6VtkHoCEHfwabm5wXwbfNL31dW0O0x7CCCAAAIIZEGg5KnhW2zw6XdumteCgFL9DsDU/n3rN3ZhqKKX6nW7dOprPEcAAQQQQKCoAkFgz43XgxX7N+grrepjS2YAJjr71Lf1sCn7n5jXZnfLNMjEr/kXAQQQQACBQgrE9/ZpbzO/N+Xg460c/GPcls4A3Hx0u/aGneNV+0StptrlKgE2BBBAAAEECiMgX35XlUCNBiW9/omHSnuy0LHMJAAxxvcP2UVj1dqjYzW9vj4ec7EhgAACCCCQb4FyYFWlYvd5trx554PpXebXSC2Tg2z3ntrqUOmfyWzAF8bHlWJGoNFh5HUEEEAAgSwJvPOJvyyf+iv2uFzmt6Wno/xiluKLY8lkAjCBtPFAbZWsIPCDsK7X1Wq2Ug/lVgn8eWCCh38RQAABBLIkICNqUJJP+4GuBmW7V57+YkdHOrf1nQlDphOAiQ5tPGAX6Ki+zmq9NgzVPfJzq/yoKGJ2YMKIfxFAAAEEUhaQEbTkX/8JyuqK76mjyrN9bbVg768e1NdSjiZxc7lIAN7VK1leeNO+2p3aU3dq4y2rG7VCkoEPW2UXRUZ/wBpVlh9P5jY8mS3wZBGiJl7pYD0V1dveFU8en3ilcaU9SZ/YEEAAARGwxlcmrOTewg/kBnO6eSvPamVkKt/IOGK0Z+VH13xlr2pfX5aB/4Lnx+vbmDNyT5vT29eW/5HGCn7NPEb5SwCa2fuEda35atdnlPb/lnC3LBb/2tH+nv4sBkZMCCCQvsCa+zfdL60eSr/lJrdoo7uODuz6e5NrLWx1Tfx0XFgjOoYAAggggEDhBEgACndI6RACCCCAAAKNBUgAGhtRAgEEEEAAgcIJkAAU7pDSIQQQQAABBBoLkAA0NqIEAggggAAChRMgASjcIaVDCCCAAAIINBYgAWhsNFki8oPmXV86WWv6D4yROyWwIYAAAjcEinJOKMo5Oq03JglAAulA2dEExTNbVHte5u9QlVk8AkOggAJ+qSDntshwbkvw/iQBSIBVUd6bUjz3n55Lvj2foNsURQCBgguYqFSEc4Ixo1F8jmabpgAJwDSh4mJ9fdviGYCzCXbJYtGR8eEl57IYGDEhgEBrBKLRj8TntbzPcL524sQuuRUw23QFSACmKzVZTh+efJjPB8+eOLFVllJiQwABBK4L3DgnHMm3hx7Id/zpR08CkNBca3sg4S7ZKp73+LOlSTQIFEdA65yf21S+42/BO4kEICH6pfP+81apcwl3y0rxK2HJHMxKMMSBAALZEajYYL9EczU7ESWK5Gx47fY/JNqDwkpWMmZLInD+/JBZumzFRa30uiT7ZaGs1erHxw/uPJaFWIgBAQSyJfDqq3+ufmzZSln9Vt2TrcgaRyMfyh45fuTRIqzU2rizTSzBDMAMMD+/6o7fyW5DM9i1lbv8Z7R9+JetDIC2EUAg2wLztP+YsuqNbEc5JTprTx7r73l6ym95Og0BEoBpIE0tsnXrVuN5ulN+f3Hqaxl9XvWseeiF3t6xjMZHWAggkAGB+EonT+sOpXRezhWX/JL+ptDJJABbUgESgKRiN8oP9u34t2fVN+RpbYZVpLab1bZ7cGDnn1JrkIYQQCC3AoP9O4a0tZtz0IHQM7rz2YM9r+Ug1kyGSAIwi8MyONDzvPbsWqniyiyqcbnruKTFXccOPf6Uy0aoGwEEiiVwZKDnSTl3PJzhmYBha72OwcM7niuWfLq9ke97sM1W4Etf2bjM9/VeqedTs62rifu/brTqfO5Qz4tNrJOqEEBgDgmsua97tdJ2t9JqSVa6LYPWaWO9dccGtr+SlZjyGgczAE04csefefxMOLLks5Itx9NmF5pQ5WyquKa0/snIvOHlDP6zYWRfBBA4enjHH9t9f7kMultEo9UznXL1ldpy67zhlQz+zXlvMgPQHMfJWr7Y+cj8YKS21ir7dcma75MXFk6+6OxB/IUdOyjVH6yo8r7+/l9fdtYUFSOAwJwUuPfeTR8MS7ZDLoF+QD7sfFnOOe0pQFyVQeqwLMBywK/X+gYHnxxJoc050wQJgMND3dnZ6f/v2qKPai+8Q6ZaFsh/mkqzmrNW1+RLiG/Xrfnv8Fuls0ND2+rNqpt6EEAAgfcTuPvu7wULbwuXlkr6dvlT4wLPqOD9yid5TW5EUDVKv20i743F8y+f6+3tjZLsT1kEEEAAAQQQQAABBBBAAAEEEEAAAQQQQAABBBBAAAEEEEAAAQQQQAABBBBAAAEEEEAAAQQQQAABBBBAAAEEEEAAAQQQQAABBBBAAAEEEEAAAQQQQAABBBBAAAEEEEAAAQQQQAABBBBAAAEEEEAAAQQQQAABBBBAAAEEEEAAAQQQQAABBBBAAAEEEEAAAQQQQAABBBBAAAEEEEAAAQQQQAABBBBAAAEEEEAAAQQQQAABBBBAAAEEEEAAAQQQQGCKwP8BVGIybAh684AAAAAASUVORK5CYII=;" vertex="1" parent="1">
          <mxGeometry x="520" y="720" width="120" height="120" as="geometry" />
        </mxCell>
        <mxCell id="uXY3sr2Ql3OhQ5Kgx3GS-17" value="&lt;b&gt;Servers&lt;/b&gt;" style="text;html=1;align=center;verticalAlign=middle;resizable=0;points=[];autosize=1;strokeColor=none;fillColor=none;" vertex="1" parent="1">
          <mxGeometry x="545" y="840" width="70" height="30" as="geometry" />
        </mxCell>
        <mxCell id="uXY3sr2Ql3OhQ5Kgx3GS-19" value="&lt;b&gt;Deploy&lt;/b&gt;" style="text;html=1;align=center;verticalAlign=middle;resizable=0;points=[];autosize=1;strokeColor=none;fillColor=none;" vertex="1" parent="1">
          <mxGeometry x="670" y="750" width="60" height="30" as="geometry" />
        </mxCell>
        <mxCell id="uXY3sr2Ql3OhQ5Kgx3GS-24" style="edgeStyle=orthogonalEdgeStyle;rounded=0;orthogonalLoop=1;jettySize=auto;html=1;exitX=0.25;exitY=0;exitDx=0;exitDy=0;entryX=0.25;entryY=1;entryDx=0;entryDy=0;" edge="1" parent="1" source="uXY3sr2Ql3OhQ5Kgx3GS-20" target="uXY3sr2Ql3OhQ5Kgx3GS-1">
          <mxGeometry relative="1" as="geometry" />
        </mxCell>
        <mxCell id="uXY3sr2Ql3OhQ5Kgx3GS-27" style="edgeStyle=orthogonalEdgeStyle;rounded=0;orthogonalLoop=1;jettySize=auto;html=1;exitX=1;exitY=0.75;exitDx=0;exitDy=0;entryX=0;entryY=0.75;entryDx=0;entryDy=0;" edge="1" parent="1" source="uXY3sr2Ql3OhQ5Kgx3GS-20" target="uXY3sr2Ql3OhQ5Kgx3GS-16">
          <mxGeometry relative="1" as="geometry" />
        </mxCell>
        <mxCell id="uXY3sr2Ql3OhQ5Kgx3GS-20" value="" style="shape=image;verticalLabelPosition=bottom;labelBackgroundColor=default;verticalAlign=top;aspect=fixed;imageAspect=0;image=data:image/png,iVBORw0KGgoAAAANSUhEUgAAAgAAAAIACAYAAAD0eNT6AAAAAXNSR0IArs4c6QAAAERlWElmTU0AKgAAAAgAAYdpAAQAAAABAAAAGgAAAAAAA6ABAAMAAAABAAEAAKACAAQAAAABAAACAKADAAQAAAABAAACAAAAAAAL+LWFAABAAElEQVR4Ae3dB5wdVdn48Wfu3c0m2fSQRggl9NCJNKUjkY6ooFIsfwSlvSCIVCVYKEJoigqvglIEpb0QICAtSAktUtMgJAGSENL7bnbvnfk/ZyFhE7bdO2fmnpn5zeezn71778w5z/me2TvPtDMiTAgggAACCCCAAAIIIIAAAggggAACCCCAAAIIIIAAAggggAACCCCAAAIIIIAAAggggAACCCCAAAIIIIAAAggggAACCCCAAAIIIIAAAggg4IqA50ogLsax//4XDa6qKmxaLPo9RHLdPM/T30EP/Z13MV5iQgABBLIqEARBUcRbqr+XivjL8/mceT31iSd+NzurJu21mwTgM6H99jtvm3w+2E9XoD30rS31Zwv96f7Zx/xCAAEEEEimwDIN+139bp/secE4388989RTl09MZlPsRp3ZBGDffUd2rq6uP1z36L8RBKIbfhlgl5bSEEAAAQQcFZij3/3P6JHd+6qrVzw8ZszvVzkaZ6RhZS4BOPDAC76iR4q+p9ngMSrbK1JdCkcAAQQQcF1gkefJv4pFue3pp6980fVgbcaXlQTAGzHivMN8Xy5UvN1tAlIWAggggEBqBF7Xa7wuf+KJK+7VFgWpaVUrDUl9AnDggecfrReC/ELbv10rBryNAAIIIIDAGgE9LfymXi/wqyef/N39a95M4YvUJgAHHnju5kGQ+4P22YgU9htNQgABBBCIXmCsbkdOS+tFg6lLAPbY46ddunWr+YXu9Z+j60an6NcPakAAAQQQSLGAXiDoXV0odP7N2LEj69PUzlQlAPvt9/Mtcznvn3pBxw5p6iTaggACCCBQcYGJeqHgMc88c+WEikdiKYCcpXIqXsyBB/78hHzee42Nf8W7ggAQQACBNAoMy+flpQMO+PlxaWlc4o8AHH300flFiza9QS/YPDUtnUI7EEAAAQScFvj9nnt2OWvkyJG+01G2E1yiE4Cjjx7ZadGiutu1jeaefiYEEEAAAQRiEdA7BR4oFrscm+TrAhKbAOhIft2qquru057mKv9YVncqQQABBBBYR+CZ6uouXx8zZqQ+fyB5UyITAHOlf21tp38r957JIydiBBBAAIEUCbyUyxW/+u9/X70iaW1K3EWA5px/166d7lRoNv5JW9uIFwEEEEifwO6+X3W3HpWuSlrTkpYAeIsWDb1Zr/Q/KmnQxIsAAgggkFaB4LCqqvpbtHWJOqqeqOfa67C+5ynwuWldhWgXAggggEBiBXbYdNO9lk2b9vy4pLQgMdnKiBEX7Ob7/nMKW50UXOJEAAEEEMiUQEEfOrdPUp4qmIgE4NBDz++9apW8rvf6b5SpVYnGIoAAAggkTCD4KAjyO+nzAxa4HngirgFYtSr4Xzb+rq9KxIcAAgggoJcBDPE8/49JkHD+CMBXv3re1xTysSRgEiMCCCCAAAJGwPNyhz7xxOWPuqzhdALw2f3+7yjgUJcRiQ0BBBBAAIF1BKYWCl22c3mkQKdPAehjfS9QUDb+66xV/IkAAggg4LzAZtXVdT93OUpnjwAccMAFffU8ygzF6+YyILEhgAACCCDQisCKQqGw8dixo+a38nlF33b2CIDnBT9VGTb+FV09qBwBBBBAIIRAbVVV9ekhlo90USePABx88MgejY11H2jLe0XaegpHAAEEEEAgWoElWvxGTz55pfnt1OTk2MWFQv0pquTMxn+oVy/7VC2VYbk66S0F6eQFbXZiQUeDXBzkZYrfRZ4vdpcJftc257f1YT4XyC6bzpFdN/tYNui7XHrVrtJI2o61vjEv85Z2lbc/XE+emzRY5i+LJ9Zi90BW7hJI/XaBFPoE0hGi/FJPquaJdHnDk67/zYnXYEsuO+UUi41SV7dIGhpWSrHYIDq4VnYaT0tLFvB03PVcrkqqqmqkc+ceUlPTQ69uL7mYrC/QU+8JOFkRrnINwsmu1Fv/JivUlpXG6uMV5PTqObJnfmmoAZ7f8Gvl+oaBMjOoiaxJ2284T34y4k0Z0ndZ2XU0FnPyyPihcvtzw6ShEM0o0YGuccsO82XxoUUJupQdqlQt9KTXXTmpfcXZs1jlNy6CJYPAl2XL5siKFQsk0AeZMyFQjkBVVWfp1WuwdOpUW87iWV7mXT0CUPFt2rod4FwCoBf/7aEX/724bqBx/71xbpVc1ulD6ec1Wql6ueTlklVD5K2O7OqWWOPBO02XH3/1TTFHAGxMU2b3kZH3fFmW19sddTnQ403zTy/Iyp3sxGna2nN0TnrdG02yYsPShTJ8vygLF05v2ut3IR5iSLqAJt+91peuXfsmvSGxxh8E3q5PPXXFq7FW2k5lzu0+6cb/hHZijvzjnnqY/zcWN/4m4G5SlEtrPpLBlo9b77rpx3KK7vnb2vibWLdcf6Gcd+QrVss05S78YdHqxt+UueRw3bPdn8PYxqLlKdCN/ww2/i3j8G5ZAoEsWTJL6uuXlrV0VhfSC9srvm1b196pBODoo482u3LHrBtk3H//qHquDLC05988dpME/LTTx83fCvW6c3VRTj/4jXbP85dTyY4bz5URO8woZ9EWl6nb3pfle0azoV703WLTdQQtVpzxN1esWKgb/xUZV6D5tgXMWSSTBJhTS0wdFvjOyJEjndrmOhXMggWbDFfKih5XMof8R1Qt7nCPljrjDrkVsk2+rtTFWpx/xPYzpHdtfYuf2XjzmN2nWEsulhxh77D/um0LOul1BQfxRfQFFyVfvnzuum/zNwJWBMwFpStXLrRSVkYK6fef/6zY0aW2OpUA5HLe/pXG+Up+mUSNsmfOzqGzL281O1Ku9XrUyRbrLwpdR7FnIA2bRbuBXvkl3do5d0VLaLpQBRQK5kp/O9ewhAqEhVMrUFdn57sstUDrNCyXy1V8G9c8pKi3dc3r6sjr/ToyU5TzbJaLbo96ddybeXaOAAztH92RijWxDgx/62rjxvosx4g3zoW+eishw0at7ram3w0NdtaztQrlDwSaCRQKrGPNODrwMqj4Nq55kM4kAPvuO9KMSfCV5sFV4nUvvQAw6qlPrhi6ipqqgnTpFH2svSycYih2i+7wf3NIc6SB6XMB349+/fi8Nl5lUcDcYcJ1AKX0vLf3Z9e6lbJQZPM6kwDU1NRvrK2s+M2lK/V2vain5TpIUNipoVglBT/67rNxK2CuPuLd/88w9fIKpmYC+jjSZn/xEgH7AmagINazkly7LVmy0YYlLRHhzM58QxSLgRODJMzy7d773lLfzQ7C12Guwp2zOPp8ac6i8MfVqz5pScHue54mGWakQKbPBczobUwIRCmQz7OOlepbLFY5sa0zcTuTAOgGzQmUl/3upfZnyfO/pMMD25hee3+gjWJaLWOVDhP85gf9Wv28ox9Uz/x0CN+Ozl/OfF3e1qXCn1kpp2pnl6mpqWXvzNneSUdgnTvb+S5Lh0bHWpHLubGza6J1JgHI5WSLjvFFO9dkHb9/YgSj9a2O+hPd+x9XDL9Xbcp7WIftjfI0wL/f2ljMswJsTN2fslNOa7FEXX5r9br8vufldbS23i6HSGwJFjCH/2trK3rXdiL1XNnZNXjOJAD6TJL+rvTmTY39pRDB9WSmyJsaB0iDJfZPlnSVB1/dLBK2Rctr5J8v2jso0/3JnFTPiuYQfdeXctJ5UjRlR4IbY6Hduw9oephLjFVSVUYEunXrJ/m8DsLBVKqAM9s6ZxIATSadOZZkjgDc0DionefoldrnInc26hP3ij1KX7CNJW57dpi8avlUQF1DlVz2f7vJkpX2zu+ZgRX7XZeX/BK7G+qaGZ6sd0u0Rxfa4Hf+I/Mktz59NuJUgPM9lawAa2q6S7du0Z6CTJZISdE6s61zJgFQPmdQTFeOKfaWkQ1DZJmFuwLqdY//ek0o/l6wn/j5eoP9b+/fXR4av6kmLOE3rrMWdpPz7txHJs+yf2iveq4nAy/NS6dp4eM0fWT2/AdcViXeKvMXU2sC5slt6623qT7Slb211ox4v2MC5lHAtbX9pG/fjXkscMfIWpgrcGZbZ+ebuIUmlvqWPgJ4gi4zrNTlop7fjN//zeqFso8+EnhIiVsac77f7PHfW+grC8yj8CKeNum3RL6+61TZdbOPpVvnjo8AZxKHKbP6yDMThog5718oRrtamEGBVu6mzwbYx5f6LfXESAk78OZqf3PBX/cn8tJ5SrRxRtxdsRdvHgNshm6tq1skjY0r9f7t2EOgwoQKmCNJ5oI/c9jfPBKYqXwBTaImPPHElduWX4K9JZ35BtUE4H1t1lB7TbNfUjfPl/X0WHZ1Ow/AKOj91wt1g7/Ewv3+5bTC02MBvWpXNf3kvLa/5esbq2T+0s6yqhB9gtJSW8wdkcXegRS7tvTp2u9V6aCETbf6cbX/2jBl/GUGbzHDBPt68Q0TAq0JmAv9crm8/lSzx98aUunvT3vyySs3LX0x+0tU5lvffjtiKXF5kJPlQQfOi7e9zY08VrNHv2hF56afyCsLWYG5NqBKTw2wIoaELHFxM3gL4wSUiMbsCKRMwKVrAFJGS3MQQAABBBBwV4AEwN2+ITIEEEAAAQQiEyABiIyWghFAAAEEEHBXgATA3b4hMgQQQAABBCITIAGIjJaCEUAAAQQQcFeABMDdviEyBBBAAAEEIhMgAYiMloIRQAABBBBwV4AEwN2+ITIEEEAAAQQiEyABiIyWghFAAAEEEHBXgATA3b4hMgQQQAABBCITIAGIjJaCEUAAAQQQcFeABMDdviEyBBBAAAEEIhMgAYiMloIRQAABBBBwV4AEwN2+ITIEEEAAAQQiEyABiIyWghFAAAEEEHBXgATA3b4hMgQQQAABBCITIAGIjJaCEUAAAQQQcFeABMDdviEyBBBAAAEEIhMgAYiMloIRQAABBBBwV4AEwN2+ITIEEEAAAQQiEyABiIyWghFAAAEEEHBXgATA3b4hMgQQQAABBCITIAGIjJaCEUAAAQQQcFegypXQGhvrgiBwJRriQAABBBBAwL6A54kzWzpnEoB5897z7FNTIgIIIIAAAk4JOLOt4xSAU+sFwSCAAAIIIBCPAAlAPM7UggACCCCAgFMCJABOdQfBIIAAAgggEI8ACUA8ztSCAAIIIICAUwIkAE51B8EggAACCCAQjwAJQDzO1IIAAggggIBTAiQATnUHwSCAAAIIIBCPAAlAPM7UggACCCCAgFMCJABOdQfBIIAAAgggEI8ACUA8ztSCAAIIIICAUwIkAE51B8EggAACCCAQjwAJQDzO1IIAAggggIBTAiQATnUHwSCAAAIIIBCPAAlAPM7UggACCCCAgFMCJABOdQfBIIAAAgggEI8ACUA8ztSCAAIIIICAUwIkAE51B8EggAACCCAQjwAJQDzO1IIAAggggIBTAiQATnUHwSCAAAIIIBCPAAlAPM7UggACCCCAgFMCJABOdQfBIIAAAgggEI8ACUA8ztSCAAIIIICAUwIkAE51B8EggAACCCAQjwAJQDzO1IIAAggggIBTAiQATnUHwSCAAAIIIBCPAAlAPM7UggACCCCAgFMCJABOdQfBIIAAAgggEI8ACUA8ztSCAAIIIICAUwIkAE51B8EggAACCCAQjwAJQDzO1IIAAggggIBTAiQATnUHwSCAAAIIIBCPAAlAPM7UggACCCCAgFMCJABOdQfBIIAAAgggEI8ACUA8ztSCAAIIIICAUwIkAE51B8EggAACCCAQjwAJQDzO1IIAAggggIBTAiQATnUHwSCAAAIIIBCPAAlAPM7UggACCCCAgFMCJABOdQfBIIAAAgggEI8ACUA8ztSCAAIIIICAUwIkAE51B8EggAACCCAQjwAJQDzO1IIAAggggIBTAiQATnUHwSCAAAIIIBCPAAlAPM7UggACCCCAgFMCJABOdQfBIIAAAgggEI8ACUA8ztSCAAIIIICAUwIkAE51B8EggAACCCAQjwAJQDzO1IIAAggggIBTAiQATnUHwSCAAAIIIBCPAAlAPM7UggACCCCAgFMCJABOdQfBIIAAAgggEI8ACUA8ztSCAAIIIICAUwIkAE51B8EggAACCCAQjwAJQDzO1IIAAggggIBTAiQATnUHwSCAAAIIIBCPAAlAPM7UggACCCCAgFMCJABOdQfBIIAAAgggEI8ACUA8ztSCAAIIIICAUwJVTkVDMAiUKVBT00k22miwDBkyULp16ypdunSW2tqusnz5Cqmrq5dly1bKhx/ObvppbCyUWUvlF+vTp6fsvPM2MmDAetK5c00EAQWydOkKWbmyTn8vl+nTZ8rHH8+VYtGPoK7wRXbu3Ek9tpX11+8nPXv2CF+gIyUUCgVZsGCxTJ48TaZO/cCRqAgjbQIkAGnr0Yy0p1+/PrLHHjvKbrvtIMOHbyuDBw+UXM5rt/VmQ2YSgddee1teeeUtGTfudVm0aGm7y1V6hm222VzOPPN7svvuO0k+H++Bu4aGRnnvvQ/k1VffajJ7+eU3pb5+VUVJTP+fcsqxcsQR+zclexUNJuLKP/hgttx0090yevRT4vtBxLVRfJYE2v/GjElj2LCD39eqhsZUHdUkUMDs1Y8Y8RU5/PD9dcO/Y4c2+O01s1gsyvPPj9cv16flqafGidnYuTb96EfH6Mb/+1baa6Nt5ujAE0+82GT20ktvSBDEu1EyCd91110k5mhIlqYXX/yvnHPOFU1HZrLU7hS2ddrEiWM2daFdJAAu9AIxtClQW9tFvvGNEWI2hOut17vNecN8uHDhYrn77kfk739/QE8drAxTlLVlTz31ODnttOOslWe7IHNk4NZb75WHHx6rpwmKtov/Qnnm9Mctt1wu1dXZPHg5YcJU+d73zq34EZgvdAxvlCLgTAKQLyXqKOft12/zM7X86L7dowyesiMRMIe6jzvuCLnxxkvkgAP2kK5du0RSz+pCzRGGXXbZXr75zRGyePFSmTJl+uqPKvJ71123l9/85qfiec7k6V9w6Nu3l/bNl+VrX9tLpk37SGbN+uQL89h6o3v3WrnjjqubrvGwVWbSyunfv49e29Kl6ahV0mIn3jUCi+bNm3rDmr8q+CLek4kVbChVJ0tg2LDN5J//vF4uuODHYr7445z69OnVtOG9/farZOjQIXFWvVZdP/vZiU5v/JsHa5zMnvlVV/1ceveO5mK8E088OnOH/Zsbr379ne8cqhe7Dlr9J78RKFuABKBsOhaMSuDoow+WO+8cJVtvXdnTZDvtNEzuuef38q1vHRRVU1std/PNNxJz4V/SpkMO2Vfuu+8PTRdm2ozdHAUxF/wxiVRVVclhh+0HBQKhBUgAQhNSgC2BTp2qZdSoC2TkyDPEvHZhMreZXXrp/8gll5yuV9/Hd8bMXOSY1MnconjrrZc3nb6x1QZzhMGUy/SpwO67J3f9oA/dESABcKcvMh2JOb9/440j5aCD9nLS4ZhjDpEbbrhY773vFEt8gwb1i6WeqCoxydKFF/6k6RSOjWsYBg5Mtodt56SvH7Y9KK88ARKA8txYyqKAGbjnb3+7Qr785Z0slmq/qH333U3+9KdfiRl0KOrJXOiVhun4449sSgTCtqUjYzyErSNJy8c9FkSSbIi14wIkAB23Ys4IBMztXNdee1FiznebK/NHjTo/1tMBEbDHWuSxxx7eNGhPmErnzl0YZvHULTtnzvzUtYkGxS9AAhC/OTU2E7jssrOd3/NvFm7Ty/32213OO++kdd/m7zYETj/9ePn61w9sY462P5o6dUYiRmxsuxX2Pn311bftFUZJmRUgAchs11e+4d/97mFirhpP4mTGJzj00GTGXinvX/7yNNlyy6FlVW+GcH7ssf+UtWzaFjIjLz766LNpaxbtqYAACUAF0KlSmjYE5577o0RT/OIXp8kGGwxMdBviDN5cO3H11eeVfSHlzTf/s+nBTnHG7GJdZuP/7ruVHaTKRRdiKl2ABKB0M5YIKWAu6DK31cVxMV3IUNtc3AxQZNrB1HEBczvfSSd9u+MLNJtz7twFcv75o2J/9kCzECr+cubMOXL55X+ueBwEkA4BEoB09GOiWmEG+tlhh60SFXNrwX75yzvLV7/6ldY+5v0WBMyIfptsUt4Ii08++YJcdNG1Tj60qYWmWn1rypRp8sMfns+1EFZVs10YCUC2+z/21pv7/c8443ux1xtlheeeeyJ3BZQAbO78+OlPf1DCEmvP+uCDT8q3v31WZsbDX7GiTsfIuFOOPfYcmT177toY/IVACIFsPlIrBBiLhhM45piDIxsr3kRmviynT/9I5s9f1PRAn969e4p5drw59Ny5c0244FtZ2lwHYIZmNRsml6a33pqiDzSaVlJIZgRG88TF/v3XazKL6n7z/fffXbbYYmM9lz2jpPhWz2zOgf/4x7+Q9dfvL3vu+aWm3716dV/9cdm/9957Vx1xsG/Zy5sFx417Xcyh+jBToVBsWocnTXpfXn75DX36X0OY4lgWgRYFSABaZOHNKATMxuX73z/KetHmMbSjRz8tY8b8R1555a0WDw+bEfzM4fqDD95HRxvcW2wPLHPSSUdrDE+J7wfW21dugU8++aL89a/3lLu49OrVQ/bZZ5em2/fM+Ac2JzM64EknHSPnnvu7UMWaPeJ//evRUGU0X/gvf/lt6ATgnnsek8cff655sbxGwEkBTgE42S3pDGqffXbVPctwe1fryjz11Dh9SMxPms4LP//8+BY3/mYZswf19NMv6QbnSn24zxlNe2nrlhXmb3NOe/jw7cIU4dyy5pHIDz74VNN5Z7O3PXXqB1ZjPPDAPZuSDKuFUhgCCHRYgASgw1TMGFbgyCMPCFvEmuXNfeHXXHOr/M///FpmzJi15v2OvDCHxU866eKm5W3usaf5aXUmuTrmmDPl4Yef6Qhxh+Yx1wIcfPDeHZqXmRBAwL4ACYB9U0psQaBHj26y115fauGT0t8yG+2zz7481OFtM5iKOTx+ySXXlx5AK0uMGLGnmI1aWqdVqxr0Nryr5R//GG2tiQymZI2SghAoWYAEoGQyFihHwJxDNs8xtzFde+2tYm4HszHdf/+/NRG410ZRYh5qtP326bi9sTUQkzhdccVN8uyzr7Q2S0nvb7/9lk1uJS3EzAggYEWABMAKI4W0J2DrIrLnnntNbrnFzgZ7dczXXXervPnm5NV/hvq92247hFo+CQub0y/mSMCiRUtDh2seGzx8+Lahy6EABBAoXYAEoHQzlihDYOedtyljqbUXMRueUaP+uvabFv4ypxRGjbrFQkkiO+88zEo5rheydOlyufnmu62EOXx4+HXDSiAUgkDGBEgAMtbhlWiuueVuk002CF31E0+8IO+9Z/dK9NVBjR//jrz00hur/yz799ChG5a9bNIWvOuuh2XBgsWhwzZjNDAhgED8AiQA8ZtnrsaBA/tZGYQn6qfBPf7486H7pn//PlJb2yV0OUkooLGxIM8881LoUDfeOHxyGDoICkAggwIkABns9LibPHhw+CfmNTQ0ygsv/DfS0M3GzFzkFmYyA9wMHjwgTBGJWtaMrRB24omKYQVZHoHyBEgAynNjqRIEunfvWsLcLc9qRnxbubKu5Q8tvTtv3kJZsmRZ6NJqa8O3N3QQMRVgY3Agc+tk0p8MGRM31SBgVYAEwConhbUkYB4AFHYyG+c4prlzw9eTlVMApj/MI3rDHjUx5WTJzLSXCQEXBEgAXOiFlMdg4yE8ZljaOKZFi5aErsZGwhM6iJgKMNcBmAGCwk421pGwMbA8AlkTIAHIWo9XoL3mvHjYyff9sEV0aHkb9dhob4eCdWAmk+zY2HivXFnvQGsIAYFsCZAAZKu/aS0CVgXCPjp3dTArVqxc/ZLfCCAQkwAJQEzQVINAGgW23XaL0M2qq6sXcyqBCQEE4hUgAYjXm9oQSJXAAQfsEbo9H344O3QZFIAAAqULkACUbsYSCCCgAj17dpevfGXn0BbTp5f2OOfQFVIAAgg0CZAAsCIggEBZAj/+8XfExh0P7703o6z6WQgBBMIJkACE82NpBDIpYJ7t8N3vHmal7a+99raVcigEAQRKEyABKM2LuRHIvIAZtOe66y6STp2qQ1vU16+St96aErocCkAAgdIFSABKN2MJBDIrYDb+119/sWy22UZWDMwTGM1zHpgQQCB+gar4q6RGBBBIooB5aM8f/nCJbL65nY2/MRg9+ukkUhAzAqkQIAFIRTfSCASiEzAj/R133BFy0knHSPfutdYqWr58pYwd+7K18igIAQRKEyABKM2LuRHIhIB5Ot/OO28j+++/u3zta3tJ3769rLf7vvsel/r68M8RsB4YBSKQEQESgIx0dNKbucceO8m//nVD5M3YaKP1I68jrgrMXrvZeJcymQv7+vXrLb169ShlsZLnNQ8QuvXW+0pejgUQQMCeAAmAPUtKilCgR49uss02m0VYQ/qKNuP02xqr37aO2fuP6xHPtmOnPATSIsBdAGnpSdqBQEIEzKOd//jHOxMSLWEikF4BEoD09i0tQ8BJgVGjbpFFi5Y6GRtBIZAlARKALPU2bUWgwgLPPz9eHnjgiQpHQfUIIGAESABYDxBAIBaBTz5ZIBdccLUEQRBLfVSCAAJtC5AAtO3DpwggYEHAXPV/zjmXy8KFSyyURhEIIGBDgATAhiJlIIBAqwLFoi/nnXeVvP76xFbn4QMEEIhfgAQgfnNqRCAzAmbjP3LkDfLEEy9kps00FIGkCDAOQFJ6ijgRSJiAeciPOef/2GPPJSxywkUgGwIkANnoZ1qJQKwCCxYsbjrn/+qrb8daL5UhgEDHBUgAOm7FnAgg0AEBs9H/+c9/J3PnLujA3MyCAAKVEiABqJQ89SKQMgHzdL8bb7xD7rzzITHn/pkQQMBtARIAt/uH6BBwXsBs7B95ZKxce+2t7PU731sEiMDnAiQAn1vwCgEEShBobCzIww8/I3/5y79kxoxZJSzJrAgg4IIACYALvUAMCCREwIzi9/bb78ro0U/LmDHPMqZ/QvqNMBFoSYAEoCUV3kMAgSaBJUuWyfTpM2XKlOny6qtvycsvv6Wj+S1GBwEEUiBAApCCTsxCE1577R3585/virypZ5/9Qxk2bLPI64mjgnvvfVzvwf9PSVX5vi/Ll6/Qn5WydOly9vBL0mNmBJIlQAKQrP7KbLQLFiySceNej7z9S5Z8K/I64qrgww9nx2IWV3uoBwEE7AowFLBdT0pDAAEEEEAgEQIkAInoJoJEAAEEEEDArgAJgF1PSkMAAQQQQCARAiQAiegmgkQAAQQQQMCuAAmAXU9KQwABBBBAIBECJACJ6CaCRAABBBBAwK4ACYBdT0pDAAEEEEAgEQIkAInoJoJEAAEEEEDArgAJgF1PSkMAAQQQQCARAiQAiegmgkQAAQQQQMCuAAmAXU9KQwABBBBAIBECJACJ6CaCRAABBBBAwK4ACYBdT0pDAAEEEEAgEQIkAInoJoJEAAEEEEDArgAJgF1PSkMAAQQQQCARAiQAiegmgkQAAQQQQMCuAAmAXU9KQwABBBBAIBECJACJ6CaCRAABBBBAwK4ACYBdT0pDAAEEEEAgEQIkAInoJoJEAAEEEEDArgAJgF1PSkMAAQQQQCARAiQAiegmgkQAAQQQQMCuAAmAXU9KQwABBBBAIBECVYmIkiARQACBNgS6d6+Vnj27tzFHxz7q3LmmYzO2MVefPj1lgw0GtjFH+x8VCkVZuHCxNDQ0tj8zcyBQpgAJQJlwLIYAApUV2G23HeToow+WPfccLiYBcGW6+OJTrYUybdpH8uSTL8oddzwoCxYstlYuBSFgBEgAWA8QQCBRAj16dJPLLz9H9t13t0TFXU6wQ4cOkZNP/rYcf/wR8rvf/UXuuWdMOcWwDAItCpAAtMjCmwgg4KJA79495Pbbr5JNNhniYniRxdS1axcZOfIMGTSon9xww22R1UPB2RLgIsBs9TetRSCxArmcJ9dee1HmNv7NO+zHP/6OHHLIvs3f4jUCZQuQAJRNx4IIIBCnwKGH7ie77LJdnFU6WdcFF5wstbVdnIyNoJIlQAKQrP4iWgQyK3DCCUdmtu3NG96nTy856KC9m7/FawTKEiABKIuNhRBAIE6Bfv36yLBhm8VZpdN1ZeECSKc7ICXBkQCkpCNpBgJpFth448HieV6am1hS24wHEwJhBUgAwgqyfLsChUKh3Xnam8EMjBLHVCz6oatxpb024giNYamAbt3cuc/fUpNCFWNuhWRCIKwACUBYQZZvV8DGACbz5i1stx4bM8yfH76euXPDl5EkMxvu7ZWxaNGS9mbJ1OcLFizKVHtpbDQCJADRuFJqM4EpU6ZLEATN3in95bvvTi99oTKWMLGGmRobCzJ9+kdhimhadsqUaRbKCNeW0AFYLOD99z+UNB3RCEszeXJ6+jasBcuXL0ACUL4dS3ZQ4JNP5ss777zbwbm/OJvZqD777Ktf/CCCd55++iXx/aDskl966Q1Zvnxl2cuvXvDFF1+XlSvrVv9Z8u/p02eK2WimZVq2bIW8/PKbaWlO6HY89dSLocugAARIAFgHYhG4+eZ/ll3PXXc9LIsXLy17+VIWnDlzjjz66NhSFllr3ptuunutv8v9o75+ldx22/+Vu7j8+c93lb2sqwvedFP565CrbSonrnffnSHPPPNSOYuyDAJrCZAArMXBH1EJmD3rxx9/ruTiP/xwtvzpT/8oebkwC4wadYuUc83B3Xc/Iq+/PjFM1Wst+9e/3ivmy77U6bnnXguVxJRaX1zzjx//TubHwjdPB7zkkutDHaWKq7+ox30BEgD3+yg1EV544TUlHcadM2eenHrqpbJ06fJYDebOXSCnnTay6XGsHa3YJDiXX35TR2fv0HzmFMDpp18qJgnq6PTmm5Pl3HOvTO0G4re//VNm937Nxv+CC66Wt96a0tHVgfkQaFMg3+anMX7Yr9/mZ2p1vWOskqpiFjC38j3yyLNSVZWXbbfdvOl3ayGYR6CefvqvZPbsua3NEun75giAOWKx2WYbyZAhg1qtq66uXv74xzvlssv+JDZuIVy3InPu++GHn2l6CIyJpbV74c0FcnfeOVrOP/9qvXagft1iUvO37/vy2GP/0QsCi7L99ltKdXU2nmdmLoI988zfyAsv/Dc1fZnhhiyaN2/qDS6035mRNYYNO/h9BRnqAgoxRC9gnmpmxnbfc8+ddePWXzp1qhZzseB//ztRD18/G+qiQdvRDx++rQ69upfssMNW0r9/XzEb/VmzPpHnnx/ftHGePz+eW7K22mqoPghmHzHxGDOz0f/443kybtzrmliNlY8++th2050ub731esthh5l1aLgMHjxAevXq4XS8pQRn+nb+/MUyadL7Yi74M+f8w1ycWkrdzBu5wLSJE8dsGnktHaiABKADSMyCAAIIIICAJQFnEgCuAbDUoxSDAAIIIIBAkgRIAJLUW8SKAAIIIICAJQESAEuQFIMAAggggECSBEgAktRbxIoAAggggIAlARIAS5AUgwACCCCAQJIESACS1FvEigACCCCAgCUBEgBLkBSDAAIIIIBAkgRIAJLUW8SKAAIIIICAJQESAEuQFIMAAggggECSBEgAktRbxIoAAggggIAlARIAS5AUgwACCCCAQJIESACS1FvEigACCCCAgCUBEgBLkBSDAAIIIIBAkgRIAJLUW8SKAAIIIICAJQESAEuQFIMAAggggECSBEgAktRbxIoAAggggIAlARIAS5AUgwACCCCAQJIESACS1FvEigACCCCAgCUBEgBLkBSDAAIIIIBAkgRIAJLUW8SKAAIIIICAJQESAEuQFIMAAggggECSBEgAktRbxIoAAggggIAlARIAS5AUgwACCCCAQJIESACS1FvEigACCCCAgCUBEgBLkBSDAAIIIIBAkgRIAJLUW8SKAAIIIICAJQESAEuQFIMAAggggECSBEgAktRbxIoAAggggIAlARIAS5AUgwACCCCAQJIESACS1FvEigACCCCAgCUBEgBLkBSDAAIIIIBAkgRIAJLUW8SKAAIIIICAJQESAEuQFIMAAggggECSBEgAktRbxIoAAggggIAlARIAS5AUgwACCCCAQJIESACS1FvEigACCCCAgCUBEgBLkBSDAAIIIIBAkgRIAJLUW8SKAAIIIICAJQESAEuQFIMAAggggECSBEgAktRbxIoAAggggIAlARIAS5AUgwACCCCAQJIESACS1FvEigACCCCAgCUBEgBLkBSDAAIIIIBAkgRIAJLUW8SKAAIIIICAJQESAEuQFIMAAggggECSBEgAktRbxIoAAggggIAlARIAS5AUgwACCCCAQJIESACS1FvEigACCCCAgCUBEgBLkBSDAAIIIIBAkgRIAJLUW8SKAAIIIICAJQESAEuQFIMAAggggECSBEgAktRbxIoAAggggIAlARIAS5AUgwACCCCAQJIESACS1FvEigACCCCAgCUBEgBLkBSDAAIIIIBAkgRIAJLUW8SKAAIIIICAJQESAEuQFIMAAggggECSBEgAktRbxIoAAggggIAlgSpL5VAMAqUJeDr7gGrx9UdqNQ/Ne+Kt8EUWFsT7qEGkGJRWHnMjUKZAH133NtbVsLv+7mzWyxRNy/T/aIkfyPRGT1bqbyYEmguQADTX4HW0At3z4u/fQ/xdu0mwXVeRLq0cgNIvLe/desm9tly8p5aKN0sTAiYELAlUeZ7s1dWTr9WK7N7Fk35VKdvqt+BkNv1T9d9oXJ0vDy/zZcKqFmbircwJkABkrsvjb3Cge/nFY9eT4Ks9RDq1stFvHpbuiQVbd5Gi/sjx/cR7fYXkb5sn3oS65nPxGoGSBDrpdv47PXPyA/0ZkLFvPpPibN7J/OTke9r+t1cF8qdFgTxrjroxZVYgY/8Gme3nyjRcN+TF7/YV/7j1RMrdy9JvrmDnWinoT+7ZZZL/w8cii4uVaQ+1JlbgS7qnf2m/fNOh/sQ2wmLg29V48seBniYAIpfO9+WTgsXCKSoxAh3YHUtMWwjUJYH1qqRw/Ubif79f+Rv/ddrj79NdCv87VIJt9fQBEwIdFDipd05uGcTGvyWuffT6m3s3qGo6FdLS57yXbgESgHT3b0VaF2zYSRr/sLEEW+ohfMtT0EsTi6s2FJMMMCHQloA57H2x7vWf1SdnrjFlakWgT17kz5ogfa0bm4NWiFL7Nj2e2q6tTMOCQZ2k8LsNRfrqZdVRTXo6oXjBYAn2JAmIijgN5Z7dNyff7cGWvyN9Wa1Mv+vvyZ56cSRTdgRIALLT19G3tFdeCpcNiXbjv7oVuktXuEiTAL02gAmBdQUO6ubJ/+vF19u6Lm39be6OuHpAXvSMAFNGBPgPyUhHR93MQC8qKvxKN/4b6KXGcU16JKDwyw0kGNo5rhqpJwECug2TX+mhf6bSBbrrFuFKBeQ4QOl2SVyCBCCJveZazLo37l8ypOnWvdhD04uYCpdpEmAGFGJCQAXOXS/fNLYUGOUJ7KijIR1pMgGm1AvQy6nv4ogbqLsKxbMHir9LBQ/F6/UGxd/q0QcdaIgp2wJDNQ/8Wi37r2HXglPMhZNhC2F55wVIAJzvIrcD9E/sL/6IXhUPMtiopun6A3Mqgim7At/T8/45VoHQK4C5DmA/M0Q3U6oF6OFUd2+0jfMP6yXFb/eNtpISSg+26iL+xRvocwVKWIhZUyNgRvo7iFvZrPXnEd3JpKxhOloQCYCjHeN6WP4e3aV4+iDnwvR376ZxDXQuLgKKXmAHPfrDqWt7zuY5CebOAKb0CpAApLdvI2tZsH1XKV68vrN72v5hvcXXZw8wZUtgJ91gMdkTMGcAtozxph57kVNSRwVIADoqxXxNAsHGNVK8VA+zd+ShPhU0K/6gn/gHVf7ahAoSZK5qcwEgk12Boea8ClNqBUgAUtu1ETRMx/cv/nZDCbol4CS7fm8Vzxok/pe7RQBBkS4K9C/3gVMuNsaRmPon4F/dEapEhkECkMhuq0DQtZ+O8hf0T9AwYfrl5V+oYwQMs/9Mggr0AFW2I9CVb7N2hEr/mGsqSzdL0hL8yySptyoVqx7uL/xaN6SbJG/EvTUjFA7hZGalVp+46s0xfp11ah6iZJ3UqQJJAJzqDgeD0TWkeP76EmyX4Efw9sxLow4UFPRJ0NELB1cFQkIAgXQJkACkqz+tt6b4kwHi75WCp+7pUwqLv9bRAjlObH0doUAEEEimAAlAMvstlqjNrXT+UX1iqSuOSoItOkvB3MFgnn3KhAACCGRcgAQg4ytAa833D+gp5la6tE3BjrVSPFcHMCIHSFvX0h4EEChRgASgRLAszB7sqqPppXgj6e/XU8wzDJgQQACBLAuQAGS591toe9Nh8osH6yh/6d5FNs8w8L+ZntMbLXQlbyGAAAJtCpAAtMmTrQ8Dc6HcbzYU6ZKN1aJ4sl7guHePbHUyrUUAAQQ+E8jGNz3d3b5Ar88G+umdoaG/dO0vXqC3OO5c274PcyCAAAIpEyABSFmHltOcNYPlbJDBwXJ0+NjCL3WQo6HJG+SonL5mGQQQQGC1AAnAaoms/tZz/f4lOkjO1hkeLlcfe1a4TJOAATxNJqv/BrQbgSwKkABksddXt9k8MOfsgeLvwiFw6VutDzrSgYK6Z+gUyOr1gN8IIJBJARKATHb7p402t8L5I3hk7upVINioRo8E6NGQmnTfAbG6vfxGAIFsC5AAZLT//cN7i7kVjmltgWCrLuJfrKMFpvw2yLVbzV8IIJBFARKADPa6/2Ud6Oe0gRlsecea7O+uPmcM6NjMzIUAAggkVIAEIKEdV27YwfZdpXiRGein3BKysZx/aG8xz0JgQgABBNIqQAKQ1p5toV3BxjVSNA/D6US3t8DzhbfMsxD8g7hG4gswvIEAAqkQYEuQim7sQCPWq9Kr3DeUoBu7/h3Q+nQWc5fEWYPEnDJhQgABBNImQAKQth5tqT21n43y17+qpU95ry0BzZf8C3WMgGEZHiehLR8+QwCBxAqQACS26zoYuB7uL/xaN2CbMNJdB8W+MNuakRKHZHCkxC9o8AYCCKRFgAQgLT3ZUju0d4vn61j323Vt6VPeK0WgZ14adaCgoA9HUUphY14EEHBXgATA3b4JHVnxJ/q0u726hy6HAj4TME9LvEJHC9RTKkwIIIBA0gVIAJLeg63Eb25h84/iefet8JT9tjmVUhipt1FWM1pg2YgsiAACTgiQADjRDXaD8A/oKeYWNqZoBIIda6V47iARcoBogCkVAQRiESABiIU5vkqCXXUUOzZOkYP7+/UU8ywFJgQQQCCpAiQASe25FuIOttDD0xebUf7YNW2Bx/pb5lkK/jc5zWIdlgIRQCAWARKAWJijryQwF6j9ZkORLnRp9Nqf11A8WS+03LvH52/wCgEEEEiIAFuLhHRUm2H2+mygn95cnd6mUxQf6n9Q8QK91XLn2ihKp0wEEEAgMgESgMho4yl4zSA1GzBITTziLdRS5UnhlzrY0qY1LXzIWwgggICbAiQAbvZLx6LSc/3+SN3wbM0wtR0Di3CuWh1x0QwUNKA6wkooGgEEELAnQAJgzzLeksyDas4eKP6XeFBNvPBt1Na3Wh+4pAMFdedUTBtKfIQAAo4IkAA40hGlhlHUW9D8ETyqtlS3qOcPNqqRwmV6JKCGOzGitqZ8BBAIJ0ACEM6vIkv7h/cWX29BY3JTINiqi/gXb8DtmG52D1EhgMBnAiQACVsVzLPpi6cNTFjU2QvX31376YwB2Ws4LUYAgcQIkAAkpqtEgu27SvEiM9BPgoLOcKj+oXqkRp/JwIQAAgi4KEAC4GKvtBBTsHGNFC/Vw8qd6LIWeJx9yzyTwT+IazWc7SACQyDDAmxNktD561Xp1eUbStCNXf8kdNdaMZq7Nc4aJObUDRMCCCDgkgAJgEu90VIs+uz5pqvK+1e19CnvJUFA8zb/Qh2vYRjjNSShu4gRgawIkAC43NN6uL/wa91w6DPomZItsGbExiGM2JjsniR6BNIjQALgal9qzxTP1zHmt+vqaoTEVapAz7w0mtEC+3A0p1Q65kcAAfsCJAD2Ta2UWPyJPmVur+5WyqIQhwTMUxuv0NEC9dQOEwIIIFBJARKASuq3Ure5dcw/iufMt8KT+LfNKZ3CSL2ds5rRAhPfmTQAgQQLkAA41nn+V3uKuXWMKd0CwY61Ujx3kAj/genuaFqHgMMCfP041DnBrjp63M90o8COoUO9El0o/n6a7P2//tFVQMkIIIBAGwIkAG3gxPlRsIUeFr7YjPLH1j9O90rXZZ7p4H+T0z2V7gfqRyCLAiQADvR6YC4M+82GIl3oDge6I/YQiifrBZ9794i9XipEAIFsC7DFqXT/98pL8XK9Naw3V4VXuisqVr/+FxYv0Fs+d66tWAhUjAAC2RMgAahgn68eHCYYzOAwFewGN6qu8qTwSx30adMaN+IhCgQQSL0ACUCluljP9fsj9Qt/a4aHrVQXOFdvrY78aAYKGlDtXGgEhAAC6RMgAahEn5oHxJw9UPwv8YCYSvA7XWffan3wkw4U1J1TQk73E8EhkAIBEoAKdGLxxP7ij+ARsRWgT0SVwUY1nz4AqoY7QhLRYQSJQEIFSABi7jj/8N5ibv1iQqAtgWCrLuJfvAG3hbaFxGcIIBBKgAQgFF9pC5tnwhdPG1jaQsydWQF/d11fzhiQ2fbTcAQQiFaABCBa3zWlB9t3leJFZqCfNW/xAoF2BfxD9YiRPhuCCQEEELAtQAJgW7SF8sxtfsVf6YVdneBugYe32hEwz4YwwwYzIYAAAjYF2CLZ1GyprM45KV6it/vpLV5MCJQlYO4aOWeQBJt1LmtxFkIAAQRaEmCr1JKKxfeKpw2QYBMGd7FIms2i9I6AwoV6CkkHDGJCAAEEbAiQANhQbKWMYPPO3O7Xig1vlyEwpJP43+DBQWXIsQgCCLQgQALQAoqtt4qn6BXcCNvipBwVKB6rt5D25EpSVgYEEAgvwOYpvGGLJQRDO0uwXdcWP+NNBMoWqM2LfyAXBJbtx4IIILBGgARgDYXdF2bAHyYEohAoHqLrFpcCREFLmQhkSoAEIIru1i9nf6/uUZRMmQiI6LUAsjEXlrIqIIBAOAESgHB+LS4dmC9oztO2aMObdgR8Ti/ZgaQUBDIsQAIQQecHwzj3HwErRTYTCLZhHWvGwUsEEChDgASgDLR2FxnI89zbNWKGUALBANaxUIAsjAAC3KQWxToQ9K6KoljKROBzgd7cCvg5Bq8QQKAcAY4AlKPWzjJBF1jbIeLjsAJdSADCErI8AlkXYEsVwRrg1fsRlEqRCDQTqC82+4OXCCCAQOkCJAClm7W7hFfHl3O7SMwQTmBlEG55lkYAgcwLkABEsQrMaoyiVMpEYI2AN2vVmte8QAABBMoRIAEoR62dZbz36tuZg48RCCfgTWUdCyfI0gggQAIQwTrgTdMv51Ucoo2AliJXC0ysW/2K3wgggEBZAiQAZbG1s5Bu/HMvL2tnJj5GoDwBb3FBcu+QAJSnx1IIILBagARgtYTl37mnl1oukeIQ+FTAG6vrVpEjTKwPCCAQToAEIJxfq0t7L+kRgI8aWv2cDxAoS0BvMMmNXlTWoiyEAAIINBcgAWiuYfO1flHn75hns0TKQkC8xxeL9yGJJasCAgiEFyABCG/Yagk5PVTrcbFWqz58UJqAt8KX/O3zS1uIuRFAAIFWBEgAWoGx8rYOCFh1xWyRFQwMZMUz44Xkr/9YvPmMMZHx1YDmI2BNgATAGmUrBX3cIPlRH+tFW618ztsIdEAg938LxXuGC0s7QMUsCCDQQQESgA5ChZkt99wyTQL0SACPCAjDmNllc08skfyfPsls+2k4AghEI8Bza6Nx/UKp5kvcTMWzBop0Iu/6AhBvtCiQe2iR5P84h+SxRR3eRACBMAIkAGH0SlzWJAHe9FVS/OUGEgyqLnFpZs+UQINe8PeHTyQ3ZnGmmk1jEUAgPgF2ReOzbqrJjOFedfI0vZpbbxFkuOCY9ZNRXe7l5VL1o2ls/JPRXUSJQGIFOAJQia6r9yV323zxHlsswRF9xD+wpwR96IpKdIUzdZrho/+zVMwhf28yw/w60y8EgkCKBdjqVLBzvbkF8f4yV3K3zhN/x64SbNdVZLsuEqzfSYKe2jXVXgWjo+rIBPRiUDOev8zX/p+4UnITdIP/6nIx9/kzIYAAAnEJkADEJd1WPTque278ChHz03yqzUsQIgfwT1hP/G/0aV4ir0MKmCc95s/5MFQp3kq9JzTD2/q86m3X2ZOd9GdH/emnb6ynP93zIVZ2LbM23OKh+jStCx/fMydH9yj/TLEfBLJI1/WFusrPbAxkvD4odXydLzMYzsKJVYYEwIluaCUIHUAozHeap/9wTJYFdMfdW86gDuWoDtYjWt/s7slR+tO/KsyaXU7tLFOOQI12k/kpf/KklyZ3m+g1z8M12TuyuykpJxNWidy3tCijl4us9PmeKt833JIkAOH8WBoBBNoR6K47kCf1zskJujfZKdTGpJ2K+DgxAtvUiGyjh37O0AOUNy325R9LfB5wWYHeK//YTgWCpUoEEEiWwB5dc/LIhlVyYi82/snquXii7a1HB87vm5Pb1s/LQI4KxYPerBYSgGYYvEQAAXsCP+ntyU0Dc9JXv+SZEGhLwFwLcs8GedmtC4eI2nKy/RkJgG1RykMAATmrT04P7+Yl5HV9SGZIQFcXuWlQXvbqShIQV7eTAMQlTT0IZETA7Pmbc/5MCJQqYO58vm5gvukOkVKXZf7SBfgvLd2MJRBAoBWBXfRQ7qnmxC4TAmUK6Cokowbk9e4BjgSUSdjhxVxKALgXpMPdxowIuCdgtvtXDchx2N+9rklcRAP0/rRf9XNp82SV0JltnTPCnicrrRJTGAIIxCpwsl7p348ruWM1T3NlB+jITuYukrRNOjbSOiO+Va6FLunqkBBMCCCQRAEzsM8xIUaMS2KbiTl6gZ/28UINhhZ9hKXXoDu7y0pfKpolnEkAfN8dlGioKRWB9Aqc0NOTzs58m6TXOWst20aHIdwlfbcGLnWlH535l9WsyBkUVzqHOBBIgkBOr9U6pBsXbCWhr5IY46GpW7cCjgB8cUX0Zn/xPd5BAAHXBXbSvTRGcXO9l5Ib34huemFpcsP/QuRBkJv1hTcr9IYzRwCCwJ9SIQOqRQCBEAI7p+8QbQgNFrUtYC4t2TTcE4lshxSqPM9zZ1vnTAKgpwBIAEKtViyMQGUEtu5UmXqpNTsCw1L0FKlczp1tnTMJQFWVRwKQnf9nWpoigU1S9OWcom5JVVM2SVGSWSwGzmzrnEkA3nprjDkvMj9Vay2NQSADAt3MVYBMCEQoUJuedWzupEmPz4mQqqSinUkANGozOtLYkqJnZgQQqLhAV8+Zgc0qbkEA0Qik5flAeqr7aRVy5h/GpQRAgiB4JprVh1IRQCAqgXpnvs6iaiHlVlogReuYU9s4pxKAfD7vFE6lV3rqRyAJAvOLSYiSGJMssKCYlizTN0cAnJmcSgDeeeeRSZ7nTXdGh0AQQKBdgTmFdmdhBgRCCXzSmIoEYOqECY9PDQVheWGnEgDTNt8P7rDcRopDAIEIBd5alYov5wiFKDqswBurwpZQ+eX1/P/tlY9i7QicSwByOf82DZFvlLX7ib8QcFZgfB3/rs52TgoCW+KLTEv+EYBAE4A7XesO5xKAzw6RvOwaFPEggEDLAm/rFVpzCyQBLevwbliBp5b74id/9XrhnXfGvB/WwvbyziUApoGeF/zZdkMpDwEEohEw1wD+37Lkf0NHo0OpYQXuS8G6FQTezWEdoljeyQSgc+d5/9DGzoiiwZSJAAL2Be5Z6kvyj9Lad6HEcAKT9PqSN5J/D+C0AQNW3hVOIpqlnUwAxo8f36hjAlwVTZMp5iTk+QAAEJtJREFUFQEEbAvM1jsB7jAna5kQsCgwamHyjyzpuf8rx44d6+S9Mk4mAGb9qaurv0V/fWxxXaIoBBCIUOCmxYEsYEyACIWzVfQTKwIZtzLxSeXMVavk7672nLMJwIwZY+v1aoCLXIUjLgQQWFtgmQ7W8rNPikIOsLYLf5Uu8LHuL186Lw1rUnDB1KljnL2J0dkEwKwyEyc++jc9fPJs6asPSyCAQCUEXtFbAq9fmPi9tkrQUednAg161P+sOUVZlPjtv/fcxImPOXfrX/MVzekEQAMNfD93uv5ubB40rxFAwF2Bvy7y5a6lyT93665weiMzt/udP9eXd5I/uFRBx7Qx2y6n/xFcTwBk0qRH3gkCuSa9qzwtQyB9ApfrAwKe1HO4TAiUInCVHj16XO/7T8H0u3feeewt19vhfAJgAAcMqLtY7wp40XVM4kMAgU8FzLNbzptblNeTfwsXXRqTwF8X+3Kb/qRgerlLl7kjk9CORCQA5haKfN7/joIuSAIqMSKAgEi9fpefPseX6QwQwOrQjsCjutd/7YJUbPwX6fNsvmNuZW+nyU58nIgEwEi9886/P9K7Ak7Ul6lYS5zofYJAIGKBxXoo4MRZRdGbA5gQaFHgZb1w9CI975+CE0Z+EPgnTJ782IwWG+rgm4lJAIyd3hXwoJ4KOMNBR0JCAIFWBMzG/ycfF2UZqXsrQtl9+1295P/MT3wxV/4nfdLhfs+eNOnxR5LUjkQlAAZ20qTH/qgXVl6eJGRiRSDrAu/qVd1naBKQhi/6rPelrfbP1FNDJ83WxNBcMJLwSS9U//WkSY9en7RmJC4BMMB6b+VF+sCgvyQNm3gRyLLAq3pB4EXzUvFktyx3o5W2m3v8f6LXh+jNImmYbp40acwlSWxIIhMAhQ4mTHjsZM/zeF5AEtc6Ys6swKN6HmAUAwVltv9Nw82NIafrQD/TU3E4yLth4sTdTtFmJfIwRlITALMeaRLw6M/1vMtZScU3jWBCIGsCf9Nbvf6+JJHfl1nrKuvtNUf7z9WLQlLwhD9tiXepXpd2psjIxF7dkuQEoGnlNOdd9HTAD/UPfXYAEwIIJEHgKj32+1AKnvOeBGtXYjQp38j5vjyd8AGidHj6Ot3//J5u/Ee6YltuHIlPAEzD9XTA37VThpuX5UKwHAIIxCdgNga/0OsBXlxpXjFlQeD3eurn/qWJ3Vlu6iLdzkzRO9H30OvQ7khDn6UiATAdMWHCmImeV7e7vnT64QtpWGloAwI2BAp66fRP9XDwpOSP+26DI9Vl3KMb/pv0GRHJnjzd6Nd9acKEx99Mdjs+jz41CYBp0oQJY5dPnDjmeM3SjtA/Z5j3mBBAwF0BM+z7KXo1+CxGC3S3k0JGNlaP8vxaj/YkddLtySzNVb+vh/xPMNuYpLajpbhTlQCsbqAeDRjdpUvVNuYiDX3P2Wcxr46X3whkWWBeIZAffezLwhTcD57lfmyp7W/pJf/n6BX/Cb3bT4fz9W7Qvf6t9Da/21pqX9LfS2UCYDpl/PjRK81FGp7nb6t/3qI/DeZ9JgQQcE/gQz0CcKomAToqLFNKBN7X2/zMCJAJfB5UgxlnJp/PbWWu8k/bXn/z1Su1CcDqRur5mql6WuBEz6vaXN/7gx7O0Ss4mRBAwDWBt/VagATvLbrGWdF45upRHbPxX5KsI/8rFe33uVxxM72w/KS3335kWkURY6g8H0MdTlQxb967S+bNmzqmZ8/NtYNlsg4i1F0D20R/PCcCjCCIYOdaCbbtGkHJ2S3SW1CQ3KOLswsQccs/0IOu5pTAfrWp3zeJWLJyxZvrOk6c7cuMRDwPr+nhci/qeDLXBEHDDydN+vf9c+e+v7RyevHWXBVvdZWvberUMaZzzfmc27be+pCN9H7Oo/SowP769z7600N/mBBAoIIC9+r4AAOqfTm1N0lABbuhrKrNtZxn6cN9pjg8yp9+3y/Ri/r+oxv9p3K5/AMTJoz+sKzGpmChzCUAzftMBxH6QP++zvzsu+++VXPndh2uTxvcQ1eQLTUx0B9Pf2T95svwGgEEohe4Ue8Z75335Ls9UnuALnrEmGvwdeN/nj7Wd9xKd47763e5uYJf792Xd3WDP1kP74+bMKHHeJF7Enpdot1O5b+rHc/hww/vWl9f1CMDxW7FYlXPfF56+H4hEadOin/e9EfBZp2/3U4T+bgUgWXF96qOmnxqKYswb3kCXfO53OghVb8cVCVfKa8ElopT4JU6+dMPZjXcH2edzevK5aqKxaIszecLS0Tyyzt3zi81F4M3n4fXawuQAKztkaq/tph19hUmKU9VoyrcGP2HGf/u4Gu+VOEwMlN9cPTRXaS+/gltMEmA271+pTd69Pluh0h06wpwkm1dEf5GAAFnBLx77qmTqqojNaDJzgRFIOsK3CWjR1+w7pv87b4ACYD7fUSECGRawHvggQVSKBwonjcz0xBuNv5p7Zsf6pExPdjIlDQBEoCk9RjxIpBBAW/MmJmaAByiTeceTFf63/PGa598XfuG0VZd6ZMS4yABKBGM2RFAoDIC3oMPvi1BcJTWzganMl3QvNbpuud/mPfQQ8uav8nrZAmQACSrv4gWgUwLeA8/PFb3On+gCO7ca5a9HpmvfXCw9+ijc7LX9HS1mAQgXf1JaxBIvYDudd6tG6Cfp76hbjZwpR6FOUL7wNxbz5RwARKAhHcg4SOQRQHdAI3SJOCaLLa9gm02g+ccq0dhxlUwBqq2KEACYBGTohBAIEaBhx76mdZ2e4w1ZrmqQBOuk/Ve/wezjJC2tpMApK1HaQ8CGRFouvVs0KATtblmoCCmaAUu1qMut0RbBaXHLUACELc49SGAgDUB7+abG/Vq9G9pga9bK5SC1hW4Sff8L1v3Tf5OvgAJQPL7kBYgkGkBvQ99qVRXH6oIMzINEU3jR0vnzqdFUzSlVlqABKDSPUD9CCAQWsC7//6P9Rz1gVrQ3NCFUcBqgZf1xXd0OGaenLdaJGW/SQBS1qE0B4GsCug56ql6i9rh2v4VWTWw2O6J0tBwiB7652l6FlFdK4oEwLUeIR4EEChbQG9Re0WPBJhHYBfKLoQFZ0uxeIj3+OMLoUi3AAlAuvuX1iGQOQE9EvCINvqUzDXcToOX6lGUQ3SUvw/sFEcpLguQALjcO8SGAAJlCeih67/okYBLy1o4uws1SC73TT2K8mZ2CbLVchKAbPU3rUUgMwJ6JGCkJgE3ZqbB4Rrqq9Xx+sClJ8MVw9JJEiABSFJvESsCCJQmUFNzpm7YHihtoQzO7Xlna8J0TwZbnukmkwBkuvtpPALpFmi6ha2m5jht5Qvpbmmo1l2hG//rQ5XAwokUIAFIZLcRNAIIdFRAk4A6qao6Uuef3NFlMjTfP2T06Asz1F6a2kyABKAZBi8RQCCdAt4DDyzQIYMP1NMBM9PZwrJa9bSO8vfDpmcqlLU4CyVdgAQg6T1I/Agg0CEBHTJ4piYAh+jMizu0QJpn8rzxuvE/Uo+ONKS5mbStbQESgLZ9+BQBBFIkoFe5v633uR+lTVqVomaV2pRpejTkMN34Ly91QeZPlwAJQLr6k9YggEA7Anqf+1g9EvADnc1vZ9Y0fjzfHAXRgX7mpLFxtKk0ARKA0ryYGwEEUiCgV73frUcC/icFTSmlCSu1zUdo26eUshDzpleABCC9fUvLEECgDQE9EnCj7g1f08YsafrIPNHvWG3zuDQ1iraEEyABCOfH0gggkGSBhx76mSYBtyW5CR2IPdA2nqzDIz/YgXmZJUMCJAAZ6myaigACaws03QI3cOCP9N1/r/1Jqv66WA/735KqFtEYKwIkAFYYKQQBBJIq4N18c6PuIX9L4389qW1oI+6bdM//sjY+56MMC5AAZLjzaToCCHwqoHvIy6S6+lD9a0ZqTILgIb3X/7TUtIeGWBcgAbBOSoEIIJBEAe/++z/WIwEHauxzkxj/OjG/pG35btOzENb5gD8RWC1AArBagt8IIJB5AT0SMFVvlTtcIVYkGGOiNDQcqof+Vya4DYQegwAJQAzIlarCDzI50Emk3AGmkfq6ULjeKveK7j1/W2MpuBBPiTHMlmLxEO/xxxeWuByzZ1CABCDFna5XOCd5L8bNnvFkqZuBEZVNAT0S8IiWd4rNMmMoa6kevTCj/H0QQ11UkQIBEoAUdGJrTQi8gOE+W8Mp//1Pyl+UJZMkoIfQ/6JHAi5NSMwNuvH/hh69eDMh8RKmAwIkAA50QlQh5LwcQ37axg14prxtUpfL0yMBIzUJuNHlGDU2X2M8Xjf+TzkeJ+E5JkAC4FiH2AxnuSz7r5aX5aee2eRsKktPq7xovVAKdFugpuZM3cA+4GyQnne2Jir3OBsfgTkrQALgbNeED2z2+jebq4CfD18SJXwmsGJlEJAAZGx1aLqVrqbmOG32Cw42/Qrd+F/vYFyElAABEoAEdFKoEAO5I9TyLLxGIPDkvplDrq1b8wYvMiOgSUCdVFUdqQ2e7FCj/yGjR1/oUDyEkjABEoCEdVip4a7ILf+XLpOGgU1Kbbr1+fUWwJusF0qBiRHwHnhggRQKZqCgjxwI+mkd5e+HekoqcCAWQkioAAlAQjuuo2F/ehoguLqj8zNfywJBEIx5f/A1HP5vmScz73pjxswU3z9EG7y4Yo32vPG68T9Sj0o0VCwGKk6FAAlAKrqx7UZ0WtzTnCOc1PZcfNqGwKoq8c5q43M+ypCA98gj7+gtd0dpkytxge00rfdQ3fgvzxA5TY1IgAQgIliXip2wzcgG3/NO0Jgq8YXlEkV5sXjeeZM3uObd8hZmqTQK6C13YzUJ+L62zY+xffN1lL+D9aI/xqKIET3NVZEApLl3m7Xt/fVHjdfThWZkM84ZNnNp76UXBLe/N2jUDe3Nx+fZE9Ak4J96e+DZMbV8idZ1sI7yRyIaE3gWqiEByEIvf9bG9wZfe6sXyM/0T5KADvS7XmD1YPc5K04UD68OcGVylqZb8PQIUcT/U0v0aIPZ838tk8g0OjIB/Y5jyprAFjN/+v3A8/6s7e6ctbZ3tL2eeH9cf/3uZ471RibxgTAdbSbzWRIIDjvs27qHfosW19VSkauLeV9fHKnDEk9Y/Qa/EbAlQAJgSzJh5Ww+86wd9Qvr7yLe9gkLPepw5+sO/xnvDr727qgrovx0CQRHHLGZ7qn/VVu1t4WWmaN0d+gdB2fqRYeLLJRHEQh8QYBTAF8gycYb721w3RuD1+85XDPA07XFLtzXXGn4FZ4XXNvJD7Zk41/prkhm/XqIfqoMH76fJtbmgtupIVrxb00kdte9/u+x8Q+hyKLtCnAEoF2i9M+wzYSRnRp6Lz1c/OBY/fLaX1vcK/2tbmqhPkFNxumG/95c0HDX5A1uXJCRdtPMiAWCkSNzMn78V/X/6TjdmI/Q6ga2U6W5tfBR/fmbbvS5ZbcdLD62I0ACYMcxPaUER+c3m7PBVl7gbaXnwfv6QdA7PY0T0UNey31PluQ8b0pnz5v41sCrV6SpfbTFPQE9lu/J178+VG/h21oTgvU1wl66oW/U10v09XRpbHxHBxia517kRIQAAggggAACCCCAAAIIIIAAAggggAACCCCAAAIIIIAAAggggAACCCCAAAIIIIAAAggggAACCCCAAAIIIIAAAggggAACCCCAAAIIIIAAAgggEJfA/wcLy0BZMEWW5wAAAABJRU5ErkJggg==;" vertex="1" parent="1">
          <mxGeometry x="280" y="720" width="120" height="120" as="geometry" />
        </mxCell>
        <mxCell id="uXY3sr2Ql3OhQ5Kgx3GS-21" value="&lt;b&gt;Prediction&lt;br&gt;APIs&lt;br&gt;&lt;/b&gt;" style="text;html=1;align=center;verticalAlign=middle;resizable=0;points=[];autosize=1;strokeColor=none;fillColor=none;" vertex="1" parent="1">
          <mxGeometry x="300" y="840" width="80" height="40" as="geometry" />
        </mxCell>
        <mxCell id="uXY3sr2Ql3OhQ5Kgx3GS-28" value="&lt;b&gt;Model Input&lt;/b&gt;" style="text;html=1;align=center;verticalAlign=middle;resizable=0;points=[];autosize=1;strokeColor=none;fillColor=none;" vertex="1" parent="1">
          <mxGeometry x="415" y="780" width="90" height="30" as="geometry" />
        </mxCell>
        <mxCell id="uXY3sr2Ql3OhQ5Kgx3GS-29" value="&lt;b&gt;Model Output&lt;/b&gt;" style="text;html=1;align=center;verticalAlign=middle;resizable=0;points=[];autosize=1;strokeColor=none;fillColor=none;" vertex="1" parent="1">
          <mxGeometry x="410" y="720" width="100" height="30" as="geometry" />
        </mxCell>
        <mxCell id="uXY3sr2Ql3OhQ5Kgx3GS-30" value="&lt;b&gt;Readings&lt;/b&gt;" style="text;html=1;align=center;verticalAlign=middle;resizable=0;points=[];autosize=1;strokeColor=none;fillColor=none;" vertex="1" parent="1">
          <mxGeometry x="370" y="648" width="80" height="30" as="geometry" />
        </mxCell>
        <mxCell id="uXY3sr2Ql3OhQ5Kgx3GS-31" value="&lt;b&gt;Prediction&lt;/b&gt;" style="text;html=1;align=center;verticalAlign=middle;resizable=0;points=[];autosize=1;strokeColor=none;fillColor=none;" vertex="1" parent="1">
          <mxGeometry x="230" y="648" width="80" height="30" as="geometry" />
        </mxCell>
        <mxCell id="uXY3sr2Ql3OhQ5Kgx3GS-32" value="&lt;b&gt;21BDS0340&lt;br&gt;Abhinav Dinesh Srivatsa&lt;br&gt;&lt;/b&gt;" style="text;html=1;align=center;verticalAlign=middle;resizable=0;points=[];autosize=1;strokeColor=none;fillColor=none;" vertex="1" parent="1">
          <mxGeometry x="505" y="643" width="160" height="40" as="geometry" />
        </mxCell>
      </root>
    </mxGraphModel>
  </diagram>
</mxfile>
